<svg width="165" height="141" viewBox="0 0 165 141" fill="none" xmlns="http://www.w3.org/2000/svg">
<path d="M84.2159 113.639C110.019 113.639 130.99 92.6677 130.99 66.8646C130.99 41.0616 110.019 20.0906 84.2159 20.0906C58.3163 20.0906 37.4419 40.9649 37.4419 66.8646C37.4419 92.6677 58.3163 113.639 84.2159 113.639Z" fill="#2A2E37"/>
<path d="M54.7842 54.0785H111.325C113.442 54.0785 115.348 55.8785 115.348 58.102V93.7839C115.348 95.9015 113.548 97.8074 111.325 97.8074H54.7842C52.6666 97.8074 50.7607 96.0074 50.7607 93.7839V58.102C50.7607 55.8785 52.6666 54.0785 54.7842 54.0785Z" fill="#474E61"/>
<path d="M138.625 55.1711C140.074 53.8181 140.171 51.5954 138.818 50.1458C137.465 48.6962 135.242 48.5995 133.793 49.9525C132.343 51.3055 132.246 53.5282 133.599 54.9778C134.856 56.3308 137.175 56.5241 138.625 55.1711Z" fill="#2A2E37"/>
<path d="M138.818 39.2253C139.398 38.6455 139.494 37.6791 138.915 37.0992C138.335 36.5194 137.368 36.4228 136.788 37.0026C136.209 37.5824 136.112 38.5489 136.692 39.1287C137.272 39.8052 138.238 39.8052 138.818 39.2253Z" fill="#2A2E37"/>
<path d="M100.838 17.2879C101.224 16.9014 101.321 16.2249 100.934 15.8383C100.548 15.4518 99.8714 15.3551 99.4848 15.7417C99.0983 16.1283 99.0016 16.8047 99.3882 17.1913C99.7747 17.5779 100.451 17.6745 100.838 17.2879Z" fill="#2A2E37"/>
<g filter="url(#filter0_d)">
<path d="M135.889 35.2316L121.807 60.3255C121.278 61.1725 120.219 61.4902 119.478 60.9608L95.337 46.8786C94.4899 46.3492 94.1723 45.2903 94.7017 44.5492L113.231 12.5731C113.76 11.726 114.819 11.4084 115.56 11.9378L133.031 22.1024L135.889 35.2316Z" fill="#5C6479"/>
</g>
<path d="M133.03 22.1024L129.007 28.8788C128.478 29.9376 128.795 30.9964 129.748 31.6317L135.783 35.1258" fill="#474E61"/>
<path d="M116.407 28.667C116.831 28.5612 117.254 28.5612 117.572 28.5612C117.996 28.5612 118.419 28.5612 118.843 28.5612C119.266 28.667 119.796 28.7729 120.219 28.8788C120.749 29.0906 121.172 29.3023 121.596 29.5141C122.231 29.8317 122.76 30.2553 123.184 30.7847C123.607 31.2082 123.925 31.7376 124.137 32.3729C124.349 32.9023 124.349 33.5376 124.349 34.067C124.243 34.7023 124.031 35.3376 123.713 35.867C123.396 36.3964 123.078 36.8199 122.654 37.2434C122.231 37.5611 121.913 37.7728 121.384 37.9846C120.96 38.1963 120.537 38.3022 120.113 38.3022L118.949 38.4081C118.631 38.4081 118.313 38.514 117.89 38.6199C117.572 38.7257 117.36 38.8316 117.149 39.0434L115.984 40.5257L114.078 39.4669L114.925 37.5611C115.031 37.2434 115.349 36.9258 115.56 36.714C115.878 36.5022 116.196 36.3964 116.513 36.2905C116.937 36.1846 117.254 36.1846 117.678 36.0787C118.102 36.0787 118.525 35.9728 118.949 35.867C119.372 35.7611 119.69 35.6552 120.113 35.4434C120.537 35.2317 120.749 34.914 120.96 34.4905C121.066 34.2787 121.172 33.9611 121.278 33.6435C121.278 33.3258 121.278 33.114 121.172 32.9023C121.066 32.5846 120.96 32.3729 120.749 32.1611C120.537 31.9494 120.325 31.7376 120.007 31.5258C119.69 31.3141 119.266 31.1023 118.843 30.9964C118.525 30.8905 118.207 30.8905 117.89 30.8905C117.572 30.8905 117.36 30.8905 117.149 30.8905C117.043 30.8905 116.831 30.8905 116.725 30.7847C116.513 30.6788 116.302 30.3611 116.302 30.1494L116.407 28.667ZM111.007 42.6434C111.113 42.4316 111.325 42.2198 111.537 42.0081C111.749 41.9022 111.96 41.6904 112.172 41.6904C112.702 41.5845 113.231 41.5845 113.655 41.9022C113.866 42.0081 114.078 42.2198 114.29 42.4316C114.396 42.6434 114.502 42.8551 114.607 43.0669C114.925 44.1257 114.29 45.0786 113.231 45.3963C112.702 45.5021 112.172 45.3963 111.749 45.1845C111.537 45.0786 111.325 44.8669 111.113 44.6551C111.007 44.4433 110.796 44.2316 110.796 44.0198C110.69 43.808 110.69 43.4904 110.796 43.2786C110.796 43.0669 110.902 42.8551 111.007 42.6434Z" fill="#A9AFC3"/>
<g filter="url(#filter1_d)">
<path d="M45.3609 24.3258L61.4549 41.1609C61.9843 41.7962 61.9843 42.6433 61.349 43.1727L44.9374 58.7372C44.3021 59.2666 43.4551 59.2666 42.9257 58.6313L22.3847 36.9257C21.8553 36.2904 21.8553 35.4434 22.4906 34.914L34.4552 23.6906L45.3609 24.3258Z" fill="#5C6479"/>
</g>
<path d="M34.3491 23.4788L38.7961 28.1375C39.4314 28.7728 40.4902 28.7728 41.1255 28.1375L45.2549 24.2199" fill="#474E61"/>
<path d="M35.6196 37.9845C35.6196 37.6669 35.7255 37.3492 35.8314 37.0316C35.9373 36.7139 36.0432 36.3963 36.149 36.0787C36.2549 35.761 36.4667 35.4434 36.6784 35.1257C36.8902 34.8081 37.2078 34.4904 37.5255 34.1728C37.949 33.7493 38.3725 33.4316 38.9019 33.2199C39.3255 33.0081 39.8549 32.9022 40.2784 32.9022C40.7019 32.9022 41.2313 33.0081 41.6549 33.114C42.0784 33.3257 42.5019 33.6434 42.9254 33.961C43.2431 34.2787 43.5607 34.7022 43.6666 35.1257C43.7725 35.4434 43.8784 35.8669 43.9842 36.2904C43.9842 36.6081 43.9842 37.0316 43.9842 37.3492C43.8784 37.6669 43.8784 37.9845 43.7725 38.3022C43.7725 38.6198 43.6666 38.8316 43.6666 39.1492C43.6666 39.361 43.6666 39.5727 43.8784 39.7845L44.7254 41.0551L43.4548 42.2198L42.1843 41.0551C41.9725 40.8433 41.7607 40.6315 41.6549 40.3139C41.549 39.9963 41.549 39.7845 41.549 39.4669C41.549 39.1492 41.6549 38.8316 41.6549 38.5139C41.7607 38.1963 41.7607 37.8786 41.7607 37.561C41.7607 37.2433 41.7607 36.9257 41.6549 36.6081C41.549 36.2904 41.3372 35.9728 41.1255 35.6551C41.0196 35.4434 40.8078 35.3375 40.596 35.2316C40.3843 35.1257 40.1725 35.1257 39.9608 35.1257C39.749 35.1257 39.5372 35.2316 39.3255 35.3375C39.1137 35.4434 38.9019 35.5492 38.6902 35.761C38.4784 35.9728 38.2667 36.2904 38.0549 36.5022C37.949 36.7139 37.8431 36.9257 37.7373 37.2433C37.6314 37.4551 37.6314 37.6669 37.6314 37.7728C37.6314 37.8786 37.5255 37.9845 37.4196 38.0904C37.3137 38.3022 36.9961 38.3022 36.7843 38.1963L35.6196 37.9845ZM45.3607 45.3962C45.2548 45.2903 45.1489 45.0786 45.0431 44.8668C44.9372 44.655 44.9372 44.4433 44.9372 44.2315C44.9372 43.808 45.1489 43.3845 45.4666 43.0668C45.5725 42.9609 45.7842 42.8551 45.996 42.7492C46.2077 42.6433 46.4195 42.6433 46.6313 42.6433C47.2666 42.6433 47.9018 43.0668 48.1136 43.7021C48.2195 43.9139 48.2195 44.1256 48.2195 44.3374C48.2195 44.5491 48.1136 44.7609 48.1136 44.9727C48.0077 45.1844 47.9018 45.2903 47.6901 45.5021C47.5842 45.608 47.3724 45.8197 47.1607 45.8197C46.7372 45.9256 46.3136 45.9256 45.996 45.8197C45.6783 45.7138 45.4666 45.608 45.3607 45.3962Z" fill="#A9AFC3"/>
<g filter="url(#filter2_d)">
<path d="M87.3958 50.7962L81.1488 73.1371C80.937 73.8783 80.09 74.4077 79.3488 74.0901L57.6432 67.7372C56.902 67.5254 56.3726 66.6784 56.6902 65.9372L65.1607 37.1375C65.3725 36.3964 66.2195 35.867 66.9607 36.1846L82.737 40.8434L87.3958 50.7962Z" fill="#5C6479"/>
</g>
<path d="M82.7392 40.8826L80.7254 47.1963C80.5136 48.0433 81.043 48.9962 81.8901 49.208L87.4745 50.786" fill="#474E61"/>
<path d="M70.7722 49.4197C71.0899 49.3138 71.4075 49.2079 71.7252 49.102C72.0428 48.9961 72.3604 48.8903 72.784 48.8903C73.2075 48.8903 73.5251 48.8903 73.9487 48.8903C74.3722 48.8903 74.7957 48.9961 75.2192 49.102C75.7486 49.2079 76.278 49.5255 76.7016 49.8432C77.1251 50.1608 77.4427 50.4785 77.7604 50.902C77.9721 51.3255 78.1839 51.7491 78.2898 52.1726C78.3957 52.702 78.2898 53.2314 78.1839 53.6549C78.078 54.0784 77.8663 54.502 77.5486 54.9255C77.3369 55.2431 77.0192 55.5608 76.7016 55.7725C76.3839 55.9843 76.0663 56.1961 75.7486 56.3019L74.7957 56.6196C74.5839 56.7255 74.2663 56.8313 74.0545 56.9372C73.8428 57.0431 73.631 57.2549 73.631 57.4666L72.9957 58.8431L71.3016 58.1019L71.6193 56.4078C71.6193 56.0902 71.831 55.8784 72.0428 55.6667C72.2546 55.4549 72.4663 55.2431 72.784 55.1372C73.1016 55.0314 73.4193 54.9255 73.631 54.8196C73.9487 54.7137 74.2663 54.6078 74.5839 54.3961C74.9016 54.2902 75.1134 54.0784 75.431 53.8667C75.6428 53.6549 75.8545 53.3373 75.9604 52.9137C75.9604 52.8079 75.9604 52.5961 75.9604 52.3843C75.9604 52.1726 75.8545 51.9608 75.7486 51.7491C75.6428 51.5373 75.431 51.4314 75.2192 51.2196C75.0075 51.1138 74.7957 51.0079 74.4781 50.902C74.1604 50.7961 73.8428 50.7961 73.4193 50.7961C73.2075 50.7961 72.8898 50.7961 72.6781 50.902C72.4663 50.902 72.2546 51.0079 72.1487 51.0079C72.0428 51.0079 71.9369 51.1138 71.7252 51.0079C71.5134 51.0079 71.3016 50.7961 71.3016 50.5844L70.7722 49.4197ZM69.184 61.596C69.2899 61.3842 69.2899 61.1725 69.5017 61.0666C69.6075 60.8548 69.8193 60.749 69.9252 60.6431C70.3487 60.4313 70.7722 60.4313 71.0899 60.5372C71.3016 60.6431 71.5134 60.7489 71.6193 60.8548C71.7252 60.9607 71.9369 61.1725 72.0428 61.2784C72.4663 62.0195 72.1487 62.9725 71.4075 63.2901C70.984 63.5019 70.5605 63.5019 70.2428 63.396C70.0311 63.2901 69.8193 63.2901 69.7134 63.0783C69.5016 62.9725 69.3958 62.7607 69.2899 62.6548C69.184 62.443 69.184 62.3372 69.0781 62.1254C69.184 62.0195 69.184 61.8078 69.184 61.596Z" fill="#A9AFC3"/>
<g filter="url(#filter3_d)">
<path d="M138.431 89.0193L117.89 100.137C117.254 100.454 116.301 100.243 115.984 99.5015L105.713 79.49C105.396 78.8547 105.607 77.9018 106.349 77.5841L133.031 63.5019C133.666 63.1843 134.619 63.3961 134.936 64.1372L142.348 78.643L138.431 89.0193Z" fill="#5C6479"/>
</g>
<path d="M142.242 78.8547L136.524 81.8194C135.783 82.2429 135.466 83.3017 135.783 84.0429L138.324 89.1252" fill="#474E61"/>
<path d="M128.054 76.1018C128.372 76.2077 128.584 76.4195 128.901 76.5253C129.219 76.6312 129.431 76.843 129.748 77.1606C130.066 77.4783 130.278 77.69 130.489 78.0077C130.807 78.3253 131.019 78.643 131.231 79.0665C131.548 79.49 131.654 80.1253 131.654 80.5488C131.76 81.0782 131.654 81.5017 131.654 82.0312C131.548 82.4547 131.336 82.8782 131.125 83.3017C130.807 83.7253 130.384 84.0429 129.96 84.2547C129.642 84.4664 129.113 84.5723 128.689 84.6782C128.372 84.7841 127.842 84.7841 127.525 84.6782C127.207 84.5723 126.784 84.5723 126.466 84.3605L125.619 83.937C125.407 83.8311 125.089 83.7252 124.878 83.6194C124.666 83.5135 124.348 83.5135 124.242 83.7252L122.866 84.2547L122.125 82.6664L123.501 81.7135C123.713 81.5017 124.031 81.5017 124.348 81.5017C124.666 81.5017 124.878 81.5017 125.195 81.6076C125.513 81.7135 125.725 81.9253 125.936 82.0312C126.254 82.137 126.466 82.3488 126.889 82.4547C127.207 82.5606 127.419 82.5606 127.842 82.6664C128.16 82.6664 128.478 82.5606 128.901 82.3488C129.219 82.137 129.642 81.8194 129.642 81.29C129.748 81.0782 129.642 80.8665 129.642 80.5488C129.536 80.3371 129.536 80.1253 129.325 79.8076C129.219 79.49 129.007 79.2782 128.795 78.9606C128.689 78.8547 128.478 78.643 128.266 78.5371C128.16 78.4312 127.948 78.3253 127.842 78.2194C127.736 78.1135 127.631 78.1135 127.525 77.9018C127.419 77.7959 127.419 77.4783 127.525 77.3724L128.054 76.1018ZM118.207 83.4076C118.419 83.3017 118.525 83.1958 118.842 83.3017C119.054 83.1958 119.266 83.3017 119.372 83.3017C119.795 83.4076 120.113 83.7253 120.219 84.0429C120.325 84.2547 120.325 84.4664 120.325 84.6782C120.325 84.7841 120.325 85.1017 120.325 85.2076C120.219 85.5252 119.901 85.9488 119.584 86.0546C119.372 86.1605 119.16 86.1605 118.948 86.1605C118.842 86.1605 118.525 86.1605 118.419 86.1605C117.995 86.0546 117.678 85.737 117.572 85.4194C117.466 85.2076 117.466 84.9958 117.466 84.7841C117.36 84.5723 117.466 84.3605 117.466 84.2547C117.572 84.0429 117.678 83.937 117.678 83.7252C117.784 83.6194 118.101 83.6194 118.207 83.4076Z" fill="#A9AFC3"/>
<path d="M116.407 77.0547V94.631C116.407 96.8545 114.501 98.7604 112.278 98.7604H54.1489C51.9254 98.7604 50.0195 96.8545 50.0195 94.631V75.5724" stroke="#1676EE" stroke-width="3" stroke-linecap="round" stroke-linejoin="round"/>
<path d="M114.184 65.7255H94.278C92.3722 65.7255 90.4663 66.3608 88.984 67.6313L83.6899 71.8666C82.2076 73.0313 80.3017 73.7724 78.3958 73.7724H55.7373C53.5138 73.7724 51.6079 75.5724 51.6079 77.9018C51.6079 78.1136 51.6079 78.3253 51.7138 78.5371L55.8432 100.243C56.1608 102.254 57.9608 103.843 59.9725 103.843H108.36C110.478 103.843 112.172 102.36 112.49 100.349L118.313 70.4901C118.631 68.2666 117.148 66.149 114.819 65.8313C114.607 65.7255 114.395 65.7255 114.184 65.7255Z" fill="white"/>
<g filter="url(#filter4_d)">
<path d="M119.69 61.8079H95.9722C93.7487 61.8079 91.4193 62.6549 89.7252 64.0314L83.3724 69.2195C81.5724 70.7019 79.3489 71.443 77.1254 71.443H49.9139C47.2669 71.443 44.9375 73.5607 44.9375 76.4195C44.9375 76.6312 44.9375 76.9489 45.0434 77.1606L50.0198 103.525C50.4433 105.96 52.4551 107.866 54.9962 107.866H112.701C115.137 107.866 117.254 106.066 117.678 103.631L124.56 67.5254C124.984 64.8784 123.184 62.2314 120.431 61.8079C120.219 61.8079 119.901 61.8079 119.69 61.8079Z" fill="url(#paint0_linear)"/>
</g>
<path d="M73.9489 89.5487C75.3253 89.5487 76.49 88.384 76.49 87.0076C76.49 85.6311 75.3253 84.4664 73.9489 84.4664C72.5724 84.4664 71.4077 85.6311 71.4077 87.0076C71.4077 88.384 72.5724 89.5487 73.9489 89.5487Z" fill="#A9AFC4"/>
<path d="M93.7487 89.1251C95.1251 89.1251 96.2898 87.9605 96.2898 86.584C96.2898 85.2075 95.1251 84.0428 93.7487 84.0428C92.3722 84.0428 91.2075 85.2075 91.2075 86.584C91.2075 87.9605 92.3722 89.1251 93.7487 89.1251Z" fill="#A9AFC4"/>
<path d="M89.1957 93.3604H87.8193C86.6546 91.031 83.7958 90.0781 81.5723 91.3487C80.6193 91.7722 79.8782 92.6192 79.5605 93.3604H78.1841C79.3488 90.2899 82.8429 88.7016 85.8075 89.8663C87.3957 90.5016 88.5604 91.7722 89.1957 93.3604Z" fill="#A9AFC4"/>
<path d="M129.325 116.443C128.16 116.443 128.584 116.548 119.584 107.548C110.902 114.007 98.8311 107.76 98.8311 97.1721C98.8311 90.0781 104.655 84.2546 111.749 84.2546C122.019 84.2546 128.372 95.7957 122.337 104.584L130.701 112.948C132.078 114.219 131.231 116.443 129.325 116.443ZM111.854 88.384C106.984 88.384 102.96 92.3016 102.96 97.278C102.96 102.254 106.878 106.172 111.854 106.172C112.384 106.172 112.913 106.172 113.443 106.066C113.972 105.96 114.501 105.854 114.925 105.643C115.454 105.431 115.878 105.219 116.301 105.007C116.831 104.69 117.254 104.372 117.678 103.949C117.996 103.631 118.419 103.207 118.737 102.89C119.054 102.466 119.372 102.043 119.584 101.619C119.796 101.196 120.007 100.666 120.219 100.137C120.431 99.6074 120.537 99.078 120.537 98.5486C120.537 98.1251 120.643 97.8074 120.643 97.3839C120.748 92.3016 116.725 88.384 111.854 88.384Z" fill="#A9AFC4"/>
<path d="M67.7017 82.6664L73.4192 79.5958" stroke="#989FB0" stroke-width="1.5" stroke-miterlimit="10"/>
<path d="M98.7249 81.184L93.0073 78.0076" stroke="#989FB0" stroke-width="1.5" stroke-miterlimit="10"/>
<defs>
<filter id="filter0_d" x="72.4429" y="0.678955" width="85.4468" height="93.5406" filterUnits="userSpaceOnUse" color-interpolation-filters="sRGB">
<feFlood flood-opacity="0" result="BackgroundImageFix"/>
<feColorMatrix in="SourceAlpha" type="matrix" values="0 0 0 0 0 0 0 0 0 0 0 0 0 0 0 0 0 0 127 0" result="hardAlpha"/>
<feOffset dy="11"/>
<feGaussianBlur stdDeviation="11"/>
<feColorMatrix type="matrix" values="0 0 0 0 0 0 0 0 0 0 0 0 0 0 0 0 0 0 0.27 0"/>
<feBlend mode="normal" in2="BackgroundImageFix" result="effect1_dropShadow"/>
<feBlend mode="normal" in="SourceGraphic" in2="effect1_dropShadow" result="shape"/>
</filter>
<filter id="filter1_d" x="0" y="12.6906" width="83.8394" height="79.4314" filterUnits="userSpaceOnUse" color-interpolation-filters="sRGB">
<feFlood flood-opacity="0" result="BackgroundImageFix"/>
<feColorMatrix in="SourceAlpha" type="matrix" values="0 0 0 0 0 0 0 0 0 0 0 0 0 0 0 0 0 0 127 0" result="hardAlpha"/>
<feOffset dy="11"/>
<feGaussianBlur stdDeviation="11"/>
<feColorMatrix type="matrix" values="0 0 0 0 0 0 0 0 0 0 0 0 0 0 0 0 0 0 0.27 0"/>
<feBlend mode="normal" in2="BackgroundImageFix" result="effect1_dropShadow"/>
<feBlend mode="normal" in="SourceGraphic" in2="effect1_dropShadow" result="shape"/>
</filter>
<filter id="filter2_d" x="34.5962" y="25.0906" width="74.7998" height="82.0935" filterUnits="userSpaceOnUse" color-interpolation-filters="sRGB">
<feFlood flood-opacity="0" result="BackgroundImageFix"/>
<feColorMatrix in="SourceAlpha" type="matrix" values="0 0 0 0 0 0 0 0 0 0 0 0 0 0 0 0 0 0 127 0" result="hardAlpha"/>
<feOffset dy="11"/>
<feGaussianBlur stdDeviation="11"/>
<feColorMatrix type="matrix" values="0 0 0 0 0 0 0 0 0 0 0 0 0 0 0 0 0 0 0.27 0"/>
<feBlend mode="normal" in2="BackgroundImageFix" result="effect1_dropShadow"/>
<feBlend mode="normal" in="SourceGraphic" in2="effect1_dropShadow" result="shape"/>
</filter>
<filter id="filter3_d" x="83.5703" y="52.359" width="80.7778" height="80.9208" filterUnits="userSpaceOnUse" color-interpolation-filters="sRGB">
<feFlood flood-opacity="0" result="BackgroundImageFix"/>
<feColorMatrix in="SourceAlpha" type="matrix" values="0 0 0 0 0 0 0 0 0 0 0 0 0 0 0 0 0 0 127 0" result="hardAlpha"/>
<feOffset dy="11"/>
<feGaussianBlur stdDeviation="11"/>
<feColorMatrix type="matrix" values="0 0 0 0 0 0 0 0 0 0 0 0 0 0 0 0 0 0 0.27 0"/>
<feBlend mode="normal" in2="BackgroundImageFix" result="effect1_dropShadow"/>
<feBlend mode="normal" in="SourceGraphic" in2="effect1_dropShadow" result="shape"/>
</filter>
<filter id="filter4_d" x="22.9375" y="50.8079" width="123.684" height="90.0583" filterUnits="userSpaceOnUse" color-interpolation-filters="sRGB">
<feFlood flood-opacity="0" result="BackgroundImageFix"/>
<feColorMatrix in="SourceAlpha" type="matrix" values="0 0 0 0 0 0 0 0 0 0 0 0 0 0 0 0 0 0 127 0" result="hardAlpha"/>
<feOffset dy="11"/>
<feGaussianBlur stdDeviation="11"/>
<feColorMatrix type="matrix" values="0 0 0 0 0 0 0 0 0 0 0 0 0 0 0 0 0 0 0.27 0"/>
<feBlend mode="normal" in2="BackgroundImageFix" result="effect1_dropShadow"/>
<feBlend mode="normal" in="SourceGraphic" in2="effect1_dropShadow" result="shape"/>
</filter>
<linearGradient id="paint0_linear" x1="84.7537" y1="60.7425" x2="84.7537" y2="108.363" gradientUnits="userSpaceOnUse">
<stop stop-color="#5C6479"/>
<stop offset="0.9964" stop-color="#5C6479"/>
</linearGradient>
</defs>
</svg>
