<svg width="131" height="148" viewBox="0 0 131 148" fill="none" xmlns="http://www.w3.org/2000/svg">
<path d="M122.1 69.2075C122.1 83.4075 116.3 96.2075 107 105.407C97.9002 114.507 85.3002 120.007 71.4002 120.007C57.6002 120.007 45.0002 114.407 35.8002 105.407C26.5002 96.2075 20.7002 83.4075 20.7002 69.2075C20.7002 41.1075 43.4002 18.4075 71.4002 18.4075C99.4002 18.4075 122.1 41.2075 122.1 69.2075Z" fill="#2A2E37"/>
<path d="M117.7 35.9075C119.964 35.9075 121.8 34.0719 121.8 31.8075C121.8 29.5432 119.964 27.7075 117.7 27.7075C115.436 27.7075 113.6 29.5432 113.6 31.8075C113.6 34.0719 115.436 35.9075 117.7 35.9075Z" fill="#2A2E37"/>
<path d="M123.7 19.9075C125.246 19.9075 126.5 18.6539 126.5 17.1075C126.5 15.5611 125.246 14.3075 123.7 14.3075C122.154 14.3075 120.9 15.5611 120.9 17.1075C120.9 18.6539 122.154 19.9075 123.7 19.9075Z" fill="#2A2E37"/>
<path d="M22.3 35.8075C23.8464 35.8075 25.1 34.5539 25.1 33.0075C25.1 31.4611 23.8464 30.2075 22.3 30.2075C20.7536 30.2075 19.5 31.4611 19.5 33.0075C19.5 34.5539 20.7536 35.8075 22.3 35.8075Z" fill="#2A2E37"/>
<path d="M5.2 89.8075C8.07188 89.8075 10.4 87.4794 10.4 84.6075C10.4 81.7356 8.07188 79.4075 5.2 79.4075C2.32812 79.4075 0 81.7356 0 84.6075C0 87.4794 2.32812 89.8075 5.2 89.8075Z" fill="#2A2E37"/>
<g filter="url(#filter0_d)">
<path d="M107.529 45.9184L108.329 110.318C108.329 112.518 106.529 114.218 104.329 114.218H41.5293C39.3293 114.218 37.5293 112.418 37.5293 110.318V27.5184C37.5293 25.3184 39.3293 23.6184 41.5293 23.6184H87.0293L107.529 45.9184Z" fill="url(#paint0_linear)"/>
</g>
<path d="M70.2291 37.1184H48.1291C47.4291 37.1184 46.8291 36.5184 46.8291 35.8184C46.8291 35.1184 47.4291 34.5184 48.1291 34.5184H70.2291C70.9291 34.5184 71.5291 35.1184 71.5291 35.8184C71.5291 36.5184 70.9291 37.1184 70.2291 37.1184Z" fill="#A9AFC3"/>
<path d="M59.7291 44.3184H48.1291C47.4291 44.3184 46.8291 43.7184 46.8291 43.0184C46.8291 42.3184 47.4291 41.7184 48.1291 41.7184H59.6291C60.3291 41.7184 60.9291 42.3184 60.9291 43.0184C60.9291 43.7184 60.3291 44.3184 59.7291 44.3184Z" fill="#A9AFC3"/>
<path d="M87.0293 23.6184V41.4184C87.0293 43.9184 89.2293 45.9184 91.7293 45.9184H107.529" fill="#3A4050"/>
<path d="M56.7627 36.8835L61.5144 20.1235L81.031 22.3716L74.217 33.2939L79.4949 37.5107L68.1321 62.3644L68.7652 43.1228L56.7627 36.8835Z" fill="#2A2E37"/>
<path d="M60.9799 17.6733L57.1982 11.9808" stroke="#A9AFC3" stroke-width="2"/>
<path d="M71.065 14.827L71.5093 0.407471" stroke="#A9AFC3" stroke-width="2"/>
<path d="M80.1069 17.8074L86.1436 4.70483" stroke="#A9AFC3" stroke-width="2"/>
<path d="M59.5713 89.7866C59.1513 89.7866 58.8152 89.6185 58.4792 89.3665C57.8911 88.7784 57.8911 87.7703 58.4792 87.1822C62.3437 83.4016 67.4685 81.3013 72.9293 81.3013C78.3902 81.3013 83.515 83.4016 87.3795 87.1822C87.9676 87.7703 87.9676 88.7784 87.3795 89.3665C86.7915 89.9546 85.7833 89.9546 85.1952 89.3665C81.9187 86.09 77.55 84.3257 72.9293 84.3257C68.3086 84.3257 63.94 86.09 60.6635 89.3665C60.3274 89.6185 59.9914 89.7866 59.5713 89.7866Z" fill="#A9AFC3"/>
<path d="M64.8641 67.2711L66.8804 65.2548C67.4685 64.6667 67.4685 63.6586 66.8804 63.0705C66.2923 62.4824 65.2842 62.4824 64.6961 63.0705L62.6798 65.0868L60.6635 63.0705C60.0754 62.4824 59.0672 62.4824 58.4792 63.0705C57.8911 63.6586 57.8911 64.6667 58.4792 65.2548L60.4955 67.2711L58.4792 69.2874C57.8911 69.8755 57.8911 70.8836 58.4792 71.4717C58.8152 71.8078 59.1513 71.8918 59.5713 71.8918C59.9914 71.8918 60.3274 71.7238 60.6635 71.4717L62.6798 69.4554L64.6961 71.4717C65.0322 71.8078 65.3682 71.8918 65.7883 71.8918C66.2083 71.8918 66.5444 71.7238 66.8804 71.4717C67.4685 70.8836 67.4685 69.8755 66.8804 69.2874L64.8641 67.2711Z" fill="#A9AFC3"/>
<path d="M85.2792 67.2711L87.2955 65.2548C87.8836 64.6667 87.8836 63.6586 87.2955 63.0705C86.7074 62.4824 85.6992 62.4824 85.1111 63.0705L83.0948 65.0868L81.0785 63.0705C80.4904 62.4824 79.4823 62.4824 78.8942 63.0705C78.3061 63.6586 78.3061 64.6667 78.8942 65.2548L80.9105 67.2711L78.8942 69.2874C78.3061 69.8755 78.3061 70.8836 78.8942 71.4717C79.2302 71.8078 79.5663 71.8918 79.9864 71.8918C80.4064 71.8918 80.7425 71.7238 81.0785 71.4717L83.0948 69.4554L85.1111 71.4717C85.4472 71.8078 85.7832 71.8918 86.2033 71.8918C86.6234 71.8918 86.9594 71.7238 87.2955 71.4717C87.8836 70.8836 87.8836 69.8755 87.2955 69.2874L85.2792 67.2711Z" fill="#A9AFC3"/>
<defs>
<filter id="filter0_d" x="15.5293" y="12.6184" width="114.8" height="134.6" filterUnits="userSpaceOnUse" color-interpolation-filters="sRGB">
<feFlood flood-opacity="0" result="BackgroundImageFix"/>
<feColorMatrix in="SourceAlpha" type="matrix" values="0 0 0 0 0 0 0 0 0 0 0 0 0 0 0 0 0 0 127 0" result="hardAlpha"/>
<feOffset dy="11"/>
<feGaussianBlur stdDeviation="11"/>
<feColorMatrix type="matrix" values="0 0 0 0 0 0 0 0 0 0 0 0 0 0 0 0 0 0 0.27 0"/>
<feBlend mode="normal" in2="BackgroundImageFix" result="effect1_dropShadow"/>
<feBlend mode="normal" in="SourceGraphic" in2="effect1_dropShadow" result="shape"/>
</filter>
<linearGradient id="paint0_linear" x1="72.9062" y1="21.5227" x2="72.9062" y2="115.195" gradientUnits="userSpaceOnUse">
<stop stop-color="#5C6479"/>
<stop offset="0.9964" stop-color="#5C6479"/>
</linearGradient>
</defs>
</svg>
