<svg width="122" height="124" viewBox="0 0 122 124" fill="none" xmlns="http://www.w3.org/2000/svg">
<circle cx="58.8602" cy="51.6198" r="47.8602" fill="#2A2E37"/>
<path d="M112.671 31.8698C114.935 31.8698 116.771 30.0342 116.771 27.7698C116.771 25.5054 114.935 23.6698 112.671 23.6698C110.406 23.6698 108.571 25.5054 108.571 27.7698C108.571 30.0342 110.406 31.8698 112.671 31.8698Z" fill="#2A2E37"/>
<path d="M118.671 15.8698C120.217 15.8698 121.471 14.6162 121.471 13.0698C121.471 11.5234 120.217 10.2698 118.671 10.2698C117.124 10.2698 115.871 11.5234 115.871 13.0698C115.871 14.6162 117.124 15.8698 118.671 15.8698Z" fill="#2A2E37"/>
<path d="M16.7205 11.3199C19.5924 11.3199 21.9205 8.99181 21.9205 6.11993C21.9205 3.24805 19.5924 0.919922 16.7205 0.919922C13.8486 0.919922 11.5205 3.24805 11.5205 6.11993C11.5205 8.99181 13.8486 11.3199 16.7205 11.3199Z" fill="#2A2E37"/>
<path d="M77.3684 25.5452H51.8735V15.8698H85.2933C85.3548 15.8698 85.4162 15.8698 85.4776 15.8698C90.6995 15.993 94.9384 20.3069 94.9384 25.5452H83.8804" fill="#3A4050"/>
<g filter="url(#filter0_d)">
<path d="M86.2152 15.8698C84.2493 15.993 82.4063 16.7942 81.1162 18.1499C80.9934 18.2732 80.8705 18.3965 80.7476 18.5813C79.5804 19.9371 78.7203 21.7243 78.7203 23.6347V81.1943C78.7203 86.5559 74.42 90.8698 69.0753 90.8698H22.1401V23.2034C22.263 21.2313 23.0002 19.4441 24.2903 18.1499C25.7033 16.7325 27.6077 15.8698 29.7579 15.8698H77.0002H85.9695C86.0309 15.8698 86.0924 15.8698 86.2152 15.8698Z" fill="url(#paint0_linear)"/>
</g>
<path d="M69.3825 29.0579H55.4371C54.9457 29.0579 54.5156 28.6265 54.5156 28.1335C54.5156 27.6405 54.9457 27.2091 55.4371 27.2091H69.3825C69.874 27.2091 70.304 27.6405 70.304 28.1335C70.304 28.6265 69.9354 29.0579 69.3825 29.0579Z" fill="#A9AFC3"/>
<path d="M48.8636 29.0579H30.6793C30.1878 29.0579 29.7578 28.6265 29.7578 28.1335C29.7578 27.6405 30.1878 27.2091 30.6793 27.2091H48.9251C49.4165 27.2091 49.8466 27.6405 49.8466 28.1335C49.8466 28.6265 49.4165 29.0579 48.8636 29.0579Z" fill="#A9AFC3"/>
<path d="M60.5356 38.1788H42.4127C41.9212 38.1788 41.4912 37.7474 41.4912 37.2544C41.4912 36.7613 41.9212 36.33 42.4127 36.33H60.5356C61.027 36.33 61.4571 36.7613 61.4571 37.2544C61.5185 37.7474 61.0885 38.1788 60.5356 38.1788Z" fill="#A9AFC3"/>
<path d="M36.5769 38.1788H30.6793C30.1878 38.1788 29.7578 37.7474 29.7578 37.2544C29.7578 36.7613 30.1878 36.33 30.6793 36.33H36.5769C37.0684 36.33 37.4984 36.7613 37.4984 37.2544C37.4984 37.7474 37.0684 38.1788 36.5769 38.1788Z" fill="#788095"/>
<path d="M69.3823 47.2995H58.2628C57.7713 47.2995 57.3413 46.8681 57.3413 46.3751C57.3413 45.8821 57.7713 45.4507 58.2628 45.4507H69.3823C69.8737 45.4507 70.3038 45.8821 70.3038 46.3751C70.3038 46.8681 69.9352 47.2995 69.3823 47.2995Z" fill="#788095"/>
<path d="M52.9182 47.2995H30.6793C30.1878 47.2995 29.7578 46.8681 29.7578 46.3751C29.7578 45.8821 30.1878 45.4507 30.6793 45.4507H52.9182C53.4097 45.4507 53.8397 45.8821 53.8397 46.3751C53.8397 46.8681 53.4711 47.2995 52.9182 47.2995Z" fill="#A9AFC3"/>
<path d="M60.5359 56.4202H48.3107C47.8192 56.4202 47.3892 55.9888 47.3892 55.4958C47.3892 55.0028 47.8192 54.5714 48.3107 54.5714H60.5359C61.0274 54.5714 61.4574 55.0028 61.4574 55.4958C61.5189 55.9888 61.0888 56.4202 60.5359 56.4202Z" fill="#A9AFC3"/>
<path d="M42.966 56.4202H30.6793C30.1878 56.4202 29.7578 55.9888 29.7578 55.4958C29.7578 55.0028 30.1878 54.5714 30.6793 54.5714H43.0274C43.5189 54.5714 43.9489 55.0028 43.9489 55.4958C43.9489 55.9888 43.5189 56.4202 42.966 56.4202Z" fill="#788095"/>
<path d="M69.3821 65.5411H60.8429C60.3514 65.5411 59.9214 65.1097 59.9214 64.6167C59.9214 64.1237 60.3514 63.6923 60.8429 63.6923H69.3821C69.8736 63.6923 70.3036 64.1237 70.3036 64.6167C70.3036 65.1097 69.935 65.5411 69.3821 65.5411Z" fill="#A9AFC3"/>
<path d="M55.3141 65.5411H41.0001C40.5086 65.5411 40.0786 65.1097 40.0786 64.6167C40.0786 64.1237 40.5086 63.6923 41.0001 63.6923H55.3141C55.8056 63.6923 56.2356 64.1237 56.2356 64.6167C56.2356 65.1097 55.8056 65.5411 55.3141 65.5411Z" fill="#788095"/>
<path d="M35.6554 65.5411H30.6793C30.1878 65.5411 29.7578 65.1097 29.7578 64.6167C29.7578 64.1237 30.1878 63.6923 30.6793 63.6923H35.6554C36.1469 63.6923 36.5769 64.1237 36.5769 64.6167C36.5769 65.1097 36.1469 65.5411 35.6554 65.5411Z" fill="#A9AFC3"/>
<path d="M60.536 74.6618H52.0582C51.5668 74.6618 51.1367 74.2304 51.1367 73.7374C51.1367 73.2444 51.5668 72.813 52.0582 72.813H60.536C61.0275 72.813 61.4575 73.2444 61.4575 73.7374C61.519 74.2304 61.0889 74.6618 60.536 74.6618Z" fill="#A9AFC3"/>
<path d="M46.4677 74.6618H30.6793C30.1878 74.6618 29.7578 74.2304 29.7578 73.7374C29.7578 73.2444 30.1878 72.813 30.6793 72.813H46.4677C46.9592 72.813 47.3892 73.2444 47.3892 73.7374C47.3892 74.2304 46.9592 74.6618 46.4677 74.6618Z" fill="#788095"/>
<path d="M48.4334 83.228H60.843C60.843 85.3233 61.7031 87.2338 63.0546 88.5896C64.4061 90.007 66.3106 90.8082 68.3993 90.8082H12.5563C10.4676 90.8082 8.56314 89.9454 7.2116 88.5896C5.86007 87.2338 5 85.3233 5 83.228H41.7372C41.7372 83.228 48.5563 83.2897 48.4334 83.228Z" fill="#3A4050"/>
<path d="M101.708 77.3261L93.9517 69.5756L95.7299 67.7974L103.48 75.554L101.708 77.3261Z" fill="#858B9B"/>
<path d="M104.405 80.0531L98.457 74.1053C97.9603 73.6086 97.9603 72.7992 98.457 72.3026C98.9536 71.8059 99.763 71.8059 100.26 72.3026L106.207 78.2503C106.704 78.747 106.704 79.5564 106.207 80.0531C105.711 80.5497 104.901 80.5497 104.405 80.0531Z" fill="#858B9B"/>
<path d="M103.982 80.4333L96.3292 72.7809C96.1513 72.603 96.1513 72.3148 96.3292 72.1309L98.2852 70.1749C98.463 69.997 98.7512 69.997 98.9352 70.1749L106.588 77.8273C106.765 78.0051 106.765 78.2933 106.588 78.4772L104.632 80.4333C104.448 80.6111 104.159 80.6111 103.982 80.4333Z" fill="url(#paint1_linear)"/>
<path d="M85.1709 44.601C77.0525 44.601 70.4731 51.1803 70.4731 59.2987C70.4731 67.411 77.0525 73.9965 85.1648 73.9965C93.2832 73.9965 99.8626 67.4171 99.8626 59.2987C99.8626 51.1803 93.2832 44.601 85.1709 44.601ZM85.1709 71.274C78.6529 71.274 73.3735 65.9087 73.3735 59.2926C73.3735 52.6764 78.6529 47.3173 85.1709 47.3173C91.689 47.3173 96.9684 52.6826 96.9684 59.2987C96.9684 65.9149 91.6828 71.274 85.1709 71.274Z" fill="url(#paint2_linear)"/>
<defs>
<filter id="filter0_d" x="0.140137" y="4.86975" width="108.075" height="119" filterUnits="userSpaceOnUse" color-interpolation-filters="sRGB">
<feFlood flood-opacity="0" result="BackgroundImageFix"/>
<feColorMatrix in="SourceAlpha" type="matrix" values="0 0 0 0 0 0 0 0 0 0 0 0 0 0 0 0 0 0 127 0" result="hardAlpha"/>
<feOffset dy="11"/>
<feGaussianBlur stdDeviation="11"/>
<feColorMatrix type="matrix" values="0 0 0 0 0 0 0 0 0 0 0 0 0 0 0 0 0 0 0.27 0"/>
<feBlend mode="normal" in2="BackgroundImageFix" result="effect1_dropShadow"/>
<feBlend mode="normal" in="SourceGraphic" in2="effect1_dropShadow" result="shape"/>
</filter>
<linearGradient id="paint0_linear" x1="54.1568" y1="14.1349" x2="54.1568" y2="91.6783" gradientUnits="userSpaceOnUse">
<stop stop-color="#5C6479"/>
<stop offset="0.9964" stop-color="#5C6479"/>
</linearGradient>
<linearGradient id="paint1_linear" x1="96.191" y1="75.3052" x2="106.723" y2="75.3052" gradientUnits="userSpaceOnUse">
<stop stop-color="#B0BACC"/>
<stop offset="1" stop-color="#969EAE"/>
</linearGradient>
<linearGradient id="paint2_linear" x1="70.4597" y1="59.3019" x2="99.8679" y2="59.3019" gradientUnits="userSpaceOnUse">
<stop stop-color="#B0BACC"/>
<stop offset="1" stop-color="#969EAE"/>
</linearGradient>
</defs>
</svg>
