<svg width="128" height="136" viewBox="0 0 128 136" fill="none" xmlns="http://www.w3.org/2000/svg">
<path d="M70.3001 110.05C98.3001 110.05 121 87.3498 121 59.2498C121 31.1498 98.2001 8.44983 70.3001 8.44983C42.3001 8.44983 19.6001 31.1498 19.6001 59.2498C19.6001 87.3498 42.3001 110.05 70.3001 110.05Z" fill="#2A2E37"/>
<path d="M117.7 25.9499C119.964 25.9499 121.8 24.1142 121.8 21.8499C121.8 19.5855 119.964 17.7499 117.7 17.7499C115.436 17.7499 113.6 19.5855 113.6 21.8499C113.6 24.1142 115.436 25.9499 117.7 25.9499Z" fill="#2A2E37"/>
<path d="M123.7 9.94985C125.246 9.94985 126.5 8.69625 126.5 7.14985C126.5 5.60346 125.246 4.34985 123.7 4.34985C122.154 4.34985 120.9 5.60346 120.9 7.14985C120.9 8.69625 122.154 9.94985 123.7 9.94985Z" fill="#2A2E37"/>
<path d="M22.3 25.8499C23.8464 25.8499 25.1 24.5963 25.1 23.0499C25.1 21.5035 23.8464 20.2499 22.3 20.2499C20.7536 20.2499 19.5 21.5035 19.5 23.0499C19.5 24.5963 20.7536 25.8499 22.3 25.8499Z" fill="#2A2E37"/>
<path d="M5.2 79.8498C8.07188 79.8498 10.4 77.5217 10.4 74.6498C10.4 71.778 8.07188 69.4498 5.2 69.4498C2.32812 69.4498 0 71.778 0 74.6498C0 77.5217 2.32812 79.8498 5.2 79.8498Z" fill="#2A2E37"/>
<g filter="url(#filter0_d)">
<path d="M104.8 33.8498L105.6 98.2498C105.6 100.45 103.8 102.15 101.6 102.15H38.7998C36.5998 102.15 34.7998 100.35 34.7998 98.2498V15.4498C34.7998 13.2498 36.5998 11.5498 38.7998 11.5498H84.2998L104.8 33.8498Z" fill="url(#paint0_linear)"/>
</g>
<path d="M65.4002 89.2498H53.1002C52.6002 89.2498 52.2002 88.7498 52.2002 88.1498C52.2002 87.5498 52.6002 87.0498 53.1002 87.0498H65.4002C65.9002 87.0498 66.3002 87.5498 66.3002 88.1498C66.3002 88.8498 65.9002 89.2498 65.4002 89.2498Z" fill="#A9AFC3"/>
<path d="M58.4001 89.2498H45.0001C44.5001 89.2498 44.1001 88.7498 44.1001 88.1498C44.1001 87.5498 44.5001 87.0498 45.0001 87.0498H58.4001C58.9001 87.0498 59.3001 87.5498 59.3001 88.1498C59.3001 88.8498 58.9001 89.2498 58.4001 89.2498Z" fill="#A9AFC3"/>
<path d="M75.5001 25.0498H45.4001C44.7001 25.0498 44.1001 24.4498 44.1001 23.7498C44.1001 23.0498 44.7001 22.4498 45.4001 22.4498H75.5001C76.2001 22.4498 76.8001 23.0498 76.8001 23.7498C76.8001 24.4498 76.2001 25.0498 75.5001 25.0498Z" fill="#A9AFC3"/>
<path d="M57.0001 32.2499H45.4001C44.7001 32.2499 44.1001 31.6499 44.1001 30.9499C44.1001 30.2499 44.7001 29.6499 45.4001 29.6499H56.9001C57.6001 29.6499 58.2001 30.2499 58.2001 30.9499C58.2001 31.6499 57.6001 32.2499 57.0001 32.2499Z" fill="#A9AFC3"/>
<path d="M84.2998 11.5498V29.3498C84.2998 31.8498 86.4998 33.8498 88.9998 33.8498H104.8" fill="#3A4050"/>
<path d="M95.8615 71.9448H61.1654H57.3413H45.776C45.3096 71.9448 44.8433 72.4122 44.8433 73.0664C44.8433 73.6272 45.2163 74.188 45.776 74.188H57.3413H61.1654H95.8615C96.3279 74.188 96.7942 73.7207 96.7942 73.0664C96.701 72.4122 96.3279 71.9448 95.8615 71.9448Z" fill="#A9AFC3"/>
<path d="M95.7683 63.8131H82.8971H78.5135H45.776C45.3096 63.8131 44.8433 64.2804 44.8433 64.9347C44.8433 65.4955 45.2163 66.0563 45.776 66.0563H78.5135H82.8971H95.7683C96.2346 66.0563 96.701 65.589 96.701 64.9347C96.6077 64.2804 96.2346 63.8131 95.7683 63.8131Z" fill="#A9AFC3"/>
<path d="M96.0481 55.588H92.6904H89.3327H45.776C45.3096 55.588 44.8433 56.0553 44.8433 56.7096C44.8433 57.2704 45.2163 57.8312 45.776 57.8312H89.3327H93.0635H95.9548C96.4212 57.8312 96.8875 57.3639 96.8875 56.7096C96.9808 56.1488 96.5144 55.588 96.0481 55.588Z" fill="#A9AFC3"/>
<path d="M59.4865 90.0774H45.776C45.3096 90.0774 44.8433 89.6101 44.8433 88.9558C44.8433 88.395 45.2163 87.8342 45.776 87.8342H59.4865C59.9529 87.8342 60.4192 88.3016 60.4192 88.9558C60.4192 89.7036 59.9529 90.0774 59.4865 90.0774Z" fill="#A9AFC3"/>
<path d="M96.4211 47.4564H85.5086H82.8038H45.776C45.3096 47.4564 44.8433 47.9238 44.8433 48.578C44.8433 49.1388 45.2163 49.6996 45.776 49.6996H82.8038H85.5086H96.3279C96.9808 49.6996 97.3538 49.2323 97.3538 48.578C97.3538 48.0172 96.9808 47.4564 96.4211 47.4564Z" fill="#A9AFC3"/>
<path d="M46.5221 95.0313H24.5106C22.0856 95.0313 20.127 93.0685 20.127 90.6383V60.0745C20.127 51.569 27.0289 44.7458 35.4231 44.7458C43.8173 44.7458 50.7193 51.6624 50.7193 60.0745V90.7318C50.8125 93.0685 48.8539 95.0313 46.5221 95.0313ZM28.8943 86.3388H42.1385V60.0745C42.1385 56.4293 39.1539 53.4383 35.5164 53.4383C31.8789 53.4383 28.8943 56.4293 28.8943 60.0745V86.3388V86.3388Z" fill="#989FB0"/>
<g filter="url(#filter1_d)">
<path d="M55.569 103.35H15.7431C13.0383 103.35 10.7998 101.107 10.7998 98.3961V71.9449C10.7998 69.2343 13.0383 66.9911 15.7431 66.9911H55.569C58.2738 66.9911 60.5123 69.2343 60.5123 71.9449V98.3961C60.5123 101.107 58.2738 103.35 55.569 103.35Z" fill="url(#paint1_linear)"/>
</g>
<path d="M40.6463 81.1046C40.6463 83.0674 39.5271 84.7498 37.9415 85.591V91.0121C37.9415 92.3207 36.9155 93.3488 35.6098 93.3488C34.304 93.3488 33.278 92.3207 33.278 91.0121V85.591C31.6925 84.7498 30.5732 83.0674 30.5732 81.1046C30.5732 78.3006 32.8117 76.0574 35.6098 76.0574C38.4079 76.0574 40.6463 78.3006 40.6463 81.1046Z" fill="#474E61"/>
<defs>
<filter id="filter0_d" x="12.7998" y="0.549805" width="114.8" height="134.6" filterUnits="userSpaceOnUse" color-interpolation-filters="sRGB">
<feFlood flood-opacity="0" result="BackgroundImageFix"/>
<feColorMatrix in="SourceAlpha" type="matrix" values="0 0 0 0 0 0 0 0 0 0 0 0 0 0 0 0 0 0 127 0" result="hardAlpha"/>
<feOffset dy="11"/>
<feGaussianBlur stdDeviation="11"/>
<feColorMatrix type="matrix" values="0 0 0 0 0 0 0 0 0 0 0 0 0 0 0 0 0 0 0.27 0"/>
<feBlend mode="normal" in2="BackgroundImageFix" result="effect1_dropShadow"/>
<feBlend mode="normal" in="SourceGraphic" in2="effect1_dropShadow" result="shape"/>
</filter>
<filter id="filter1_d" x="6.7998" y="66.9911" width="57.7124" height="44.3588" filterUnits="userSpaceOnUse" color-interpolation-filters="sRGB">
<feFlood flood-opacity="0" result="BackgroundImageFix"/>
<feColorMatrix in="SourceAlpha" type="matrix" values="0 0 0 0 0 0 0 0 0 0 0 0 0 0 0 0 0 0 127 0" result="hardAlpha"/>
<feOffset dy="4"/>
<feGaussianBlur stdDeviation="2"/>
<feComposite in2="hardAlpha" operator="out"/>
<feColorMatrix type="matrix" values="0 0 0 0 0 0 0 0 0 0 0 0 0 0 0 0 0 0 0.25 0"/>
<feBlend mode="normal" in2="BackgroundImageFix" result="effect1_dropShadow"/>
<feBlend mode="normal" in="SourceGraphic" in2="effect1_dropShadow" result="shape"/>
</filter>
<linearGradient id="paint0_linear" x1="70.1767" y1="9.45414" x2="70.1767" y2="103.127" gradientUnits="userSpaceOnUse">
<stop stop-color="#5C6479"/>
<stop offset="0.9964" stop-color="#5C6479"/>
</linearGradient>
<linearGradient id="paint1_linear" x1="22.2031" y1="76.5353" x2="35.2073" y2="106.637" gradientUnits="userSpaceOnUse">
<stop stop-color="#E3EAF7"/>
<stop offset="1" stop-color="#ADB6C8"/>
</linearGradient>
</defs>
</svg>
