<svg width="176" height="177" viewBox="0 0 176 177" fill="none" xmlns="http://www.w3.org/2000/svg">
<path d="M87.8782 138.543C115.878 138.543 138.578 115.843 138.578 87.7425C138.578 59.6425 115.778 36.9425 87.8782 36.9425C59.8782 36.9425 37.1782 59.6425 37.1782 87.7425C37.1782 115.843 59.8782 138.543 87.8782 138.543Z" fill="#2A2E37"/>
<path d="M135.278 54.4426C137.543 54.4426 139.378 52.6069 139.378 50.3426C139.378 48.0782 137.543 46.2426 135.278 46.2426C133.014 46.2426 131.178 48.0782 131.178 50.3426C131.178 52.6069 133.014 54.4426 135.278 54.4426Z" fill="#2A2E37"/>
<path d="M141.278 38.4425C142.824 38.4425 144.078 37.1889 144.078 35.6425C144.078 34.0961 142.824 32.8425 141.278 32.8425C139.732 32.8425 138.478 34.0961 138.478 35.6425C138.478 37.1889 139.732 38.4425 141.278 38.4425Z" fill="#2A2E37"/>
<path d="M39.8781 54.3426C41.4245 54.3426 42.6781 53.089 42.6781 51.5426C42.6781 49.9962 41.4245 48.7426 39.8781 48.7426C38.3317 48.7426 37.0781 49.9962 37.0781 51.5426C37.0781 53.089 38.3317 54.3426 39.8781 54.3426Z" fill="#2A2E37"/>
<path d="M22.7781 108.343C25.65 108.343 27.9781 106.014 27.9781 103.143C27.9781 100.271 25.65 97.9425 22.7781 97.9425C19.9062 97.9425 17.5781 100.271 17.5781 103.143C17.5781 106.014 19.9062 108.343 22.7781 108.343Z" fill="#2A2E37"/>
<g filter="url(#filter0_d)">
<path d="M122.111 127.384L54.4746 127.869C50.5706 127.887 47.3871 124.74 47.3349 120.861L46.8107 56.15C46.7889 52.2453 49.932 49.0648 53.8098 49.0169L121.446 48.5317C125.35 48.5142 128.533 51.6615 128.586 55.54L129.11 120.251C129.132 124.156 125.989 127.336 122.111 127.384Z" fill="url(#paint0_linear)"/>
</g>
<path opacity="0.4" d="M118.302 117.722L58.8447 118.172C57.1628 118.187 55.8091 116.86 55.7923 115.178L55.3412 61.697C55.3244 60.0149 56.6503 58.6624 58.3321 58.6475L117.79 58.1975C119.472 58.1825 120.825 59.5102 120.842 61.1924L121.293 114.673C121.31 116.355 119.984 117.708 118.302 117.722Z" fill="#2A2E37"/>
<path d="M89.5474 97.651L67.8575 97.8017L78.6095 85.4261L89.5474 97.651Z" fill="#2A2E37"/>
<path d="M107.534 97.5044L76.2672 97.7268L91.7521 79.9551L107.534 97.5044Z" fill="#A9AFC3"/>
<path d="M78.589 79.9832C80.3039 78.5083 80.497 75.9209 79.0205 74.204C77.5439 72.4872 74.9567 72.2911 73.2418 73.766C71.5269 75.2409 71.3337 77.8283 72.8103 79.5451C74.2869 81.262 76.8741 81.4581 78.589 79.9832Z" fill="#2A2E37"/>
<g filter="url(#filter1_d)">
<path d="M103.019 125.039C102.709 126.357 102.244 127.752 101.702 128.915C100.229 131.783 97.9031 134.031 95.0349 135.504C92.0891 136.977 88.6007 137.597 85.1123 136.822C76.8952 135.116 71.6238 127.054 73.3292 118.837C75.0347 110.62 83.0192 105.271 91.2364 107.054C94.1821 107.674 96.7403 109.147 98.9109 111.163C102.554 114.806 104.105 120.077 103.019 125.039Z" fill="url(#paint1_linear)"/>
</g>
<path d="M93.0192 120.62H89.5308V117.132C89.5308 116.434 88.9882 115.814 88.213 115.814C87.5153 115.814 86.8951 116.356 86.8951 117.132V120.62H83.4067C82.709 120.62 82.0889 121.163 82.0889 121.938C82.0889 122.713 82.6315 123.256 83.4067 123.256H86.8951V126.744C86.8951 127.442 87.4378 128.062 88.213 128.062C88.9106 128.062 89.5308 127.519 89.5308 126.744V123.256H93.0192C93.7169 123.256 94.337 122.713 94.337 121.938C94.337 121.163 93.7169 120.62 93.0192 120.62Z" fill="#474E61"/>
<defs>
<filter id="filter0_d" x="24.8105" y="37.5316" width="126.299" height="123.338" filterUnits="userSpaceOnUse" color-interpolation-filters="sRGB">
<feFlood flood-opacity="0" result="BackgroundImageFix"/>
<feColorMatrix in="SourceAlpha" type="matrix" values="0 0 0 0 0 0 0 0 0 0 0 0 0 0 0 0 0 0 127 0" result="hardAlpha"/>
<feOffset dy="11"/>
<feGaussianBlur stdDeviation="11"/>
<feColorMatrix type="matrix" values="0 0 0 0 0 0 0 0 0 0 0 0 0 0 0 0 0 0 0.27 0"/>
<feBlend mode="normal" in2="BackgroundImageFix" result="effect1_dropShadow"/>
<feBlend mode="normal" in="SourceGraphic" in2="effect1_dropShadow" result="shape"/>
</filter>
<filter id="filter1_d" x="69.0088" y="106.711" width="38.3506" height="38.4465" filterUnits="userSpaceOnUse" color-interpolation-filters="sRGB">
<feFlood flood-opacity="0" result="BackgroundImageFix"/>
<feColorMatrix in="SourceAlpha" type="matrix" values="0 0 0 0 0 0 0 0 0 0 0 0 0 0 0 0 0 0 127 0" result="hardAlpha"/>
<feOffset dy="4"/>
<feGaussianBlur stdDeviation="2"/>
<feComposite in2="hardAlpha" operator="out"/>
<feColorMatrix type="matrix" values="0 0 0 0 0 0 0 0 0 0 0 0 0 0 0 0 0 0 0.25 0"/>
<feBlend mode="normal" in2="BackgroundImageFix" result="effect1_dropShadow"/>
<feBlend mode="normal" in="SourceGraphic" in2="effect1_dropShadow" result="shape"/>
</filter>
<linearGradient id="paint0_linear" x1="51.3465" y1="45.6831" x2="123.657" y2="129.759" gradientUnits="userSpaceOnUse">
<stop stop-color="#5C6479"/>
<stop offset="0.9964" stop-color="#5C6479"/>
</linearGradient>
<linearGradient id="paint1_linear" x1="79.9708" y1="114.703" x2="93.0887" y2="136.841" gradientUnits="userSpaceOnUse">
<stop stop-color="#E3EAF7"/>
<stop offset="1" stop-color="#ADB6C8"/>
</linearGradient>
</defs>
</svg>
