<svg width="182" height="132" viewBox="0 0 182 132" fill="none" xmlns="http://www.w3.org/2000/svg">
<path d="M90.3001 113.652C118.3 113.652 141 90.952 141 62.852C141 34.752 118.2 12.052 90.3001 12.052C62.3001 12.052 39.6001 34.752 39.6001 62.852C39.6001 90.952 62.3001 113.652 90.3001 113.652Z" fill="#2A2E37"/>
<path d="M137.7 29.5521C139.964 29.5521 141.8 27.7164 141.8 25.4521C141.8 23.1877 139.964 21.3521 137.7 21.3521C135.436 21.3521 133.6 23.1877 133.6 25.4521C133.6 27.7164 135.436 29.5521 137.7 29.5521Z" fill="#2A2E37"/>
<path d="M143.7 13.552C145.246 13.552 146.5 12.2984 146.5 10.752C146.5 9.20563 145.246 7.95203 143.7 7.95203C142.154 7.95203 140.9 9.20563 140.9 10.752C140.9 12.2984 142.154 13.552 143.7 13.552Z" fill="#2A2E37"/>
<path d="M42.3 29.4521C43.8464 29.4521 45.1 28.1984 45.1 26.6521C45.1 25.1057 43.8464 23.8521 42.3 23.8521C40.7536 23.8521 39.5 25.1057 39.5 26.6521C39.5 28.1984 40.7536 29.4521 42.3 29.4521Z" fill="#2A2E37"/>
<path d="M25.2 83.452C28.0719 83.452 30.4 81.1239 30.4 78.252C30.4 75.3801 28.0719 73.052 25.2 73.052C22.3281 73.052 20 75.3801 20 78.252C20 81.1239 22.3281 83.452 25.2 83.452Z" fill="#2A2E37"/>
<g filter="url(#filter0_d)">
<path d="M86.0515 73.9607L52.1122 97.5462C50.149 98.8975 47.4741 98.4307 46.0999 96.4652L23.5719 63.9614C22.2221 61.996 22.6884 59.318 24.6516 57.9422L58.5909 34.3567C60.5541 33.0054 63.229 33.4722 64.6033 35.4377L87.1558 67.9415C88.5055 69.9069 88.0147 72.6094 86.0515 73.9607Z" fill="url(#paint0_linear)"/>
</g>
<path opacity="0.4" d="M80.8 70.3981L50.959 91.1337C50.1246 91.7233 48.9713 91.5022 48.3823 90.6669L29.7562 63.7892C29.1672 62.9539 29.3881 61.7992 30.2225 61.2096L60.0635 40.474C60.8979 39.8843 62.0512 40.1054 62.6402 40.9408L81.2663 67.8184C81.8553 68.6538 81.6344 69.8085 80.8 70.3981Z" fill="#2A2E37"/>
<path d="M59.4252 70.1771L48.5293 77.7441L49.6827 67.7939L59.4252 70.1771Z" fill="#292D36"/>
<path d="M68.4313 63.9123L52.75 74.8206L54.4187 60.4973L68.4313 63.9123Z" fill="#A9AFC3"/>
<path d="M45.3635 66.9095C46.7459 66.9095 47.8666 65.7876 47.8666 64.4035C47.8666 63.0195 46.7459 61.8976 45.3635 61.8976C43.981 61.8976 42.8604 63.0195 42.8604 64.4035C42.8604 65.7876 43.981 66.9095 45.3635 66.9095Z" fill="#292D36"/>
<g filter="url(#filter1_d)">
<path d="M127.156 94.0328L95.6221 67.3025C93.8061 65.7547 93.5852 63.0276 95.1067 61.2096L120.653 31.0152C122.199 29.1971 124.923 28.976 126.739 30.4992L158.274 57.2295C160.09 58.7773 160.31 61.5044 158.789 63.3224L133.242 93.5168C131.696 95.3349 128.972 95.556 127.156 94.0328Z" fill="url(#paint1_linear)"/>
</g>
<path opacity="0.4" d="M129.242 88.038L101.512 64.5508C100.726 63.8874 100.628 62.7327 101.291 61.9465L122.395 36.9852C123.058 36.199 124.211 36.1007 124.997 36.7641L152.727 60.2513C153.512 60.9147 153.611 62.0694 152.948 62.8555L131.843 87.8169C131.181 88.6031 130.027 88.7013 129.242 88.038Z" fill="#2A2E37"/>
<path d="M123.917 67.2779L113.806 58.7036L123.72 57.254L123.917 67.2779Z" fill="#292D36"/>
<path d="M132.31 74.3782L117.733 62.0204L131.991 59.9567L132.31 74.3782Z" fill="#A9AFC3"/>
<path d="M125.88 54.7237C127.262 54.7237 128.383 53.6018 128.383 52.2178C128.383 50.8337 127.262 49.7118 125.88 49.7118C124.498 49.7118 123.377 50.8337 123.377 52.2178C123.377 53.6018 124.498 54.7237 125.88 54.7237Z" fill="#292D36"/>
<g filter="url(#filter2_d)">
<path d="M112.878 66.6363L72.285 74.455C69.9408 74.8999 67.6774 73.3628 67.2143 71.0378L59.6978 32.207C59.2502 29.8629 60.7851 27.6017 63.1102 27.1414L103.703 19.3227C106.047 18.8777 108.311 20.4149 108.774 22.7399L116.29 61.5706C116.738 63.9148 115.203 66.176 112.878 66.6363Z" fill="url(#paint2_linear)"/>
</g>
<path opacity="0.4" d="M109.514 61.2537L73.8323 68.141C72.8232 68.3371 71.862 67.6899 71.6646 66.6809L65.4418 34.5911C65.2445 33.5821 65.8908 32.6217 66.8999 32.4256L102.582 25.5383C103.591 25.3421 104.552 25.9893 104.75 26.9984L110.972 59.0882C111.17 60.0972 110.523 61.0575 109.514 61.2537Z" fill="#2A2E37"/>
<path d="M89.9997 52.3915L76.9815 54.8958L82.0659 46.2619L89.9997 52.3915Z" fill="#292D36"/>
<path d="M100.793 50.3018L82.027 53.915L89.3552 41.5116L100.793 50.3018Z" fill="#A9AFC3"/>
<path d="M81.4478 42.9934C82.3143 41.9162 82.1424 40.3397 81.064 39.4723C79.9856 38.6049 78.4089 38.7749 77.5425 39.8521C76.676 40.9294 76.8479 42.5058 77.9263 43.3732C79.0048 44.2407 80.5814 44.0706 81.4478 42.9934Z" fill="#292D36"/>
<g filter="url(#filter3_d)">
<path d="M113.429 91.0217C112.952 93.0491 112.237 95.1957 111.402 96.9846C109.136 101.397 105.558 104.856 101.145 107.122C96.6135 109.388 91.2469 110.342 85.8802 109.149C73.2387 106.525 65.129 94.1224 67.7527 81.4809C70.3765 68.8394 82.6602 60.6105 95.3017 63.3535C99.8336 64.3075 103.769 66.5735 107.108 69.6742C112.714 75.2794 115.099 83.3891 113.429 91.0217Z" fill="url(#paint3_linear)"/>
</g>
<path d="M98.0446 84.2238H92.6779V78.8571C92.6779 77.7838 91.8431 76.8297 90.6505 76.8297C89.5772 76.8297 88.6231 77.6645 88.6231 78.8571V84.2238H83.2564C82.1831 84.2238 81.229 85.0586 81.229 86.2512C81.229 87.4438 82.0638 88.2786 83.2564 88.2786H88.6231V93.6453C88.6231 94.7186 89.4579 95.6727 90.6505 95.6727C91.7238 95.6727 92.6779 94.8379 92.6779 93.6453V88.2786H98.0446C99.1179 88.2786 100.072 87.4438 100.072 86.2512C100.072 85.0586 99.1179 84.2238 98.0446 84.2238Z" fill="#474E61"/>
<defs>
<filter id="filter0_d" x="0.802246" y="22.5862" width="109.115" height="108.73" filterUnits="userSpaceOnUse" color-interpolation-filters="sRGB">
<feFlood flood-opacity="0" result="BackgroundImageFix"/>
<feColorMatrix in="SourceAlpha" type="matrix" values="0 0 0 0 0 0 0 0 0 0 0 0 0 0 0 0 0 0 127 0" result="hardAlpha"/>
<feOffset dy="11"/>
<feGaussianBlur stdDeviation="11"/>
<feColorMatrix type="matrix" values="0 0 0 0 0 0 0 0 0 0 0 0 0 0 0 0 0 0 0.27 0"/>
<feBlend mode="normal" in2="BackgroundImageFix" result="effect1_dropShadow"/>
<feBlend mode="normal" in="SourceGraphic" in2="effect1_dropShadow" result="shape"/>
</filter>
<filter id="filter1_d" x="72.0977" y="18.489" width="109.7" height="109.554" filterUnits="userSpaceOnUse" color-interpolation-filters="sRGB">
<feFlood flood-opacity="0" result="BackgroundImageFix"/>
<feColorMatrix in="SourceAlpha" type="matrix" values="0 0 0 0 0 0 0 0 0 0 0 0 0 0 0 0 0 0 127 0" result="hardAlpha"/>
<feOffset dy="11"/>
<feGaussianBlur stdDeviation="11"/>
<feColorMatrix type="matrix" values="0 0 0 0 0 0 0 0 0 0 0 0 0 0 0 0 0 0 0.27 0"/>
<feBlend mode="normal" in2="BackgroundImageFix" result="effect1_dropShadow"/>
<feBlend mode="normal" in="SourceGraphic" in2="effect1_dropShadow" result="shape"/>
</filter>
<filter id="filter2_d" x="37.6201" y="8.24597" width="100.748" height="99.2856" filterUnits="userSpaceOnUse" color-interpolation-filters="sRGB">
<feFlood flood-opacity="0" result="BackgroundImageFix"/>
<feColorMatrix in="SourceAlpha" type="matrix" values="0 0 0 0 0 0 0 0 0 0 0 0 0 0 0 0 0 0 127 0" result="hardAlpha"/>
<feOffset dy="11"/>
<feGaussianBlur stdDeviation="11"/>
<feColorMatrix type="matrix" values="0 0 0 0 0 0 0 0 0 0 0 0 0 0 0 0 0 0 0.27 0"/>
<feBlend mode="normal" in2="BackgroundImageFix" result="effect1_dropShadow"/>
<feBlend mode="normal" in="SourceGraphic" in2="effect1_dropShadow" result="shape"/>
</filter>
<filter id="filter3_d" x="63.2598" y="62.8256" width="54.6924" height="54.84" filterUnits="userSpaceOnUse" color-interpolation-filters="sRGB">
<feFlood flood-opacity="0" result="BackgroundImageFix"/>
<feColorMatrix in="SourceAlpha" type="matrix" values="0 0 0 0 0 0 0 0 0 0 0 0 0 0 0 0 0 0 127 0" result="hardAlpha"/>
<feOffset dy="4"/>
<feGaussianBlur stdDeviation="2"/>
<feComposite in2="hardAlpha" operator="out"/>
<feColorMatrix type="matrix" values="0 0 0 0 0 0 0 0 0 0 0 0 0 0 0 0 0 0 0.25 0"/>
<feBlend mode="normal" in2="BackgroundImageFix" result="effect1_dropShadow"/>
<feBlend mode="normal" in="SourceGraphic" in2="effect1_dropShadow" result="shape"/>
</filter>
<linearGradient id="paint0_linear" x1="55.3386" y1="32.0889" x2="55.3386" y2="99.0145" gradientUnits="userSpaceOnUse">
<stop stop-color="#5C6479"/>
<stop offset="0.9964" stop-color="#5C6479"/>
</linearGradient>
<linearGradient id="paint1_linear" x1="126.926" y1="27.9727" x2="126.926" y2="95.7497" gradientUnits="userSpaceOnUse">
<stop stop-color="#5C6479"/>
<stop offset="0.9964" stop-color="#5C6479"/>
</linearGradient>
<linearGradient id="paint2_linear" x1="61.2588" y1="25.412" x2="114.072" y2="67.8916" gradientUnits="userSpaceOnUse">
<stop stop-color="#5C6479"/>
<stop offset="0.9964" stop-color="#5C6479"/>
</linearGradient>
<linearGradient id="paint3_linear" x1="77.9703" y1="75.1211" x2="98.1513" y2="109.179" gradientUnits="userSpaceOnUse">
<stop stop-color="#E3EAF7"/>
<stop offset="1" stop-color="#ADB6C8"/>
</linearGradient>
</defs>
</svg>
