<svg width="159" height="158" viewBox="0 0 159 158" fill="none" xmlns="http://www.w3.org/2000/svg">
<path d="M134.982 63.6654C134.982 74.9605 131.213 85.4341 124.898 93.8541C121.435 98.3721 117.259 102.377 112.472 105.457C104.731 110.591 95.4622 113.569 85.4805 113.569C58.0817 113.569 35.8774 91.1843 35.8774 63.6654C35.8774 36.0438 58.0817 13.7617 85.3786 13.7617C95.3604 13.7617 104.629 16.7395 112.37 21.771C117.157 24.8514 121.333 28.856 124.796 33.3741C131.213 41.8967 134.982 52.3703 134.982 63.6654Z" fill="#2A2E37"/>
<path d="M140.787 48.4684C142.315 47.0309 142.417 44.6692 140.991 43.129C139.565 41.5887 137.223 41.486 135.593 42.9236C134.065 44.3611 133.963 46.7228 135.389 48.2631C136.815 49.7006 139.26 49.8033 140.787 48.4684Z" fill="#2A2E37"/>
<g filter="url(#filter0_d)">
<path d="M75.035 49.1989L46.5767 68.9756C44.9305 70.1086 42.6876 69.7172 41.5352 68.0691L22.6453 40.8145C21.5136 39.1664 21.9045 36.9209 23.5507 35.7673L52.009 15.9907C53.6552 14.8576 55.8981 15.249 57.0505 16.8971L75.961 44.1518C77.0927 45.7998 76.6812 48.0659 75.035 49.1989Z" fill="#2A2E37"/>
</g>
<path d="M70.6313 46.2118L45.6093 63.5988C44.9097 64.0932 43.9426 63.9078 43.4487 63.2074L27.8306 40.6703C27.3367 39.9698 27.5219 39.0016 28.2216 38.5072L53.2435 21.1202C53.9431 20.6258 54.9103 20.8112 55.4041 21.5116L71.0222 44.0488C71.5161 44.7492 71.3309 45.7174 70.6313 46.2118Z" fill="#1E1F28"/>
<path d="M52.7086 46.0265L43.5723 52.3715L44.5394 44.0282L52.7086 46.0265Z" fill="#4F5563"/>
<path d="M60.2602 40.7733L47.1113 49.92L48.5106 37.9098L60.2602 40.7733Z" fill="#25282F"/>
<path d="M40.9177 43.2866C42.0769 43.2866 43.0166 42.3459 43.0166 41.1854C43.0166 40.0249 42.0769 39.0841 40.9177 39.0841C39.7585 39.0841 38.8188 40.0249 38.8188 41.1854C38.8188 42.3459 39.7585 43.2866 40.9177 43.2866Z" fill="#4F5563"/>
<g filter="url(#filter1_d)">
<path d="M109.502 66.0297L83.06 43.6162C81.5373 42.3183 81.3521 40.0317 82.6279 38.5072L104.049 13.189C105.345 11.6646 107.629 11.4791 109.152 12.7564L135.594 35.1699C137.116 36.4678 137.302 38.7544 136.026 40.2789L114.605 65.5971C113.309 67.1215 111.024 67.3069 109.502 66.0297Z" fill="#2A2E37"/>
</g>
<path d="M111.251 61.0032L87.9987 41.309C87.3402 40.7527 87.2579 39.7845 87.8135 39.1253L105.51 18.195C106.066 17.5358 107.033 17.4534 107.691 18.0096L130.943 37.7038C131.602 38.2601 131.684 39.2283 131.129 39.8875L113.432 60.8178C112.877 61.477 111.909 61.5594 111.251 61.0032Z" fill="#1E1F28"/>
<path d="M106.785 43.5956L98.3076 36.406L106.621 35.1906L106.785 43.5956Z" fill="#4F5563"/>
<path d="M113.823 49.5491L101.6 39.187L113.555 37.4565L113.823 49.5491Z" fill="#25282F"/>
<path d="M108.432 33.0686C109.591 33.0686 110.531 32.1279 110.531 30.9674C110.531 29.8069 109.591 28.8661 108.432 28.8661C107.273 28.8661 106.333 29.8069 106.333 30.9674C106.333 32.1279 107.273 33.0686 108.432 33.0686Z" fill="#4F5563"/>
<g filter="url(#filter2_d)">
<path d="M112.486 109.291L81.3728 124.536C79.5826 125.421 77.422 124.68 76.5372 122.867L61.9685 93.0784C61.0837 91.2861 61.8244 89.123 63.6352 88.2372L94.748 72.9927C96.5383 72.1069 98.6989 72.8485 99.5837 74.6614L114.152 104.471C115.017 106.242 114.276 108.405 112.486 109.291Z" fill="#2A2E37"/>
</g>
<path d="M108.576 105.686L81.2081 119.097C80.4467 119.468 79.5002 119.159 79.1298 118.376L67.0715 93.7376C66.7011 92.9754 67.0098 92.0277 67.7917 91.6569L95.1594 78.2459C95.9208 77.8751 96.8674 78.1841 97.2377 78.9669L109.296 103.605C109.666 104.368 109.358 105.295 108.576 105.686Z" fill="#1E1F28"/>
<path d="M90.8794 102.781L80.8994 107.684L83.1218 99.5676L90.8794 102.781Z" fill="#4F5563"/>
<path d="M99.1516 98.7229L84.7681 105.789L87.9781 94.1084L99.1516 98.7229Z" fill="#25282F"/>
<path d="M79.9734 98.3109C81.1326 98.3109 82.0723 97.3702 82.0723 96.2097C82.0723 95.0492 81.1326 94.1084 79.9734 94.1084C78.8142 94.1084 77.8745 95.0492 77.8745 96.2097C77.8745 97.3702 78.8142 98.3109 79.9734 98.3109Z" fill="#4F5563"/>
<g filter="url(#filter3_d)">
<path d="M86.1261 52.5981C89.024 52.5981 91.3733 50.2462 91.3733 47.345C91.3733 44.4437 89.024 42.0918 86.1261 42.0918C83.2282 42.0918 80.8789 44.4437 80.8789 47.345C80.8789 50.2462 83.2282 52.5981 86.1261 52.5981Z" fill="url(#paint0_linear)"/>
</g>
<g filter="url(#filter4_d)">
<path d="M72.6068 47.7569L71.4339 45.2643C71.331 45.017 71.2281 44.7698 71.1047 44.5432C69.7671 42.0506 67.1333 40.3407 64.1084 40.3407C61.3099 40.3407 58.8612 41.7827 57.4414 43.987L55.1367 47.0771L56.2273 47.3655C56.1862 47.6745 56.1656 48.0041 56.1656 48.3132C56.1656 52.7011 59.7254 56.265 64.1084 56.265C68.4914 56.265 72.0512 52.7011 72.0512 48.3132C72.0512 48.169 72.0512 48.0247 72.0306 47.8805L72.6068 47.7569Z" fill="url(#paint1_linear)"/>
</g>
<g filter="url(#filter5_d)">
<path d="M99.645 47.757L100.818 45.2849C100.921 45.0377 101.024 44.7905 101.147 44.5639C102.485 42.0712 105.119 40.3613 108.143 40.3613C110.942 40.3613 113.391 41.8034 114.81 44.0076L117.115 47.0771L116.025 47.3656C116.066 47.6746 116.086 48.0042 116.086 48.3132C116.086 52.7011 112.526 56.265 108.143 56.265C103.76 56.265 100.201 52.7011 100.201 48.3132C100.201 48.169 100.201 48.0248 100.221 47.8806L99.645 47.757Z" fill="url(#paint2_linear)"/>
</g>
<g filter="url(#filter6_d)">
<path d="M129.338 73.8785C129.338 76.9068 128.392 74.5584 128.392 74.5584L121.272 63.7224L100.139 69.9438L95.8386 71.2005L86.1467 61.5593L76.4548 71.2005L51.0214 63.7224L43.9016 74.5584C43.9016 74.5584 42.9551 76.8862 42.9551 73.8785C42.9551 66.9155 47.9553 56.9448 52.4206 49.508C54.4166 46.1706 58.1617 44.3784 61.9479 44.09C64.6641 43.884 67.7507 44.3166 70.0759 45.7998C70.5697 46.1088 71.5163 47.0565 72.1542 46.9535C75.6317 46.4179 79.2945 45.635 82.0107 45.017C84.7886 44.3784 87.6694 44.3784 90.4268 45.0376C93.1018 45.6556 96.6823 46.4385 100.139 46.9741C100.777 47.0771 101.724 46.1501 102.218 45.8204C104.543 44.3166 107.629 43.884 110.346 44.1106C114.132 44.399 117.877 46.1707 119.873 49.5286C124.338 56.9654 129.338 66.9155 129.338 73.8785Z" fill="url(#paint3_linear)"/>
</g>
<path opacity="0.2" d="M114.831 60.4057L100.118 69.9644L95.8179 71.2211L86.126 61.58V51.5269C89.8916 51.5269 96.1677 54.3079 98.6575 56.78C102.073 53.9577 107.218 51.1766 114.831 52.5981C122.445 53.9989 114.831 60.4057 114.831 60.4057Z" fill="url(#paint4_linear)"/>
<path opacity="0.2" d="M57.4209 60.4057L72.1336 69.9644L76.4343 71.2211L86.1262 61.58V51.5269C82.3605 51.5269 76.0845 54.3079 73.5946 56.78C70.1788 53.9577 65.0345 51.1766 57.4209 52.5981C49.8073 53.9989 57.4209 60.4057 57.4209 60.4057Z" fill="url(#paint5_linear)"/>
<g filter="url(#filter7_d)">
<path d="M86.1261 64.052C89.024 64.052 91.3733 61.7001 91.3733 58.7988C91.3733 55.8976 89.024 53.5457 86.1261 53.5457C83.2282 53.5457 80.8789 55.8976 80.8789 58.7988C80.8789 61.7001 83.2282 64.052 86.1261 64.052Z" fill="url(#paint6_linear)"/>
</g>
<path d="M60.487 92.9754C70.1923 92.9754 78.06 85.0987 78.06 75.3824C78.06 65.6661 70.1923 57.7894 60.487 57.7894C50.7817 57.7894 42.9141 65.6661 42.9141 75.3824C42.9141 85.0987 50.7817 92.9754 60.487 92.9754Z" fill="#7F8699"/>
<g filter="url(#filter8_d)">
<path d="M60.4871 88.505C67.7263 88.505 73.5948 82.6298 73.5948 75.3824C73.5948 68.135 67.7263 62.2598 60.4871 62.2598C53.2479 62.2598 47.3794 68.135 47.3794 75.3824C47.3794 82.6298 53.2479 88.505 60.4871 88.505Z" fill="url(#paint7_linear)"/>
</g>
<g filter="url(#filter9_d)">
<path d="M60.487 83.5197C66.3511 83.5197 71.1049 78.7605 71.1049 72.8897C71.1049 67.019 66.3511 62.2598 60.487 62.2598C54.6229 62.2598 49.8691 67.019 49.8691 72.8897C49.8691 78.7605 54.6229 83.5197 60.487 83.5197Z" fill="url(#paint8_linear)"/>
</g>
<path opacity="0.4" d="M53.4906 73.7138C53.0379 73.7138 52.6675 73.343 52.6675 72.8898C52.6675 68.5636 56.1862 65.0615 60.4868 65.0615C60.9395 65.0615 61.3099 65.4323 61.3099 65.8856C61.3099 66.3388 60.9395 66.7096 60.4868 66.7096C57.071 66.7096 54.3137 69.4907 54.3137 72.8898C54.3137 73.343 53.9433 73.7138 53.4906 73.7138Z" fill="white"/>
<path d="M111.765 92.9754C121.471 92.9754 129.338 85.0987 129.338 75.3824C129.338 65.6661 121.471 57.7894 111.765 57.7894C102.06 57.7894 94.1924 65.6661 94.1924 75.3824C94.1924 85.0987 102.06 92.9754 111.765 92.9754Z" fill="#7F8699"/>
<g filter="url(#filter10_d)">
<path d="M111.765 88.505C119.005 88.505 124.873 82.6298 124.873 75.3824C124.873 68.135 119.005 62.2598 111.765 62.2598C104.526 62.2598 98.6577 68.135 98.6577 75.3824C98.6577 82.6298 104.526 88.505 111.765 88.505Z" fill="url(#paint9_linear)"/>
</g>
<g filter="url(#filter11_d)">
<path d="M111.765 83.5197C117.629 83.5197 122.383 78.7605 122.383 72.8897C122.383 67.019 117.629 62.2598 111.765 62.2598C105.901 62.2598 101.147 67.019 101.147 72.8897C101.147 78.7605 105.901 83.5197 111.765 83.5197Z" fill="url(#paint10_linear)"/>
</g>
<path opacity="0.4" d="M112.218 65.8856C112.218 65.4323 111.848 65.0615 111.395 65.0615C107.074 65.0615 103.576 68.5842 103.576 72.8898C103.576 73.343 103.946 73.7138 104.399 73.7138C104.851 73.7138 105.222 73.343 105.222 72.8898C105.222 69.4701 108 66.7096 111.395 66.7096C111.848 66.7096 112.218 66.3388 112.218 65.8856Z" fill="white"/>
<defs>
<filter id="filter0_d" x="0" y="4.3446" width="98.5996" height="98.277" filterUnits="userSpaceOnUse" color-interpolation-filters="sRGB">
<feFlood flood-opacity="0" result="BackgroundImageFix"/>
<feColorMatrix in="SourceAlpha" type="matrix" values="0 0 0 0 0 0 0 0 0 0 0 0 0 0 0 0 0 0 127 0" result="hardAlpha"/>
<feOffset dy="11"/>
<feGaussianBlur stdDeviation="11"/>
<feColorMatrix type="matrix" values="0 0 0 0 0 0 0 0 0 0 0 0 0 0 0 0 0 0 0.27 0"/>
<feBlend mode="normal" in2="BackgroundImageFix" result="effect1_dropShadow"/>
<feBlend mode="normal" in="SourceGraphic" in2="effect1_dropShadow" result="shape"/>
</filter>
<filter id="filter1_d" x="59.7817" y="0.909302" width="99.0903" height="98.9675" filterUnits="userSpaceOnUse" color-interpolation-filters="sRGB">
<feFlood flood-opacity="0" result="BackgroundImageFix"/>
<feColorMatrix in="SourceAlpha" type="matrix" values="0 0 0 0 0 0 0 0 0 0 0 0 0 0 0 0 0 0 127 0" result="hardAlpha"/>
<feOffset dy="11"/>
<feGaussianBlur stdDeviation="11"/>
<feColorMatrix type="matrix" values="0 0 0 0 0 0 0 0 0 0 0 0 0 0 0 0 0 0 0.27 0"/>
<feBlend mode="normal" in2="BackgroundImageFix" result="effect1_dropShadow"/>
<feBlend mode="normal" in="SourceGraphic" in2="effect1_dropShadow" result="shape"/>
</filter>
<filter id="filter2_d" x="39.5952" y="61.619" width="96.918" height="96.2902" filterUnits="userSpaceOnUse" color-interpolation-filters="sRGB">
<feFlood flood-opacity="0" result="BackgroundImageFix"/>
<feColorMatrix in="SourceAlpha" type="matrix" values="0 0 0 0 0 0 0 0 0 0 0 0 0 0 0 0 0 0 127 0" result="hardAlpha"/>
<feOffset dy="11"/>
<feGaussianBlur stdDeviation="11"/>
<feColorMatrix type="matrix" values="0 0 0 0 0 0 0 0 0 0 0 0 0 0 0 0 0 0 0.27 0"/>
<feBlend mode="normal" in2="BackgroundImageFix" result="effect1_dropShadow"/>
<feBlend mode="normal" in="SourceGraphic" in2="effect1_dropShadow" result="shape"/>
</filter>
<filter id="filter3_d" x="58.8789" y="31.0918" width="54.4946" height="54.5063" filterUnits="userSpaceOnUse" color-interpolation-filters="sRGB">
<feFlood flood-opacity="0" result="BackgroundImageFix"/>
<feColorMatrix in="SourceAlpha" type="matrix" values="0 0 0 0 0 0 0 0 0 0 0 0 0 0 0 0 0 0 127 0" result="hardAlpha"/>
<feOffset dy="11"/>
<feGaussianBlur stdDeviation="11"/>
<feColorMatrix type="matrix" values="0 0 0 0 0 0 0 0 0 0 0 0 0 0 0 0 0 0 0.27 0"/>
<feBlend mode="normal" in2="BackgroundImageFix" result="effect1_dropShadow"/>
<feBlend mode="normal" in="SourceGraphic" in2="effect1_dropShadow" result="shape"/>
</filter>
<filter id="filter4_d" x="33.1367" y="29.3407" width="61.4702" height="59.9243" filterUnits="userSpaceOnUse" color-interpolation-filters="sRGB">
<feFlood flood-opacity="0" result="BackgroundImageFix"/>
<feColorMatrix in="SourceAlpha" type="matrix" values="0 0 0 0 0 0 0 0 0 0 0 0 0 0 0 0 0 0 127 0" result="hardAlpha"/>
<feOffset dy="11"/>
<feGaussianBlur stdDeviation="11"/>
<feColorMatrix type="matrix" values="0 0 0 0 0 0 0 0 0 0 0 0 0 0 0 0 0 0 0.27 0"/>
<feBlend mode="normal" in2="BackgroundImageFix" result="effect1_dropShadow"/>
<feBlend mode="normal" in="SourceGraphic" in2="effect1_dropShadow" result="shape"/>
</filter>
<filter id="filter5_d" x="77.645" y="29.3613" width="61.4702" height="59.9037" filterUnits="userSpaceOnUse" color-interpolation-filters="sRGB">
<feFlood flood-opacity="0" result="BackgroundImageFix"/>
<feColorMatrix in="SourceAlpha" type="matrix" values="0 0 0 0 0 0 0 0 0 0 0 0 0 0 0 0 0 0 127 0" result="hardAlpha"/>
<feOffset dy="11"/>
<feGaussianBlur stdDeviation="11"/>
<feColorMatrix type="matrix" values="0 0 0 0 0 0 0 0 0 0 0 0 0 0 0 0 0 0 0.27 0"/>
<feBlend mode="normal" in2="BackgroundImageFix" result="effect1_dropShadow"/>
<feBlend mode="normal" in="SourceGraphic" in2="effect1_dropShadow" result="shape"/>
</filter>
<filter id="filter6_d" x="20.9551" y="33.0417" width="130.383" height="75.3848" filterUnits="userSpaceOnUse" color-interpolation-filters="sRGB">
<feFlood flood-opacity="0" result="BackgroundImageFix"/>
<feColorMatrix in="SourceAlpha" type="matrix" values="0 0 0 0 0 0 0 0 0 0 0 0 0 0 0 0 0 0 127 0" result="hardAlpha"/>
<feOffset dy="11"/>
<feGaussianBlur stdDeviation="11"/>
<feColorMatrix type="matrix" values="0 0 0 0 0 0 0 0 0 0 0 0 0 0 0 0 0 0 0.27 0"/>
<feBlend mode="normal" in2="BackgroundImageFix" result="effect1_dropShadow"/>
<feBlend mode="normal" in="SourceGraphic" in2="effect1_dropShadow" result="shape"/>
</filter>
<filter id="filter7_d" x="58.8789" y="42.5457" width="54.4946" height="54.5063" filterUnits="userSpaceOnUse" color-interpolation-filters="sRGB">
<feFlood flood-opacity="0" result="BackgroundImageFix"/>
<feColorMatrix in="SourceAlpha" type="matrix" values="0 0 0 0 0 0 0 0 0 0 0 0 0 0 0 0 0 0 127 0" result="hardAlpha"/>
<feOffset dy="11"/>
<feGaussianBlur stdDeviation="11"/>
<feColorMatrix type="matrix" values="0 0 0 0 0 0 0 0 0 0 0 0 0 0 0 0 0 0 0.27 0"/>
<feBlend mode="normal" in2="BackgroundImageFix" result="effect1_dropShadow"/>
<feBlend mode="normal" in="SourceGraphic" in2="effect1_dropShadow" result="shape"/>
</filter>
<filter id="filter8_d" x="25.3794" y="51.2598" width="70.2153" height="70.2452" filterUnits="userSpaceOnUse" color-interpolation-filters="sRGB">
<feFlood flood-opacity="0" result="BackgroundImageFix"/>
<feColorMatrix in="SourceAlpha" type="matrix" values="0 0 0 0 0 0 0 0 0 0 0 0 0 0 0 0 0 0 127 0" result="hardAlpha"/>
<feOffset dy="11"/>
<feGaussianBlur stdDeviation="11"/>
<feColorMatrix type="matrix" values="0 0 0 0 0 0 0 0 0 0 0 0 0 0 0 0 0 0 0.27 0"/>
<feBlend mode="normal" in2="BackgroundImageFix" result="effect1_dropShadow"/>
<feBlend mode="normal" in="SourceGraphic" in2="effect1_dropShadow" result="shape"/>
</filter>
<filter id="filter9_d" x="27.8691" y="51.2598" width="65.2358" height="65.2599" filterUnits="userSpaceOnUse" color-interpolation-filters="sRGB">
<feFlood flood-opacity="0" result="BackgroundImageFix"/>
<feColorMatrix in="SourceAlpha" type="matrix" values="0 0 0 0 0 0 0 0 0 0 0 0 0 0 0 0 0 0 127 0" result="hardAlpha"/>
<feOffset dy="11"/>
<feGaussianBlur stdDeviation="11"/>
<feColorMatrix type="matrix" values="0 0 0 0 0 0 0 0 0 0 0 0 0 0 0 0 0 0 0.27 0"/>
<feBlend mode="normal" in2="BackgroundImageFix" result="effect1_dropShadow"/>
<feBlend mode="normal" in="SourceGraphic" in2="effect1_dropShadow" result="shape"/>
</filter>
<filter id="filter10_d" x="76.6577" y="51.2598" width="70.2153" height="70.2452" filterUnits="userSpaceOnUse" color-interpolation-filters="sRGB">
<feFlood flood-opacity="0" result="BackgroundImageFix"/>
<feColorMatrix in="SourceAlpha" type="matrix" values="0 0 0 0 0 0 0 0 0 0 0 0 0 0 0 0 0 0 127 0" result="hardAlpha"/>
<feOffset dy="11"/>
<feGaussianBlur stdDeviation="11"/>
<feColorMatrix type="matrix" values="0 0 0 0 0 0 0 0 0 0 0 0 0 0 0 0 0 0 0.27 0"/>
<feBlend mode="normal" in2="BackgroundImageFix" result="effect1_dropShadow"/>
<feBlend mode="normal" in="SourceGraphic" in2="effect1_dropShadow" result="shape"/>
</filter>
<filter id="filter11_d" x="79.1475" y="51.2598" width="65.2358" height="65.2599" filterUnits="userSpaceOnUse" color-interpolation-filters="sRGB">
<feFlood flood-opacity="0" result="BackgroundImageFix"/>
<feColorMatrix in="SourceAlpha" type="matrix" values="0 0 0 0 0 0 0 0 0 0 0 0 0 0 0 0 0 0 127 0" result="hardAlpha"/>
<feOffset dy="11"/>
<feGaussianBlur stdDeviation="11"/>
<feColorMatrix type="matrix" values="0 0 0 0 0 0 0 0 0 0 0 0 0 0 0 0 0 0 0.27 0"/>
<feBlend mode="normal" in2="BackgroundImageFix" result="effect1_dropShadow"/>
<feBlend mode="normal" in="SourceGraphic" in2="effect1_dropShadow" result="shape"/>
</filter>
<linearGradient id="paint0_linear" x1="86.1227" y1="41.8488" x2="86.1227" y2="52.7114" gradientUnits="userSpaceOnUse">
<stop stop-color="#454C5C"/>
<stop offset="0.9964" stop-color="#5C6479"/>
</linearGradient>
<linearGradient id="paint1_linear" x1="63.8661" y1="39.9724" x2="63.8661" y2="56.4367" gradientUnits="userSpaceOnUse">
<stop stop-color="#454C5C"/>
<stop offset="0.9964" stop-color="#5C6479"/>
</linearGradient>
<linearGradient id="paint2_linear" x1="108.374" y1="39.9935" x2="108.374" y2="56.4365" gradientUnits="userSpaceOnUse">
<stop stop-color="#454C5C"/>
<stop offset="0.9964" stop-color="#5C6479"/>
</linearGradient>
<linearGradient id="paint3_linear" x1="86.1186" y1="43.3158" x2="86.1186" y2="75.7649" gradientUnits="userSpaceOnUse">
<stop stop-color="#5C6479"/>
<stop offset="0.9964" stop-color="#5C6479"/>
</linearGradient>
<linearGradient id="paint4_linear" x1="111.561" y1="57.9691" x2="87.6398" y2="62.8384" gradientUnits="userSpaceOnUse">
<stop offset="0.00289017" stop-color="white" stop-opacity="0"/>
<stop offset="1" stop-color="white"/>
</linearGradient>
<linearGradient id="paint5_linear" x1="56.9657" y1="57.9691" x2="84.6615" y2="53.8471" gradientUnits="userSpaceOnUse">
<stop offset="0.00289017" stop-color="white" stop-opacity="0"/>
<stop offset="1" stop-color="white"/>
</linearGradient>
<linearGradient id="paint6_linear" x1="86.1227" y1="53.3026" x2="86.1227" y2="64.1653" gradientUnits="userSpaceOnUse">
<stop stop-color="#5C6479"/>
<stop offset="0.9964" stop-color="#5C6479"/>
</linearGradient>
<linearGradient id="paint7_linear" x1="60.4786" y1="61.6527" x2="60.4786" y2="88.788" gradientUnits="userSpaceOnUse">
<stop stop-color="#43495A"/>
<stop offset="0.9964" stop-color="#4B5263"/>
</linearGradient>
<linearGradient id="paint8_linear" x1="60.4801" y1="61.768" x2="60.4801" y2="83.7488" gradientUnits="userSpaceOnUse">
<stop stop-color="#5C6479"/>
<stop offset="0.9964" stop-color="#5C6479"/>
</linearGradient>
<linearGradient id="paint9_linear" x1="111.757" y1="61.6527" x2="111.757" y2="88.788" gradientUnits="userSpaceOnUse">
<stop stop-color="#43495A"/>
<stop offset="0.9964" stop-color="#4B5263"/>
</linearGradient>
<linearGradient id="paint10_linear" x1="111.758" y1="61.768" x2="111.758" y2="83.7488" gradientUnits="userSpaceOnUse">
<stop stop-color="#5C6479"/>
<stop offset="0.9964" stop-color="#5C6479"/>
</linearGradient>
</defs>
</svg>
