<svg width="143" height="124" viewBox="0 0 143 124" fill="none" xmlns="http://www.w3.org/2000/svg">
<path d="M70.3001 106.259C98.3001 106.259 121 83.5593 121 55.4593C121 27.3593 98.2001 4.6593 70.3001 4.6593C42.3001 4.6593 19.6001 27.3593 19.6001 55.4593C19.6001 83.5593 42.3001 106.259 70.3001 106.259Z" fill="#2A2E37"/>
<path d="M123.7 6.15933C125.246 6.15933 126.5 4.90572 126.5 3.35933C126.5 1.81293 125.246 0.559326 123.7 0.559326C122.154 0.559326 120.9 1.81293 120.9 3.35933C120.9 4.90572 122.154 6.15933 123.7 6.15933Z" fill="#2A2E37"/>
<path d="M22.3 22.0594C23.8464 22.0594 25.1 20.8057 25.1 19.2594C25.1 17.713 23.8464 16.4594 22.3 16.4594C20.7536 16.4594 19.5 17.713 19.5 19.2594C19.5 20.8057 20.7536 22.0594 22.3 22.0594Z" fill="#2A2E37"/>
<path d="M5.2 76.0593C8.07188 76.0593 10.4 73.7312 10.4 70.8593C10.4 67.9874 8.07188 65.6593 5.2 65.6593C2.32812 65.6593 0 67.9874 0 70.8593C0 73.7312 2.32812 76.0593 5.2 76.0593Z" fill="#2A2E37"/>
<g filter="url(#filter0_d)">
<path d="M118.611 28.7762V87.6139C118.611 89.3401 117.173 90.7787 115.446 90.7787H26.0389C24.3126 90.8507 22.874 89.4121 22.874 87.6858V28.7762C22.874 26.978 24.3126 25.6113 26.0389 25.6113H115.446C117.244 25.6113 118.611 27.0499 118.611 28.7762Z" fill="url(#paint0_linear)"/>
</g>
<path d="M118.611 28.7762V33.3077H22.874V28.7762C22.874 26.978 24.3126 25.6113 26.0389 25.6113H115.446C117.244 25.6113 118.611 27.0499 118.611 28.7762Z" fill="#474E61"/>
<path d="M57.5437 56.109C59.0135 56.109 60.205 54.9174 60.205 53.4476C60.205 51.9778 59.0135 50.7863 57.5437 50.7863C56.0739 50.7863 54.8823 51.9778 54.8823 53.4476C54.8823 54.9174 56.0739 56.109 57.5437 56.109Z" fill="#989FB0"/>
<path d="M84.0134 56.109C85.4832 56.109 86.6748 54.9174 86.6748 53.4476C86.6748 51.9778 85.4832 50.7863 84.0134 50.7863C82.5436 50.7863 81.3521 51.9778 81.3521 53.4476C81.3521 54.9174 82.5436 56.109 84.0134 56.109Z" fill="#989FB0"/>
<path d="M75.0943 73.5876H66.7506C65.4559 73.5876 64.377 72.5087 64.377 71.214C64.377 69.9193 65.4559 68.8403 66.7506 68.8403H75.0224C76.3171 68.8403 77.396 69.9193 77.396 71.214C77.468 72.5087 76.389 73.5876 75.0943 73.5876Z" fill="#989FB0"/>
<path d="M27.118 30.7901C27.7139 30.7901 28.1969 30.307 28.1969 29.7111C28.1969 29.1153 27.7139 28.6322 27.118 28.6322C26.5221 28.6322 26.0391 29.1153 26.0391 29.7111C26.0391 30.307 26.5221 30.7901 27.118 30.7901Z" fill="#F9FAFB"/>
<path d="M30.4984 30.7901C31.0942 30.7901 31.5773 30.307 31.5773 29.7111C31.5773 29.1153 31.0942 28.6322 30.4984 28.6322C29.9025 28.6322 29.4194 29.1153 29.4194 29.7111C29.4194 30.307 29.9025 30.7901 30.4984 30.7901Z" fill="#F9FAFB"/>
<path d="M33.951 30.7901C34.5469 30.7901 35.0299 30.307 35.0299 29.7111C35.0299 29.1153 34.5469 28.6322 33.951 28.6322C33.3551 28.6322 32.8721 29.1153 32.8721 29.7111C32.8721 30.307 33.3551 30.7901 33.951 30.7901Z" fill="#F9FAFB"/>
<path d="M114.727 17.9868C114.008 17.9868 113.432 17.4114 113.432 16.6921V2.23441C113.432 1.51513 114.008 0.939697 114.727 0.939697C115.446 0.939697 116.022 1.51513 116.022 2.23441V16.6921C116.022 17.4114 115.446 17.9868 114.727 17.9868Z" fill="#989FB0"/>
<path d="M125.229 29.0638C125.229 28.3445 125.804 27.769 126.523 27.769H140.981C141.7 27.769 142.276 28.3445 142.276 29.0638C142.276 29.783 141.7 30.3585 140.981 30.3585H126.523C125.804 30.3585 125.229 29.783 125.229 29.0638Z" fill="#989FB0"/>
<path d="M124.078 19.7131C123.574 19.2096 123.574 18.3465 124.078 17.843L134.364 7.62909C134.867 7.12559 135.73 7.12559 136.234 7.62909C136.737 8.13259 136.737 8.99574 136.234 9.49924L126.02 19.7131C125.444 20.2166 124.581 20.2166 124.078 19.7131Z" fill="#989FB0"/>
<defs>
<filter id="filter0_d" x="0.874023" y="14.6113" width="139.737" height="109.17" filterUnits="userSpaceOnUse" color-interpolation-filters="sRGB">
<feFlood flood-opacity="0" result="BackgroundImageFix"/>
<feColorMatrix in="SourceAlpha" type="matrix" values="0 0 0 0 0 0 0 0 0 0 0 0 0 0 0 0 0 0 127 0" result="hardAlpha"/>
<feOffset dy="11"/>
<feGaussianBlur stdDeviation="11"/>
<feColorMatrix type="matrix" values="0 0 0 0 0 0 0 0 0 0 0 0 0 0 0 0 0 0 0.27 0"/>
<feBlend mode="normal" in2="BackgroundImageFix" result="effect1_dropShadow"/>
<feBlend mode="normal" in="SourceGraphic" in2="effect1_dropShadow" result="shape"/>
</filter>
<linearGradient id="paint0_linear" x1="70.7114" y1="24.1039" x2="70.7114" y2="91.4839" gradientUnits="userSpaceOnUse">
<stop stop-color="#5C6479"/>
<stop offset="0.9964" stop-color="#5C6479"/>
</linearGradient>
</defs>
</svg>
