<svg width="164" height="139" viewBox="0 0 164 139" fill="none" xmlns="http://www.w3.org/2000/svg">
<path d="M32.4019 27.404C34.4231 27.404 36.0616 25.7645 36.0616 23.7421C36.0616 21.7198 34.4231 20.0803 32.4019 20.0803C30.3807 20.0803 28.7422 21.7198 28.7422 23.7421C28.7422 25.7645 30.3807 27.404 32.4019 27.404Z" fill="#2A2E37"/>
<path d="M132.562 38.5822C134.583 38.5822 136.222 36.9427 136.222 34.9204C136.222 32.898 134.583 31.2585 132.562 31.2585C130.541 31.2585 128.902 32.898 128.902 34.9204C128.902 36.9427 130.541 38.5822 132.562 38.5822Z" fill="#2A2E37"/>
<path d="M39.8177 14.9731C40.6155 14.9731 41.2623 14.3259 41.2623 13.5276C41.2623 12.7293 40.6155 12.0822 39.8177 12.0822C39.0198 12.0822 38.373 12.7293 38.373 13.5276C38.373 14.3259 39.0198 14.9731 39.8177 14.9731Z" fill="#2A2E37"/>
<path d="M128.325 23.0676C129.176 23.0676 129.866 22.3774 129.866 21.5258C129.866 20.6743 129.176 19.984 128.325 19.984C127.474 19.984 126.784 20.6743 126.784 21.5258C126.784 22.3774 127.474 23.0676 128.325 23.0676Z" fill="#2A2E37"/>
<path d="M81.7115 109.409C110.966 109.409 134.681 85.6805 134.681 56.4094C134.681 27.1383 110.966 3.40942 81.7115 3.40942C52.4574 3.40942 28.7422 27.1383 28.7422 56.4094C28.7422 85.6805 52.4574 109.409 81.7115 109.409Z" fill="#2A2E37"/>
<g filter="url(#filter0_d)">
<path d="M96.5431 86.764L50.5079 105.362C49.7374 105.651 48.8707 105.266 48.5817 104.591L22.0971 38.7749C21.8081 38.004 22.1934 37.1367 22.8675 36.8476L68.9027 18.2495C69.6732 17.9604 70.5399 18.3458 70.8289 19.0204L97.3135 84.7404C97.6987 85.6076 97.3135 86.4749 96.5431 86.764Z" fill="#444955"/>
</g>
<path d="M76.222 47.8331L37.6988 63.3477C37.3136 63.5404 36.9283 63.3477 36.7357 62.9622C36.5431 62.5768 36.7357 62.1913 37.121 61.9986L75.5478 46.4841C75.933 46.2913 76.3183 46.4841 76.5109 46.8695C76.7035 47.255 76.5109 47.6404 76.222 47.8331Z" fill="#2F323A"/>
<path d="M77.6667 51.5912L39.2398 67.1057C38.8546 67.2985 38.4694 67.1057 38.2767 66.7203C38.0841 66.3348 38.2767 65.9494 38.662 65.7567L77.0888 50.2421C77.474 50.0494 77.8593 50.2421 78.0519 50.6276C78.2445 51.013 78.0519 51.3985 77.6667 51.5912Z" fill="#2F323A"/>
<path d="M79.2077 55.2531L40.7808 70.864C40.3956 71.0568 40.0104 70.864 39.8178 70.4786C39.6251 70.0931 39.8178 69.7077 40.203 69.515L78.6298 54.0004C79.0151 53.8077 79.4003 54.0004 79.5929 54.3859C79.7855 54.675 79.5929 55.1568 79.2077 55.2531Z" fill="#2F323A"/>
<path d="M56.768 68.744L42.3218 74.6222C41.9366 74.8149 41.5514 74.6222 41.3588 74.2368C41.1662 73.8513 41.3588 73.4659 41.744 73.2731L56.1902 67.3949C56.5754 67.2022 56.9606 67.3949 57.1533 67.7804C57.2496 68.1659 57.1533 68.5513 56.768 68.744Z" fill="#2F323A"/>
<path d="M84.2154 64.7931L85.4674 67.9731C85.66 68.5513 85.4674 69.2258 84.8896 69.4185L46.848 84.8367C46.2701 85.0295 45.596 84.8367 45.4033 84.2585L44.1513 80.9822C43.9587 80.404 44.1513 79.7295 44.7292 79.5367L82.7708 64.2149C83.3486 64.0222 83.9265 64.3113 84.2154 64.7931Z" fill="#757C8C"/>
<path d="M87.2014 72.1167L88.4534 75.2967C88.646 75.8749 88.4534 76.5494 87.8755 76.7422L49.8339 92.1603C49.2561 92.3531 48.5819 92.1603 48.3893 91.5822L47.041 88.3058C46.8484 87.7276 47.041 87.0531 47.6188 86.8603L85.6604 71.5385C86.2383 71.3458 86.9124 71.6349 87.2014 72.1167Z" fill="#757C8C"/>
<path d="M90.0904 79.4404L91.3424 82.6204C91.535 83.1986 91.3424 83.8731 90.7646 84.0659L52.723 99.4841C52.1451 99.6768 51.471 99.4841 51.2783 98.9059L50.0263 95.7259C49.8337 95.1477 50.0263 94.4731 50.6042 94.2804L88.6458 78.9586C89.2236 78.6695 89.8978 78.9586 90.0904 79.4404Z" fill="#757C8C"/>
<path d="M48.6778 77.9949L50.7966 83.2949L46.848 84.8367C46.2701 85.0294 45.596 84.8367 45.4033 84.2585L44.1513 80.9821C43.9587 80.404 44.1513 79.7294 44.7292 79.5367L48.6778 77.9949Z" fill="#9EA4B4"/>
<path d="M47.715 86.8604L59.272 82.1385L61.3907 87.4385L49.8338 92.1604C49.256 92.3531 48.5818 92.1604 48.3892 91.5822L47.0409 88.3058C46.8483 87.824 47.1372 87.1495 47.715 86.8604Z" fill="#6A7183"/>
<path d="M50.6042 94.1841L52.2414 93.5095L54.3602 98.8095L52.723 99.4841C52.1451 99.6768 51.471 99.4841 51.2783 98.9059L50.0263 95.7259C49.8337 95.1477 50.0263 94.4732 50.6042 94.1841Z" fill="#6A7183"/>
<path d="M51.182 44.5568C51.0857 39.2568 46.7518 34.9204 41.3586 34.9204H41.2623C35.869 34.9204 31.5352 39.3531 31.5352 44.7495C31.6315 50.1459 36.0616 54.4822 41.4549 54.4822C44.4404 54.4822 47.0407 53.1331 48.8706 51.1095C50.4115 49.375 51.2783 47.1586 51.2783 44.6531C51.182 44.6531 51.182 44.6531 51.182 44.5568ZM41.4549 51.3986C37.7952 51.3986 34.8096 48.4113 34.8096 44.7495C34.8096 41.0877 37.7952 38.1004 41.4549 38.1004H41.5512C45.2109 38.1004 48.1001 40.9913 48.1964 44.5568C48.1964 44.6531 48.1964 44.6531 48.1964 44.7495C48.1964 46.3877 47.6186 47.9295 46.5592 49.0859C45.2109 50.5313 43.4773 51.3986 41.4549 51.3986Z" fill="#2F323A"/>
<path d="M51.1818 44.5568H48.0036C48.0036 40.9913 45.0181 38.1004 41.4547 38.1004H41.3584V34.9204H41.4547C46.7516 34.9204 51.0855 39.2568 51.1818 44.5568Z" fill="#9EA4B4"/>
<g filter="url(#filter1_d)">
<path d="M115.323 101.7L68.8064 84.3549C68.036 84.0658 67.6508 83.1985 67.9397 82.4276L92.5945 16.0331C92.8834 15.2622 93.7502 14.8767 94.5207 15.1658L141.037 32.4149C141.808 32.704 142.193 33.5713 141.904 34.3422L117.249 100.833C116.96 101.604 116.094 101.989 115.323 101.7Z" fill="#444955"/>
</g>
<path opacity="0.4" d="M109.159 45.0385L105.403 43.5931L108.485 35.0167L112.241 36.3658L109.159 45.0385Z" fill="#2F323A"/>
<path d="M114.264 46.8694L110.412 45.4239L115.131 32.3185L118.887 33.7639L114.264 46.8694Z" fill="#6A7183"/>
<path d="M124.376 50.4349L120.62 49.0858L126.784 31.8367L130.636 33.1858L124.376 50.4349Z" fill="#6A7183"/>
<path opacity="0.4" d="M129.192 52.1694L125.436 50.8203L127.073 46.0985L130.925 47.544L129.192 52.1694Z" fill="#2F323A"/>
<path d="M126.495 59.204L87.5866 44.7494C87.2014 44.6531 87.0088 44.1712 87.1051 43.7858C87.2014 43.4003 87.683 43.2076 88.0682 43.304L126.977 57.7585C127.362 57.8549 127.554 58.3367 127.458 58.7222C127.266 59.1076 126.88 59.3003 126.495 59.204Z" fill="#2F323A"/>
<path d="M125.05 62.9622L86.1418 48.5076C85.7566 48.4112 85.564 47.9294 85.6603 47.544C85.7566 47.1585 86.2381 46.9658 86.6234 47.0622L125.532 61.5167C125.917 61.6131 126.11 62.0949 126.013 62.4803C125.917 62.8658 125.435 63.1549 125.05 62.9622Z" fill="#2F323A"/>
<path d="M123.702 66.7203L84.7937 52.2658C84.4084 52.1694 84.2158 51.6876 84.3121 51.3022C84.4084 50.9167 84.89 50.724 85.2752 50.8203L124.184 65.2749C124.569 65.3712 124.761 65.8531 124.665 66.2385C124.473 66.7203 124.087 66.9131 123.702 66.7203Z" fill="#2F323A"/>
<path d="M98.0843 61.5168L83.4455 56.1204C83.0603 56.024 82.8677 55.5422 82.964 55.1568C83.0603 54.7713 83.5418 54.5786 83.9271 54.6749L98.5659 60.0713C98.9511 60.1677 99.1437 60.6495 99.0474 61.0349C98.8548 61.4204 98.4696 61.6131 98.0843 61.5168Z" fill="black"/>
<path d="M121.005 77.1276L119.85 80.404C119.657 80.9822 118.983 81.2713 118.405 81.0785L110.123 77.9949L79.882 66.7204C79.3042 66.5276 79.0152 65.8531 79.2079 65.2749L80.3636 61.9985C80.5562 61.4204 81.2303 61.1313 81.8082 61.324L111.856 72.5022L120.235 75.5858C120.909 75.9713 121.198 76.5494 121.005 77.1276Z" fill="#2F323A"/>
<path d="M118.212 84.5476L117.057 87.824C116.864 88.4022 116.19 88.6913 115.612 88.4985L112.819 87.4385L77.1852 74.2367C76.6074 74.044 76.3185 73.3694 76.5111 72.7913L77.6668 69.5149C77.8594 68.9367 78.5336 68.6476 79.1114 68.8403L114.842 82.1385L117.538 83.1985C118.116 83.3913 118.405 83.9694 118.212 84.5476Z" fill="#2F323A"/>
<path d="M115.516 91.9677L114.36 95.244C114.167 95.8222 113.493 96.1113 112.915 95.9186L98.6617 90.6186L74.4885 81.6568C73.9106 81.464 73.6217 80.7895 73.8143 80.2113L74.97 76.9349C75.1626 76.3568 75.8368 76.0677 76.4146 76.2604L101.166 85.4149L114.841 90.5222C115.419 90.7149 115.708 91.3895 115.516 91.9677Z" fill="#2F323A"/>
<path d="M76.4146 76.2603L101.166 85.4149L98.6617 90.5221L74.4885 81.5603C73.9106 81.3676 73.6217 80.693 73.8143 80.1149L74.97 76.8385C75.1626 76.3567 75.8368 76.0676 76.4146 76.2603Z" fill="#63697C"/>
<path d="M79.2079 65.3712L80.3636 62.0948C80.5562 61.5167 81.2303 61.2276 81.8082 61.4203L111.856 72.5985L109.93 77.8985L79.882 66.7203C79.3042 66.5276 79.0152 65.9494 79.2079 65.3712Z" fill="#63697C"/>
<path d="M114.842 82.1385L112.819 87.4385L77.1852 74.2367C76.6074 74.044 76.3185 73.3694 76.5111 72.7913L77.6668 69.5149C77.8594 68.9367 78.5336 68.6476 79.1114 68.8403L114.842 82.1385Z" fill="#63697C"/>
<path d="M89.0313 64.1185L87.1051 69.4185L79.882 66.7204C79.3042 66.5276 79.0152 65.8531 79.2079 65.2749L80.3636 61.9985C80.5562 61.4204 81.2303 61.1313 81.8082 61.324L89.0313 64.1185Z" fill="black"/>
<path d="M79.1114 68.8404L86.3345 71.5386L84.4083 76.8386L77.1852 74.1404C76.6074 73.9477 76.3185 73.2731 76.5111 72.6949L77.6668 69.4186C77.9557 68.9368 78.5336 68.6477 79.1114 68.8404Z" fill="black"/>
<path d="M76.4146 76.2603L83.6377 78.9585L81.7116 84.2585L74.4885 81.5603C73.9106 81.3676 73.6217 80.693 73.8143 80.1149L74.97 76.8385C75.1626 76.3567 75.8368 76.0676 76.4146 76.2603Z" fill="black"/>
<g filter="url(#filter2_d)">
<path d="M107.041 85.6076H57.4422C56.6717 85.6076 55.9976 84.9331 55.9976 84.1622V13.2385C55.9976 12.4676 56.6717 11.7931 57.4422 11.7931H107.041C107.811 11.7931 108.485 12.4676 108.485 13.2385V84.0658C108.582 84.9331 107.908 85.6076 107.041 85.6076Z" fill="url(#paint0_linear)"/>
</g>
<path d="M102.707 39.0631H61.2944C60.9092 39.0631 60.5239 38.7742 60.5239 38.2927C60.5239 37.9074 60.8128 37.5222 61.2944 37.5222H102.707C103.092 37.5222 103.477 37.8111 103.477 38.2927C103.477 38.6779 103.092 39.0631 102.707 39.0631Z" fill="#3E4450"/>
<path d="M102.707 43.0141H61.2944C60.9092 43.0141 60.5239 42.7251 60.5239 42.2436C60.5239 41.8584 60.8128 41.4731 61.2944 41.4731H102.707C103.092 41.4731 103.477 41.7621 103.477 42.2436C103.477 42.7251 103.092 43.0141 102.707 43.0141Z" fill="#3E4450"/>
<path d="M102.707 47.0612H61.2944C60.9092 47.0612 60.5239 46.7723 60.5239 46.2907C60.5239 45.9055 60.8128 45.5203 61.2944 45.5203H102.707C103.092 45.5203 103.477 45.8092 103.477 46.2907C103.477 46.7723 103.092 47.0612 102.707 47.0612Z" fill="#3E4450"/>
<path d="M102.611 62.1903H88.6459C88.2607 62.1903 87.8755 61.9014 87.8755 61.4199C87.8755 61.0346 88.1644 60.6494 88.6459 60.6494H102.611C102.996 60.6494 103.381 60.9383 103.381 61.4199C103.285 61.8051 102.996 62.1903 102.611 62.1903Z" fill="#3E4450"/>
<path d="M80.0745 66.3349C79.9782 61.0349 75.6444 56.6985 70.2511 56.6985H70.1548C64.7616 56.6985 60.4277 61.1312 60.4277 66.5276C60.4277 71.9239 64.8579 76.3567 70.2511 76.3567C73.2367 76.3567 75.837 75.0076 77.6668 72.9839C79.2078 71.2494 80.0745 69.033 80.0745 66.5276C80.0745 66.4312 80.0745 66.3349 80.0745 66.3349ZM70.2511 73.0803C66.5914 73.0803 63.6059 70.093 63.6059 66.4312C63.6059 62.7694 66.5914 59.7821 70.2511 59.7821H70.3474C74.0071 59.7821 76.8964 62.673 76.9927 66.2385C76.9927 66.3349 76.9927 66.3349 76.9927 66.4312C76.9927 68.0694 76.4148 69.6112 75.3555 70.7676C74.0071 72.213 72.2736 73.0803 70.2511 73.0803Z" fill="#3E4450"/>
<path d="M80.0745 66.3348H76.8963C76.8 62.7694 73.9108 59.8785 70.2511 59.8785H70.1548V56.6985H70.2511C75.6443 56.6985 79.9782 60.9385 80.0745 66.3348Z" fill="#9EA4B4"/>
<path d="M80.0747 66.4313C80.0747 68.9368 79.2079 71.1531 77.667 72.8877L75.2593 70.8641C76.3187 69.7077 76.8965 68.1659 76.8965 66.5277C76.8965 66.4313 76.8965 66.4313 76.8965 66.335H80.0747V66.4313Z" fill="#7E8597"/>
<path d="M85.2752 62.4804C85.8603 62.4804 86.3346 62.0058 86.3346 61.4204C86.3346 60.8349 85.8603 60.3604 85.2752 60.3604C84.6901 60.3604 84.2158 60.8349 84.2158 61.4204C84.2158 62.0058 84.6901 62.4804 85.2752 62.4804Z" fill="#3E4450"/>
<path d="M102.611 66.6231H88.6459C88.2607 66.6231 87.8755 66.3342 87.8755 65.8526C87.8755 65.4674 88.1644 65.0822 88.6459 65.0822H102.611C102.996 65.0822 103.381 65.3711 103.381 65.8526C103.285 66.2378 102.996 66.6231 102.611 66.6231Z" fill="#3E4450"/>
<path d="M85.2752 66.9131C85.8603 66.9131 86.3346 66.4385 86.3346 65.8531C86.3346 65.2677 85.8603 64.7931 85.2752 64.7931C84.6901 64.7931 84.2158 65.2677 84.2158 65.8531C84.2158 66.4385 84.6901 66.9131 85.2752 66.9131Z" fill="#7E8597"/>
<path d="M102.611 71.0558H88.6459C88.2607 71.0558 87.8755 70.7669 87.8755 70.2854C87.8755 69.9001 88.1644 69.5149 88.6459 69.5149H102.611C102.996 69.5149 103.381 69.8038 103.381 70.2854C103.285 70.6706 102.996 71.0558 102.611 71.0558Z" fill="#3E4450"/>
<path d="M85.2752 71.3458C85.8603 71.3458 86.3346 70.8713 86.3346 70.2858C86.3346 69.7004 85.8603 69.2258 85.2752 69.2258C84.6901 69.2258 84.2158 69.7004 84.2158 70.2858C84.2158 70.8713 84.6901 71.3458 85.2752 71.3458Z" fill="#9EA4B4"/>
<path d="M60.8125 33.764H103.381V16.5149L96.639 19.8876L93.0756 22.3931L86.7193 22.2967L81.1335 25.1876L76.3181 25.8622L74.5845 27.7894L69.5765 30.9694L64.6648 31.8367L60.8125 33.764Z" fill="#9EA4B4"/>
<path d="M60.8125 33.764H103.381V20.6586L96.639 23.164L93.0756 25.0913L86.7193 24.9949L81.1335 27.2113L76.3181 27.7895L74.5845 29.1386L69.5765 31.644L64.6648 32.3186L60.8125 33.764Z" fill="#3E4450"/>
<path d="M60.8125 33.764H103.381V26.344L96.639 27.7894L93.0756 28.8494H86.7193L81.1335 30.0058L76.3181 30.3913L74.5845 31.1622L69.5765 32.5113L64.6648 32.8967L60.8125 33.764Z" fill="#2A2E37"/>
<defs>
<filter id="filter0_d" x="0" y="7.15234" width="119.465" height="131.307" filterUnits="userSpaceOnUse" color-interpolation-filters="sRGB">
<feFlood flood-opacity="0" result="BackgroundImageFix"/>
<feColorMatrix in="SourceAlpha" type="matrix" values="0 0 0 0 0 0 0 0 0 0 0 0 0 0 0 0 0 0 127 0" result="hardAlpha"/>
<feOffset dy="11"/>
<feGaussianBlur stdDeviation="11"/>
<feColorMatrix type="matrix" values="0 0 0 0 0 0 0 0 0 0 0 0 0 0 0 0 0 0 0.27 0"/>
<feBlend mode="normal" in2="BackgroundImageFix" result="effect1_dropShadow"/>
<feBlend mode="normal" in="SourceGraphic" in2="effect1_dropShadow" result="shape"/>
</filter>
<filter id="filter1_d" x="45.8438" y="4.06982" width="118.156" height="130.727" filterUnits="userSpaceOnUse" color-interpolation-filters="sRGB">
<feFlood flood-opacity="0" result="BackgroundImageFix"/>
<feColorMatrix in="SourceAlpha" type="matrix" values="0 0 0 0 0 0 0 0 0 0 0 0 0 0 0 0 0 0 127 0" result="hardAlpha"/>
<feOffset dy="11"/>
<feGaussianBlur stdDeviation="11"/>
<feColorMatrix type="matrix" values="0 0 0 0 0 0 0 0 0 0 0 0 0 0 0 0 0 0 0.27 0"/>
<feBlend mode="normal" in2="BackgroundImageFix" result="effect1_dropShadow"/>
<feBlend mode="normal" in="SourceGraphic" in2="effect1_dropShadow" result="shape"/>
</filter>
<filter id="filter2_d" x="33.9976" y="0.793091" width="96.4971" height="117.815" filterUnits="userSpaceOnUse" color-interpolation-filters="sRGB">
<feFlood flood-opacity="0" result="BackgroundImageFix"/>
<feColorMatrix in="SourceAlpha" type="matrix" values="0 0 0 0 0 0 0 0 0 0 0 0 0 0 0 0 0 0 127 0" result="hardAlpha"/>
<feOffset dy="11"/>
<feGaussianBlur stdDeviation="11"/>
<feColorMatrix type="matrix" values="0 0 0 0 0 0 0 0 0 0 0 0 0 0 0 0 0 0 0.27 0"/>
<feBlend mode="normal" in2="BackgroundImageFix" result="effect1_dropShadow"/>
<feBlend mode="normal" in="SourceGraphic" in2="effect1_dropShadow" result="shape"/>
</filter>
<linearGradient id="paint0_linear" x1="82.2289" y1="10.0857" x2="82.2289" y2="86.4034" gradientUnits="userSpaceOnUse">
<stop stop-color="#5C6479"/>
<stop offset="0.9964" stop-color="#5C6479"/>
</linearGradient>
</defs>
</svg>
