<svg width="146" height="138" viewBox="0 0 146 138" fill="none" xmlns="http://www.w3.org/2000/svg">
<path d="M72.2 120.056C100.2 120.056 122.9 97.3562 122.9 69.2562C122.9 41.1562 100.2 18.4562 72.2 18.4562C44.2 18.4562 21.5 41.1562 21.5 69.2562C21.5 97.3562 44.2 120.056 72.2 120.056Z" fill="#2A2E37"/>
<path d="M34.8998 36.3562H107C109.9 36.3562 112.1 38.5562 112.1 41.4562V87.1562C112.1 90.0562 109.9 92.2562 107 92.2562H34.8998C31.9998 92.2562 29.7998 90.0562 29.7998 87.1562V41.4562C29.7998 38.5562 32.1998 36.3562 34.8998 36.3562Z" fill="#414758"/>
<path d="M113.5 65.6561V88.1561C113.5 91.0561 111.2 93.4561 108.2 93.4561H34.0998C31.1998 93.4561 28.7998 91.0561 28.7998 88.1561V63.7561" stroke="#1676EE" stroke-width="3" stroke-linecap="round" stroke-linejoin="round"/>
<path d="M107.2 53.0562H83.8C81.5 53.0562 79.3 53.8562 77.6 55.2562L71.5 60.2562C69.8 61.6562 67.6 62.4562 65.3 62.4562H38.9C36.2 62.4562 34 64.6562 34 67.3562C34 67.5562 34 67.8562 34.1 68.0562L39 93.8562C39.4 96.2562 41.4 98.0562 43.9 98.0562H100.4C102.8 98.0562 104.9 96.3562 105.3 93.9562L112.1 58.6562C112.6 55.9562 110.8 53.5562 108.1 53.0562C107.7 53.0562 107.4 53.0562 107.2 53.0562Z" fill="white"/>
<g filter="url(#filter0_d)">
<path d="M117.7 46.1562H87.2999C84.2999 46.1562 81.4999 47.1562 79.1999 49.0562L71.1999 55.5562C68.9999 57.3562 66.0999 58.4562 63.0999 58.4562H28.6999C25.1999 58.4562 22.3999 61.3561 22.3999 64.7561C22.3999 65.0561 22.3999 65.3562 22.4999 65.6562L28.7999 99.3562C29.2999 102.556 31.9999 104.856 35.0999 104.856H108.7C111.9 104.856 114.5 102.656 115 99.4562L123.9 53.3562C124.5 49.8562 122.2 46.7562 118.7 46.0562C118.4 46.1562 118 46.1562 117.7 46.1562Z" fill="url(#paint0_linear)"/>
</g>
<path d="M58.9001 81.0562C60.7001 81.0562 62.2001 79.5562 62.2001 77.7562C62.2001 75.9562 60.7001 74.4562 58.9001 74.4562C57.1001 74.4562 55.6001 75.9562 55.6001 77.7562C55.6001 79.5562 57.1001 81.0562 58.9001 81.0562Z" fill="#989FB0"/>
<path d="M84.5998 80.9562C86.3998 80.9562 87.8998 79.4562 87.8998 77.6562C87.8998 75.8562 86.3998 74.3562 84.5998 74.3562C82.7998 74.3562 81.2998 75.8562 81.2998 77.6562C81.2998 79.5562 82.7998 80.9562 84.5998 80.9562Z" fill="#989FB0"/>
<g filter="url(#filter1_d)">
<path d="M122.6 102.556C122.2 104.256 121.6 106.056 120.9 107.556C119 111.256 116 114.156 112.3 116.056C108.5 117.956 104 118.756 99.5001 117.756C88.9001 115.556 82.1001 105.156 84.3001 94.5562C86.5001 83.9562 96.8001 77.0562 107.4 79.3562C111.2 80.1562 114.5 82.0562 117.3 84.6562C122 89.3562 124 96.1562 122.6 102.556Z" fill="url(#paint1_linear)"/>
</g>
<path d="M109.7 96.8561H105.2V92.3561C105.2 91.4561 104.5 90.6561 103.5 90.6561C102.6 90.6561 101.8 91.3561 101.8 92.3561V96.8561H97.3001C96.4001 96.8561 95.6001 97.5561 95.6001 98.5561C95.6001 99.5561 96.3001 100.256 97.3001 100.256H101.8V104.756C101.8 105.656 102.5 106.456 103.5 106.456C104.4 106.456 105.2 105.756 105.2 104.756V100.256H109.7C110.6 100.256 111.4 99.5561 111.4 98.5561C111.4 97.5561 110.6 96.8561 109.7 96.8561Z" fill="#474E61"/>
<path d="M67.7 57.3562C64.1 50.3562 63.3 41.9562 65.7 34.3562C68 26.7562 73.5 20.2562 80.3 16.5562C82.4 15.4562 84.8 14.5562 87.2 14.4562C89.6 14.3562 92.2 15.1562 93.8 17.1562C95.4 18.9562 95.7 21.9562 94.4 23.9562C93 25.8562 90.2 26.6562 87.9 26.0562C84.2 25.3562 81.2 22.4562 80.3 18.9562C79.4 15.4562 80.6 11.3562 83.4 9.05617C85.2 7.45617 87.7 6.55617 90 5.85617C101.2 2.55617 113.4 2.15617 124.8 4.65617" stroke="#667089" stroke-width="2" stroke-miterlimit="10" stroke-dasharray="4 4"/>
<path d="M74.9002 84.5562H68.7002V86.0562H74.9002V84.5562Z" fill="#989FB0"/>
<path d="M130.8 2.05613C130.7 3.55613 130.6 4.95613 129.5 5.25613C128.4 5.55613 127.9 4.55613 127.2 3.15613C126.5 1.85613 126.9 0.456131 128.1 0.156131C129.2 -0.143869 131 0.256131 130.8 2.05613Z" fill="#AFB7C9"/>
<path d="M129.6 9.25615C129.9 7.45615 130.2 6.45615 129.2 5.95615C128.1 5.45615 127.4 6.35615 126.2 7.55615C125.2 8.65615 125.8 10.2561 126.8 10.7561C128 11.3561 129.3 10.7561 129.6 9.25615Z" fill="#AFB7C9"/>
<path d="M131 5.95623C130.9 6.65623 130.4 7.15623 129.7 7.25623C129.4 7.25623 129.1 7.25623 128.7 7.25623C127.3 7.05623 126.2 6.15623 126.3 5.25623C126.4 4.35623 127.7 3.85623 129.3 4.05623C129.6 4.05623 129.9 4.15623 130.1 4.25623C130.7 4.45623 131.1 5.15623 131 5.95623C131 5.95623 131 5.85623 131 5.95623Z" fill="#474E61"/>
<path d="M19.3999 34.0562C19.3999 32.3562 19.3999 30.6562 20.5999 30.1562C21.8999 29.6562 22.5999 30.8562 23.5999 32.5562C24.4999 34.0562 24.0999 35.6562 22.7999 36.1562C21.6999 36.6562 19.3999 36.3562 19.3999 34.0562Z" fill="#AFB7C9"/>
<path d="M20.1002 25.6561C19.9002 27.7561 19.6002 28.9561 20.9002 29.4561C22.2002 29.9561 22.9002 28.8561 24.2002 27.2561C25.2002 25.8561 24.5002 24.0561 23.2002 23.5561C21.9002 23.0561 20.3002 23.9561 20.1002 25.6561Z" fill="#AFB7C9"/>
<path d="M19 29.6562C19 28.8562 19.6 28.2562 20.3 28.1562C20.6 28.0562 21 28.0562 21.4 28.1562C23 28.2562 24.4 29.1562 24.3 30.1562C24.2 31.1562 22.9 31.8562 21.2 31.6562C20.9 31.6562 20.6 31.5562 20.3 31.4562C19.5 31.3562 19 30.5562 19 29.6562Z" fill="#474E61"/>
<path d="M25.7998 29.9562C36.2998 29.9562 55.6998 36.0562 55.9998 58.4562" stroke="#667089" stroke-width="2" stroke-miterlimit="10" stroke-dasharray="4 4"/>
<defs>
<filter id="filter0_d" x="0.399902" y="35.0562" width="145.595" height="102.8" filterUnits="userSpaceOnUse" color-interpolation-filters="sRGB">
<feFlood flood-opacity="0" result="BackgroundImageFix"/>
<feColorMatrix in="SourceAlpha" type="matrix" values="0 0 0 0 0 0 0 0 0 0 0 0 0 0 0 0 0 0 127 0" result="hardAlpha"/>
<feOffset dy="11"/>
<feGaussianBlur stdDeviation="11"/>
<feColorMatrix type="matrix" values="0 0 0 0 0 0 0 0 0 0 0 0 0 0 0 0 0 0 0.27 0"/>
<feBlend mode="normal" in2="BackgroundImageFix" result="effect1_dropShadow"/>
<feBlend mode="normal" in="SourceGraphic" in2="effect1_dropShadow" result="shape"/>
</filter>
<filter id="filter1_d" x="79.8867" y="78.9136" width="47.1519" height="47.2756" filterUnits="userSpaceOnUse" color-interpolation-filters="sRGB">
<feFlood flood-opacity="0" result="BackgroundImageFix"/>
<feColorMatrix in="SourceAlpha" type="matrix" values="0 0 0 0 0 0 0 0 0 0 0 0 0 0 0 0 0 0 127 0" result="hardAlpha"/>
<feOffset dy="4"/>
<feGaussianBlur stdDeviation="2"/>
<feComposite in2="hardAlpha" operator="out"/>
<feColorMatrix type="matrix" values="0 0 0 0 0 0 0 0 0 0 0 0 0 0 0 0 0 0 0.25 0"/>
<feBlend mode="normal" in2="BackgroundImageFix" result="effect1_dropShadow"/>
<feBlend mode="normal" in="SourceGraphic" in2="effect1_dropShadow" result="shape"/>
</filter>
<linearGradient id="paint0_linear" x1="73.1643" y1="44.6961" x2="73.1643" y2="105.49" gradientUnits="userSpaceOnUse">
<stop stop-color="#5C6479"/>
<stop offset="0.9964" stop-color="#5C6479"/>
</linearGradient>
<linearGradient id="paint1_linear" x1="92.8676" y1="89.2234" x2="109.789" y2="117.782" gradientUnits="userSpaceOnUse">
<stop stop-color="#E3EAF7"/>
<stop offset="1" stop-color="#ADB6C8"/>
</linearGradient>
</defs>
</svg>
