<svg width="111" height="99" viewBox="0 0 111 99" fill="none" xmlns="http://www.w3.org/2000/svg">
<circle cx="47.8602" cy="50.8292" r="47.8602" fill="#2A2E37"/>
<path d="M101.67 31.0792C103.935 31.0792 105.77 29.2435 105.77 26.9792C105.77 24.7148 103.935 22.8792 101.67 22.8792C99.4059 22.8792 97.5703 24.7148 97.5703 26.9792C97.5703 29.2435 99.4059 31.0792 101.67 31.0792Z" fill="#2A2E37"/>
<path d="M107.67 15.079C109.217 15.079 110.47 13.8254 110.47 12.279C110.47 10.7326 109.217 9.479 107.67 9.479C106.124 9.479 104.87 10.7326 104.87 12.279C104.87 13.8254 106.124 15.079 107.67 15.079Z" fill="#2A2E37"/>
<path d="M96.1203 50.8291C96.1203 64.8291 90.0203 77.3291 80.3203 85.9291H2.62031C1.62031 85.9291 0.820312 85.1291 0.820312 84.1291V19.1291C0.820312 18.1291 1.62031 17.3291 2.62031 17.3291H81.8203C90.6203 25.6291 96.1203 37.6291 96.1203 50.8291Z" fill="#2A2E37"/>
<path d="M80.2202 85.8292H80.3202C81.6202 84.6292 82.8202 83.4292 84.0202 82.1292C82.9202 83.5292 81.6202 84.7292 80.2202 85.8292Z" fill="#2A2E37"/>
<path d="M34.9203 57.6292H3.72031C3.22031 57.6292 2.82031 57.2292 2.82031 56.7292V34.3292C2.82031 33.8292 3.22031 33.4292 3.72031 33.4292H34.9203C35.4203 33.4292 35.8203 33.8292 35.8203 34.3292V56.7292C35.8203 57.1292 35.4203 57.6292 34.9203 57.6292Z" fill="#444955"/>
<path d="M91.9203 31.5292H3.72031C3.22031 31.5292 2.82031 31.1292 2.82031 30.6292V20.0292C2.82031 19.5292 3.22031 19.1292 3.72031 19.1292H83.7203C84.9203 20.4292 86.0203 21.8291 87.1203 23.2291C88.2203 24.7291 89.3203 26.4292 90.2203 28.0292C90.8203 29.2292 91.4203 30.3292 91.9203 31.5292Z" fill="#444955"/>
<path d="M90.2204 28.1291H76.4204C76.1204 28.1291 75.9204 27.9291 75.9204 27.6291V23.8291C75.9204 23.5291 76.1204 23.3291 76.4204 23.3291H87.0204C88.2204 24.8291 89.2204 26.4291 90.2204 28.1291Z" fill="#989FB0"/>
<path d="M87.8204 26.2291H79.4204C79.1204 26.2291 78.9204 26.0291 78.9204 25.7291C78.9204 25.4291 79.1204 25.2291 79.4204 25.2291H87.8204C88.1204 25.2291 88.3204 25.4291 88.3204 25.7291C88.3204 25.9291 88.1204 26.2291 87.8204 26.2291Z" fill="#444955"/>
<path d="M69.5204 57.6292H38.3204C37.8204 57.6292 37.4204 57.2292 37.4204 56.7292V34.3292C37.4204 33.8292 37.8204 33.4292 38.3204 33.4292H69.5204C70.0204 33.4292 70.4204 33.8292 70.4204 34.3292V56.7292C70.5204 57.1292 70.1204 57.6292 69.5204 57.6292Z" fill="#444955"/>
<path d="M95.5201 43.5291C94.9201 39.9291 94.0201 36.5291 92.7201 33.3291H73.0201C72.5201 33.3291 72.1201 33.7291 72.1201 34.2291V56.6291C72.1201 57.1291 72.5201 57.5291 73.0201 57.5291H95.6201C95.9201 55.3291 96.1201 53.0291 96.1201 50.8291C96.1201 48.8291 96.0201 46.8291 95.7201 44.8291L95.5201 43.5291Z" fill="#444955"/>
<path d="M34.9203 83.6292H3.72031C3.22031 83.6292 2.82031 83.2292 2.82031 82.7292V60.3292C2.82031 59.8292 3.22031 59.4292 3.72031 59.4292H34.9203C35.4203 59.4292 35.8203 59.8292 35.8203 60.3292V82.7292C35.8203 83.2292 35.4203 83.6292 34.9203 83.6292Z" fill="#444955"/>
<path d="M69.5204 83.6292H38.3204C37.8204 83.6292 37.4204 83.2292 37.4204 82.7292V60.3292C37.4204 59.8292 37.8204 59.4292 38.3204 59.4292H69.5204C70.0204 59.4292 70.4204 59.8292 70.4204 60.3292V82.7292C70.5204 83.2292 70.1204 83.6292 69.5204 83.6292Z" fill="#444955"/>
<path d="M95.3204 59.4292C95.1204 60.6292 94.8204 61.7292 94.5204 62.8292C94.4204 63.2292 94.3204 63.5292 94.2204 63.9292C93.9204 65.0292 93.5204 66.1292 93.1204 67.2292C92.8204 68.0292 92.4204 68.9292 92.1204 69.7292C91.8204 70.3292 91.5204 70.9292 91.2204 71.5292C91.1204 71.8292 90.9204 72.1292 90.7204 72.4292C90.1204 73.5292 89.5204 74.6292 88.8204 75.7292C88.6204 76.0292 88.4204 76.4292 88.1204 76.7292C87.4204 77.7292 86.7204 78.7292 86.0204 79.7292C85.7204 80.1292 85.4204 80.4292 85.1204 80.8292C84.3204 81.8292 83.4204 82.8292 82.5204 83.7292H72.8204C72.3204 83.7292 71.9204 83.3292 71.9204 82.8292V60.3292C71.9204 59.8292 72.3204 59.4292 72.8204 59.4292H95.3204Z" fill="#444955"/>
<path d="M23.3201 72.7291C23.3201 72.8291 23.3201 72.9291 23.2201 73.0291C23.1201 73.2291 23.1201 73.4291 23.1201 73.6291C23.0201 73.7291 23.0201 73.8291 23.0201 73.9291C22.9201 74.1291 22.9201 74.3291 22.8201 74.4291V74.5291C22.7201 74.6291 22.7201 74.7291 22.7201 74.7291C22.6201 74.8291 22.6201 74.9291 22.5201 74.9291L24.3201 76.5291C24.4201 76.4291 24.4201 76.3291 24.5201 76.2291C24.7201 75.9291 24.9201 75.6291 25.0201 75.3291C25.1201 75.2291 25.1201 75.1291 25.1201 75.0291C25.2201 74.7291 25.3201 74.4291 25.5201 74.1291C25.5201 74.0291 25.6201 73.9291 25.6201 73.9291C25.7201 73.7291 25.7201 73.5291 25.7201 73.4291C25.7201 73.3291 25.8201 73.2291 25.8201 73.2291C25.8201 73.1291 25.8201 73.0291 25.9201 73.0291V72.9291C25.9201 72.8291 25.9201 72.7291 25.9201 72.7291H23.3201ZM18.2201 77.2291C15.4201 77.2291 13.0201 74.9291 13.0201 72.1291C13.0201 69.4291 15.0201 67.3291 17.5201 67.0291V64.6291C13.7201 64.9291 10.6201 68.2291 10.6201 72.2291C10.6201 76.4291 14.0201 79.8291 18.2201 79.8291C20.3201 79.8291 22.2201 79.0291 23.5201 77.6291L21.7201 75.9291C20.8201 76.8291 19.5201 77.2291 18.2201 77.2291ZM18.8201 64.5291V66.9291C21.2201 67.2291 23.0201 69.0291 23.3201 71.3291H25.8201C25.5201 67.7291 22.5201 64.8291 18.8201 64.5291Z" fill="#343943"/>
<path d="M25.8199 71.4291H23.4199C23.1199 69.0291 21.2199 67.2291 18.9199 67.0291V64.6292C22.5199 64.8292 25.5199 67.7291 25.8199 71.4291Z" fill="#989FB0"/>
<path d="M25.82 72.7291C25.82 72.8291 25.82 72.9291 25.82 72.9291V73.0291C25.82 73.1291 25.82 73.2291 25.72 73.2291C25.72 73.3291 25.72 73.4291 25.62 73.4291C25.52 73.6291 25.52 73.8291 25.52 73.9291C25.52 74.0291 25.42 74.1291 25.42 74.1291C25.32 74.4291 25.22 74.7291 25.02 75.0291C24.92 75.1291 24.92 75.2291 24.92 75.3291C24.82 75.6291 24.62 75.9291 24.42 76.2291C24.32 76.3291 24.32 76.4291 24.22 76.5291L22.52 74.9291C22.62 74.8291 22.62 74.7291 22.72 74.7291C22.82 74.6291 22.82 74.5291 22.82 74.5291V74.4291C22.92 74.2291 23.02 74.0291 23.02 73.9291C23.12 73.8291 23.12 73.7291 23.12 73.6291C23.22 73.4291 23.22 73.2291 23.22 73.0291C23.22 72.9291 23.32 72.8291 23.32 72.7291H25.82V72.7291Z" fill="#989FB0"/>
<path d="M95.7205 44.8292C95.7205 44.4292 95.6205 44.0292 95.5205 43.5292L90.2205 48.8292C90.0205 48.7292 89.7205 48.6292 89.5205 48.6292C89.3205 48.6292 89.0205 48.7292 88.8205 48.8292L84.0205 44.0292C84.1205 43.8292 84.1205 43.7292 84.1205 43.4292C84.1205 42.5292 83.4205 41.9292 82.6205 41.9292C81.8205 41.9292 81.1205 42.6292 81.1205 43.4292C81.1205 43.6292 81.1205 43.8292 81.2205 44.0292L77.1205 47.9292C76.9205 47.8292 76.7205 47.8292 76.5205 47.8292C75.6205 47.8292 75.0205 48.5292 75.0205 49.3292C75.0205 50.1292 75.7205 50.8292 76.5205 50.8292C77.3205 50.8292 78.0205 50.1292 78.0205 49.3292C78.0205 49.1292 77.9205 48.9292 77.8205 48.7292L81.7205 44.7292C82.0205 44.8292 82.1205 44.9292 82.3205 44.9292C82.5205 44.9292 82.8205 44.8292 82.9205 44.7292L87.7205 49.5292C87.6205 49.7292 87.6205 49.8292 87.6205 50.0292C87.6205 50.9292 88.3205 51.5292 89.1205 51.5292C90.0205 51.5292 90.6205 50.8292 90.6205 50.0292C90.6205 49.8292 90.6205 49.7292 90.5205 49.5292L95.7205 44.8292ZM76.6205 50.2292C76.2205 50.2292 75.9205 49.9292 75.9205 49.5292C75.9205 49.1292 76.2205 48.8292 76.6205 48.8292C77.0205 48.8292 77.3205 49.1292 77.3205 49.5292C77.3205 49.8292 77.0205 50.2292 76.6205 50.2292ZM82.6205 44.1292C82.2205 44.1292 81.9205 43.8292 81.9205 43.4292C81.9205 43.0292 82.2205 42.7292 82.6205 42.7292C83.0205 42.7292 83.3205 43.0292 83.3205 43.4292C83.3205 43.8292 83.1205 44.1292 82.6205 44.1292ZM89.6205 50.9292C89.2205 50.9292 88.9205 50.6292 88.9205 50.2292C88.9205 49.8292 89.2205 49.5292 89.6205 49.5292C90.0205 49.5292 90.3205 49.8292 90.3205 50.2292C90.4205 50.6292 90.1205 50.9292 89.6205 50.9292Z" fill="url(#paint0_linear)"/>
<path d="M43.4202 49.6292H42.0202C41.9202 49.6292 41.7202 49.4292 41.7202 49.3292V41.7292C41.7202 41.5292 41.8202 41.4292 42.0202 41.4292H43.4202C43.5202 41.4292 43.7202 41.6292 43.7202 41.7292V49.3292C43.6202 49.4292 43.5202 49.6292 43.4202 49.6292Z" fill="#989FB0"/>
<path d="M44.2199 49.6291H42.6199C42.5199 49.6291 42.4199 49.5291 42.4199 49.4291V45.9291C42.4199 45.7291 42.5199 45.7291 42.6199 45.7291H44.2199C44.3199 45.7291 44.4199 45.8291 44.4199 45.9291V49.4291C44.4199 49.5291 44.3199 49.6291 44.2199 49.6291Z" fill="#989FB0"/>
<path d="M47.0203 49.6291H45.6203C45.5203 49.6291 45.3203 49.4291 45.3203 49.3291V44.0291C45.3203 43.8291 45.4203 43.7291 45.6203 43.7291H47.0203C47.1203 43.7291 47.3203 43.9291 47.3203 44.0291V49.3291C47.3203 49.4291 47.1203 49.6291 47.0203 49.6291Z" fill="#989FB0"/>
<path d="M50.6199 49.6292H49.2199C49.1199 49.6292 48.9199 49.4292 48.9199 49.3292V45.9291C48.9199 45.7291 49.0199 45.6292 49.2199 45.6292H50.6199C50.7199 45.6292 50.9199 45.8291 50.9199 45.9291V49.2291C50.9199 49.4291 50.7199 49.6292 50.6199 49.6292Z" fill="#989FB0"/>
<path d="M54.2205 49.6291H52.8205C52.7205 49.6291 52.5205 49.4291 52.5205 49.3291V43.0291C52.5205 42.8291 52.6205 42.7291 52.8205 42.7291H54.2205C54.3205 42.7291 54.5205 42.9291 54.5205 43.0291V49.3291C54.5205 49.4291 54.4205 49.6291 54.2205 49.6291Z" fill="#989FB0"/>
<path d="M57.9202 49.6291H56.5202C56.4202 49.6291 56.2202 49.4291 56.2202 49.3291V45.5291C56.2202 45.3291 56.3202 45.2291 56.5202 45.2291H57.9202C58.0202 45.2291 58.2202 45.4291 58.2202 45.5291V49.3291C58.2202 49.4291 58.1202 49.6291 57.9202 49.6291Z" fill="#989FB0"/>
<path d="M61.5203 49.6291H60.1203C60.0203 49.6291 59.8203 49.4291 59.8203 49.3291V44.0291C59.8203 43.8291 59.9203 43.7291 60.1203 43.7291H61.5203C61.6203 43.7291 61.8203 43.9291 61.8203 44.0291V49.3291C61.8203 49.4291 61.7203 49.6291 61.5203 49.6291Z" fill="#989FB0"/>
<path d="M65.2205 49.6292H63.8205C63.7205 49.6292 63.5205 49.4292 63.5205 49.3292V45.9291C63.5205 45.7291 63.6205 45.6292 63.8205 45.6292H65.2205C65.3205 45.6292 65.5205 45.8291 65.5205 45.9291V49.2291C65.4205 49.4291 65.3205 49.6292 65.2205 49.6292Z" fill="#989FB0"/>
<path d="M47.8205 49.6292H46.1205C46.0205 49.6292 46.0205 49.5291 46.0205 49.4291V47.3292C46.0205 47.2292 46.1205 47.1292 46.1205 47.1292H47.8205C47.9205 47.1292 47.9205 47.2292 47.9205 47.3292V49.4291C48.0205 49.5291 47.9205 49.6292 47.8205 49.6292Z" fill="#989FB0"/>
<path d="M51.5202 49.6291H49.8202C49.7202 49.6291 49.7202 49.5291 49.7202 49.4291V48.4291C49.7202 48.3291 49.8202 48.2291 49.8202 48.2291H51.5202C51.6202 48.2291 51.6202 48.3291 51.6202 48.4291V49.4291C51.6202 49.5291 51.6202 49.6291 51.5202 49.6291Z" fill="#989FB0"/>
<path d="M55.1203 49.6291H53.4203C53.3203 49.6291 53.3203 49.5291 53.3203 49.4291V47.9291C53.3203 47.8291 53.4203 47.7291 53.4203 47.7291H55.1203C55.2203 47.7291 55.2203 47.8291 55.2203 47.9291V49.4291C55.3203 49.5291 55.3203 49.6291 55.1203 49.6291Z" fill="#989FB0"/>
<path d="M58.8201 49.6291H57.2201C57.1201 49.6291 57.1201 49.5291 57.1201 49.4291V46.7291C57.1201 46.6291 57.2201 46.5291 57.2201 46.5291H58.8201C58.9201 46.5291 58.9201 46.6291 58.9201 46.7291V49.4291C59.0201 49.5291 58.9201 49.6291 58.8201 49.6291Z" fill="#989FB0"/>
<path d="M62.6202 49.6292H60.8202C60.7202 49.6292 60.7202 49.6292 60.7202 49.5292V49.0292C60.7202 48.9292 60.7202 48.9292 60.8202 48.9292H62.6202C62.7202 48.9292 62.7202 48.9292 62.7202 49.0292V49.4292C62.7202 49.5292 62.7202 49.6292 62.6202 49.6292Z" fill="#989FB0"/>
<path d="M66.2203 49.6291H64.4203C64.4203 49.6291 64.3203 49.6291 64.3203 49.5291V49.3291C64.3203 49.3291 64.3203 49.2291 64.4203 49.2291H66.2203C66.2203 49.2291 66.3203 49.2291 66.3203 49.3291L66.2203 49.6291C66.2203 49.6291 66.3203 49.5291 66.2203 49.6291Z" fill="#989FB0"/>
<path d="M67.8201 62.6292H40.1201V66.3292H67.8201V62.6292Z" fill="#2C343D"/>
<path d="M56.2201 63.8291H48.6201V64.9291H56.2201V63.8291Z" fill="#989FB0"/>
<path d="M65.8201 63.8291H63.1201V64.9291H65.8201V63.8291Z" fill="#989FB0"/>
<path d="M67.8201 69.6292H40.1201V73.3292H67.8201V69.6292Z" fill="#2C343D"/>
<path d="M53.9201 71.0291H48.6201V72.1291H53.9201V71.0291Z" fill="#989FB0"/>
<path d="M65.8201 71.0291H61.1201V72.1291H65.8201V71.0291Z" fill="#989FB0"/>
<path d="M67.8201 76.7291H40.1201V80.4291H67.8201V76.7291Z" fill="#2C343D"/>
<path d="M57.4201 78.0291H48.6201V79.1291H57.4201V78.0291V78.0291Z" fill="#989FB0"/>
<path d="M65.8203 78.0291H64.3203V79.1291H65.8203V78.0291Z" fill="#989FB0"/>
<path d="M10.2205 24.0291H6.02051C5.72051 24.0291 5.52051 23.7291 5.52051 23.5291V23.0291C5.52051 22.7291 5.82051 22.5291 6.02051 22.5291H10.2205C10.5205 22.5291 10.7205 22.8291 10.7205 23.0291V23.5291C10.7205 23.7291 10.5205 24.0291 10.2205 24.0291Z" fill="#989FB0"/>
<path d="M39.1203 24.0291H14.3203C14.0203 24.0291 13.8203 23.7291 13.8203 23.5291V23.0291C13.8203 22.7291 14.1203 22.5291 14.3203 22.5291H39.1203C39.4203 22.5291 39.6203 22.8291 39.6203 23.0291V23.5291C39.6203 23.7291 39.4203 24.0291 39.1203 24.0291Z" fill="#343943"/>
<path d="M10.2205 28.1292H6.02051C5.72051 28.1292 5.52051 27.8292 5.52051 27.6292V27.1292C5.52051 26.8292 5.82051 26.6292 6.02051 26.6292H10.2205C10.5205 26.6292 10.7205 26.9292 10.7205 27.1292V27.6292C10.7205 27.9292 10.5205 28.1292 10.2205 28.1292Z" fill="#989FB0"/>
<path d="M27.6203 27.6292C27.6203 27.9292 27.3203 28.1292 27.1203 28.1292H14.3203C14.0203 28.1292 13.8203 27.8292 13.8203 27.6292V27.1292C13.8203 26.8292 14.1203 26.6292 14.3203 26.6292H27.1203C27.4203 26.6292 27.6203 26.9292 27.6203 27.1292V27.6292Z" fill="#343943"/>
<path d="M32.3205 54.7291H5.52051V38.0291C6.92051 38.1291 8.32051 38.2291 9.62051 38.6291C10.2205 38.8291 10.6205 39.0291 11.0205 39.4291C11.2205 39.6291 11.2205 39.7291 11.2205 39.8291C11.4205 40.3291 11.8205 40.6291 12.5205 40.7291L13.1205 40.8291C14.3205 40.9291 15.2205 41.6291 15.3205 42.4291L15.5205 43.8291C16.8205 44.1291 16.9205 44.1291 18.1205 44.4291C18.3205 44.5291 18.3205 44.4291 18.4205 44.3291C18.5205 44.2291 18.6205 44.2291 18.7205 44.2291C18.9205 44.2291 18.9205 44.2291 19.1205 44.1291C19.3205 44.0291 19.5205 44.0291 19.6205 44.2291C20.1205 44.9291 21.1205 45.3291 21.7205 45.9291C22.4205 46.6291 23.6205 46.5291 24.4205 46.5291C24.6205 46.5291 24.9205 46.6291 25.1205 46.7291C26.1205 47.4291 27.7205 49.7291 29.0205 49.7291C29.5205 49.7291 29.9205 49.9291 30.2205 50.1291C31.3205 51.7291 32.0205 53.0291 32.3205 54.7291Z" fill="#2A2E37"/>
<path d="M31.6202 54.8291C31.3202 53.3291 30.6202 52.1291 29.5202 50.8291C29.4202 50.7291 29.1202 50.6291 28.8202 50.6291C27.6202 50.6291 26.6202 49.5291 25.6202 48.5291C25.2202 48.1291 24.8202 47.7291 24.5202 47.5291C24.4202 47.4291 24.2202 47.4291 24.2202 47.4291C24.0202 47.4291 23.9202 47.4291 23.7202 47.4291C22.9202 47.4291 21.8202 47.3291 21.0202 46.6291C20.8202 46.3291 20.5202 46.1291 20.1202 45.9291C19.7202 45.6291 19.3202 45.4291 19.0202 45.0291C18.9202 45.0291 18.7202 45.0291 18.6202 45.0291C18.5202 45.1291 18.1202 45.3291 17.6202 45.1291L17.0202 44.9291C16.4202 44.8291 16.1202 44.7291 15.1202 44.5291H14.8202L14.6202 42.6291C14.6202 42.1291 13.9202 41.7291 13.1202 41.6291L12.5202 41.5291C11.6202 41.4291 10.8202 40.9291 10.6202 40.1291V40.0291C10.3202 39.7291 10.0202 39.5291 9.62021 39.4291C8.42021 39.0291 7.02021 38.9291 5.72021 38.8291L5.82021 37.3291C7.22021 37.4291 8.72021 37.5291 10.1202 38.0291C10.8202 38.2291 11.4202 38.6291 11.8202 39.1291C11.9202 39.2291 12.1202 39.5291 12.2202 39.9291C12.3202 40.1291 12.5202 40.2291 12.8202 40.2291L13.4202 40.3291C15.0202 40.4291 16.1202 41.4291 16.3202 42.6291L16.4202 43.4291C17.0202 43.5291 17.3202 43.6291 17.8202 43.7291L18.4202 43.8291C18.6202 43.7291 18.8202 43.6291 19.0202 43.6291C19.1202 43.6291 19.1202 43.6291 19.2202 43.6291C19.7202 43.4291 20.3202 43.6291 20.6202 44.0291C20.8202 44.2291 21.2202 44.5291 21.5202 44.7291C21.9202 45.0291 22.3202 45.2291 22.6202 45.6291C22.9202 45.9291 23.6202 45.9291 24.3202 46.0291C24.5202 46.0291 24.6202 46.0291 24.8202 46.0291C25.2202 46.0291 25.5202 46.2291 25.8202 46.3291L25.9202 46.4291C26.3202 46.7291 26.8202 47.1291 27.2202 47.6291C27.8202 48.3291 28.8202 49.2291 29.3202 49.2291C29.9202 49.2291 30.5202 49.4291 31.0202 49.8291C32.4202 51.3291 33.2202 52.8291 33.5202 54.6291L31.6202 54.8291Z" fill="#989FB0"/>
<path d="M31.2205 44.5291H19.4205C18.9205 44.5291 18.5205 44.1291 18.5205 43.6291V39.4291C18.5205 38.9291 18.9205 38.5291 19.4205 38.5291H31.2205C31.7205 38.5291 32.1205 38.9291 32.1205 39.4291V43.6291C32.1205 44.1291 31.7205 44.5291 31.2205 44.5291Z" fill="#989FB0"/>
<path d="M29.7202 40.2291H21.0202C20.8202 40.2291 20.7202 40.4291 20.7202 40.5291C20.7202 40.6291 20.8202 40.9291 20.9202 40.9291H29.6202C29.8202 40.9291 29.9202 40.7291 29.9202 40.6291C29.9202 40.5291 29.8202 40.2291 29.7202 40.2291Z" fill="#444955"/>
<path d="M25.6201 42.2291H20.9201C20.7201 42.2291 20.6201 42.4291 20.6201 42.5291C20.6201 42.7291 20.8201 42.8291 20.9201 42.8291H25.6201C25.8201 42.8291 25.9201 42.6291 25.9201 42.5291C25.9201 42.4291 25.7201 42.2291 25.6201 42.2291Z" fill="#444955"/>
<path d="M83.7205 71.4291H75.8205V68.1291H83.7205V71.4291ZM75.9205 72.4291H83.8205V75.7291H75.9205V72.4291ZM76.5205 63.9291H83.8205V67.3291H75.9205V64.6291C75.9205 64.1291 76.2205 63.9291 76.5205 63.9291ZM75.9205 79.1291V76.7291H83.8205V79.7291H76.5205C76.2205 79.7291 75.9205 79.4291 75.9205 79.1291ZM94.2205 63.9291C94.3205 63.5291 94.4205 63.2291 94.5205 62.8291H76.5205C75.6205 62.8291 75.0205 63.6291 75.0205 64.5291V79.0291C75.0205 79.9291 75.7205 80.7291 76.5205 80.7291H85.3205C85.6205 80.3291 85.9205 80.0291 86.2205 79.6291H84.8205V76.6291H88.3205C88.5205 76.3291 88.7205 75.9291 89.0205 75.6291H84.8205V72.3291H90.8205C91.0205 72.0291 91.1205 71.7291 91.3205 71.4291H84.8205V68.1291H92.2205V69.5291C92.6205 68.7291 92.9205 67.8291 93.2205 67.0291H93.1205V63.9291H94.2205ZM92.1205 67.3291H84.8205V63.9291H92.2205V67.3291H92.1205Z" fill="#343943"/>
<path d="M81.8205 17.1292C81.1205 16.4292 80.3205 15.7292 79.5205 15.1292V17.0292C79.9205 17.4292 80.4205 17.8292 80.8205 18.2292C89.3205 26.4292 94.7205 38.0292 94.7205 50.8292C94.7205 64.2292 88.9205 76.3292 79.6205 84.6292V86.5292C79.8205 86.3292 80.1205 86.1292 80.3205 85.9292C90.0205 77.3292 96.1205 64.8292 96.1205 50.8292C96.1205 37.6292 90.6205 25.6292 81.8205 17.1292Z" fill="#2A2E37"/>
<path d="M5.72051 10.5292C8.59239 10.5292 10.9205 8.20104 10.9205 5.32915C10.9205 2.45727 8.59239 0.12915 5.72051 0.12915C2.84863 0.12915 0.520508 2.45727 0.520508 5.32915C0.520508 8.20104 2.84863 10.5292 5.72051 10.5292Z" fill="#2A2E37"/>
<defs>
<linearGradient id="paint0_linear" x1="92.5434" y1="46.7842" x2="76.0094" y2="46.7842" gradientUnits="userSpaceOnUse">
<stop stop-color="#989FB0"/>
<stop offset="0.9964" stop-color="#989FB0"/>
</linearGradient>
</defs>
</svg>
