<svg width="175" height="120" viewBox="0 0 175 120" fill="none" xmlns="http://www.w3.org/2000/svg">
<path d="M86.8302 107.889C116.53 107.889 140.73 83.7889 140.73 54.1889C140.63 24.4889 116.53 0.388916 86.8302 0.388916C57.0302 0.388916 32.9302 24.4889 32.9302 54.0889C32.9302 83.7889 57.0302 107.889 86.8302 107.889Z" fill="#2A2E37"/>
<g filter="url(#filter0_d)">
<path d="M144.33 60.989C144.33 72.489 135.03 81.789 123.43 81.789C123.23 81.789 121.53 81.789 109.03 81.789C100.33 81.789 86.4304 81.789 64.2304 81.789H53.6304C39.7304 82.089 28.6304 70.989 28.6304 57.589C28.6304 44.089 39.8304 32.889 53.9304 33.589C66.0304 -4.211 121.43 1.089 126.13 40.189C136.53 41.489 144.33 50.289 144.33 60.989Z" fill="#5C6479"/>
</g>
<path d="M89.3304 81.9891C109.83 81.9891 126.53 65.3891 126.53 44.8891C126.53 24.3891 109.83 7.78906 89.3304 7.78906C68.8304 7.78906 52.1304 24.3891 52.1304 44.8891C52.1304 65.3891 68.7304 81.9891 89.3304 81.9891Z" fill="url(#paint0_linear)"/>
<path d="M123.43 81.789C134.93 81.789 144.33 72.489 144.33 60.989C144.33 49.489 134.93 40.189 123.43 40.189C111.93 40.189 102.53 49.489 102.53 60.989C102.53 72.489 111.93 81.789 123.43 81.789Z" fill="url(#paint1_linear)" fill-opacity="0.37"/>
<path d="M75.5721 54.4078C77.1467 54.4078 78.4791 53.0754 78.4791 51.5008C78.4791 49.9261 77.1467 48.5938 75.5721 48.5938C73.9974 48.5938 72.665 49.9261 72.665 51.5008C72.665 53.0754 73.9974 54.4078 75.5721 54.4078Z" fill="#989FB0"/>
<path d="M97.8592 54.4078C99.4338 54.4078 100.766 53.0754 100.766 51.5008C100.766 49.9261 99.4338 48.5938 97.8592 48.5938C96.2845 48.5938 94.9521 49.9261 94.9521 51.5008C94.9521 53.1966 96.2845 54.4078 97.8592 54.4078Z" fill="#989FB0"/>
<path d="M75.4582 41.8834L69.0635 45.3362L69.9267 46.9349L76.3214 43.482L75.4582 41.8834Z" fill="#989FB0"/>
<path d="M97.4636 41.8372L96.6006 43.436L102.996 46.8882L103.859 45.2893L97.4636 41.8372Z" fill="#989FB0"/>
<path d="M86.7158 61.1908C88.5889 61.1908 90.1073 60.052 90.1073 58.6472C90.1073 57.2423 88.5889 56.1035 86.7158 56.1035C84.8427 56.1035 83.3242 57.2423 83.3242 58.6472C83.3242 60.052 84.8427 61.1908 86.7158 61.1908Z" fill="#989FB0"/>
<path d="M17.085 14.7446C17.085 14.7446 3.10641 18.2937 7.34234 21.133C11.5783 23.8303 21.6033 28.5152 31.0635 25.3919C40.5237 22.2687 31.0635 17.8678 31.2047 17.8678C31.3459 17.8678 17.085 14.7446 17.085 14.7446Z" fill="#CED7E2"/>
<path d="M0 13.6088C5.08311 15.1704 20.756 12.6151 30.781 6.08472C38.6881 15.8802 41.6532 18.4356 44.4772 18.7195C40.1001 23.1204 25.5567 30.2186 17.3673 20.991C7.76586 27.0954 0 13.6088 0 13.6088Z" fill="#A9AFC3"/>
<path d="M130.069 49.1048C135.435 49.3888 149.978 42.8584 157.885 34.0566C168.051 41.5807 171.44 43.2843 174.405 42.8584C171.158 48.2531 161.274 60.0361 147.295 60.8879C137.129 54.9254 130.069 49.1048 130.069 49.1048Z" fill="#A9AFC3"/>
<path d="M87.2384 115.696C86.1769 110.429 76.2297 97.9706 65.7357 92.5052C70.4903 80.7852 71.2961 77.079 70.145 74.3134C76.1785 76.1148 90.0522 82.752 94.3591 96.0777C91.1169 107.409 87.2384 115.696 87.2384 115.696Z" fill="#A9AFC3"/>
<defs>
<filter id="filter0_d" x="15.6304" y="5.87939" width="141.7" height="99.9155" filterUnits="userSpaceOnUse" color-interpolation-filters="sRGB">
<feFlood flood-opacity="0" result="BackgroundImageFix"/>
<feColorMatrix in="SourceAlpha" type="matrix" values="0 0 0 0 0 0 0 0 0 0 0 0 0 0 0 0 0 0 127 0" result="hardAlpha"/>
<feOffset dy="11"/>
<feGaussianBlur stdDeviation="6.5"/>
<feColorMatrix type="matrix" values="0 0 0 0 0 0 0 0 0 0 0 0 0 0 0 0 0 0 0.22 0"/>
<feBlend mode="normal" in2="BackgroundImageFix" result="effect1_dropShadow"/>
<feBlend mode="normal" in="SourceGraphic" in2="effect1_dropShadow" result="shape"/>
</filter>
<linearGradient id="paint0_linear" x1="61.1966" y1="23.2008" x2="73.6538" y2="32.8291" gradientUnits="userSpaceOnUse">
<stop stop-color="#80889D"/>
<stop offset="0.9942" stop-color="#5C6479"/>
</linearGradient>
<linearGradient id="paint1_linear" x1="100.259" y1="35.7762" x2="118.756" y2="56.0512" gradientUnits="userSpaceOnUse">
<stop stop-color="white"/>
<stop offset="0.9942" stop-color="white" stop-opacity="0"/>
</linearGradient>
</defs>
</svg>
