<svg width="185" height="136" viewBox="0 0 185 136" fill="none" xmlns="http://www.w3.org/2000/svg">
<path d="M88.6998 111.667C118.4 111.667 142.6 87.5667 142.6 57.9667C142.5 28.2667 118.4 4.16675 88.6998 4.16675C58.8998 4.16675 34.7998 28.2667 34.7998 57.8667C34.7998 87.5667 58.8998 111.667 88.6998 111.667Z" fill="#2A2E37"/>
<g filter="url(#filter0_d)">
<path d="M171.321 95.3176C171.321 103.997 164.302 111.016 155.547 111.016C155.396 111.016 154.113 111.016 144.679 111.016C138.113 111.016 127.623 111.016 110.868 111.016H102.868C92.3774 111.242 84 102.865 84 92.7515C84 82.5629 92.4528 74.11 103.094 74.6383C112.226 46.11 154.038 50.11 157.585 79.6195C165.434 80.6006 171.321 87.2421 171.321 95.3176Z" fill="#5C6479"/>
</g>
<path d="M129.811 111.167C145.283 111.167 157.887 98.6384 157.887 83.1667C157.887 67.695 145.283 55.1667 129.811 55.1667C114.34 55.1667 101.736 67.695 101.736 83.1667C101.736 98.6384 114.264 111.167 129.811 111.167Z" fill="url(#paint0_linear)"/>
<path d="M155.547 111.016C164.226 111.016 171.321 103.997 171.321 95.3177C171.321 86.6385 164.226 79.6196 155.547 79.6196C146.868 79.6196 139.773 86.6385 139.773 95.3177C139.773 103.997 146.868 111.016 155.547 111.016Z" fill="url(#paint1_linear)" fill-opacity="0.37"/>
<g filter="url(#filter1_d)">
<path d="M87.8464 36.5817C87.8464 44.0211 81.8302 50.0372 74.3262 50.0372C74.1968 50.0372 73.097 50.0372 65.0108 50.0372C59.3828 50.0372 50.3908 50.0372 36.0296 50.0372H29.1725C20.1806 50.2313 13 43.0507 13 34.3823C13 25.6491 20.2453 18.4038 29.3666 18.8566C37.1941 -5.59618 73.0323 -2.16761 76.0728 23.1262C82.8005 23.9672 87.8464 29.6599 87.8464 36.5817Z" fill="#5C6479"/>
</g>
<path d="M74.3264 50.0375C81.7657 50.0375 87.8466 44.0213 87.8466 36.582C87.8466 29.1426 81.7657 23.1265 74.3264 23.1265C66.887 23.1265 60.8062 29.1426 60.8062 36.582C60.8062 44.0213 66.887 50.0375 74.3264 50.0375Z" fill="url(#paint2_linear)"/>
<path d="M52.2668 50.1667C65.5283 50.1667 76.3315 39.4282 76.3315 26.1667C76.3315 12.9053 65.5283 2.16675 52.2668 2.16675C39.0054 2.16675 28.2021 12.9053 28.2021 26.1667C28.2021 39.4282 38.9407 50.1667 52.2668 50.1667Z" fill="url(#paint3_linear)"/>
<g filter="url(#filter2_d)">
<path d="M133.779 38.676C133.779 43.3256 130.019 47.0857 125.329 47.0857C125.248 47.0857 124.561 47.0857 119.507 47.0857C115.989 47.0857 110.369 47.0857 101.394 47.0857H97.1078C91.4879 47.207 87 42.7191 87 37.3013C87 31.8431 91.5283 27.3148 97.2291 27.5978C102.121 12.3148 124.52 14.4577 126.42 30.2663C130.625 30.7919 133.779 34.3499 133.779 38.676Z" fill="#5C6479"/>
</g>
<path d="M111.542 47.1667C119.83 47.1667 126.582 40.4552 126.582 32.1667C126.582 23.8783 119.83 17.1667 111.542 17.1667C103.253 17.1667 96.5015 23.8783 96.5015 32.1667C96.5015 40.4552 103.213 47.1667 111.542 47.1667Z" fill="url(#paint4_linear)"/>
<path d="M125.329 47.086C129.979 47.086 133.779 43.3259 133.779 38.6763C133.779 34.0267 129.979 30.2666 125.329 30.2666C120.679 30.2666 116.879 34.0267 116.879 38.6763C116.879 43.3259 120.679 47.086 125.329 47.086Z" fill="url(#paint5_linear)" fill-opacity="0.37"/>
<path d="M143.9 39.1668C146.164 39.1668 148 37.3312 148 35.0668C148 32.8024 146.164 30.9668 143.9 30.9668C141.635 30.9668 139.8 32.8024 139.8 35.0668C139.8 37.3312 141.635 39.1668 143.9 39.1668Z" fill="#2A2E37"/>
<path d="M149.9 23.1669C151.446 23.1669 152.7 21.9133 152.7 20.3669C152.7 18.8205 151.446 17.5669 149.9 17.5669C148.354 17.5669 147.1 18.8205 147.1 20.3669C147.1 21.9133 148.354 23.1669 149.9 23.1669Z" fill="#2A2E37"/>
<path d="M30.2 93.9669C33.0719 93.9669 35.4 91.6388 35.4 88.7669C35.4 85.895 33.0719 83.5669 30.2 83.5669C27.3281 83.5669 25 85.895 25 88.7669C25 91.6388 27.3281 93.9669 30.2 93.9669Z" fill="#2A2E37"/>
<g filter="url(#filter3_d)">
<path d="M118.038 38.6116L118.735 94.7661C118.735 96.6844 117.166 98.1667 115.247 98.1667H60.4879C58.5695 98.1667 57 96.5972 57 94.7661V22.5674C57 20.6491 58.5695 19.1667 60.4879 19.1667H100.162L118.038 38.6116Z" fill="#414551"/>
</g>
<path d="M83.1874 86.1667H82.0655C81.8216 86.1667 81.6265 85.9395 81.6265 85.6667C81.6265 85.394 81.8216 85.1667 82.0655 85.1667H83.1874C83.4313 85.1667 83.6265 85.394 83.6265 85.6667C83.6265 85.9849 83.4313 86.1667 83.1874 86.1667Z" fill="#CED7E2"/>
<path d="M76.9159 86.1667H66.337C65.9423 86.1667 65.6265 85.9395 65.6265 85.6667C65.6265 85.394 65.9423 85.1667 66.337 85.1667H76.9159C77.3107 85.1667 77.6265 85.394 77.6265 85.6667C77.6265 85.9849 77.3107 86.1667 76.9159 86.1667Z" fill="#D5DDEA"/>
<path d="M92.5133 31.1667H66.7396C66.1402 31.1667 65.6265 30.7052 65.6265 30.1667C65.6265 29.6283 66.1402 29.1667 66.7396 29.1667H92.5133C93.1127 29.1667 93.6265 29.6283 93.6265 30.1667C93.6265 30.7052 93.1127 31.1667 92.5133 31.1667Z" fill="#D5DDEA"/>
<path d="M76.6052 37.1667H66.7329C66.1371 37.1667 65.6265 36.7052 65.6265 36.1667C65.6265 35.6283 66.1371 35.1667 66.7329 35.1667H76.5201C77.1158 35.1667 77.6265 35.6283 77.6265 36.1667C77.6265 36.7052 77.1158 37.1667 76.6052 37.1667Z" fill="#D5DDEA"/>
<path d="M100.373 19.1667V35.1309C100.373 37.373 102.305 39.1667 104.5 39.1667L118 38.6667" fill="#2A2E37"/>
<g filter="url(#filter4_d)">
<path d="M78.8969 47.6808C81.4263 46.0594 84.4097 45.1514 87.5877 45.1514C96.2785 45.1514 103.348 52.1559 103.348 60.8467C103.348 69.5375 96.2785 76.5421 87.5877 76.5421C78.8969 76.5421 71.8275 69.5375 71.8275 60.8467C71.6978 55.3339 74.5515 50.5345 78.8969 47.6808Z" fill="url(#paint6_linear)"/>
</g>
<path d="M88.7204 53.674L93.2287 58.6015C93.7591 59.1812 93.7591 60.1957 93.2287 60.7754C92.6983 61.3552 91.7701 61.3552 91.1734 60.7754L89.1182 58.6015V66.5725C89.1182 67.4421 88.4552 68.1667 87.6596 68.1667C86.864 68.1667 86.2011 67.4421 86.2011 66.5725V58.6015L84.1458 60.7754C83.6154 61.3552 82.6872 61.3552 82.0906 60.7754C81.7591 60.4131 81.6265 60.0508 81.6265 59.6885C81.6265 59.3262 81.7591 58.8189 82.0906 58.6015L86.5988 53.674C86.7977 53.4566 87.2618 53.1667 87.5933 53.1667C87.9248 53.1667 88.5215 53.3117 88.7204 53.674Z" fill="#474E61"/>
<g filter="url(#filter5_d)">
<path d="M71.779 71.676C71.779 76.3256 68.0189 80.0857 63.3288 80.0857C63.248 80.0857 62.5606 80.0857 57.5067 80.0857C53.9892 80.0857 48.3693 80.0857 39.3935 80.0857H35.1078C29.4879 80.207 25 75.7191 25 70.3013C25 64.8431 29.5283 60.3148 35.2291 60.5978C40.1213 45.3148 62.5202 47.4577 64.4205 63.2663C68.6253 63.7919 71.779 67.3499 71.779 71.676Z" fill="#5C6479"/>
</g>
<path d="M49.5419 80.1667C57.8303 80.1667 64.5823 73.4552 64.5823 65.1667C64.5823 56.8783 57.8303 50.1667 49.5419 50.1667C41.2535 50.1667 34.5015 56.8783 34.5015 65.1667C34.5015 73.4552 41.2131 80.1667 49.5419 80.1667Z" fill="url(#paint7_linear)"/>
<path d="M63.329 80.086C67.9786 80.086 71.7792 76.3259 71.7792 71.6763C71.7792 67.0267 67.9786 63.2666 63.329 63.2666C58.6794 63.2666 54.8789 67.0267 54.8789 71.6763C54.8789 76.3259 58.6794 80.086 63.329 80.086Z" fill="url(#paint8_linear)" fill-opacity="0.37"/>
<defs>
<filter id="filter0_d" x="71" y="53.2349" width="113.321" height="81.7854" filterUnits="userSpaceOnUse" color-interpolation-filters="sRGB">
<feFlood flood-opacity="0" result="BackgroundImageFix"/>
<feColorMatrix in="SourceAlpha" type="matrix" values="0 0 0 0 0 0 0 0 0 0 0 0 0 0 0 0 0 0 127 0" result="hardAlpha"/>
<feOffset dy="11"/>
<feGaussianBlur stdDeviation="6.5"/>
<feColorMatrix type="matrix" values="0 0 0 0 0 0 0 0 0 0 0 0 0 0 0 0 0 0 0.22 0"/>
<feBlend mode="normal" in2="BackgroundImageFix" result="effect1_dropShadow"/>
<feBlend mode="normal" in="SourceGraphic" in2="effect1_dropShadow" result="shape"/>
</filter>
<filter id="filter1_d" x="0" y="0.225098" width="100.846" height="73.8159" filterUnits="userSpaceOnUse" color-interpolation-filters="sRGB">
<feFlood flood-opacity="0" result="BackgroundImageFix"/>
<feColorMatrix in="SourceAlpha" type="matrix" values="0 0 0 0 0 0 0 0 0 0 0 0 0 0 0 0 0 0 127 0" result="hardAlpha"/>
<feOffset dy="11"/>
<feGaussianBlur stdDeviation="6.5"/>
<feColorMatrix type="matrix" values="0 0 0 0 0 0 0 0 0 0 0 0 0 0 0 0 0 0 0.22 0"/>
<feBlend mode="normal" in2="BackgroundImageFix" result="effect1_dropShadow"/>
<feBlend mode="normal" in="SourceGraphic" in2="effect1_dropShadow" result="shape"/>
</filter>
<filter id="filter2_d" x="74" y="15.2031" width="72.7788" height="55.885" filterUnits="userSpaceOnUse" color-interpolation-filters="sRGB">
<feFlood flood-opacity="0" result="BackgroundImageFix"/>
<feColorMatrix in="SourceAlpha" type="matrix" values="0 0 0 0 0 0 0 0 0 0 0 0 0 0 0 0 0 0 127 0" result="hardAlpha"/>
<feOffset dy="11"/>
<feGaussianBlur stdDeviation="6.5"/>
<feColorMatrix type="matrix" values="0 0 0 0 0 0 0 0 0 0 0 0 0 0 0 0 0 0 0.22 0"/>
<feBlend mode="normal" in2="BackgroundImageFix" result="effect1_dropShadow"/>
<feBlend mode="normal" in="SourceGraphic" in2="effect1_dropShadow" result="shape"/>
</filter>
<filter id="filter3_d" x="35" y="8.16675" width="105.735" height="123" filterUnits="userSpaceOnUse" color-interpolation-filters="sRGB">
<feFlood flood-opacity="0" result="BackgroundImageFix"/>
<feColorMatrix in="SourceAlpha" type="matrix" values="0 0 0 0 0 0 0 0 0 0 0 0 0 0 0 0 0 0 127 0" result="hardAlpha"/>
<feOffset dy="11"/>
<feGaussianBlur stdDeviation="11"/>
<feColorMatrix type="matrix" values="0 0 0 0 0 0 0 0 0 0 0 0 0 0 0 0 0 0 0.27 0"/>
<feBlend mode="normal" in2="BackgroundImageFix" result="effect1_dropShadow"/>
<feBlend mode="normal" in="SourceGraphic" in2="effect1_dropShadow" result="shape"/>
</filter>
<filter id="filter4_d" x="67.8232" y="45.1514" width="39.5249" height="39.3906" filterUnits="userSpaceOnUse" color-interpolation-filters="sRGB">
<feFlood flood-opacity="0" result="BackgroundImageFix"/>
<feColorMatrix in="SourceAlpha" type="matrix" values="0 0 0 0 0 0 0 0 0 0 0 0 0 0 0 0 0 0 127 0" result="hardAlpha"/>
<feOffset dy="4"/>
<feGaussianBlur stdDeviation="2"/>
<feComposite in2="hardAlpha" operator="out"/>
<feColorMatrix type="matrix" values="0 0 0 0 0 0 0 0 0 0 0 0 0 0 0 0 0 0 0.25 0"/>
<feBlend mode="normal" in2="BackgroundImageFix" result="effect1_dropShadow"/>
<feBlend mode="normal" in="SourceGraphic" in2="effect1_dropShadow" result="shape"/>
</filter>
<filter id="filter5_d" x="12" y="48.2031" width="72.7788" height="55.885" filterUnits="userSpaceOnUse" color-interpolation-filters="sRGB">
<feFlood flood-opacity="0" result="BackgroundImageFix"/>
<feColorMatrix in="SourceAlpha" type="matrix" values="0 0 0 0 0 0 0 0 0 0 0 0 0 0 0 0 0 0 127 0" result="hardAlpha"/>
<feOffset dy="11"/>
<feGaussianBlur stdDeviation="6.5"/>
<feColorMatrix type="matrix" values="0 0 0 0 0 0 0 0 0 0 0 0 0 0 0 0 0 0 0.22 0"/>
<feBlend mode="normal" in2="BackgroundImageFix" result="effect1_dropShadow"/>
<feBlend mode="normal" in="SourceGraphic" in2="effect1_dropShadow" result="shape"/>
</filter>
<linearGradient id="paint0_linear" x1="108.578" y1="66.7983" x2="117.98" y2="74.0649" gradientUnits="userSpaceOnUse">
<stop stop-color="#80889D"/>
<stop offset="0.9942" stop-color="#5C6479"/>
</linearGradient>
<linearGradient id="paint1_linear" x1="138.059" y1="76.2892" x2="152.019" y2="91.5911" gradientUnits="userSpaceOnUse">
<stop stop-color="white"/>
<stop offset="0.9942" stop-color="white" stop-opacity="0"/>
</linearGradient>
<linearGradient id="paint2_linear" x1="59.3674" y1="20.2295" x2="71.353" y2="33.3381" gradientUnits="userSpaceOnUse">
<stop stop-color="#BCCBE1"/>
<stop offset="0.9942" stop-color="white" stop-opacity="0"/>
</linearGradient>
<linearGradient id="paint3_linear" x1="34.0671" y1="12.1366" x2="42.1257" y2="18.3651" gradientUnits="userSpaceOnUse">
<stop stop-color="#80889D"/>
<stop offset="0.9942" stop-color="#5C6479"/>
</linearGradient>
<linearGradient id="paint4_linear" x1="100.167" y1="23.3979" x2="105.204" y2="27.2907" gradientUnits="userSpaceOnUse">
<stop stop-color="#80889D"/>
<stop offset="0.9942" stop-color="#5C6479"/>
</linearGradient>
<linearGradient id="paint5_linear" x1="115.961" y1="28.4824" x2="123.439" y2="36.6799" gradientUnits="userSpaceOnUse">
<stop stop-color="white"/>
<stop offset="0.9942" stop-color="white" stop-opacity="0"/>
</linearGradient>
<linearGradient id="paint6_linear" x1="79.0545" y1="53.3914" x2="92.5309" y2="76.3038" gradientUnits="userSpaceOnUse">
<stop stop-color="#E3EAF7"/>
<stop offset="1" stop-color="#ADB6C8"/>
</linearGradient>
<linearGradient id="paint7_linear" x1="38.1671" y1="56.3979" x2="43.2037" y2="60.2907" gradientUnits="userSpaceOnUse">
<stop stop-color="#80889D"/>
<stop offset="0.9942" stop-color="#5C6479"/>
</linearGradient>
<linearGradient id="paint8_linear" x1="53.9607" y1="61.4824" x2="61.4391" y2="69.6799" gradientUnits="userSpaceOnUse">
<stop stop-color="white"/>
<stop offset="0.9942" stop-color="white" stop-opacity="0"/>
</linearGradient>
</defs>
</svg>
