<svg width="143" height="112" viewBox="0 0 143 112" fill="none" xmlns="http://www.w3.org/2000/svg">
<path d="M71.6998 107.667C101.4 107.667 125.6 83.5667 125.6 53.9667C125.5 24.2667 101.4 0.166748 71.6998 0.166748C41.8998 0.166748 17.7998 24.2667 17.7998 53.8667C17.7998 83.5667 41.8998 107.667 71.6998 107.667Z" fill="#2A2E37"/>
<g filter="url(#filter0_d)">
<path d="M129.2 60.7668C129.2 72.2668 119.9 81.5668 108.3 81.5668C108.1 81.5668 106.4 81.5668 93.9 81.5668C85.2 81.5668 71.3 81.5668 49.1 81.5668H38.5C24.6 81.8668 13.5 70.7668 13.5 57.3668C13.5 43.8668 24.7 32.6668 38.8 33.3668C50.9 -4.43317 106.3 0.866829 111 39.9668C121.4 41.2668 129.2 50.0668 129.2 60.7668Z" fill="#5C6479"/>
</g>
<path d="M74.2 81.7669C94.7 81.7669 111.4 65.1669 111.4 44.6669C111.4 24.1669 94.7 7.56689 74.2 7.56689C53.7 7.56689 37 24.1669 37 44.6669C37 65.1669 53.6 81.7669 74.2 81.7669Z" fill="url(#paint0_linear)"/>
<path d="M108.3 81.5668C119.8 81.5668 129.2 72.2668 129.2 60.7668C129.2 49.2668 119.8 39.9668 108.3 39.9668C96.7999 39.9668 87.3999 49.2668 87.3999 60.7668C87.3999 72.2668 96.7999 81.5668 108.3 81.5668Z" fill="url(#paint1_linear)" fill-opacity="0.37"/>
<g filter="url(#filter1_d)">
<path d="M58.303 58.9669C62.203 56.4669 66.803 55.0669 71.703 55.0669C85.103 55.0669 96.003 65.8669 96.003 79.2669C96.003 92.6669 85.103 103.467 71.703 103.467C58.303 103.467 47.403 92.6669 47.403 79.2669C47.203 70.7669 51.603 63.3669 58.303 58.9669Z" fill="url(#paint2_linear)"/>
</g>
<path d="M73.3499 69.9666L80.1499 76.7666C80.9499 77.5666 80.9499 78.9666 80.1499 79.7666C79.3499 80.5666 77.9499 80.5666 77.0499 79.7666L73.9499 76.7666V87.7666C73.9499 88.9666 72.9499 89.9666 71.7499 89.9666C70.5499 89.9666 69.5499 88.9666 69.5499 87.7666V76.7666L66.4499 79.7666C65.6499 80.5666 64.2499 80.5666 63.3499 79.7666C62.8499 79.2666 62.6499 78.7666 62.6499 78.2666C62.6499 77.7666 62.8499 77.0666 63.3499 76.7666L70.1499 69.9666C70.4499 69.6666 71.1499 69.2666 71.6499 69.2666C72.1499 69.2666 73.0499 69.4666 73.3499 69.9666Z" fill="#474E61"/>
<path d="M126.9 35.1668C129.164 35.1668 131 33.3312 131 31.0668C131 28.8024 129.164 26.9668 126.9 26.9668C124.635 26.9668 122.8 28.8024 122.8 31.0668C122.8 33.3312 124.635 35.1668 126.9 35.1668Z" fill="#2A2E37"/>
<path d="M132.9 19.1669C134.446 19.1669 135.7 17.9133 135.7 16.3669C135.7 14.8205 134.446 13.5669 132.9 13.5669C131.354 13.5669 130.1 14.8205 130.1 16.3669C130.1 17.9133 131.354 19.1669 132.9 19.1669Z" fill="#2A2E37"/>
<path d="M19.5002 28.3666C21.0466 28.3666 22.3002 27.113 22.3002 25.5666C22.3002 24.0202 21.0466 22.7666 19.5002 22.7666C17.9538 22.7666 16.7002 24.0202 16.7002 25.5666C16.7002 27.113 17.9538 28.3666 19.5002 28.3666Z" fill="#2A2E37"/>
<path d="M13.2 89.9669C16.0719 89.9669 18.4 87.6388 18.4 84.7669C18.4 81.895 16.0719 79.5669 13.2 79.5669C10.3281 79.5669 8 81.895 8 84.7669C8 87.6388 10.3281 89.9669 13.2 89.9669Z" fill="#2A2E37"/>
<defs>
<filter id="filter0_d" x="0.5" y="5.65723" width="141.7" height="99.9155" filterUnits="userSpaceOnUse" color-interpolation-filters="sRGB">
<feFlood flood-opacity="0" result="BackgroundImageFix"/>
<feColorMatrix in="SourceAlpha" type="matrix" values="0 0 0 0 0 0 0 0 0 0 0 0 0 0 0 0 0 0 127 0" result="hardAlpha"/>
<feOffset dy="11"/>
<feGaussianBlur stdDeviation="6.5"/>
<feColorMatrix type="matrix" values="0 0 0 0 0 0 0 0 0 0 0 0 0 0 0 0 0 0 0.22 0"/>
<feBlend mode="normal" in2="BackgroundImageFix" result="effect1_dropShadow"/>
<feBlend mode="normal" in="SourceGraphic" in2="effect1_dropShadow" result="shape"/>
</filter>
<filter id="filter1_d" x="43.3965" y="55.0669" width="56.6064" height="56.3999" filterUnits="userSpaceOnUse" color-interpolation-filters="sRGB">
<feFlood flood-opacity="0" result="BackgroundImageFix"/>
<feColorMatrix in="SourceAlpha" type="matrix" values="0 0 0 0 0 0 0 0 0 0 0 0 0 0 0 0 0 0 127 0" result="hardAlpha"/>
<feOffset dy="4"/>
<feGaussianBlur stdDeviation="2"/>
<feComposite in2="hardAlpha" operator="out"/>
<feColorMatrix type="matrix" values="0 0 0 0 0 0 0 0 0 0 0 0 0 0 0 0 0 0 0.25 0"/>
<feBlend mode="normal" in2="BackgroundImageFix" result="effect1_dropShadow"/>
<feBlend mode="normal" in="SourceGraphic" in2="effect1_dropShadow" result="shape"/>
</filter>
<linearGradient id="paint0_linear" x1="46.0663" y1="22.9786" x2="58.5234" y2="32.6069" gradientUnits="userSpaceOnUse">
<stop stop-color="#80889D"/>
<stop offset="0.9942" stop-color="#5C6479"/>
</linearGradient>
<linearGradient id="paint1_linear" x1="85.1288" y1="35.554" x2="103.625" y2="55.829" gradientUnits="userSpaceOnUse">
<stop stop-color="white"/>
<stop offset="0.9942" stop-color="white" stop-opacity="0"/>
</linearGradient>
<linearGradient id="paint2_linear" x1="58.5461" y1="67.7719" x2="79.3247" y2="103.1" gradientUnits="userSpaceOnUse">
<stop stop-color="#E3EAF7"/>
<stop offset="1" stop-color="#ADB6C8"/>
</linearGradient>
</defs>
</svg>
