<svg width="184" height="153" viewBox="0 0 184 153" fill="none" xmlns="http://www.w3.org/2000/svg">
<path d="M93.7613 112.566C121.387 112.566 143.783 90.1503 143.783 62.4994C143.783 34.8486 121.387 12.4331 93.7613 12.4331C66.1352 12.4331 43.7397 34.8486 43.7397 62.4994C43.7397 90.1503 66.1352 112.566 93.7613 112.566Z" fill="#2A2E37"/>
<path d="M153.06 73.8694C155.172 73.8694 156.885 72.1555 156.885 70.0414C156.885 67.9272 155.172 66.2134 153.06 66.2134C150.948 66.2134 149.235 67.9272 149.235 70.0414C149.235 72.1555 150.948 73.8694 153.06 73.8694Z" fill="#2A2E37"/>
<path d="M48.168 28.0842C49.5577 28.0842 50.6842 26.9567 50.6842 25.5658C50.6842 24.1749 49.5577 23.0474 48.168 23.0474C46.7784 23.0474 45.6519 24.1749 45.6519 25.5658C45.6519 26.9567 46.7784 28.0842 48.168 28.0842Z" fill="#2A2E37"/>
<g filter="url(#filter0_d)">
<path d="M89.5341 103.414C89.5341 108.148 87.5211 112.379 84.3004 115.401C83.3946 116.207 82.4888 116.912 81.3817 117.517C78.9661 118.927 76.148 119.733 73.1286 119.733C70.1092 119.733 67.2911 118.927 64.8756 117.517C64.473 117.315 64.171 117.114 63.7684 116.812C59.5413 113.89 56.7231 108.954 56.7231 103.414C56.7231 94.3474 64.0704 87.0943 73.028 87.0943C82.1868 86.9935 89.5341 94.3474 89.5341 103.414Z" fill="url(#paint0_linear)"/>
</g>
<path d="M69.8076 107.04C70.0089 107.241 70.2101 107.544 70.5121 107.745C70.7134 107.946 70.9147 108.047 71.116 108.249C71.2166 108.349 71.4179 108.45 71.5186 108.551C71.5186 108.551 71.6192 108.551 71.6192 108.652L71.7199 108.752V110.163C71.7199 110.163 71.7199 110.163 71.6192 110.062C71.5186 109.961 71.3173 109.86 71.2166 109.76C71.0153 109.659 70.814 109.458 70.6127 109.357C70.5121 109.357 70.5121 109.256 70.4114 109.256C69.7069 108.853 69.103 108.45 69.103 107.946C69.2037 107.745 69.405 107.443 69.8076 107.04ZM84.0994 114.897C83.4956 113.588 82.3884 112.278 80.9794 111.573C80.2748 111.271 79.4697 110.969 78.6645 110.969C78.4632 110.969 78.1613 110.969 77.96 110.969C77.8593 110.969 77.7587 110.969 77.658 110.969C76.5509 110.868 76.4503 110.666 76.4503 110.666V108.349C77.1548 107.745 77.8593 107.04 78.4632 106.335C78.9664 105.63 79.369 104.824 79.5703 103.816C80.4761 103.615 81.08 102.809 80.9794 101.802C80.9794 101.399 80.6774 100.996 80.6774 100.593C80.6774 100.391 80.6774 100.19 80.6774 99.9882C80.6774 99.8875 80.6774 99.686 80.6774 99.5853C80.6774 99.4846 80.6774 99.2831 80.6774 99.1823C80.5768 98.4772 80.3755 97.772 79.9729 96.9661C78.7651 94.7499 76.5509 93.3396 73.9341 93.3396C73.4309 93.3396 72.9276 93.4403 72.4244 93.5411C71.5186 93.7425 70.6127 94.1455 69.9082 94.7499C69.8076 94.8507 69.6063 94.9514 69.5056 95.1529L69.405 95.2536C68.5998 96.0595 67.8953 96.9661 67.5933 98.0742C67.1907 99.1823 67.1907 100.29 67.2914 101.399C67.2914 101.399 67.2914 101.399 67.2914 101.499V101.6C67.2914 101.802 67.392 101.802 67.2914 101.902C67.2914 102.003 67.1907 102.003 67.1907 102.104C66.9894 102.406 66.8888 102.809 67.0901 103.413C67.4927 104.421 68.0966 104.32 68.8011 104.824C68.8011 104.824 68.7004 104.824 68.7004 104.924L67.9959 105.126C64.7752 106.133 63.6681 108.853 65.0771 110.566C65.5804 111.17 66.3856 111.674 67.5933 111.976C67.2914 111.976 66.9894 112.177 66.7881 112.379C65.3791 113.487 64.4733 115.2 64.272 116.811C64.272 116.912 64.272 117.013 64.272 117.114C64.6746 117.315 64.9765 117.617 65.3791 117.819H81.382C82.3884 117.214 83.3949 116.509 84.3007 115.703C84.2001 115.2 84.2001 114.998 84.0994 114.897Z" fill="#8E94A7"/>
<path d="M84.3006 115.401C83.3947 116.207 82.4889 116.912 81.3818 117.517C78.9663 118.927 76.1481 119.733 73.1287 119.733C70.1093 119.733 67.2912 118.927 64.8757 117.517C64.4731 117.315 64.1711 117.114 63.7686 116.812C63.7686 116.711 63.7686 116.61 63.7686 116.509C63.9698 114.898 64.8757 113.185 66.2847 112.077C66.486 111.875 66.788 111.775 67.0899 111.674C65.8821 111.473 65.077 110.969 64.5737 110.264H68.3983C69.5054 111.775 71.2164 112.681 73.2294 112.681C74.9404 112.681 76.4501 111.976 77.5572 110.868C77.6578 110.868 77.7585 110.868 77.8591 110.868C78.0604 110.868 78.2617 110.868 78.5637 110.868C79.3688 110.868 80.174 111.07 80.8786 111.473C82.2876 112.178 83.2941 113.387 83.9986 114.797C84.1999 114.998 84.1999 115.2 84.3006 115.401Z" fill="#464D60"/>
<path d="M76.5507 108.35V110.465L70.21 110.667L70.5119 109.256C70.6125 109.256 70.6125 109.357 70.7132 109.357C70.9145 109.458 71.1158 109.659 71.3171 109.76C71.4177 109.861 71.5184 109.961 71.7197 110.062C71.7197 110.062 71.8203 110.062 71.8203 110.163V108.753L71.7197 108.652C72.8268 109.256 74.3365 109.659 76.5507 108.35Z" fill="url(#paint1_linear)"/>
<path d="M80.6774 99.5855C79.4697 99.9885 78.0606 100.19 76.7522 100.089C74.6386 99.8877 72.6257 99.0818 71.0153 97.6715C70.5121 99.1826 69.2037 100.291 67.694 100.996C67.4927 101.097 67.2914 101.197 67.0901 101.197C67.0901 101.197 67.0901 101.197 67.0901 101.097C66.9894 99.9885 66.9894 98.8804 67.392 97.7722C67.694 96.6641 68.3985 95.7575 69.2037 94.9516L69.3043 94.8509C69.405 94.7501 69.6063 94.6494 69.7069 94.4479C70.4114 93.8435 71.3173 93.4406 72.2231 93.2391C72.7263 93.1383 73.2296 93.0376 73.7328 93.0376C76.3496 93.0376 78.6645 94.4479 79.7716 96.6641C80.1742 97.47 80.3755 98.2759 80.4761 98.8804C80.6774 99.2833 80.6774 99.4848 80.6774 99.5855Z" fill="#292D35"/>
<path d="M72.6258 114.495C72.0219 115.2 71.0154 115.2 70.1096 115.2C71.0154 114.293 70.5122 111.372 67.2915 111.674C62.863 110.868 63.2656 106.234 67.6941 104.824L68.3986 104.623L68.4992 104.723C68.8012 105.63 69.3044 106.436 69.8076 107.04C67.996 108.551 70.5122 108.954 71.7199 110.163C72.7264 110.768 73.6322 113.286 72.6258 114.495Z" fill="#292D35"/>
<path d="M89.5341 103.414C89.5341 108.148 87.5211 112.379 84.3004 115.401C83.3946 116.207 82.4888 116.912 81.3817 117.517C78.9661 118.927 76.148 119.733 73.1286 119.733C70.1092 119.733 67.2911 118.927 64.8756 117.517C64.473 117.315 64.171 117.114 63.7684 116.812C59.5413 113.89 56.7231 108.954 56.7231 103.414C56.7231 94.3474 64.0704 87.0943 73.028 87.0943C82.1868 86.9935 89.5341 94.3474 89.5341 103.414Z" stroke="#6F778C" stroke-width="1.6434" stroke-miterlimit="10" stroke-linecap="round" stroke-linejoin="round"/>
<path d="M134.825 63.3204C134.825 67.8536 133.014 71.8831 130.195 74.9052C129.994 75.2074 129.692 75.4089 129.39 75.6103C126.371 78.431 122.345 80.1435 117.916 80.1435C114.394 80.1435 111.072 79.0354 108.355 77.1214C107.55 76.6177 106.845 75.9125 106.141 75.3081C103.021 72.286 101.108 68.0551 101.108 63.3204C101.108 54.0526 108.657 46.4973 117.916 46.4973C127.277 46.4973 134.825 54.0526 134.825 63.3204Z" fill="#E9F0F8"/>
<g filter="url(#filter1_d)">
<path d="M134.825 63.3203C134.825 68.2564 132.712 72.5881 129.39 75.7109C126.371 78.5316 122.345 80.2441 117.916 80.2441C114.394 80.2441 111.072 79.136 108.355 77.222C103.927 74.1999 101.108 69.163 101.108 63.421C101.108 54.1532 108.657 46.5979 117.916 46.5979C127.176 46.5979 134.825 54.0524 134.825 63.3203Z" fill="url(#paint2_linear)"/>
</g>
<path d="M130.195 74.9052C129.994 75.2074 129.692 75.4089 129.39 75.6104C126.371 78.431 122.345 80.1436 117.916 80.1436C114.394 80.1436 111.072 79.0355 108.355 77.1215C107.55 76.6178 106.845 75.9126 106.141 75.3082C106.543 74.8045 107.147 74.5023 108.456 73.9986L108.959 73.7971C109.965 73.3942 111.374 72.8905 113.186 72.0846C113.488 71.9839 113.689 71.7824 113.89 71.5809C113.991 71.4802 114.092 71.3794 114.092 71.178C114.192 70.9765 114.293 70.6743 114.293 70.4728V67.0477C114.192 66.947 114.192 66.947 114.092 66.8463C113.79 66.4433 113.589 65.9396 113.589 65.3352L113.387 65.2345C112.481 65.4359 112.582 64.5293 112.381 62.716C112.28 62.0109 112.381 61.8094 112.783 61.7087L113.085 61.3057C112.481 59.8954 112.179 58.5858 112.179 57.5785C112.179 55.8659 112.884 54.7578 113.89 54.2541C113.287 53.0453 113.287 52.6423 113.287 52.6423C113.287 52.6423 116.809 53.2468 118.017 53.0453C119.527 52.7431 121.942 53.146 122.848 55.1608C124.358 55.7652 124.861 56.6718 125.062 57.6792C125.264 59.291 124.358 61.0035 124.156 61.7087V61.8094C124.358 61.9101 124.458 62.1116 124.358 62.8168C124.156 64.5293 124.156 65.5367 123.351 65.3352L122.546 66.7455C122.546 66.947 122.546 66.947 122.445 67.0477C122.445 67.35 122.445 67.8536 122.445 70.5735C122.445 70.8758 122.546 71.2787 122.747 71.4802C122.848 71.5809 122.848 71.6816 122.949 71.6816C123.15 71.8831 123.351 72.0846 123.553 72.0846C125.566 72.8905 126.975 73.4949 128.082 73.8979C129.088 74.3008 129.793 74.603 130.195 74.9052Z" fill="#8E94A7"/>
<path d="M130.195 74.9051C129.994 75.2073 129.692 75.4088 129.39 75.6103C126.371 78.4309 122.345 80.1435 117.916 80.1435C114.394 80.1435 111.072 79.0354 108.355 77.1214C107.55 76.6177 106.845 75.9125 106.141 75.3081C106.543 74.8044 107.147 74.5022 108.456 73.9985L108.959 73.797C109.965 73.3941 111.374 72.8904 113.186 72.0845C113.488 71.9838 113.689 71.7823 113.89 71.5808C114.897 72.9911 116.507 73.8978 118.42 73.8978C120.231 73.8978 121.842 72.9911 122.848 71.6815C123.049 71.883 123.251 72.0845 123.452 72.0845C125.465 72.8904 126.874 73.4948 127.981 73.8978C129.088 74.3007 129.793 74.6029 130.195 74.9051Z" fill="#464D60"/>
<path d="M124.056 61.6079C124.156 61.205 123.955 60.6006 123.754 60.2984C123.754 60.1976 123.653 60.1976 123.653 60.0969C122.948 58.6866 121.439 58.1829 120.03 58.0821C116.306 57.8807 116.004 58.5858 114.897 57.5785C115.299 58.0821 115.299 58.9888 114.695 59.9961C114.293 60.7013 113.588 61.1042 112.884 61.3057C111.173 57.4777 112.079 55.06 113.689 54.2541C113.085 53.0453 113.085 52.6423 113.085 52.6423C113.085 52.6423 116.608 53.2468 117.815 53.0453C119.325 52.7431 121.741 53.146 122.647 55.1608C124.156 55.7652 124.659 56.6718 124.861 57.6792C125.163 59.1902 124.257 60.9028 124.056 61.6079Z" fill="#292D35"/>
<path d="M114.394 70.4728V67.0477C114.293 66.947 114.293 66.947 114.192 66.8462V66.6448C114.394 66.947 114.595 67.2492 114.897 67.4507L117.614 69.3647C118.218 69.8684 119.124 69.8684 119.728 69.3647L122.244 67.1485C122.345 67.0477 122.445 67.0477 122.546 66.947C122.546 67.2492 122.546 67.7529 122.546 70.4728C122.546 70.6743 122.546 70.775 122.647 70.9765H114.394C114.293 70.775 114.394 70.6743 114.394 70.4728Z" fill="url(#paint3_linear)"/>
<path d="M134.825 63.3203C134.825 68.2564 132.712 72.5881 129.39 75.7109C126.371 78.5316 122.345 80.2441 117.916 80.2441C114.394 80.2441 111.072 79.136 108.355 77.222C103.927 74.1999 101.108 69.163 101.108 63.421C101.108 54.1532 108.657 46.5979 117.916 46.5979C127.176 46.5979 134.825 54.0524 134.825 63.3203Z" stroke="#6F778C" stroke-width="1.6604" stroke-miterlimit="10" stroke-linecap="round" stroke-linejoin="round"/>
<g filter="url(#filter2_d)">
<path d="M22 75.0062C22 78.2297 24.6168 80.8489 27.8375 80.8489H79.5701C80.0733 80.8489 80.5766 81.0504 80.8785 81.3526L88.1251 88.6057C88.3264 88.9079 88.729 89.0086 89.1316 88.8071C89.4335 88.7064 89.7355 88.3035 89.7355 88.0012V54.4558C89.7355 51.2322 87.1186 48.613 83.8979 48.613H27.8375C24.6168 48.613 22 51.2322 22 54.4558V75.0062Z" fill="url(#paint4_linear)"/>
</g>
<g filter="url(#filter3_d)">
<path d="M65 24.493C65 27.7166 67.6168 30.3357 70.8375 30.3357H79.5701C80.0733 30.3357 80.5766 30.5372 80.8785 30.8394L88.1251 38.0925C88.3264 38.3947 88.729 38.4954 89.1316 38.294C89.4335 38.1932 89.7355 37.7903 89.7355 37.4881V13.9426C89.7355 10.719 87.1186 8.09985 83.8979 8.09985H70.8375C67.6168 8.09985 65 10.719 65 13.9426V24.493Z" fill="url(#paint5_linear)"/>
</g>
<path opacity="0.7" d="M77.0539 61.709H32.5679C32.1653 61.709 31.7627 61.306 31.7627 60.9031V58.2839C31.7627 57.881 32.1653 57.478 32.5679 57.478H77.0539C77.4565 57.478 77.859 57.881 77.859 58.2839V60.9031C77.859 61.4068 77.5571 61.709 77.0539 61.709Z" fill="url(#paint6_linear)"/>
<path opacity="0.7" d="M59.9439 72.6892H32.5679C32.1653 72.6892 31.7627 72.2863 31.7627 71.8833V69.2642C31.7627 68.8612 32.1653 68.4583 32.5679 68.4583H59.9439C60.3465 68.4583 60.749 68.8612 60.749 69.2642V71.8833C60.749 72.387 60.4471 72.6892 59.9439 72.6892Z" fill="url(#paint7_linear)"/>
<g filter="url(#filter4_d)">
<path d="M162 35.4164C162 38.3378 159.685 40.6547 156.766 40.6547H110.267C109.865 40.6547 109.361 40.8562 109.06 41.1584L102.517 47.7063C102.316 47.9078 101.914 48.0085 101.612 47.9078C101.31 47.807 101.108 47.5048 101.108 47.2026V16.9815C101.108 14.0601 103.423 11.7432 106.342 11.7432H156.666C159.584 11.7432 161.899 14.0601 161.899 16.9815V35.4164H162Z" fill="url(#paint8_linear)"/>
</g>
<path opacity="0.7" d="M151.633 23.5294H111.676C111.274 23.5294 110.972 23.2272 110.972 22.8243V20.4066C110.972 20.0036 111.274 19.7014 111.676 19.7014H151.633C152.036 19.7014 152.338 20.0036 152.338 20.4066V22.8243C152.338 23.2272 152.036 23.5294 151.633 23.5294Z" fill="url(#paint9_linear)"/>
<path opacity="0.7" d="M136.335 33.4017H111.676C111.274 33.4017 110.972 33.0995 110.972 32.6966V30.2789C110.972 29.8759 111.274 29.5737 111.676 29.5737H136.335C136.737 29.5737 137.039 29.8759 137.039 30.2789V32.6966C137.039 32.9988 136.637 33.4017 136.335 33.4017Z" fill="url(#paint10_linear)"/>
<path d="M77.3887 12.729C73.7841 12.729 70.8887 15.654 70.8887 19.229C70.8887 22.804 73.8137 25.729 77.3887 25.729C80.9637 25.729 83.8887 22.8335 83.8887 19.229C83.8887 15.654 80.9932 12.7585 77.3887 12.729ZM79.8705 16.0085C80.4614 16.0085 80.9341 16.4813 80.9341 17.0722C80.9341 17.6631 80.4614 18.1358 79.8705 18.1358C79.2796 18.1358 78.8069 17.6631 78.8069 17.0722C78.8069 16.4813 79.2796 16.0085 79.8705 16.0085ZM74.9364 15.979C75.5273 15.979 76 16.4517 76 17.0426C76 17.6335 75.5273 18.1063 74.9364 18.1063C74.3455 18.1063 73.8728 17.6335 73.8728 17.0426C73.8728 16.4813 74.3455 15.979 74.9364 15.979ZM81.1409 20.7358C80.3432 22.804 78.0387 23.8381 75.9705 23.0699C74.9069 22.6563 74.05 21.7995 73.6364 20.7358C73.5478 20.4699 73.6659 20.204 73.9319 20.1154C73.9909 20.0858 74.05 20.0858 74.1091 20.0858H80.6682C80.9341 20.0858 81.1705 20.3222 81.1705 20.5881C81.1705 20.6176 81.1705 20.6767 81.1409 20.7358Z" fill="#474E61"/>
<defs>
<filter id="filter0_d" x="34.7231" y="76.0933" width="76.811" height="76.6399" filterUnits="userSpaceOnUse" color-interpolation-filters="sRGB">
<feFlood flood-opacity="0" result="BackgroundImageFix"/>
<feColorMatrix in="SourceAlpha" type="matrix" values="0 0 0 0 0 0 0 0 0 0 0 0 0 0 0 0 0 0 127 0" result="hardAlpha"/>
<feOffset dy="11"/>
<feGaussianBlur stdDeviation="11"/>
<feColorMatrix type="matrix" values="0 0 0 0 0 0 0 0 0 0 0 0 0 0 0 0 0 0 0.27 0"/>
<feBlend mode="normal" in2="BackgroundImageFix" result="effect1_dropShadow"/>
<feBlend mode="normal" in="SourceGraphic" in2="effect1_dropShadow" result="shape"/>
</filter>
<filter id="filter1_d" x="79.1084" y="35.5979" width="77.7168" height="77.6462" filterUnits="userSpaceOnUse" color-interpolation-filters="sRGB">
<feFlood flood-opacity="0" result="BackgroundImageFix"/>
<feColorMatrix in="SourceAlpha" type="matrix" values="0 0 0 0 0 0 0 0 0 0 0 0 0 0 0 0 0 0 127 0" result="hardAlpha"/>
<feOffset dy="11"/>
<feGaussianBlur stdDeviation="11"/>
<feColorMatrix type="matrix" values="0 0 0 0 0 0 0 0 0 0 0 0 0 0 0 0 0 0 0.27 0"/>
<feBlend mode="normal" in2="BackgroundImageFix" result="effect1_dropShadow"/>
<feBlend mode="normal" in="SourceGraphic" in2="effect1_dropShadow" result="shape"/>
</filter>
<filter id="filter2_d" x="0" y="37.613" width="111.735" height="84.2988" filterUnits="userSpaceOnUse" color-interpolation-filters="sRGB">
<feFlood flood-opacity="0" result="BackgroundImageFix"/>
<feColorMatrix in="SourceAlpha" type="matrix" values="0 0 0 0 0 0 0 0 0 0 0 0 0 0 0 0 0 0 127 0" result="hardAlpha"/>
<feOffset dy="11"/>
<feGaussianBlur stdDeviation="11"/>
<feColorMatrix type="matrix" values="0 0 0 0 0 0 0 0 0 0 0 0 0 0 0 0 0 0 0.27 0"/>
<feBlend mode="normal" in2="BackgroundImageFix" result="effect1_dropShadow"/>
<feBlend mode="normal" in="SourceGraphic" in2="effect1_dropShadow" result="shape"/>
</filter>
<filter id="filter3_d" x="61" y="8.09985" width="32.7354" height="38.2988" filterUnits="userSpaceOnUse" color-interpolation-filters="sRGB">
<feFlood flood-opacity="0" result="BackgroundImageFix"/>
<feColorMatrix in="SourceAlpha" type="matrix" values="0 0 0 0 0 0 0 0 0 0 0 0 0 0 0 0 0 0 127 0" result="hardAlpha"/>
<feOffset dy="4"/>
<feGaussianBlur stdDeviation="2"/>
<feComposite in2="hardAlpha" operator="out"/>
<feColorMatrix type="matrix" values="0 0 0 0 0 0 0 0 0 0 0 0 0 0 0 0 0 0 0.25 0"/>
<feBlend mode="normal" in2="BackgroundImageFix" result="effect1_dropShadow"/>
<feBlend mode="normal" in="SourceGraphic" in2="effect1_dropShadow" result="shape"/>
</filter>
<filter id="filter4_d" x="79.1084" y="0.743164" width="104.892" height="80.2041" filterUnits="userSpaceOnUse" color-interpolation-filters="sRGB">
<feFlood flood-opacity="0" result="BackgroundImageFix"/>
<feColorMatrix in="SourceAlpha" type="matrix" values="0 0 0 0 0 0 0 0 0 0 0 0 0 0 0 0 0 0 127 0" result="hardAlpha"/>
<feOffset dy="11"/>
<feGaussianBlur stdDeviation="11"/>
<feColorMatrix type="matrix" values="0 0 0 0 0 0 0 0 0 0 0 0 0 0 0 0 0 0 0.27 0"/>
<feBlend mode="normal" in2="BackgroundImageFix" result="effect1_dropShadow"/>
<feBlend mode="normal" in="SourceGraphic" in2="effect1_dropShadow" result="shape"/>
</filter>
<linearGradient id="paint0_linear" x1="73.1179" y1="86.3383" x2="73.1179" y2="120.085" gradientUnits="userSpaceOnUse">
<stop stop-color="#5C6479"/>
<stop offset="0.9964" stop-color="#5C6479"/>
</linearGradient>
<linearGradient id="paint1_linear" x1="73.3681" y1="110.594" x2="73.3681" y2="109.381" gradientUnits="userSpaceOnUse">
<stop stop-color="#8E94A7"/>
<stop offset="0.9913" stop-color="#6C707C"/>
</linearGradient>
<linearGradient id="paint2_linear" x1="117.956" y1="45.8196" x2="117.956" y2="80.6068" gradientUnits="userSpaceOnUse">
<stop stop-color="#5C6479"/>
<stop offset="0.9964" stop-color="#5C6479"/>
</linearGradient>
<linearGradient id="paint3_linear" x1="118.403" y1="70.8416" x2="118.403" y2="68.5726" gradientUnits="userSpaceOnUse">
<stop stop-color="#8E94A7"/>
<stop offset="0.9913" stop-color="#6C707C"/>
</linearGradient>
<linearGradient id="paint4_linear" x1="55.8457" y1="47.6809" x2="55.8457" y2="89.3464" gradientUnits="userSpaceOnUse">
<stop stop-color="#5C6479"/>
<stop offset="0.9964" stop-color="#5C6479"/>
</linearGradient>
<linearGradient id="paint5_linear" x1="70.6739" y1="16.0533" x2="84.8103" y2="35.5913" gradientUnits="userSpaceOnUse">
<stop stop-color="#E3EAF7"/>
<stop offset="1" stop-color="#ADB6C8"/>
</linearGradient>
<linearGradient id="paint6_linear" x1="79.0913" y1="59.5814" x2="32.0877" y2="59.5814" gradientUnits="userSpaceOnUse">
<stop offset="0.00651336" stop-color="#A6AEBE" stop-opacity="0"/>
<stop offset="1" stop-color="#A6AAB5"/>
</linearGradient>
<linearGradient id="paint7_linear" x1="61.5239" y1="70.5616" x2="31.9671" y2="70.5616" gradientUnits="userSpaceOnUse">
<stop offset="0.00651336" stop-color="#A6AEBE" stop-opacity="0"/>
<stop offset="1" stop-color="#A6AAB5"/>
</linearGradient>
<linearGradient id="paint8_linear" x1="131.534" y1="10.9057" x2="131.534" y2="48.3376" gradientUnits="userSpaceOnUse">
<stop stop-color="#5C6479"/>
<stop offset="0.9964" stop-color="#5C6479"/>
</linearGradient>
<linearGradient id="paint9_linear" x1="153.443" y1="21.6044" x2="111.263" y2="21.6044" gradientUnits="userSpaceOnUse">
<stop offset="0.00651336" stop-color="#A6AEBE" stop-opacity="0"/>
<stop offset="1" stop-color="#A6AAB5"/>
</linearGradient>
<linearGradient id="paint10_linear" x1="137.736" y1="31.4768" x2="111.155" y2="31.4768" gradientUnits="userSpaceOnUse">
<stop offset="0.00651336" stop-color="#A6AEBE" stop-opacity="0"/>
<stop offset="1" stop-color="#A6AAB5"/>
</linearGradient>
</defs>
</svg>
