<svg width="136" height="124" viewBox="0 0 136 124" fill="none" xmlns="http://www.w3.org/2000/svg">
<path d="M69.9998 101.716C97.9998 101.716 120.7 79.0165 120.7 50.9165C120.7 22.8165 97.9998 0.116455 69.9998 0.116455C41.9998 0.116455 19.2998 22.8165 19.2998 50.9165C19.2998 79.0165 41.9998 101.716 69.9998 101.716Z" fill="#2A2E37"/>
<path d="M126.5 35.0164C128.764 35.0164 130.6 33.1808 130.6 30.9164C130.6 28.652 128.764 26.8164 126.5 26.8164C124.236 26.8164 122.4 28.652 122.4 30.9164C122.4 33.1808 124.236 35.0164 126.5 35.0164Z" fill="#2A2E37"/>
<path d="M132.5 18.9164C134.047 18.9164 135.3 17.6628 135.3 16.1164C135.3 14.57 134.047 13.3164 132.5 13.3164C130.954 13.3164 129.7 14.57 129.7 16.1164C129.7 17.6628 130.954 18.9164 132.5 18.9164Z" fill="#2A2E37"/>
<path d="M15.8 37.9164C17.3464 37.9164 18.6 36.6628 18.6 35.1164C18.6 33.57 17.3464 32.3164 15.8 32.3164C14.2536 32.3164 13 33.57 13 35.1164C13 36.6628 14.2536 37.9164 15.8 37.9164Z" fill="#2A2E37"/>
<path d="M87.3999 21.5596C104.663 21.5596 118.588 34.114 118.588 49.5479C118.588 58.4167 113.984 66.364 106.734 71.547V83.18C106.734 84.7925 104.893 85.5988 103.742 84.6773L93.8447 76.9604C91.7732 77.3059 89.7016 77.5363 87.515 77.5363C70.2524 77.5363 56.3271 64.9818 56.3271 49.5479C56.3271 34.114 70.2524 21.5596 87.3999 21.5596Z" fill="#414651"/>
<g filter="url(#filter0_d)">
<path d="M56.9025 20.1775C37.6834 20.1775 22.147 34.1141 22.147 51.2756C22.147 61.181 27.3258 70.0497 35.3817 75.6935V88.5934C35.3817 90.3211 37.3381 91.3577 38.7191 90.2059L49.7672 81.6827C52.0689 82.1435 54.3706 82.3738 56.7874 82.3738C76.0065 82.3738 91.5429 68.4372 91.5429 51.2756C91.5429 34.1141 76.0065 20.1775 56.9025 20.1775Z" fill="url(#paint0_linear)"/>
</g>
<path d="M45.5668 52.5427C47.6643 52.5427 49.3646 50.841 49.3646 48.7418C49.3646 46.6426 47.6643 44.9409 45.5668 44.9409C43.4694 44.9409 41.769 46.6426 41.769 48.7418C41.769 50.841 43.4694 52.5427 45.5668 52.5427Z" fill="#989FB0"/>
<path d="M67.0878 52.5427C69.1853 52.5427 70.8856 50.841 70.8856 48.7418C70.8856 46.6426 69.1853 44.9409 67.0878 44.9409C64.9904 44.9409 63.29 46.6426 63.29 48.7418C63.29 50.841 64.9904 52.5427 67.0878 52.5427Z" fill="#989FB0"/>
<path d="M61.1034 64.6363C60.7582 64.6363 60.4129 64.5211 60.1827 64.1756C59.2621 62.9086 57.881 62.2176 56.2699 62.2176C54.7738 62.2176 53.2777 62.9086 52.4721 64.1756C52.1268 64.7515 51.4363 64.8667 50.8609 64.406C50.2855 64.0604 50.1704 63.3694 50.6307 62.7935C51.8967 60.9506 54.0833 59.7988 56.3849 59.7988C58.6866 59.7988 60.7582 60.9506 62.1392 62.7935C62.4844 63.3694 62.3693 64.0604 61.909 64.406C61.5637 64.6363 61.3336 64.6363 61.1034 64.6363Z" fill="#989FB0"/>
<path d="M48.341 17.2543C48.2022 17.2543 48.0634 17.2543 47.9247 17.2543C47.2309 16.9766 46.8146 16.2822 46.9533 15.5878L49.3123 7.94967C49.5898 7.25529 50.2836 6.83866 50.9775 6.97754C51.6713 7.25529 52.0876 7.94967 51.9488 8.64404L49.7286 16.2822C49.5898 16.8377 49.0348 17.2543 48.341 17.2543Z" fill="#B5BCCE"/>
<path d="M42.513 18.9209C41.958 18.9209 41.4029 18.5043 41.1254 17.9488L37.5176 6.97759C37.2401 6.28321 37.6564 5.44996 38.3502 5.17221C39.044 4.89445 39.8766 5.31108 40.1541 6.00546L43.7619 16.9766C44.0394 17.671 43.6231 18.5043 42.9293 18.782C42.7906 18.9209 42.6518 18.9209 42.513 18.9209Z" fill="#B5BCCE"/>
<path d="M37.1015 21.5597C36.6852 21.5597 36.4076 21.4208 36.1301 21.1431L31.6897 16.8379C31.1347 16.2824 31.1347 15.4492 31.6897 14.8937C32.2448 14.3382 33.0773 14.3382 33.6324 14.8937L38.0728 19.1988C38.6278 19.7543 38.6278 20.5876 38.0728 21.1431C37.7953 21.4208 37.379 21.5597 37.1015 21.5597Z" fill="#B5BCCE"/>
<defs>
<filter id="filter0_d" x="0.146973" y="9.17749" width="113.396" height="114.515" filterUnits="userSpaceOnUse" color-interpolation-filters="sRGB">
<feFlood flood-opacity="0" result="BackgroundImageFix"/>
<feColorMatrix in="SourceAlpha" type="matrix" values="0 0 0 0 0 0 0 0 0 0 0 0 0 0 0 0 0 0 127 0" result="hardAlpha"/>
<feOffset dy="11"/>
<feGaussianBlur stdDeviation="11"/>
<feColorMatrix type="matrix" values="0 0 0 0 0 0 0 0 0 0 0 0 0 0 0 0 0 0 0.27 0"/>
<feBlend mode="normal" in2="BackgroundImageFix" result="effect1_dropShadow"/>
<feBlend mode="normal" in="SourceGraphic" in2="effect1_dropShadow" result="shape"/>
</filter>
<linearGradient id="paint0_linear" x1="56.8223" y1="18.5464" x2="56.8223" y2="91.4526" gradientUnits="userSpaceOnUse">
<stop stop-color="#5C6479"/>
<stop offset="0.9964" stop-color="#5C6479"/>
</linearGradient>
</defs>
</svg>
