<svg width="130" height="123" viewBox="0 0 130 123" fill="none" xmlns="http://www.w3.org/2000/svg">
<path d="M56.9002 102.324C84.9002 102.324 107.6 79.6241 107.6 51.5241C107.6 23.4241 84.9002 0.724121 56.9002 0.724121C28.9002 0.724121 6.2002 23.4241 6.2002 51.5241C6.2002 79.6241 28.9002 102.324 56.9002 102.324Z" fill="#2A2E37"/>
<path d="M113.4 30.6241C115.664 30.6241 117.5 28.7884 117.5 26.5241C117.5 24.2597 115.664 22.4241 113.4 22.4241C111.135 22.4241 109.3 24.2597 109.3 26.5241C109.3 28.7884 111.135 30.6241 113.4 30.6241Z" fill="#2A2E37"/>
<path d="M119.4 14.5241C120.946 14.5241 122.2 13.2705 122.2 11.7241C122.2 10.1777 120.946 8.92407 119.4 8.92407C117.854 8.92407 116.6 10.1777 116.6 11.7241C116.6 13.2705 117.854 14.5241 119.4 14.5241Z" fill="#2A2E37"/>
<path d="M2.8 33.5241C4.3464 33.5241 5.6 32.2705 5.6 30.7241C5.6 29.1777 4.3464 27.9241 2.8 27.9241C1.2536 27.9241 0 29.1777 0 30.7241C0 32.2705 1.2536 33.5241 2.8 33.5241Z" fill="#2A2E37"/>
<path d="M7.9998 94.4242C10.8717 94.4242 13.1998 92.096 13.1998 89.2242C13.1998 86.3523 10.8717 84.0242 7.9998 84.0242C5.12792 84.0242 2.7998 86.3523 2.7998 89.2242C2.7998 92.096 5.12792 94.4242 7.9998 94.4242Z" fill="#2A2E37"/>
<path d="M88.3001 21.9242V63.6242C88.3001 66.1242 86.2001 68.2242 83.7001 68.2242H14.7001C12.2001 68.2242 10.1001 66.2242 10.1001 63.6242V21.9242C10.1001 19.4242 12.2001 17.3242 14.7001 17.3242H83.7001C86.2001 17.3242 88.3001 19.4242 88.3001 21.9242Z" fill="#414758"/>
<g filter="url(#filter0_d)">
<path d="M100.6 89.2242H36.5C32.6 89.2242 29.5 86.1242 29.5 82.2242V45.3242C29.5 41.4242 32.6 38.3242 36.5 38.3242H100.6C104.5 38.3242 107.6 41.4242 107.6 45.3242V82.2242C107.6 86.1242 104.5 89.2242 100.6 89.2242Z" fill="url(#paint0_linear)"/>
</g>
<path d="M49.3 77.7242H39.1C38.2 77.7242 37.5 77.0242 37.5 76.1242C37.5 75.2242 38.2 74.5242 39.1 74.5242H49.3C50.2 74.5242 50.9 75.2242 50.9 76.1242C50.9 77.0242 50.2 77.7242 49.3 77.7242Z" fill="#A9AFC3"/>
<path d="M65.8 77.7242H55.6C54.7 77.7242 54 77.0242 54 76.1242C54 75.2242 54.7 74.5242 55.6 74.5242H65.8C66.7 74.5242 67.4 75.2242 67.4 76.1242C67.4 77.0242 66.7 77.7242 65.8 77.7242Z" fill="#A9AFC3"/>
<path d="M82.3 77.7242H72.1C71.2 77.7242 70.5 77.0242 70.5 76.1242C70.5 75.2242 71.2 74.5242 72.1 74.5242H82.3C83.2 74.5242 83.9 75.2242 83.9 76.1242C83.9 77.0242 83.2 77.7242 82.3 77.7242Z" fill="#A9AFC3"/>
<path d="M98.8 77.7242H88.6C87.7 77.7242 87 77.0242 87 76.1242C87 75.2242 87.7 74.5242 88.6 74.5242H98.8C99.7 74.5242 100.4 75.2242 100.4 76.1242C100.4 77.0242 99.7 77.7242 98.8 77.7242Z" fill="#A9AFC3"/>
<path d="M95.1001 58.5242C98.4138 58.5242 101.1 55.8379 101.1 52.5242C101.1 49.2105 98.4138 46.5242 95.1001 46.5242C91.7864 46.5242 89.1001 49.2105 89.1001 52.5242C89.1001 55.8379 91.7864 58.5242 95.1001 58.5242Z" fill="#989FB0"/>
<path d="M87.2002 58.5242C90.5139 58.5242 93.2002 55.8379 93.2002 52.5242C93.2002 49.2105 90.5139 46.5242 87.2002 46.5242C83.8865 46.5242 81.2002 49.2105 81.2002 52.5242C81.2002 55.8379 83.8865 58.5242 87.2002 58.5242Z" fill="#A9AFC3"/>
<path d="M88.3002 25.8242H10.2002V35.6242H88.3002V25.8242Z" fill="#2A2E37"/>
<path d="M50.2 60.4241H39C38.2 60.4241 37.5 59.7241 37.5 58.9241V51.7241C37.5 50.9241 38.2 50.2241 39 50.2241H50.1C50.9 50.2241 51.6 50.9241 51.6 51.7241V58.9241C51.7 59.7241 51 60.4241 50.2 60.4241Z" fill="#A9AFC3"/>
<defs>
<filter id="filter0_d" x="7.5" y="27.3242" width="122.1" height="94.8999" filterUnits="userSpaceOnUse" color-interpolation-filters="sRGB">
<feFlood flood-opacity="0" result="BackgroundImageFix"/>
<feColorMatrix in="SourceAlpha" type="matrix" values="0 0 0 0 0 0 0 0 0 0 0 0 0 0 0 0 0 0 127 0" result="hardAlpha"/>
<feOffset dy="11"/>
<feGaussianBlur stdDeviation="11"/>
<feColorMatrix type="matrix" values="0 0 0 0 0 0 0 0 0 0 0 0 0 0 0 0 0 0 0.27 0"/>
<feBlend mode="normal" in2="BackgroundImageFix" result="effect1_dropShadow"/>
<feBlend mode="normal" in="SourceGraphic" in2="effect1_dropShadow" result="shape"/>
</filter>
<linearGradient id="paint0_linear" x1="68.5245" y1="37.1469" x2="68.5245" y2="89.773" gradientUnits="userSpaceOnUse">
<stop stop-color="#5C6479"/>
<stop offset="0.9964" stop-color="#5C6479"/>
</linearGradient>
</defs>
</svg>
