<svg width="142" height="117" viewBox="0 0 142 117" fill="none" xmlns="http://www.w3.org/2000/svg">
<path d="M70.9002 102.324C98.9002 102.324 121.6 79.6241 121.6 51.5241C121.6 23.4241 98.9002 0.724121 70.9002 0.724121C42.9002 0.724121 20.2002 23.4241 20.2002 51.5241C20.2002 79.6241 42.9002 102.324 70.9002 102.324Z" fill="#2A2E37"/>
<path d="M127.4 30.6241C129.664 30.6241 131.5 28.7884 131.5 26.5241C131.5 24.2597 129.664 22.4241 127.4 22.4241C125.135 22.4241 123.3 24.2597 123.3 26.5241C123.3 28.7884 125.135 30.6241 127.4 30.6241Z" fill="#2A2E37"/>
<path d="M133.4 14.5241C134.946 14.5241 136.2 13.2705 136.2 11.7241C136.2 10.1777 134.946 8.92407 133.4 8.92407C131.854 8.92407 130.6 10.1777 130.6 11.7241C130.6 13.2705 131.854 14.5241 133.4 14.5241Z" fill="#2A2E37"/>
<path d="M16.8 33.5241C18.3464 33.5241 19.6 32.2705 19.6 30.7241C19.6 29.1777 18.3464 27.9241 16.8 27.9241C15.2536 27.9241 14 29.1777 14 30.7241C14 32.2705 15.2536 33.5241 16.8 33.5241Z" fill="#2A2E37"/>
<path d="M21.9998 94.4242C24.8717 94.4242 27.1998 92.096 27.1998 89.2242C27.1998 86.3523 24.8717 84.0242 21.9998 84.0242C19.1279 84.0242 16.7998 86.3523 16.7998 89.2242C16.7998 92.096 19.1279 94.4242 21.9998 94.4242Z" fill="#2A2E37"/>
<g filter="url(#filter0_d)">
<path d="M111.216 83.5935H30.7836C25.8899 83.5935 22 79.7036 22 74.8099V28.5077C22 23.614 25.8899 19.7241 30.7836 19.7241H111.216C116.11 19.7241 120 23.614 120 28.5077V74.8099C120 79.7036 116.11 83.5935 111.216 83.5935Z" fill="url(#paint0_linear)"/>
</g>
<path d="M46.8452 69.1633H34.0463C32.9169 69.1633 32.0386 68.285 32.0386 67.1556C32.0386 66.0263 32.9169 65.1479 34.0463 65.1479H46.8452C47.9746 65.1479 48.8529 66.0263 48.8529 67.1556C48.8529 68.285 47.9746 69.1633 46.8452 69.1633Z" fill="#A9AFC3"/>
<path d="M67.5493 69.1633H54.7504C53.621 69.1633 52.7427 68.285 52.7427 67.1556C52.7427 66.0263 53.621 65.1479 54.7504 65.1479H67.5493C68.6787 65.1479 69.557 66.0263 69.557 67.1556C69.557 68.285 68.6787 69.1633 67.5493 69.1633Z" fill="#A9AFC3"/>
<path d="M88.2534 69.1633H75.4545C74.3251 69.1633 73.4468 68.285 73.4468 67.1556C73.4468 66.0263 74.3251 65.1479 75.4545 65.1479H88.2534C89.3828 65.1479 90.2611 66.0263 90.2611 67.1556C90.2611 68.285 89.3828 69.1633 88.2534 69.1633Z" fill="#A9AFC3"/>
<path d="M108.958 69.1633H96.1586C95.0292 69.1633 94.1509 68.285 94.1509 67.1556C94.1509 66.0263 95.0292 65.1479 96.1586 65.1479H108.958C110.087 65.1479 110.965 66.0263 110.965 67.1556C110.965 68.285 110.087 69.1633 108.958 69.1633Z" fill="#A9AFC3"/>
<path d="M104.315 45.071C108.473 45.071 111.844 41.7003 111.844 37.5422C111.844 33.3842 108.473 30.0134 104.315 30.0134C100.157 30.0134 96.7861 33.3842 96.7861 37.5422C96.7861 41.7003 100.157 45.071 104.315 45.071Z" fill="#989FB0"/>
<path d="M94.4019 45.071C98.5599 45.071 101.931 41.7003 101.931 37.5422C101.931 33.3842 98.5599 30.0134 94.4019 30.0134C90.2438 30.0134 86.873 33.3842 86.873 37.5422C86.873 41.7003 90.2438 45.071 94.4019 45.071Z" fill="#A9AFC3"/>
<path d="M47.9746 47.4552H33.9208C32.9169 47.4552 32.0386 46.5769 32.0386 45.573V36.5385C32.0386 35.5346 32.9169 34.6562 33.9208 34.6562H47.8491C48.8529 34.6562 49.7313 35.5346 49.7313 36.5385V45.573C49.8568 46.5769 48.9784 47.4552 47.9746 47.4552Z" fill="#A9AFC3"/>
<g filter="url(#filter1_d)">
<path d="M127.713 84.3668C127.313 86.0668 126.713 87.8668 126.013 89.3668C124.113 93.0668 121.113 95.9668 117.413 97.8668C113.613 99.7668 109.113 100.567 104.613 99.5668C94.0134 97.3668 87.2134 86.9668 89.4134 76.3668C91.6134 65.7668 101.913 58.8668 112.513 61.1668C116.313 61.9668 119.613 63.8668 122.413 66.4668C127.113 71.1668 129.113 77.9668 127.713 84.3668Z" fill="url(#paint1_linear)"/>
</g>
<path d="M114.813 78.6668H110.313V74.1668C110.313 73.2668 109.613 72.4668 108.613 72.4668C107.713 72.4668 106.913 73.1668 106.913 74.1668V78.6668H102.413C101.513 78.6668 100.713 79.3668 100.713 80.3668C100.713 81.3668 101.413 82.0668 102.413 82.0668H106.913V86.5668C106.913 87.4668 107.613 88.2668 108.613 88.2668C109.513 88.2668 110.313 87.5668 110.313 86.5668V82.0668H114.813C115.713 82.0668 116.513 81.3668 116.513 80.3668C116.513 79.3668 115.713 78.6668 114.813 78.6668Z" fill="#474E61"/>
<defs>
<filter id="filter0_d" x="0" y="8.72412" width="142" height="107.869" filterUnits="userSpaceOnUse" color-interpolation-filters="sRGB">
<feFlood flood-opacity="0" result="BackgroundImageFix"/>
<feColorMatrix in="SourceAlpha" type="matrix" values="0 0 0 0 0 0 0 0 0 0 0 0 0 0 0 0 0 0 127 0" result="hardAlpha"/>
<feOffset dy="11"/>
<feGaussianBlur stdDeviation="11"/>
<feColorMatrix type="matrix" values="0 0 0 0 0 0 0 0 0 0 0 0 0 0 0 0 0 0 0.27 0"/>
<feBlend mode="normal" in2="BackgroundImageFix" result="effect1_dropShadow"/>
<feBlend mode="normal" in="SourceGraphic" in2="effect1_dropShadow" result="shape"/>
</filter>
<filter id="filter1_d" x="85" y="60.7241" width="47.1519" height="47.2756" filterUnits="userSpaceOnUse" color-interpolation-filters="sRGB">
<feFlood flood-opacity="0" result="BackgroundImageFix"/>
<feColorMatrix in="SourceAlpha" type="matrix" values="0 0 0 0 0 0 0 0 0 0 0 0 0 0 0 0 0 0 127 0" result="hardAlpha"/>
<feOffset dy="4"/>
<feGaussianBlur stdDeviation="2"/>
<feComposite in2="hardAlpha" operator="out"/>
<feColorMatrix type="matrix" values="0 0 0 0 0 0 0 0 0 0 0 0 0 0 0 0 0 0 0.25 0"/>
<feBlend mode="normal" in2="BackgroundImageFix" result="effect1_dropShadow"/>
<feBlend mode="normal" in="SourceGraphic" in2="effect1_dropShadow" result="shape"/>
</filter>
<linearGradient id="paint0_linear" x1="70.9681" y1="18.2468" x2="70.9681" y2="84.2821" gradientUnits="userSpaceOnUse">
<stop stop-color="#5C6479"/>
<stop offset="0.9964" stop-color="#5C6479"/>
</linearGradient>
<linearGradient id="paint1_linear" x1="97.9809" y1="71.034" x2="114.903" y2="99.5921" gradientUnits="userSpaceOnUse">
<stop stop-color="#E3EAF7"/>
<stop offset="1" stop-color="#ADB6C8"/>
</linearGradient>
</defs>
</svg>
