<svg width="142" height="117" viewBox="0 0 142 117" fill="none" xmlns="http://www.w3.org/2000/svg">
<path d="M70.9002 102.324C98.9002 102.324 121.6 79.6241 121.6 51.5241C121.6 23.4241 98.9002 0.724121 70.9002 0.724121C42.9002 0.724121 20.2002 23.4241 20.2002 51.5241C20.2002 79.6241 42.9002 102.324 70.9002 102.324Z" fill="#2A2E37"/>
<path d="M127.4 30.6241C129.664 30.6241 131.5 28.7884 131.5 26.5241C131.5 24.2597 129.664 22.4241 127.4 22.4241C125.135 22.4241 123.3 24.2597 123.3 26.5241C123.3 28.7884 125.135 30.6241 127.4 30.6241Z" fill="#2A2E37"/>
<path d="M133.4 14.5241C134.946 14.5241 136.2 13.2705 136.2 11.7241C136.2 10.1777 134.946 8.92407 133.4 8.92407C131.854 8.92407 130.6 10.1777 130.6 11.7241C130.6 13.2705 131.854 14.5241 133.4 14.5241Z" fill="#2A2E37"/>
<path d="M16.8 33.5241C18.3464 33.5241 19.6 32.2705 19.6 30.7241C19.6 29.1777 18.3464 27.9241 16.8 27.9241C15.2536 27.9241 14 29.1777 14 30.7241C14 32.2705 15.2536 33.5241 16.8 33.5241Z" fill="#2A2E37"/>
<path d="M21.9998 94.4242C24.8717 94.4242 27.1998 92.096 27.1998 89.2242C27.1998 86.3523 24.8717 84.0242 21.9998 84.0242C19.1279 84.0242 16.7998 86.3523 16.7998 89.2242C16.7998 92.096 19.1279 94.4242 21.9998 94.4242Z" fill="#2A2E37"/>
<g filter="url(#filter0_d)">
<path d="M111.216 83.5935H30.7836C25.8899 83.5935 22 79.7036 22 74.8099V28.5077C22 23.614 25.8899 19.7241 30.7836 19.7241H111.216C116.11 19.7241 120 23.614 120 28.5077V74.8099C120 79.7036 116.11 83.5935 111.216 83.5935Z" fill="url(#paint0_linear)"/>
</g>
<path d="M46.8452 69.1633H34.0463C32.9169 69.1633 32.0386 68.285 32.0386 67.1556C32.0386 66.0263 32.9169 65.1479 34.0463 65.1479H46.8452C47.9746 65.1479 48.8529 66.0263 48.8529 67.1556C48.8529 68.285 47.9746 69.1633 46.8452 69.1633Z" fill="#A9AFC3"/>
<path d="M67.5493 69.1633H54.7504C53.621 69.1633 52.7427 68.285 52.7427 67.1556C52.7427 66.0263 53.621 65.1479 54.7504 65.1479H67.5493C68.6787 65.1479 69.557 66.0263 69.557 67.1556C69.557 68.285 68.6787 69.1633 67.5493 69.1633Z" fill="#A9AFC3"/>
<path d="M88.2534 69.1633H75.4545C74.3251 69.1633 73.4468 68.285 73.4468 67.1556C73.4468 66.0263 74.3251 65.1479 75.4545 65.1479H88.2534C89.3828 65.1479 90.2611 66.0263 90.2611 67.1556C90.2611 68.285 89.3828 69.1633 88.2534 69.1633Z" fill="#A9AFC3"/>
<path d="M108.958 69.1633H96.1586C95.0292 69.1633 94.1509 68.285 94.1509 67.1556C94.1509 66.0263 95.0292 65.1479 96.1586 65.1479H108.958C110.087 65.1479 110.965 66.0263 110.965 67.1556C110.965 68.285 110.087 69.1633 108.958 69.1633Z" fill="#A9AFC3"/>
<path d="M104.315 45.071C108.473 45.071 111.844 41.7003 111.844 37.5422C111.844 33.3842 108.473 30.0134 104.315 30.0134C100.157 30.0134 96.7861 33.3842 96.7861 37.5422C96.7861 41.7003 100.157 45.071 104.315 45.071Z" fill="#989FB0"/>
<path d="M94.4019 45.071C98.5599 45.071 101.931 41.7003 101.931 37.5422C101.931 33.3842 98.5599 30.0134 94.4019 30.0134C90.2438 30.0134 86.873 33.3842 86.873 37.5422C86.873 41.7003 90.2438 45.071 94.4019 45.071Z" fill="#A9AFC3"/>
<path d="M47.9746 47.4552H33.9208C32.9169 47.4552 32.0386 46.5769 32.0386 45.573V36.5385C32.0386 35.5346 32.9169 34.6562 33.9208 34.6562H47.8491C48.8529 34.6562 49.7313 35.5346 49.7313 36.5385V45.573C49.8568 46.5769 48.9784 47.4552 47.9746 47.4552Z" fill="#A9AFC3"/>
<path d="M95.9219 86.1582L112.259 60.3011C114.038 57.8749 117.761 57.8749 119.539 60.3011L135.877 86.1582C137.599 88.4765 135.877 91.7653 132.931 91.7653H98.9227C95.9219 91.7114 94.1993 88.4765 95.9219 86.1582Z" fill="url(#paint1_linear)"/>
<path d="M115.9 66.9209C114.343 66.9209 113.132 68.2894 113.247 69.896L114.112 79.5353C114.17 80.4873 114.977 81.2609 115.9 81.2609C116.822 81.2609 117.629 80.4873 117.687 79.5353L118.552 69.896C118.667 68.2299 117.456 66.9209 115.9 66.9209Z" fill="#474E61"/>
<path d="M115.9 83.0459C114.747 83.0459 113.824 83.9979 113.824 85.188C113.824 86.378 114.747 87.33 115.9 87.33C117.053 87.33 117.976 86.378 117.976 85.188C117.976 83.9979 117.053 83.0459 115.9 83.0459Z" fill="#474E61"/>
<defs>
<filter id="filter0_d" x="0" y="8.72412" width="142" height="107.869" filterUnits="userSpaceOnUse" color-interpolation-filters="sRGB">
<feFlood flood-opacity="0" result="BackgroundImageFix"/>
<feColorMatrix in="SourceAlpha" type="matrix" values="0 0 0 0 0 0 0 0 0 0 0 0 0 0 0 0 0 0 127 0" result="hardAlpha"/>
<feOffset dy="11"/>
<feGaussianBlur stdDeviation="11"/>
<feColorMatrix type="matrix" values="0 0 0 0 0 0 0 0 0 0 0 0 0 0 0 0 0 0 0.27 0"/>
<feBlend mode="normal" in2="BackgroundImageFix" result="effect1_dropShadow"/>
<feBlend mode="normal" in="SourceGraphic" in2="effect1_dropShadow" result="shape"/>
</filter>
<linearGradient id="paint0_linear" x1="70.9681" y1="18.2468" x2="70.9681" y2="84.2821" gradientUnits="userSpaceOnUse">
<stop stop-color="#5C6479"/>
<stop offset="0.9964" stop-color="#5C6479"/>
</linearGradient>
<linearGradient id="paint1_linear" x1="95.2184" y1="75.9985" x2="136.57" y2="75.9985" gradientUnits="userSpaceOnUse">
<stop stop-color="#B0BACC"/>
<stop offset="1" stop-color="#969EAE"/>
</linearGradient>
</defs>
</svg>
