<svg width="183" height="137" viewBox="0 0 183 137" fill="none" xmlns="http://www.w3.org/2000/svg">
<path d="M85.7 106.466C113.7 106.466 136.4 83.7665 136.4 55.6665C136.4 27.5665 113.6 4.86646 85.7 4.86646C57.7 4.86646 35 27.5665 35 55.6665C35 83.7665 57.7 106.466 85.7 106.466Z" fill="#2A2E37"/>
<path d="M132.7 22.4666C134.964 22.4666 136.8 20.631 136.8 18.3666C136.8 16.1022 134.964 14.2666 132.7 14.2666C130.436 14.2666 128.6 16.1022 128.6 18.3666C128.6 20.631 130.436 22.4666 132.7 22.4666Z" fill="#2A2E37"/>
<path d="M138.7 6.46645C140.246 6.46645 141.5 5.21285 141.5 3.66646C141.5 2.12006 140.246 0.866455 138.7 0.866455C137.154 0.866455 135.9 2.12006 135.9 3.66646C135.9 5.21285 137.154 6.46645 138.7 6.46645Z" fill="#2A2E37"/>
<path d="M37.3 22.3666C38.8464 22.3666 40.1 21.113 40.1 19.5666C40.1 18.0202 38.8464 16.7666 37.3 16.7666C35.7536 16.7666 34.5 18.0202 34.5 19.5666C34.5 21.113 35.7536 22.3666 37.3 22.3666Z" fill="#2A2E37"/>
<path d="M20.2 76.3663C23.0719 76.3663 25.4 74.0382 25.4 71.1663C25.4 68.2944 23.0719 65.9663 20.2 65.9663C17.3281 65.9663 15 68.2944 15 71.1663C15 74.0382 17.3281 76.3663 20.2 76.3663Z" fill="#2A2E37"/>
<g filter="url(#filter0_d)">
<path d="M112.031 41.586C111.485 43.9542 110.665 46.2312 109.663 48.3261C107.022 53.2446 103.105 57.2523 98.1866 59.7115C93.086 62.3529 87.0745 63.2637 80.972 62.0797C66.763 59.0739 57.5637 45.2293 60.5694 30.9293C63.5751 16.6293 77.3286 7.42992 91.6287 10.4357C96.7293 11.5286 101.192 13.9879 104.927 17.5401C111.12 23.9159 113.762 32.9331 112.031 41.586Z" fill="url(#paint0_linear)"/>
</g>
<g filter="url(#filter1_d)">
<path d="M80.1811 75.4993C80.0602 75.4993 80.0602 75.6202 79.9392 75.6202L68.6898 80.8215C67.7222 81.3054 66.6335 80.8215 66.1497 79.8539C65.6658 78.8862 66.1497 77.7975 67.1174 77.3137L74.8589 73.8058L72.4396 72.9591L76.3104 61.9517L67.8431 57.3552L70.6252 46.3477L59.013 43.6866L62.8837 34.6145L60.5855 32.1953L27.9261 47.1944C23.6924 49.1298 21.7571 54.2102 23.8134 58.4438L42.1994 98.8447C44.1348 103.078 49.2152 105.014 53.4488 102.957L85.7453 88.2001L87.6807 77.9185L80.1811 75.4993Z" fill="url(#paint1_linear)"/>
</g>
<path d="M66.1498 79.8538C66.6336 80.8215 67.7223 81.3053 68.6899 80.8215L79.9393 75.6202C80.0603 75.6202 80.0603 75.4992 80.1812 75.4992L74.859 73.6848L67.1175 77.1927C66.1498 77.7975 65.6659 78.8861 66.1498 79.8538Z" fill="#A9AFC3"/>
<path d="M61.7953 83.9667L50.5459 89.168C49.5782 89.6519 48.4896 89.168 48.0057 88.2003C47.5219 87.2327 48.0057 86.144 48.9734 85.6602L60.2228 80.4589C61.1905 79.975 62.2791 80.4589 62.7629 81.4265C63.2468 82.3942 62.7629 83.4829 61.7953 83.9667Z" fill="#A9AFC3"/>
<g filter="url(#filter2_d)">
<path d="M147.456 94.2465L152.774 50.0735C153.351 45.3781 150.07 40.743 145.505 39.7314L104.914 30.0987L105.63 33.5853L97.7687 38.4736L106.186 47.8204L98.0478 54.8374L102.733 63.7558L93.762 70.1897L95.4439 72.3443L99.1526 73.2108C100.172 73.4175 100.88 74.4893 100.793 75.5283C100.645 76.4551 99.8456 77.1354 98.9894 76.9903L104.054 83.7294L97.1814 90.6889L138.159 100.557C142.785 101.681 146.982 98.8912 147.456 94.2465Z" fill="url(#paint2_linear)"/>
</g>
<path d="M117.364 82.2322L105.245 79.3571C104.22 79.1491 103.507 78.0704 103.595 77.0248C103.682 75.9792 104.651 75.3565 105.676 75.5645L117.795 78.4396C118.821 78.6476 119.534 79.7263 119.446 80.7719C119.358 81.8175 118.39 82.4402 117.364 82.2322Z" fill="#A9AFC3"/>
<path d="M136.993 85.6975L124.876 82.8228C123.85 82.6148 123.138 81.5363 123.225 80.4908C123.313 79.4453 124.281 78.8227 125.307 79.0307L137.424 81.9054C138.449 82.1134 139.162 83.1919 139.074 84.2374C138.987 85.2828 138.079 86.0184 136.993 85.6975Z" fill="#A9AFC3"/>
<path d="M145.343 56.1197C145.843 52.352 142.882 48.5797 138.729 47.6939C134.576 46.8081 130.803 49.1443 130.303 52.912C129.803 56.6796 132.764 60.452 136.917 61.3377C141.07 62.2235 144.842 59.8873 145.343 56.1197Z" fill="#989FB0"/>
<path d="M135.926 54.4178C136.426 50.6501 133.465 46.8778 129.312 45.992C125.159 45.1062 121.386 47.4424 120.886 51.2101C120.386 54.9777 123.347 58.7501 127.5 59.6358C131.653 60.5216 135.425 58.1854 135.926 54.4178Z" fill="#A9AFC3"/>
<path d="M99.7703 76.8606C99.8564 75.833 99.1573 74.7729 98.1517 74.5684L94.4917 73.7114L98.0505 78.4176C98.9365 78.4 99.7852 77.8381 99.7703 76.8606Z" fill="#A9AFC3"/>
<path d="M86.7785 21.2517C84.3192 21.2517 82.4065 23.3466 82.5887 25.8059L83.9549 40.5613C84.046 42.0186 85.3212 43.2027 86.7785 43.2027C88.2358 43.2027 89.511 42.0186 89.6021 40.5613L90.9683 25.8059C91.1505 23.2555 89.2377 21.2517 86.7785 21.2517Z" fill="#474E61"/>
<path d="M86.7785 45.9351C84.9568 45.9351 83.4995 47.3924 83.4995 49.214C83.4995 51.0357 84.9568 52.493 86.7785 52.493C88.6002 52.493 90.0575 51.0357 90.0575 49.214C90.0575 47.3924 88.6002 45.9351 86.7785 45.9351Z" fill="#474E61"/>
<path d="M158 44.2643L167.254 41.129" stroke="#989FB0" stroke-width="2" stroke-miterlimit="10"/>
<path d="M155.859 37.431L165.413 26.0261" stroke="#989FB0" stroke-width="2" stroke-miterlimit="10"/>
<path d="M150.431 34.3039L151.661 25.8665" stroke="#989FB0" stroke-width="2" stroke-miterlimit="10"/>
<path d="M23.3297 44.1703L19.459 35.2192" stroke="#989FB0" stroke-width="2" stroke-miterlimit="10"/>
<path d="M19.0961 48.4039L7 39.8157" stroke="#989FB0" stroke-width="2" stroke-miterlimit="10"/>
<path d="M16.556 54.0891L7.96777 53.6052" stroke="#989FB0" stroke-width="2" stroke-miterlimit="10"/>
<path d="M52.4932 64.1756L41.6331 68.9806C40.8574 69.3239 39.8233 68.8209 39.4171 67.9029L35.7616 59.6409C35.3554 58.7229 35.6788 57.6194 36.4545 57.2761L47.2176 52.514C47.9933 52.1708 49.0274 52.6737 49.4336 53.5917L53.0891 61.8537C53.5923 62.7288 53.2689 63.8324 52.4932 64.1756Z" fill="#A9AFC3"/>
<defs>
<filter id="filter0_d" x="56" y="9.86646" width="60.5518" height="60.7236" filterUnits="userSpaceOnUse" color-interpolation-filters="sRGB">
<feFlood flood-opacity="0" result="BackgroundImageFix"/>
<feColorMatrix in="SourceAlpha" type="matrix" values="0 0 0 0 0 0 0 0 0 0 0 0 0 0 0 0 0 0 127 0" result="hardAlpha"/>
<feOffset dy="4"/>
<feGaussianBlur stdDeviation="2"/>
<feComposite in2="hardAlpha" operator="out"/>
<feColorMatrix type="matrix" values="0 0 0 0 0 0 0 0 0 0 0 0 0 0 0 0 0 0 0.25 0"/>
<feBlend mode="normal" in2="BackgroundImageFix" result="effect1_dropShadow"/>
<feBlend mode="normal" in="SourceGraphic" in2="effect1_dropShadow" result="shape"/>
</filter>
<filter id="filter1_d" x="0.987305" y="21.1953" width="108.693" height="115.588" filterUnits="userSpaceOnUse" color-interpolation-filters="sRGB">
<feFlood flood-opacity="0" result="BackgroundImageFix"/>
<feColorMatrix in="SourceAlpha" type="matrix" values="0 0 0 0 0 0 0 0 0 0 0 0 0 0 0 0 0 0 127 0" result="hardAlpha"/>
<feOffset dy="11"/>
<feGaussianBlur stdDeviation="11"/>
<feColorMatrix type="matrix" values="0 0 0 0 0 0 0 0 0 0 0 0 0 0 0 0 0 0 0.27 0"/>
<feBlend mode="normal" in2="BackgroundImageFix" result="effect1_dropShadow"/>
<feBlend mode="normal" in="SourceGraphic" in2="effect1_dropShadow" result="shape"/>
</filter>
<filter id="filter2_d" x="71.7622" y="19.0986" width="103.078" height="114.707" filterUnits="userSpaceOnUse" color-interpolation-filters="sRGB">
<feFlood flood-opacity="0" result="BackgroundImageFix"/>
<feColorMatrix in="SourceAlpha" type="matrix" values="0 0 0 0 0 0 0 0 0 0 0 0 0 0 0 0 0 0 127 0" result="hardAlpha"/>
<feOffset dy="11"/>
<feGaussianBlur stdDeviation="11"/>
<feColorMatrix type="matrix" values="0 0 0 0 0 0 0 0 0 0 0 0 0 0 0 0 0 0 0.27 0"/>
<feBlend mode="normal" in2="BackgroundImageFix" result="effect1_dropShadow"/>
<feBlend mode="normal" in="SourceGraphic" in2="effect1_dropShadow" result="shape"/>
</filter>
<linearGradient id="paint0_linear" x1="72.0545" y1="23.7064" x2="94.7718" y2="62.0405" gradientUnits="userSpaceOnUse">
<stop stop-color="#E3EAF7"/>
<stop offset="1" stop-color="#ADB6C8"/>
</linearGradient>
<linearGradient id="paint1_linear" x1="55.3129" y1="30.5394" x2="55.3129" y2="104.555" gradientUnits="userSpaceOnUse">
<stop stop-color="#5C6479"/>
<stop offset="0.9964" stop-color="#5C6479"/>
</linearGradient>
<linearGradient id="paint2_linear" x1="103.44" y1="28.7683" x2="140.061" y2="102.726" gradientUnits="userSpaceOnUse">
<stop stop-color="#5C6479"/>
<stop offset="0.9964" stop-color="#5C6479"/>
</linearGradient>
</defs>
</svg>
