<svg width="194" height="164" viewBox="0 0 194 164" fill="none" xmlns="http://www.w3.org/2000/svg">
<path d="M97.9264 138.533C127.626 138.533 151.826 114.433 151.826 84.8335C151.826 55.1335 127.726 31.1335 97.9264 31.1335C68.1264 31.0335 44.0264 55.0335 44.0264 84.7335C44.0264 114.433 68.1264 138.533 97.9264 138.533Z" fill="#2A2E37"/>
<path d="M88.4263 66.0336L87.0263 62.1336C86.7263 61.1336 85.7263 60.5336 84.7263 60.5336H60.1263C58.0263 60.5336 56.4263 62.1336 56.4263 64.2336V119.334V110.234H140.426V71.3336C140.426 69.2336 138.826 67.6336 136.726 67.6336H90.7263C89.7263 67.6336 88.8263 67.0336 88.4263 66.0336Z" fill="#414758"/>
<g filter="url(#filter0_d)">
<g filter="url(#filter1_d)">
<path d="M58.8263 34.2335L75.6263 63.4335C76.1263 64.4335 75.8263 65.7335 74.8263 66.2335L46.2263 82.2335C45.2263 82.7335 43.9263 82.4335 43.4263 81.4335L22.3263 43.6335C21.6263 42.6335 22.1263 41.3335 23.1263 40.8335L43.9263 29.2335L58.8263 34.2335Z" fill="#5C6479"/>
</g>
</g>
<path d="M43.7264 37.3334L29.9264 45.0334C29.6264 45.2334 29.1264 45.1334 29.0264 44.7334C28.8264 44.4334 28.9264 43.9334 29.2264 43.8334L43.0264 36.2334C43.3264 36.0334 43.8264 36.1334 43.9264 36.4334C44.1264 36.7334 44.0264 37.2334 43.7264 37.3334Z" fill="#3A4050"/>
<path d="M37.0263 45.4335L31.7263 48.3335C31.4263 48.5335 31.0263 48.4335 30.9263 48.1335C30.7263 47.8335 30.8263 47.3335 31.1263 47.2335L36.3263 44.3335C36.6263 44.1335 37.1263 44.2335 37.2263 44.5335C37.5263 44.7335 37.4263 45.2335 37.0263 45.4335Z" fill="#3A4050"/>
<path d="M43.9263 29.2335L48.5263 37.3335C49.2263 38.4335 50.7263 38.8335 51.8263 38.2335L59.1263 34.2335" fill="#3A4050"/>
<path d="M60.5262 52.0335C59.6262 50.2335 58.4262 48.1335 56.9262 46.6335C56.1262 45.8335 55.1262 45.3335 53.9262 45.3335C52.7262 45.3335 51.6262 45.7335 50.4262 46.3335C48.3262 47.2335 46.4262 48.1335 44.5262 49.3335C42.8262 50.3335 40.8262 51.4335 39.5262 53.0335C37.8262 55.3335 38.7262 57.6335 39.9262 60.0335C40.8262 61.8335 42.0262 63.9335 43.5262 65.4335C44.7262 66.6335 46.3262 67.0335 47.9262 66.5335C50.0262 66.0335 53.9262 63.8335 55.7262 62.7335C57.3262 61.7335 59.2262 60.8335 60.4262 59.3335C62.7262 57.0335 61.9262 54.6335 60.5262 52.0335ZM46.5262 54.5335C46.2262 53.9335 46.4262 53.4335 47.2262 53.5335C49.3262 53.6335 51.3262 53.6335 53.3262 53.7335C54.1262 53.7335 54.3262 54.1335 54.0262 54.8335C53.0262 56.5335 52.0262 58.3335 51.0262 60.1335C50.6262 60.7335 50.1262 60.7335 49.8262 60.2335C49.5262 59.9335 46.8262 55.0335 46.5262 54.5335Z" fill="#3A4050"/>
<g filter="url(#filter2_d)">
<path d="M171.926 57.6335L152.826 82.3335C152.226 83.2335 151.026 83.3335 150.126 82.6335L126.326 63.9335C125.426 63.3335 125.326 62.1335 126.026 61.2335L150.826 29.7335C151.426 28.8335 152.626 28.7335 153.526 29.4335L170.826 43.0335L171.926 57.6335Z" fill="url(#paint0_linear)"/>
</g>
<path d="M163.826 45.7335L152.326 36.7335C152.126 36.5335 152.026 36.2335 152.226 35.8335C152.426 35.6335 152.726 35.5335 153.126 35.7335L164.626 44.7335C164.826 44.9335 164.926 45.2335 164.726 45.6335C164.426 45.9335 164.126 45.9335 163.826 45.7335Z" fill="#3A4050"/>
<path d="M154.626 42.9336L150.326 39.4336C150.126 39.2336 150.026 38.9336 150.226 38.5336C150.426 38.2336 150.726 38.2336 151.126 38.4336L155.426 41.9336C155.626 42.1336 155.726 42.4336 155.526 42.8336C155.226 43.1336 154.826 43.1336 154.626 42.9336Z" fill="#3A4050"/>
<path d="M170.827 43.0334L165.527 49.7334C164.727 50.7334 165.026 52.1334 165.926 52.8334L172.027 57.6334" fill="#3A4050"/>
<path d="M164.526 59.1335L158.526 54.5335L152.326 49.6335L146.626 45.1335C146.026 44.6335 145.026 44.7335 144.526 45.4335L136.326 55.8335C135.826 56.4335 135.926 57.4335 136.526 57.9335L154.526 72.1335C155.126 72.6335 156.126 72.5335 156.626 71.8335L164.826 61.4335C165.326 60.5335 165.226 59.7335 164.526 59.1335ZM145.526 59.0335L147.326 56.6335L152.826 60.9335L151.026 63.3335L145.526 59.0335ZM150.526 64.0335L148.826 66.2335L143.326 61.9335L145.026 59.7335L150.526 64.0335ZM155.226 57.9335L153.426 60.3335L147.926 56.0335L149.726 53.6335L155.226 57.9335ZM150.226 52.9335L152.226 50.5335L157.726 54.8335L155.926 57.2335L150.226 52.9335ZM160.226 65.6335L154.126 60.8335L155.926 58.4335L162.026 63.2335L160.226 65.6335ZM147.226 55.4335L141.326 50.8335L143.126 48.4335L149.026 53.0335L147.226 55.4335ZM140.726 51.5335L146.626 56.1335L144.826 58.5335L138.926 53.9335L140.726 51.5335ZM153.626 61.5335L159.726 66.3335L157.926 68.7335L151.826 63.9335L153.626 61.5335ZM164.126 60.7335L162.626 62.6335L156.526 57.8335L158.326 55.4335L163.926 59.8335C164.326 60.0335 164.326 60.4335 164.126 60.7335ZM146.026 45.6335L151.426 49.9335L149.626 52.3335L143.726 47.7335L145.226 45.8335C145.426 45.5335 145.826 45.5335 146.026 45.6335ZM137.026 56.2335L138.326 54.6335L144.226 59.2335L142.526 61.4335L137.026 57.1335C136.826 56.9335 136.826 56.4335 137.026 56.2335ZM155.126 71.1335L149.526 66.7335L151.226 64.5335L157.326 69.3335L155.926 71.0335C155.726 71.4335 155.326 71.4335 155.126 71.1335Z" fill="#3A4050"/>
<g filter="url(#filter3_d)">
<g filter="url(#filter4_d)">
<path d="M147.026 83.1335L140.126 125.634C139.726 128.134 137.526 130.034 134.926 130.034H59.9261C57.3261 130.034 55.1261 128.234 54.7261 125.634L49.0261 90.7335C48.6261 88.1335 50.6261 85.6335 53.3261 85.6335H95.6261C96.9261 85.6335 98.0261 84.7335 98.4261 83.5335L99.6261 79.8335C100.026 78.6335 101.126 77.7335 102.426 77.7335H142.726C145.326 78.0335 147.426 80.4335 147.026 83.1335Z" fill="#414758"/>
</g>
</g>
<g filter="url(#filter5_d)">
<path d="M124.226 27.5336L121.026 62.2336C120.926 63.4336 119.826 64.3336 118.626 64.1336L84.8264 60.6336C83.6264 60.5336 82.7264 59.4336 82.8264 58.2336L87.4264 13.7336C87.5264 12.5336 88.6264 11.6336 89.8264 11.8336L114.326 14.3336L124.226 27.5336Z" fill="url(#paint1_linear)"/>
</g>
<path d="M114.426 14.4335L113.426 23.9335C113.326 25.2335 114.326 26.5335 115.726 26.6335L124.326 27.5335" fill="#3A4050"/>
<path d="M117.626 52.8335L89.9262 49.7335C89.2262 49.6335 88.7262 49.1335 88.8262 48.4335L90.9262 30.7335C91.0262 30.1335 91.6262 29.5335 92.2262 29.6335L119.926 32.6335C120.626 32.7335 121.126 33.2335 121.026 33.9335L118.926 51.6335C118.826 52.3335 118.226 52.8335 117.626 52.8335Z" fill="#3A4050"/>
<path d="M105.126 48.5334L92.3262 47.0334L99.5262 40.5334L105.126 48.5334Z" fill="#24272F"/>
<path d="M115.727 49.7335L97.2266 47.5335L107.727 38.2335L115.727 49.7335Z" fill="#5C6479"/>
<path d="M98.5264 37.7335C99.9264 37.7335 101.026 36.6335 101.026 35.2335C101.026 33.8335 99.9264 32.7335 98.5264 32.7335C97.1264 32.7335 96.0264 33.8335 96.0264 35.2335C96.0264 36.6335 97.1264 37.7335 98.5264 37.7335Z" fill="#24272F"/>
<path d="M109.226 20.2335L92.4262 18.3335C92.2262 18.3335 92.0262 18.1335 92.1262 17.9335V17.7335C92.1262 17.5335 92.3262 17.3335 92.5262 17.4335L109.326 19.3335C109.526 19.3335 109.726 19.5335 109.626 19.7335V19.9335C109.726 20.1335 109.526 20.3335 109.226 20.2335Z" fill="#3A4050"/>
<path d="M109.126 23.4335L92.1264 21.5335C91.9264 21.5335 91.7264 21.3335 91.8264 21.1335V20.9335C91.8264 20.7335 92.0264 20.5335 92.2264 20.6335L109.226 22.5335C109.426 22.5335 109.626 22.7335 109.526 22.9335V23.1335C109.626 23.2335 109.326 23.4335 109.126 23.4335Z" fill="#3A4050"/>
<path d="M109.726 56.1335L88.6262 53.7335C88.3262 53.7335 88.1262 53.4335 88.2262 53.1335C88.2262 52.8335 88.5262 52.6335 88.9262 52.7335L109.926 55.1335C110.226 55.1335 110.426 55.4335 110.326 55.7335C110.226 56.0335 110.026 56.2335 109.726 56.1335Z" fill="#3A4050"/>
<path d="M106.626 26.4335L91.8264 24.7335C91.5264 24.7335 91.3264 24.4335 91.4264 24.1335C91.4264 23.8335 91.7264 23.6335 92.1264 23.7335L106.926 25.4335C107.226 25.4335 107.426 25.7335 107.326 26.0335C107.226 26.2335 107.026 26.4335 106.626 26.4335Z" fill="#3A4050"/>
<path d="M117.526 60.2335L88.1262 56.7335C87.8262 56.7335 87.6262 56.4335 87.7262 56.1335C87.7262 55.8335 88.0262 55.6335 88.4262 55.7335L117.826 59.1335C118.126 59.1335 118.326 59.4335 118.226 59.7335C118.126 60.0335 117.826 60.2335 117.526 60.2335Z" fill="#3A4050"/>
<path d="M87.0263 7.23349C86.6263 7.43349 86.1263 7.23349 85.9263 6.83349L84.1263 2.33349C83.9263 1.93349 84.1263 1.43349 84.5263 1.23349C84.9263 1.03349 85.4263 1.23349 85.6263 1.63349L87.4263 6.13349C87.7263 6.73349 87.5263 7.13349 87.0263 7.23349Z" fill="#3A4050"/>
<path d="M83.7263 11.6335C83.5263 11.8335 83.3263 11.9335 82.9263 11.8335L78.2263 10.9335C77.8263 10.8335 77.4263 10.4335 77.5263 9.93347C77.6263 9.53347 78.0263 9.13347 78.5263 9.33347L83.2263 10.2335C83.6263 10.3335 84.0263 10.7335 83.9263 11.2335C83.8263 11.3335 83.8263 11.5335 83.7263 11.6335Z" fill="#3A4050"/>
<path d="M93.2261 6.73343C93.1261 6.73343 93.0261 6.63343 92.8261 6.63343C92.5261 6.33343 92.4261 5.83343 92.7261 5.43343L95.6261 1.63343C95.9261 1.33343 96.4261 1.23343 96.8261 1.53343C97.1261 1.83343 97.2261 2.33343 96.9261 2.73343L94.0261 6.53343C93.7261 6.63343 93.4261 6.73343 93.2261 6.73343Z" fill="#3A4050"/>
<g filter="url(#filter6_d)">
<path d="M118.126 123.334C117.726 125.034 117.126 126.834 116.426 128.334C114.526 132.034 111.526 134.934 107.826 136.834C104.026 138.734 99.5265 139.534 95.0265 138.534C84.4265 136.334 77.6265 125.934 79.8265 115.334C82.0265 104.734 92.3265 97.8336 102.926 100.134C106.726 100.934 110.026 102.834 112.826 105.434C117.526 110.134 119.526 116.934 118.126 123.334Z" fill="url(#paint2_linear)"/>
</g>
<path d="M105.226 117.634H100.726V113.134C100.726 112.234 100.026 111.434 99.0265 111.434C98.1265 111.434 97.3265 112.134 97.3265 113.134V117.634H92.8265C91.9265 117.634 91.1265 118.334 91.1265 119.334C91.1265 120.334 91.8265 121.034 92.8265 121.034H97.3265V125.534C97.3265 126.434 98.0265 127.234 99.0265 127.234C99.9265 127.234 100.726 126.534 100.726 125.534V121.034H105.226C106.126 121.034 106.926 120.334 106.926 119.334C106.926 118.334 106.126 117.634 105.226 117.634Z" fill="#474E61"/>
<defs>
<filter id="filter0_d" x="0" y="18.2335" width="97.8638" height="97.2375" filterUnits="userSpaceOnUse" color-interpolation-filters="sRGB">
<feFlood flood-opacity="0" result="BackgroundImageFix"/>
<feColorMatrix in="SourceAlpha" type="matrix" values="0 0 0 0 0 0 0 0 0 0 0 0 0 0 0 0 0 0 127 0" result="hardAlpha"/>
<feOffset dy="11"/>
<feGaussianBlur stdDeviation="11"/>
<feColorMatrix type="matrix" values="0 0 0 0 0 0 0 0 0 0 0 0 0 0 0 0 0 0 0.27 0"/>
<feBlend mode="normal" in2="BackgroundImageFix" result="effect1_dropShadow"/>
<feBlend mode="normal" in="SourceGraphic" in2="effect1_dropShadow" result="shape"/>
</filter>
<filter id="filter1_d" x="0" y="18.2335" width="97.8638" height="97.2375" filterUnits="userSpaceOnUse" color-interpolation-filters="sRGB">
<feFlood flood-opacity="0" result="BackgroundImageFix"/>
<feColorMatrix in="SourceAlpha" type="matrix" values="0 0 0 0 0 0 0 0 0 0 0 0 0 0 0 0 0 0 127 0" result="hardAlpha"/>
<feOffset dy="11"/>
<feGaussianBlur stdDeviation="11"/>
<feColorMatrix type="matrix" values="0 0 0 0 0 0 0 0 0 0 0 0 0 0 0 0 0 0 0.27 0"/>
<feBlend mode="normal" in2="BackgroundImageFix" result="effect1_dropShadow"/>
<feBlend mode="normal" in="SourceGraphic" in2="effect1_dropShadow" result="shape"/>
</filter>
<filter id="filter2_d" x="103.567" y="17.9741" width="90.3594" height="98.1188" filterUnits="userSpaceOnUse" color-interpolation-filters="sRGB">
<feFlood flood-opacity="0" result="BackgroundImageFix"/>
<feColorMatrix in="SourceAlpha" type="matrix" values="0 0 0 0 0 0 0 0 0 0 0 0 0 0 0 0 0 0 127 0" result="hardAlpha"/>
<feOffset dy="11"/>
<feGaussianBlur stdDeviation="11"/>
<feColorMatrix type="matrix" values="0 0 0 0 0 0 0 0 0 0 0 0 0 0 0 0 0 0 0.27 0"/>
<feBlend mode="normal" in2="BackgroundImageFix" result="effect1_dropShadow"/>
<feBlend mode="normal" in="SourceGraphic" in2="effect1_dropShadow" result="shape"/>
</filter>
<filter id="filter3_d" x="26.9751" y="66.7335" width="142.1" height="96.3" filterUnits="userSpaceOnUse" color-interpolation-filters="sRGB">
<feFlood flood-opacity="0" result="BackgroundImageFix"/>
<feColorMatrix in="SourceAlpha" type="matrix" values="0 0 0 0 0 0 0 0 0 0 0 0 0 0 0 0 0 0 127 0" result="hardAlpha"/>
<feOffset dy="11"/>
<feGaussianBlur stdDeviation="11"/>
<feColorMatrix type="matrix" values="0 0 0 0 0 0 0 0 0 0 0 0 0 0 0 0 0 0 0.27 0"/>
<feBlend mode="normal" in2="BackgroundImageFix" result="effect1_dropShadow"/>
<feBlend mode="normal" in="SourceGraphic" in2="effect1_dropShadow" result="shape"/>
</filter>
<filter id="filter4_d" x="44.9751" y="69.7335" width="106.1" height="60.3" filterUnits="userSpaceOnUse" color-interpolation-filters="sRGB">
<feFlood flood-opacity="0" result="BackgroundImageFix"/>
<feColorMatrix in="SourceAlpha" type="matrix" values="0 0 0 0 0 0 0 0 0 0 0 0 0 0 0 0 0 0 127 0" result="hardAlpha"/>
<feOffset dy="-4"/>
<feGaussianBlur stdDeviation="2"/>
<feComposite in2="hardAlpha" operator="out"/>
<feColorMatrix type="matrix" values="0 0 0 0 0 0 0 0 0 0 0 0 0 0 0 0 0 0 0.09 0"/>
<feBlend mode="normal" in2="BackgroundImageFix" result="effect1_dropShadow"/>
<feBlend mode="normal" in="SourceGraphic" in2="effect1_dropShadow" result="shape"/>
</filter>
<filter id="filter5_d" x="60.8188" y="0.805664" width="85.4077" height="96.3558" filterUnits="userSpaceOnUse" color-interpolation-filters="sRGB">
<feFlood flood-opacity="0" result="BackgroundImageFix"/>
<feColorMatrix in="SourceAlpha" type="matrix" values="0 0 0 0 0 0 0 0 0 0 0 0 0 0 0 0 0 0 127 0" result="hardAlpha"/>
<feOffset dy="11"/>
<feGaussianBlur stdDeviation="11"/>
<feColorMatrix type="matrix" values="0 0 0 0 0 0 0 0 0 0 0 0 0 0 0 0 0 0 0.27 0"/>
<feBlend mode="normal" in2="BackgroundImageFix" result="effect1_dropShadow"/>
<feBlend mode="normal" in="SourceGraphic" in2="effect1_dropShadow" result="shape"/>
</filter>
<filter id="filter6_d" x="75.4131" y="99.6909" width="47.1519" height="47.2756" filterUnits="userSpaceOnUse" color-interpolation-filters="sRGB">
<feFlood flood-opacity="0" result="BackgroundImageFix"/>
<feColorMatrix in="SourceAlpha" type="matrix" values="0 0 0 0 0 0 0 0 0 0 0 0 0 0 0 0 0 0 127 0" result="hardAlpha"/>
<feOffset dy="4"/>
<feGaussianBlur stdDeviation="2"/>
<feComposite in2="hardAlpha" operator="out"/>
<feColorMatrix type="matrix" values="0 0 0 0 0 0 0 0 0 0 0 0 0 0 0 0 0 0 0.25 0"/>
<feBlend mode="normal" in2="BackgroundImageFix" result="effect1_dropShadow"/>
<feBlend mode="normal" in="SourceGraphic" in2="effect1_dropShadow" result="shape"/>
</filter>
<linearGradient id="paint0_linear" x1="148.731" y1="27.7223" x2="148.731" y2="83.6763" gradientUnits="userSpaceOnUse">
<stop stop-color="#5C6479"/>
<stop offset="0.9964" stop-color="#5C6479"/>
</linearGradient>
<linearGradient id="paint1_linear" x1="103.509" y1="10.5946" x2="103.509" y2="64.7259" gradientUnits="userSpaceOnUse">
<stop stop-color="#5C6479"/>
<stop offset="0.9964" stop-color="#5C6479"/>
</linearGradient>
<linearGradient id="paint2_linear" x1="88.394" y1="110.001" x2="105.316" y2="138.559" gradientUnits="userSpaceOnUse">
<stop stop-color="#E3EAF7"/>
<stop offset="1" stop-color="#ADB6C8"/>
</linearGradient>
</defs>
</svg>
