<svg width="136" height="153" viewBox="0 0 136 153" fill="none" xmlns="http://www.w3.org/2000/svg">
<path d="M12.9331 28.9102C14.448 28.4052 15.3316 26.7641 14.8267 25.2493C14.3217 23.7345 12.6807 22.8508 11.0396 23.3558C9.52477 23.8607 8.64112 25.5018 9.14606 27.0166C9.651 28.5314 11.2921 29.4151 12.9331 28.9102Z" fill="#2A2E37"/>
<path d="M19.3712 19.3161C20.381 18.9374 21.0122 17.8013 20.6335 16.7914C20.2548 15.7815 19.1187 15.1503 18.1088 15.5291C17.0989 15.9078 16.4677 17.0439 16.8464 18.0538C17.0989 19.0637 18.235 19.6948 19.3712 19.3161Z" fill="#2A2E37"/>
<path d="M126.239 42.257C128.132 40.6159 128.259 37.7125 126.491 35.9452C124.85 34.1779 121.947 34.0516 120.179 35.6927C118.286 37.3338 118.16 40.2372 119.927 42.0045C121.568 43.7718 124.471 43.898 126.239 42.257Z" fill="#2A2E37"/>
<path d="M133.055 51.1025C133.813 50.345 133.939 49.2089 133.182 48.4515C132.424 47.6941 131.288 47.5679 130.531 48.3253C129.773 49.0827 129.647 50.2188 130.404 50.9762C131.036 51.8599 132.298 51.8599 133.055 51.1025Z" fill="#2A2E37"/>
<path d="M18.1086 125.986C18.866 125.228 18.9922 124.092 18.2348 123.335C17.4774 122.577 16.3413 122.451 15.5838 123.208C14.8264 123.966 14.7002 125.102 15.4576 125.859C16.215 126.617 17.3511 126.743 18.1086 125.986Z" fill="#2A2E37"/>
<path d="M65.8259 132.171C98.2685 132.171 124.652 105.914 124.652 73.5976C124.526 41.155 98.2685 14.8979 65.8259 14.8979C33.257 14.8979 7 41.155 7 73.4714C7 105.914 33.257 132.171 65.8259 132.171Z" fill="#2A2E37"/>
<path d="M104.865 43.28V47.8165H104.516H100.096L32.2818 47.5838C31.0023 47.5838 29.7228 47.3512 28.4433 47.0022C28.3269 47.0022 28.2106 46.8859 28.0943 46.8859C26.4658 46.3043 25.07 45.6064 23.9068 44.4432C22.9762 43.5126 22.2783 42.1168 22.2783 40.8373C22.2783 38.3946 24.2558 36.5335 27.0474 35.3703C27.978 34.905 29.1412 34.6723 30.3044 34.556C30.7697 34.556 31.2349 34.4397 31.7002 34.4397H96.025C96.7229 34.4397 97.3045 34.556 97.8861 34.6723C98.3514 34.7887 98.8167 34.905 99.2819 35.1376C102.655 36.5335 104.865 39.5578 104.865 43.28Z" fill="#414758"/>
<g filter="url(#filter0_d)">
<path d="M113.124 54.9121V112.025C113.124 115.98 109.983 119.121 106.029 119.121H37.5163C31.8166 119.121 27.3965 116.445 24.6048 114.235C23.3253 113.188 22.5111 111.56 22.5111 109.931C22.5111 109.117 22.5111 108.303 22.5111 107.489C22.5111 106.325 22.5111 104.93 22.5111 103.534C22.5111 97.0198 22.5111 88.2958 22.3947 79.4556C22.3947 78.176 22.3947 76.8965 22.3947 75.5007C22.3947 70.8479 22.3947 66.1951 22.2784 61.775C22.2784 60.4955 22.2784 59.2159 22.2784 57.8201C22.2784 49.0961 22.1621 42.5822 22.1621 41.0701C22.1621 43.6291 24.6048 45.9555 27.8618 46.8861C27.9781 46.8861 28.0944 47.0024 28.2107 47.0024C29.3739 47.3513 30.7698 47.584 32.0493 47.584L99.8637 47.9329H104.749H105.912C109.983 47.8166 113.124 50.9572 113.124 54.9121Z" fill="url(#paint0_linear)"/>
</g>
<path opacity="0.1" d="M99.3982 74.3374C96.9555 74.3374 94.8617 75.268 93.3496 76.7801C91.8374 78.2923 90.7905 80.5023 90.7905 82.8287C90.7905 82.9451 90.7905 83.1777 90.7905 83.294C91.0232 87.8305 94.8617 91.4364 99.3982 91.4364H113.124V74.3374H99.3982Z" fill="url(#paint1_linear)"/>
<path d="M113.124 71.0803V73.1741C113.008 73.1741 112.891 73.1741 112.659 73.1741H98.7004C96.2577 73.1741 94.164 74.1046 92.6518 75.6168C91.256 77.0126 90.2091 79.1064 90.0928 81.3165C90.0928 81.4328 90.0928 81.6654 90.0928 81.7817C90.0928 86.5508 93.9313 90.3894 98.7004 90.3894H112.659C113.357 90.3894 113.938 90.1567 114.171 89.8078C114.287 89.6915 114.404 89.4588 114.404 89.3425V72.1272C114.404 71.5456 113.822 71.1966 113.124 71.0803Z" fill="#414758"/>
<path d="M98.0023 86.8999C100.794 86.8999 103.12 84.5736 103.12 81.7819C103.12 78.9902 100.794 76.6638 98.0023 76.6638C95.2107 76.6638 92.8843 78.9902 92.8843 81.7819C92.8843 84.5736 95.2107 86.8999 98.0023 86.8999Z" fill="#5C6479"/>
<path d="M53.3578 86.4235C55.2797 86.4235 56.9059 84.7973 56.9059 82.8753C56.9059 80.9534 55.2797 79.3271 53.3578 79.3271C51.4358 79.3271 49.8096 80.9534 49.8096 82.8753C49.8096 84.7973 51.4358 86.4235 53.3578 86.4235Z" fill="#A9AFC3"/>
<path d="M80.5609 86.4235C82.4828 86.4235 84.109 84.7973 84.109 82.8753C84.109 80.9534 82.4828 79.3271 80.5609 79.3271C78.6389 79.3271 77.0127 80.9534 77.0127 82.8753C77.0127 84.9451 78.6389 86.4235 80.5609 86.4235Z" fill="#A9AFC3"/>
<path d="M53.2192 71.1366L45.4141 75.3508L46.4677 77.3021L54.2728 73.0878L53.2192 71.1366Z" fill="#989FB0"/>
<path d="M80.0778 71.0802L79.0244 73.0317L86.8304 77.2452L87.8838 75.2937L80.0778 71.0802Z" fill="#989FB0"/>
<path d="M66.9594 94.7025C69.2456 94.7025 71.0989 93.3125 71.0989 91.5978C71.0989 89.8832 69.2456 88.4932 66.9594 88.4932C64.6732 88.4932 62.8198 89.8832 62.8198 91.5978C62.8198 93.3125 64.6732 94.7025 66.9594 94.7025Z" fill="#A9AFC3"/>
<path d="M127.703 5.29854C116.158 2.76677 103.803 3.17185 92.461 6.5138C90.1318 7.22269 87.6 8.13413 85.7772 9.75447C82.9416 12.0837 81.7263 16.2358 82.6378 19.7803C83.5492 23.3248 86.5873 26.2616 90.3344 26.9705C92.6636 27.5782 95.4992 26.768 96.917 24.8438C98.2335 22.8184 97.9297 19.7803 96.3093 17.9574C94.689 15.932 92.056 15.1218 89.6255 15.2231C87.195 15.3244 84.7645 16.2358 82.6378 17.3498C75.7513 21.0968 70.1814 27.6794 67.8522 35.376C66.6715 39.115 66.2555 43.0453 66.558 46.9113" stroke="#667089" stroke-width="2" stroke-miterlimit="10" stroke-dasharray="4 4"/>
<path d="M133.965 2.89393C133.864 4.41299 133.763 5.83079 132.649 6.1346C131.535 6.43841 131.028 5.4257 130.32 4.00791C129.611 2.69139 130.016 1.27359 131.231 0.969781C132.345 0.665968 134.168 1.07105 133.965 2.89393Z" fill="#AFB7C9"/>
<path d="M132.75 10.1854C133.054 8.3625 133.358 7.34979 132.345 6.84344C131.231 6.33708 130.522 7.24852 129.307 8.46377C128.294 9.57775 128.902 11.1981 129.915 11.7044C131.13 12.3121 132.446 11.7044 132.75 10.1854Z" fill="#AFB7C9"/>
<path d="M134.168 6.84348C134.067 7.55238 133.561 8.05873 132.852 8.16C132.548 8.16 132.244 8.16 131.839 8.16C130.421 7.95746 129.307 7.04602 129.409 6.13458C129.51 5.22314 130.827 4.71679 132.447 4.91933C132.751 4.91933 133.054 5.0206 133.257 5.12187C133.865 5.32441 134.27 6.03331 134.168 6.84348C134.168 6.84348 134.168 6.74221 134.168 6.84348Z" fill="#474E61"/>
<path d="M22.6836 22.084C22.6836 20.3624 22.6836 18.6408 23.8988 18.1345C25.2154 17.6281 25.9243 18.8433 26.937 20.565C27.8484 22.084 27.4433 23.7044 26.1268 24.2107C25.0128 24.7171 22.6836 24.4133 22.6836 22.084Z" fill="#AFB7C9"/>
<path d="M23.3925 13.577C23.19 15.7037 22.8861 16.919 24.2027 17.4253C25.5192 17.9317 26.2281 16.8177 27.5446 15.1974C28.5573 13.7796 27.8484 11.9567 26.5319 11.4503C25.2154 10.944 23.595 11.8554 23.3925 13.577Z" fill="#AFB7C9"/>
<path d="M22.2783 17.628C22.2783 16.8178 22.8859 16.2102 23.5948 16.1089C23.8987 16.0076 24.3037 16.0076 24.7088 16.1089C26.3292 16.2102 27.747 17.1216 27.6457 18.1343C27.5444 19.147 26.2279 19.8559 24.5063 19.6534C24.2025 19.6534 23.8987 19.5521 23.5948 19.4509C22.7847 19.3496 22.2783 18.5394 22.2783 17.628Z" fill="#474E61"/>
<path d="M28.9785 17.7034C39.612 17.7034 59.2585 23.8809 59.5624 46.5656" stroke="#667089" stroke-width="2" stroke-miterlimit="10" stroke-dasharray="4 4"/>
<defs>
<filter id="filter0_d" x="0.162109" y="30.0701" width="134.962" height="122.051" filterUnits="userSpaceOnUse" color-interpolation-filters="sRGB">
<feFlood flood-opacity="0" result="BackgroundImageFix"/>
<feColorMatrix in="SourceAlpha" type="matrix" values="0 0 0 0 0 0 0 0 0 0 0 0 0 0 0 0 0 0 127 0" result="hardAlpha"/>
<feOffset dy="11"/>
<feGaussianBlur stdDeviation="11"/>
<feColorMatrix type="matrix" values="0 0 0 0 0 0 0 0 0 0 0 0 0 0 0 0 0 0 0.27 0"/>
<feBlend mode="normal" in2="BackgroundImageFix" result="effect1_dropShadow"/>
<feBlend mode="normal" in="SourceGraphic" in2="effect1_dropShadow" result="shape"/>
</filter>
<linearGradient id="paint0_linear" x1="67.6135" y1="39.2647" x2="67.6135" y2="119.962" gradientUnits="userSpaceOnUse">
<stop stop-color="#5C6479"/>
<stop offset="0.9964" stop-color="#5C6479"/>
</linearGradient>
<linearGradient id="paint1_linear" x1="101.959" y1="74.9314" x2="101.959" y2="84.5289" gradientUnits="userSpaceOnUse">
<stop stop-color="#B0BACC"/>
<stop offset="1" stop-color="#969EAE"/>
</linearGradient>
</defs>
</svg>
