<svg width="136" height="133" viewBox="0 0 136 133" fill="none" xmlns="http://www.w3.org/2000/svg">
<path d="M120.9 82.8245C123.164 82.8245 125 80.9889 125 78.7245C125 76.4601 123.164 74.6245 120.9 74.6245C118.635 74.6245 116.8 76.4601 116.8 78.7245C116.8 80.9889 118.635 82.8245 120.9 82.8245Z" fill="#2A2E37"/>
<path d="M113.027 94.2636C114.573 94.2636 115.827 93.01 115.827 91.4636C115.827 89.9172 114.573 88.6636 113.027 88.6636C111.48 88.6636 110.227 89.9172 110.227 91.4636C110.227 93.01 111.48 94.2636 113.027 94.2636Z" fill="#2A2E37"/>
<path d="M22.3 25.8246C23.8464 25.8246 25.1 24.571 25.1 23.0246C25.1 21.4782 23.8464 20.2246 22.3 20.2246C20.7536 20.2246 19.5 21.4782 19.5 23.0246C19.5 24.571 20.7536 25.8246 22.3 25.8246Z" fill="#2A2E37"/>
<path d="M5.2 79.8243C8.07188 79.8243 10.4 77.4962 10.4 74.6243C10.4 71.7524 8.07188 69.4243 5.2 69.4243C2.32812 69.4243 0 71.7524 0 74.6243C0 77.4962 2.32812 79.8243 5.2 79.8243Z" fill="#2A2E37"/>
<path d="M68.3499 105.924C96.3499 105.924 119.05 83.2245 119.05 55.1245C119.05 27.0245 96.3499 4.32446 68.3499 4.32446C40.3499 4.32446 17.6499 27.0245 17.6499 55.1245C17.6499 83.2245 40.3499 105.924 68.3499 105.924Z" fill="#2A2E37"/>
<g filter="url(#filter0_d)">
<path d="M97.7936 11.96C99.3017 11.96 100.578 13.1143 100.578 14.7303V96.4568C100.578 97.9575 99.4177 99.2272 97.7936 99.2272H37.3554C35.8473 99.2272 34.5713 98.0729 34.5713 96.4568V14.7303C34.5713 13.2297 35.7313 11.96 37.3554 11.96H97.7936Z" fill="#414758"/>
</g>
<path opacity="0.2" d="M100.578 20.5019V96.3413C100.578 97.842 99.4179 99.1117 97.7938 99.1117H42.5758L37.7036 94.2635L92.5737 19.1167L97.3298 17.3853L100.578 20.5019Z" fill="black"/>
<g filter="url(#filter1_d)">
<path d="M97.5618 18.3087C97.5618 17.847 97.2138 17.3853 96.6338 17.3853H38.6316C38.1676 17.3853 37.7036 17.7316 37.7036 18.3087V93.3401C37.7036 93.8018 38.0516 94.2636 38.6316 94.2636H96.5178C96.9818 94.2636 97.4458 93.9172 97.4458 93.3401L97.5618 18.3087Z" fill="url(#paint0_linear)"/>
</g>
<g filter="url(#filter2_d)">
<path d="M97.5616 18.3087C97.5616 17.847 97.2136 17.3853 96.6336 17.3853H38.6314C38.1674 17.3853 37.7034 17.7316 37.7034 18.3087C38.3994 48.2058 38.6314 82.0277 35.3833 90.8006L90.9494 89.9925C94.3135 74.7554 96.8656 47.3978 97.5616 18.3087Z" fill="url(#paint1_linear)"/>
</g>
<g filter="url(#filter3_d)">
<path d="M97.4455 17.5007C97.4455 17.5007 97.3295 22.0026 95.9375 50.7454C95.9375 50.9763 95.9375 51.0917 95.9375 51.3226C94.1974 79.4882 69.1405 85.3753 66.1244 85.7216C64.7323 85.837 62.0642 86.0679 57.3081 86.0679C51.3918 86.2987 42.3435 86.4142 28.191 86.5296C27.727 86.5296 27.3789 86.0679 27.611 85.6061C37.3553 66.098 37.4713 17.6162 37.4713 17.6162L97.4455 17.5007Z" fill="url(#paint2_linear)"/>
</g>
<path d="M95.8218 51.2073C94.1978 79.3729 69.0248 85.26 66.0087 85.6063C64.6167 85.7217 61.9486 85.9526 57.1924 85.9526C69.7208 80.1809 76.4491 69.792 76.3331 61.7117C82.3653 62.1734 92.8057 61.7117 95.8218 51.2073Z" fill="#3E4455"/>
<path d="M81.6692 12.1909C81.6692 12.0755 81.6692 12.0755 81.6692 12.1909L81.0892 11.6138C81.0892 11.6138 80.7412 11.7292 80.6252 11.9601H71.5768C71.5768 11.7292 71.5768 11.6138 71.5768 11.3829C71.5768 9.53598 69.9528 7.91992 68.0967 7.91992C66.2406 7.91992 64.6166 9.53598 64.6166 11.3829C64.6166 11.6138 64.6166 11.7292 64.7326 11.8446H55.3362C54.8722 11.8446 54.4082 12.1909 54.4082 12.8835V15.8848C54.4082 18.1934 56.0323 19.5786 58.2363 19.5786H77.4931C79.8131 19.5786 81.7852 18.1934 81.7852 15.8848V12.7681C81.9012 12.5372 81.7852 12.3064 81.6692 12.1909Z" fill="#1C3754"/>
<path d="M81.3211 12.1909V15.1922C81.3211 15.423 81.3211 15.5385 81.3211 15.7693C80.9731 17.7317 79.3491 19.3477 77.261 19.3477H57.8883C55.8002 19.3477 54.1761 17.7317 53.8281 15.7693C53.8281 15.5385 53.8281 15.423 53.8281 15.1922V12.1909C53.8281 11.7292 54.1761 11.152 54.7562 11.152H64.2685C64.2685 10.9211 64.2685 10.8057 64.2685 10.6903C64.2685 8.84336 65.8926 7.22729 67.7486 7.22729C69.6047 7.22729 71.2288 8.84336 71.2288 10.6903C71.2288 10.9211 71.2288 11.0366 71.2288 11.152H80.7411C80.9731 11.2674 81.3211 11.6137 81.3211 12.1909Z" fill="url(#paint3_linear)"/>
<path d="M67.5166 12.3063C68.4447 12.3063 69.1407 11.6137 69.1407 10.6903C69.1407 9.76682 68.4447 9.07422 67.5166 9.07422C66.5886 9.07422 65.8926 9.76682 65.8926 10.6903C65.8926 11.6137 66.7046 12.3063 67.5166 12.3063Z" fill="#2A2E37"/>
<path d="M81.2051 15.7693C80.8571 17.7316 79.2331 19.3477 77.145 19.3477H57.8883C55.8002 19.3477 54.1761 17.7316 53.8281 15.7693H81.2051Z" fill="#9AA1B2"/>
<path d="M51.9722 50.861C53.8282 50.861 55.2203 49.3603 55.2203 47.6288C55.2203 45.7819 53.7122 44.3967 51.9722 44.3967C50.1161 44.3967 48.724 45.8974 48.724 47.6288C48.608 49.3603 50.1161 50.861 51.9722 50.861Z" fill="#989FB0"/>
<path d="M77.7252 50.7455C79.5812 50.7455 80.9733 49.2449 80.9733 47.5134C80.9733 45.6664 79.4652 44.2812 77.7252 44.2812C75.9851 44.2812 74.4771 45.7819 74.4771 47.5134C74.4771 49.2449 75.8691 50.7455 77.7252 50.7455Z" fill="#989FB0"/>
<path d="M67.9805 54.3237H61.7163V55.8244H67.9805V54.3237Z" fill="#989FB0"/>
<path d="M130.321 17.6187C132.873 29.6237 132.525 42.3213 129.045 54.0954C128.233 56.5195 127.421 59.1745 125.681 61.0214C123.245 63.9072 118.837 65.177 115.24 64.2535C111.528 63.3301 108.512 60.098 107.816 56.1732C107.236 53.7491 108.048 50.8633 110.136 49.3627C112.34 47.9775 115.472 48.3238 117.328 50.0553C119.417 51.7868 120.229 54.4417 120.113 56.9813C119.997 59.5208 119.069 62.0603 117.792 64.2535C113.964 71.4104 107.004 77.0666 98.9998 79.6061C93.0836 81.453 86.7033 81.453 80.7871 79.837" stroke="#667089" stroke-width="2" stroke-miterlimit="10" stroke-dasharray="4 4"/>
<path d="M135.379 14.3841C135.031 15.6538 133.639 16.1156 132.247 15.3075C130.739 14.6149 129.695 14.0378 129.927 12.8834C130.275 11.7291 131.667 11.6137 133.291 11.4982C135.263 11.2674 135.611 13.1143 135.379 14.3841Z" fill="#AFB7C9"/>
<path d="M124.127 15.5384C124.707 16.5773 126.331 17.2699 127.491 16.231C128.767 15.0766 129.811 14.2686 129.231 13.1143C128.651 12.0754 127.723 12.4217 125.751 12.6525C124.127 12.9988 123.431 14.384 124.127 15.5384Z" fill="#AFB7C9"/>
<path d="M129.231 11.2674C130.043 11.152 130.855 11.6137 131.087 12.3063C131.203 12.5372 131.319 12.8835 131.319 13.1144C131.551 14.7304 130.971 16.1156 130.043 16.231C128.999 16.4619 127.955 15.3076 127.839 13.807C127.839 13.3452 127.839 13.1144 127.839 12.7681C127.955 11.96 128.419 11.3829 129.231 11.2674C129.347 11.2674 129.231 11.2674 129.231 11.2674Z" fill="#474E61"/>
<defs>
<filter id="filter0_d" x="12.5713" y="0.959961" width="110.006" height="131.267" filterUnits="userSpaceOnUse" color-interpolation-filters="sRGB">
<feFlood flood-opacity="0" result="BackgroundImageFix"/>
<feColorMatrix in="SourceAlpha" type="matrix" values="0 0 0 0 0 0 0 0 0 0 0 0 0 0 0 0 0 0 127 0" result="hardAlpha"/>
<feOffset dy="11"/>
<feGaussianBlur stdDeviation="11"/>
<feColorMatrix type="matrix" values="0 0 0 0 0 0 0 0 0 0 0 0 0 0 0 0 0 0 0.27 0"/>
<feBlend mode="normal" in2="BackgroundImageFix" result="effect1_dropShadow"/>
<feBlend mode="normal" in="SourceGraphic" in2="effect1_dropShadow" result="shape"/>
</filter>
<filter id="filter1_d" x="15.7036" y="6.38525" width="103.858" height="120.878" filterUnits="userSpaceOnUse" color-interpolation-filters="sRGB">
<feFlood flood-opacity="0" result="BackgroundImageFix"/>
<feColorMatrix in="SourceAlpha" type="matrix" values="0 0 0 0 0 0 0 0 0 0 0 0 0 0 0 0 0 0 127 0" result="hardAlpha"/>
<feOffset dy="11"/>
<feGaussianBlur stdDeviation="11"/>
<feColorMatrix type="matrix" values="0 0 0 0 0 0 0 0 0 0 0 0 0 0 0 0 0 0 0.27 0"/>
<feBlend mode="normal" in2="BackgroundImageFix" result="effect1_dropShadow"/>
<feBlend mode="normal" in="SourceGraphic" in2="effect1_dropShadow" result="shape"/>
</filter>
<filter id="filter2_d" x="13.3833" y="6.38525" width="106.178" height="117.415" filterUnits="userSpaceOnUse" color-interpolation-filters="sRGB">
<feFlood flood-opacity="0" result="BackgroundImageFix"/>
<feColorMatrix in="SourceAlpha" type="matrix" values="0 0 0 0 0 0 0 0 0 0 0 0 0 0 0 0 0 0 127 0" result="hardAlpha"/>
<feOffset dy="11"/>
<feGaussianBlur stdDeviation="11"/>
<feColorMatrix type="matrix" values="0 0 0 0 0 0 0 0 0 0 0 0 0 0 0 0 0 0 0.27 0"/>
<feBlend mode="normal" in2="BackgroundImageFix" result="effect1_dropShadow"/>
<feBlend mode="normal" in="SourceGraphic" in2="effect1_dropShadow" result="shape"/>
</filter>
<filter id="filter3_d" x="5.53711" y="6.50073" width="113.908" height="113.029" filterUnits="userSpaceOnUse" color-interpolation-filters="sRGB">
<feFlood flood-opacity="0" result="BackgroundImageFix"/>
<feColorMatrix in="SourceAlpha" type="matrix" values="0 0 0 0 0 0 0 0 0 0 0 0 0 0 0 0 0 0 127 0" result="hardAlpha"/>
<feOffset dy="11"/>
<feGaussianBlur stdDeviation="11"/>
<feColorMatrix type="matrix" values="0 0 0 0 0 0 0 0 0 0 0 0 0 0 0 0 0 0 0.27 0"/>
<feBlend mode="normal" in2="BackgroundImageFix" result="effect1_dropShadow"/>
<feBlend mode="normal" in="SourceGraphic" in2="effect1_dropShadow" result="shape"/>
</filter>
<linearGradient id="paint0_linear" x1="67.6132" y1="15.607" x2="67.6132" y2="95.0923" gradientUnits="userSpaceOnUse">
<stop stop-color="#5C6479"/>
<stop offset="0.9964" stop-color="#5C6479"/>
</linearGradient>
<linearGradient id="paint1_linear" x1="66.4522" y1="15.6871" x2="66.4522" y2="91.592" gradientUnits="userSpaceOnUse">
<stop stop-color="#5C6479"/>
<stop offset="0.9964" stop-color="#5C6479"/>
</linearGradient>
<linearGradient id="paint2_linear" x1="62.4685" y1="15.904" x2="62.4685" y2="87.2738" gradientUnits="userSpaceOnUse">
<stop stop-color="#5C6479"/>
<stop offset="0.9964" stop-color="#5C6479"/>
</linearGradient>
<linearGradient id="paint3_linear" x1="53.8613" y1="13.289" x2="81.3476" y2="13.289" gradientUnits="userSpaceOnUse">
<stop stop-color="#B0BACC"/>
<stop offset="1" stop-color="#969EAE"/>
</linearGradient>
</defs>
</svg>
