<svg width="191" height="156" viewBox="0 0 191 156" fill="none" xmlns="http://www.w3.org/2000/svg">
<path d="M102.313 124.151C136.369 124.151 163.997 96.3858 163.997 62.0561C163.997 27.7263 136.369 0.0983887 102.313 0.0983887C68.2564 0.0983887 40.6284 27.8631 40.6284 62.1929C40.6284 96.5226 68.2564 124.151 102.313 124.151Z" fill="#2A2E37"/>
<path d="M132.676 123.33C123.239 123.603 112.024 123.33 103.954 123.193C96.0213 123.467 84.6692 123.603 75.2319 123.33C84.5324 117.996 87.815 108.148 88.2253 101.583H119.409C120.23 108.011 123.512 117.996 132.676 123.33Z" fill="url(#paint0_linear)"/>
<path d="M162.903 18.8361V100.489C162.903 102.541 161.261 104.045 159.483 104.045H49.1083C47.1935 104.045 45.689 102.404 45.689 100.489V18.8361C45.689 16.9213 47.3302 15.28 49.1083 15.28H159.346C161.398 15.28 162.903 16.9213 162.903 18.8361Z" fill="url(#paint1_linear)"/>
<path d="M162.903 18.8361V89.1369H45.689V18.8361C45.689 16.9213 47.3302 15.28 49.1083 15.28H159.346C161.398 15.28 162.903 16.9213 162.903 18.8361Z" fill="#262A31"/>
<path d="M158.389 19.7937H49.6553V85.1707H158.526V19.7937H158.389Z" fill="#474E61"/>
<path d="M104.09 99.1739C105.732 99.1739 106.963 97.9429 106.963 96.3017C106.963 94.6604 105.732 93.4294 104.09 93.4294C102.449 93.4294 101.218 94.6604 101.218 96.3017C101.218 97.9429 102.449 99.1739 104.09 99.1739Z" fill="#262A31"/>
<path d="M152.098 31.8296V40.1727C152.098 41.4036 151.14 42.361 149.909 42.361H57.9984C56.7675 42.361 55.8101 41.4036 55.8101 40.1727V31.8296C55.8101 30.5986 56.7675 29.6412 57.9984 29.6412H149.772C151.14 29.5045 152.098 30.5986 152.098 31.8296Z" fill="#989FB0"/>
<path d="M68.6667 29.5044V42.4977H57.8617C56.6307 42.4977 55.6733 41.5403 55.6733 40.3094V31.9663C55.6733 30.7353 56.6307 29.7779 57.8617 29.7779L68.6667 29.5044Z" fill="#E3EAF2"/>
<path opacity="0.4" d="M152.098 49.3362V57.6793C152.098 58.9102 151.14 59.8676 149.909 59.8676H57.9984C56.7675 59.8676 55.8101 58.9102 55.8101 57.6793V49.3362C55.8101 48.1052 56.7675 47.1478 57.9984 47.1478H149.772C151.14 47.0111 152.098 48.1052 152.098 49.3362Z" fill="#E5E9F1"/>
<path d="M68.6667 29.5044V42.4977H57.8617C56.6307 42.4977 55.6733 41.5403 55.6733 40.3094V31.9663C55.6733 30.7353 56.6307 29.7779 57.8617 29.7779L68.6667 29.5044Z" fill="#A6B0C8"/>
<path d="M61.8283 38.8047C61.5548 38.8047 61.2812 38.668 61.1445 38.5312L59.0929 36.4796C58.6826 36.0693 58.6826 35.5222 59.0929 35.1119C59.5032 34.7016 60.0503 34.7016 60.4606 35.1119L61.6916 36.3428L64.7005 33.3339C65.1109 32.9235 65.6579 32.9235 66.0683 33.3339C66.4786 33.7442 66.4786 34.2913 66.0683 34.7016L62.3754 38.3944C62.2386 38.668 61.9651 38.8047 61.8283 38.8047Z" fill="white"/>
<path opacity="0.2" d="M152.098 66.8432V75.1863C152.098 76.4172 151.14 77.3746 149.909 77.3746H57.9984C56.7675 77.3746 55.8101 76.4172 55.8101 75.1863V66.8432C55.8101 65.6122 56.7675 64.6548 57.9984 64.6548H149.772C151.14 64.5181 152.098 65.4755 152.098 66.8432Z" fill="#E5E9F1"/>
<path opacity="0.1" d="M152.098 84.2133V85.1707H55.6733V84.2133C55.6733 82.9823 56.6307 82.0249 57.8617 82.0249H149.772C151.14 82.0249 152.098 82.9823 152.098 84.2133Z" fill="#E5E9F1"/>
<g filter="url(#filter0_d)">
<path d="M50.3394 59.1838C52.6645 59.1838 54.5793 61.0986 54.5793 63.4238V118.68C54.5793 121.005 52.6645 122.92 50.3394 122.92H26.8146C24.4895 122.92 22.5747 121.005 22.5747 118.68V63.5605C22.5747 61.2354 24.4895 59.3206 26.8146 59.3206L50.3394 59.1838Z" fill="url(#paint2_linear)"/>
</g>
<path d="M52.5275 63.5605V118.816C52.5275 119.911 51.7068 121.005 50.4759 121.005H50.3391H26.8143H26.6776C25.5834 121.005 24.626 120.047 24.626 118.816V63.5605C24.626 62.3296 25.5834 61.3722 26.6776 61.3722H30.0969C30.6439 61.3722 30.9175 61.7825 30.9175 62.1928C30.9175 63.0135 31.6013 63.8341 32.5588 63.8341H44.4579C45.2785 63.8341 46.0992 63.1502 46.0992 62.1928C46.0992 61.6457 46.5095 61.3722 46.783 61.3722H50.0656C51.4333 61.2354 52.5275 62.3296 52.5275 63.5605Z" fill="#474E61"/>
<path d="M40.6284 62.1928H37.4826C37.2091 62.1928 36.9355 61.9193 36.9355 61.6457C36.9355 61.3722 37.2091 61.0986 37.4826 61.0986H40.6284C40.9019 61.0986 41.1755 61.3722 41.1755 61.6457C41.0387 61.9193 40.7652 62.1928 40.6284 62.1928Z" fill="white"/>
<path d="M35.7049 62.1928H35.4314C35.1578 62.1928 34.8843 61.9193 34.8843 61.6457C34.8843 61.3722 35.1578 61.0986 35.4314 61.0986H35.7049C35.9785 61.0986 36.252 61.3722 36.252 61.6457C36.252 61.9193 35.9785 62.1928 35.7049 62.1928Z" fill="white"/>
<path d="M49.2451 81.8881H27.9086C27.2248 81.8881 26.8145 81.341 26.8145 80.7939V69.9889C26.8145 69.3051 27.3615 68.8948 27.9086 68.8948H49.3818C50.0657 68.8948 50.476 69.4419 50.476 69.9889V80.7939C50.3392 81.341 49.9289 81.8881 49.2451 81.8881Z" fill="#989FB0"/>
<path d="M37.7561 78.1951C37.4825 78.1951 37.209 78.0584 37.0722 77.9216L35.0206 75.87C34.6103 75.4597 34.6103 74.9126 35.0206 74.5023C35.4309 74.092 35.978 74.092 36.3883 74.5023L37.6193 75.7332L40.6283 72.7242C41.0386 72.3139 41.5857 72.3139 41.996 72.7242C42.4063 73.1346 42.4063 73.6816 41.996 74.092L38.4399 77.648C38.1664 78.0583 37.8928 78.1951 37.7561 78.1951Z" fill="white"/>
<path opacity="0.4" d="M49.2451 98.027H27.9086C27.2248 98.027 26.8145 97.4799 26.8145 96.9329V86.1279C26.8145 85.444 27.3615 85.0337 27.9086 85.0337H49.3818C50.0657 85.0337 50.476 85.5808 50.476 86.1279V96.9329C50.3392 97.4799 49.9289 98.027 49.2451 98.027Z" fill="#E5E9F1"/>
<path opacity="0.2" d="M49.2451 114.166H27.9086C27.2248 114.166 26.8145 113.619 26.8145 113.072V102.267C26.8145 101.583 27.3615 101.173 27.9086 101.173H49.3818C50.0657 101.173 50.476 101.72 50.476 102.267V113.072C50.3392 113.756 49.9289 114.166 49.2451 114.166Z" fill="#E5E9F1"/>
<path opacity="0.1" d="M50.3393 118.68V120.868H50.2025H26.8145H26.6777V118.68C26.6777 117.996 27.2248 117.585 27.7719 117.585H49.2451C49.929 117.585 50.3393 118.133 50.3393 118.68Z" fill="#E5E9F1"/>
<path d="M54.1689 24.8542C54.8528 24.8542 55.3999 24.3071 55.3999 23.6233C55.3999 22.9394 54.8528 22.3923 54.1689 22.3923C53.4851 22.3923 52.938 22.9394 52.938 23.6233C52.938 24.3071 53.4851 24.8542 54.1689 24.8542Z" fill="#262A31"/>
<path d="M58.1352 24.8542C58.8191 24.8542 59.3662 24.3071 59.3662 23.6233C59.3662 22.9394 58.8191 22.3923 58.1352 22.3923C57.4514 22.3923 56.9043 22.9394 56.9043 23.6233C56.9043 24.3071 57.4514 24.8542 58.1352 24.8542Z" fill="#262A31"/>
<path d="M62.1016 24.8542C62.7854 24.8542 63.3325 24.3071 63.3325 23.6233C63.3325 22.9394 62.7854 22.3923 62.1016 22.3923C61.4177 22.3923 60.8706 22.9394 60.8706 23.6233C60.8706 24.3071 61.4177 24.8542 62.1016 24.8542Z" fill="#262A31"/>
<g filter="url(#filter1_d)">
<path d="M185.625 101.231C185.078 103.556 184.257 106.018 183.3 108.07C180.701 113.13 176.598 117.097 171.537 119.695C166.34 122.294 160.185 123.388 154.03 122.021C139.533 119.012 130.232 104.787 133.241 90.2895C136.25 75.7917 150.338 66.3544 164.835 69.5002C170.033 70.5944 174.546 73.193 178.376 76.7491C184.804 83.3142 187.403 92.4779 185.625 101.231Z" fill="url(#paint3_linear)"/>
</g>
<path d="M167.844 93.4354H161.69V87.2807C161.69 86.0497 160.732 84.9556 159.365 84.9556C158.134 84.9556 157.039 85.913 157.039 87.2807V93.4354H150.885C149.654 93.4354 148.56 94.3928 148.56 95.7606C148.56 97.1283 149.517 98.0857 150.885 98.0857H157.039V104.24C157.039 105.471 157.997 106.566 159.365 106.566C160.596 106.566 161.69 105.608 161.69 104.24V98.0857H167.844C169.075 98.0857 170.17 97.1283 170.17 95.7606C170.306 94.3928 169.212 93.4354 167.844 93.4354Z" fill="#474E61"/>
<path d="M19 123.479L187.985 123.479" stroke="#2B323C" stroke-width="2" stroke-miterlimit="10" stroke-linecap="round" stroke-linejoin="round"/>
<path d="M33.2387 53.7256C35.503 53.7256 37.3387 51.89 37.3387 49.6256C37.3387 47.3613 35.503 45.5256 33.2387 45.5256C30.9743 45.5256 29.1387 47.3613 29.1387 49.6256C29.1387 51.89 30.9743 53.7256 33.2387 53.7256Z" fill="#2A2E37"/>
<path d="M29.1389 40.4257C30.6853 40.4257 31.9389 39.1721 31.9389 37.6257C31.9389 36.0793 30.6853 34.8257 29.1389 34.8257C27.5925 34.8257 26.3389 36.0793 26.3389 37.6257C26.3389 39.1721 27.5925 40.4257 29.1389 40.4257Z" fill="#2A2E37"/>
<path d="M146.163 7.61318C147.709 7.61318 148.963 6.35958 148.963 4.81318C148.963 3.26679 147.709 2.01318 146.163 2.01318C144.616 2.01318 143.363 3.26679 143.363 4.81318C143.363 6.35958 144.616 7.61318 146.163 7.61318Z" fill="#2A2E37"/>
<path d="M175.784 64.0392C178.656 64.0392 180.984 61.711 180.984 58.8392C180.984 55.9673 178.656 53.6392 175.784 53.6392C172.913 53.6392 170.584 55.9673 170.584 58.8392C170.584 61.711 172.913 64.0392 175.784 64.0392Z" fill="#2A2E37"/>
<defs>
<filter id="filter0_d" x="0.574707" y="48.1838" width="76.0049" height="107.736" filterUnits="userSpaceOnUse" color-interpolation-filters="sRGB">
<feFlood flood-opacity="0" result="BackgroundImageFix"/>
<feColorMatrix in="SourceAlpha" type="matrix" values="0 0 0 0 0 0 0 0 0 0 0 0 0 0 0 0 0 0 127 0" result="hardAlpha"/>
<feOffset dy="11"/>
<feGaussianBlur stdDeviation="11"/>
<feColorMatrix type="matrix" values="0 0 0 0 0 0 0 0 0 0 0 0 0 0 0 0 0 0 0.27 0"/>
<feBlend mode="normal" in2="BackgroundImageFix" result="effect1_dropShadow"/>
<feBlend mode="normal" in="SourceGraphic" in2="effect1_dropShadow" result="shape"/>
</filter>
<filter id="filter1_d" x="128.676" y="68.8948" width="61.4956" height="61.718" filterUnits="userSpaceOnUse" color-interpolation-filters="sRGB">
<feFlood flood-opacity="0" result="BackgroundImageFix"/>
<feColorMatrix in="SourceAlpha" type="matrix" values="0 0 0 0 0 0 0 0 0 0 0 0 0 0 0 0 0 0 127 0" result="hardAlpha"/>
<feOffset dy="4"/>
<feGaussianBlur stdDeviation="2"/>
<feComposite in2="hardAlpha" operator="out"/>
<feColorMatrix type="matrix" values="0 0 0 0 0 0 0 0 0 0 0 0 0 0 0 0 0 0 0.25 0"/>
<feBlend mode="normal" in2="BackgroundImageFix" result="effect1_dropShadow"/>
<feBlend mode="normal" in="SourceGraphic" in2="effect1_dropShadow" result="shape"/>
</filter>
<linearGradient id="paint0_linear" x1="103.831" y1="122.915" x2="103.831" y2="103.347" gradientUnits="userSpaceOnUse">
<stop stop-color="#474755"/>
<stop offset="0.9913" stop-color="#2F3338"/>
</linearGradient>
<linearGradient id="paint1_linear" x1="104.046" y1="101.76" x2="104.046" y2="22.4296" gradientUnits="userSpaceOnUse">
<stop stop-color="#474E61"/>
<stop offset="0.9913" stop-color="#2F3338"/>
</linearGradient>
<linearGradient id="paint2_linear" x1="38.5666" y1="57.7096" x2="38.5666" y2="123.607" gradientUnits="userSpaceOnUse">
<stop stop-color="#5C6479"/>
<stop offset="0.9964" stop-color="#5C6479"/>
</linearGradient>
<linearGradient id="paint3_linear" x1="144.947" y1="82.9958" x2="168.102" y2="122.035" gradientUnits="userSpaceOnUse">
<stop stop-color="#E3EAF7"/>
<stop offset="1" stop-color="#ADB6C8"/>
</linearGradient>
</defs>
</svg>
