<svg width="154" height="121" viewBox="0 0 154 121" fill="none" xmlns="http://www.w3.org/2000/svg">
<path d="M70.8445 95.7908C96.7516 95.7908 117.753 74.7174 117.753 48.7221C117.753 22.7267 96.7516 1.65332 70.8445 1.65332C44.9374 1.65332 23.9355 22.7267 23.9355 48.7221C23.9355 74.7174 44.9374 95.7908 70.8445 95.7908Z" fill="#2A2E37"/>
<path d="M43.7349 5.69281C44.9742 5.28863 45.6524 3.95288 45.2496 2.70935C44.8467 1.46581 43.5155 0.785372 42.2762 1.18955C41.0369 1.59373 40.3588 2.92947 40.7616 4.17301C41.1644 5.41655 42.4956 6.09699 43.7349 5.69281Z" fill="#2A2E37"/>
<path d="M97.0829 87.4568H11.854L27.4274 15.5752H112.751L97.0829 87.4568Z" fill="white"/>
<path d="M97.0829 87.4568H11.854L27.4274 15.5752H112.751L97.0829 87.4568Z" fill="#474D5E"/>
<path d="M50.0683 86.6347H31.047C27.5885 86.6347 24.7404 83.9283 24.9439 80.7554L27.9954 15.8032H32.5727L50.0683 86.6347Z" fill="url(#paint0_linear)"/>
<g filter="url(#filter0_d)">
<path d="M131.439 87.4568H46.2097L31.7689 32.2434L31.6745 31.8646L27.4272 15.5752H112.751L116.432 29.6863L116.998 31.8646L117.092 32.2434L131.439 87.4568Z" fill="url(#paint1_linear)"/>
</g>
<path d="M116.998 31.8646H31.6745L27.4272 15.5752H112.751L116.432 29.6863L116.998 31.8646Z" fill="#43495B"/>
<path d="M49.8909 27.224C51.559 27.224 52.9112 25.8672 52.9112 24.1934C52.9112 22.5197 51.559 21.1628 49.8909 21.1628C48.2228 21.1628 46.8706 22.5197 46.8706 24.1934C46.8706 25.8672 48.2228 27.224 49.8909 27.224Z" fill="#2A2E37"/>
<path d="M99.7259 27.224C101.394 27.224 102.746 25.8672 102.746 24.1934C102.746 22.5197 101.394 21.1628 99.7259 21.1628C98.0578 21.1628 96.7056 22.5197 96.7056 24.1934C96.7056 25.8672 98.0578 27.224 99.7259 27.224Z" fill="#2A2E37"/>
<path d="M49.1359 25.4245C48.5696 25.4245 48.0977 24.951 48.0977 24.3828C48.0977 23.8145 48.5696 23.341 49.1359 23.341C51.2123 23.341 53.3832 20.4051 53.3832 15.954C53.3832 15.8593 53.3832 15.6699 53.3832 15.5751C53.2888 11.2187 51.118 8.56692 49.1359 8.56692C47.2482 8.56692 45.1718 11.124 44.8886 15.1016H42.7178C43.0009 10.1769 45.7381 6.4834 49.0415 6.4834C52.5337 6.4834 55.2709 10.5557 55.4596 15.7646C55.4596 15.8593 55.4596 15.954 55.4596 16.0487C55.554 21.2575 52.7225 25.4245 49.1359 25.4245Z" fill="#7B8598"/>
<path d="M98.6877 25.4245C98.1214 25.4245 97.6494 24.951 97.6494 24.3828C97.6494 23.8145 98.1214 23.341 98.6877 23.341C100.764 23.341 102.935 20.4051 102.935 15.954C102.935 15.8593 102.935 15.6699 102.935 15.5751C102.841 11.2187 100.67 8.56692 98.6877 8.56692C96.8 8.56692 94.7235 11.124 94.4404 15.1016H92.2695C92.5527 10.1769 95.2898 6.4834 98.5933 6.4834C102.085 6.4834 104.823 10.5557 105.011 15.7646C105.011 15.8593 105.011 15.954 105.011 16.0487C105.106 21.2575 102.274 25.4245 98.6877 25.4245Z" fill="#7B8598"/>
<path d="M1 87.3621H138.329" stroke="#2B323C" stroke-width="2" stroke-miterlimit="10" stroke-linecap="round" stroke-linejoin="round"/>
<path opacity="0.3" d="M100.198 53.1732C99.6314 53.1732 99.2539 52.6996 99.2539 52.2261C99.2539 51.6579 99.6314 51.2791 100.198 51.2791H103.124C103.69 51.2791 104.067 51.7526 104.067 52.2261C104.067 52.7943 103.596 53.1732 103.124 53.1732H100.198Z" fill="#474D5E"/>
<path opacity="0.3" d="M59.9902 79.8803C59.6126 79.8803 59.2351 79.5962 59.0463 79.2174L57.5362 73.6298H50.0798C49.5135 73.6298 49.136 73.1562 49.136 72.6827C49.136 72.1145 49.6079 71.7356 50.0798 71.7356H56.9699L54.6103 63.4015H47.4371C46.8708 63.4015 46.4932 62.928 46.4932 62.4545C46.4932 61.8862 46.8708 61.5074 47.4371 61.5074H54.044L51.6844 53.1733H44.8887C44.3224 53.1733 43.9449 52.6998 43.9449 52.2263C43.9449 51.658 44.3224 51.2792 44.8887 51.2792H51.2124L48.8528 42.9451H42.3403C41.774 42.9451 41.3965 42.4716 41.3965 41.998C41.3965 41.4298 41.774 41.051 42.3403 41.051H48.2865L47.3427 37.6416C47.2483 37.168 47.5315 36.5998 48.0034 36.5051C48.0978 36.5051 48.1921 36.5051 48.2865 36.5051C48.6641 36.5051 49.0416 36.7892 49.2304 37.168L50.363 41.051H57.9137C58.48 41.051 58.8576 41.4298 58.8576 41.998C58.8576 42.5663 58.48 42.9451 57.9137 42.9451H50.9293L53.2889 51.2792H65.1813L61.4059 37.6416C61.3115 37.168 61.5947 36.5998 62.0666 36.5051C62.161 36.5051 62.2554 36.5051 62.3498 36.5051C62.7273 36.5051 63.1048 36.7892 63.2936 37.168L64.4262 41.051H68.4847C69.051 41.051 69.4286 41.4298 69.4286 41.998C69.4286 42.5663 68.9567 42.9451 68.4847 42.9451H64.9925L67.3521 51.2792H75.3748C75.9411 51.2792 76.3186 51.7527 76.3186 52.2263C76.3186 52.7945 75.9411 53.1733 75.3748 53.1733H67.9184L70.278 61.5074H82.2648L77.0737 42.9451H74.5253C73.959 42.9451 73.5815 42.4716 73.5815 41.998C73.5815 41.4298 74.0534 41.051 74.5253 41.051H76.5074L75.5636 37.6416C75.4692 37.3575 75.5636 37.168 75.6579 36.8839C75.7523 36.6945 75.9411 36.5051 76.2242 36.4104C76.3186 36.4104 76.413 36.4104 76.5074 36.4104C76.8849 36.4104 77.2625 36.6945 77.4512 37.0733L78.5838 40.9563H80.5659C81.1322 40.9563 81.5098 41.3351 81.5098 41.9033C81.5098 42.4716 81.1322 42.8504 80.5659 42.8504H79.1502L81.5098 51.1845H93.4966L91.1369 42.8504H85.002C84.4357 42.8504 84.0581 42.3769 84.0581 41.9033C84.0581 41.3351 84.5301 40.9563 85.002 40.9563H90.2875L89.3436 37.5469C89.2493 37.0733 89.5324 36.5051 90.0043 36.4104C90.0987 36.4104 90.1931 36.4104 90.2875 36.4104C90.665 36.4104 91.0426 36.6945 91.2313 37.0733L92.3639 40.9563H104.351L103.407 37.5469C103.312 37.0733 103.596 36.5051 104.068 36.4104C104.162 36.4104 104.256 36.4104 104.351 36.4104C104.728 36.4104 105.106 36.6945 105.295 37.0733L106.427 40.9563H113.789C114.355 40.9563 114.733 41.3351 114.733 41.9033C114.733 42.4716 114.355 42.8504 113.789 42.8504H106.71L109.07 51.1845H116.149C116.715 51.1845 117.093 51.658 117.093 52.1316C117.093 52.6998 116.715 53.0786 116.149 53.0786H109.636L111.996 61.4127H118.792C119.358 61.4127 119.735 61.8862 119.735 62.3598C119.735 62.928 119.358 63.3068 118.792 63.3068H112.562L114.922 71.6409H121.34C121.906 71.6409 122.284 72.1145 122.284 72.588C122.284 73.1562 121.812 73.5351 121.34 73.5351H115.394L116.809 78.5545C116.904 79.028 116.621 79.5962 116.149 79.6909C116.054 79.6909 115.96 79.6909 115.866 79.6909C115.488 79.6909 115.111 79.4068 114.922 79.028L113.412 73.5351H101.425L102.841 78.4597C102.935 78.7439 102.841 78.9333 102.746 79.2174C102.652 79.4068 102.463 79.5962 102.18 79.6909C102.086 79.6909 101.991 79.6909 101.897 79.6909C101.519 79.6909 101.142 79.4068 100.953 79.028L99.4428 73.6298H87.456L88.8717 78.5545C88.9661 79.028 88.683 79.5962 88.211 79.6909C88.1167 79.6909 88.0223 79.6909 87.9279 79.6909C87.5503 79.6909 87.1728 79.4068 86.984 79.028L85.4739 73.6298H73.4871L74.9029 78.5545C74.9973 79.028 74.7141 79.5962 74.2422 79.6909C74.1478 79.6909 74.0534 79.6909 73.959 79.6909C73.5815 79.6909 73.204 79.4068 73.0152 79.028L71.505 73.6298H59.5182L60.934 78.6492C61.0284 78.9333 60.934 79.1227 60.8396 79.4068C60.7452 79.5962 60.5565 79.7856 60.2733 79.8803C60.1789 79.8803 60.0846 79.8803 59.9902 79.8803ZM86.8897 71.7356H112.845L110.486 63.4015H98.4989L99.3484 66.4321C99.4427 66.7162 99.3484 66.9056 99.254 67.1898C99.1596 67.3792 98.9708 67.5686 98.6877 67.6633C98.5933 67.6633 98.4989 67.6633 98.4045 67.6633C98.027 67.6633 97.6495 67.3792 97.4607 67.0004L96.5168 63.4962H92.9302C92.3639 63.4962 91.9864 63.0227 91.9864 62.5492C91.9864 61.981 92.3639 61.6021 92.9302 61.6021H95.9505L93.5909 53.268H81.6985L84.0581 61.6021H86.984C87.5503 61.6021 87.9279 62.0757 87.9279 62.5492C87.9279 63.1174 87.5503 63.4962 86.984 63.4962H84.5301L86.8897 71.7356ZM72.9208 71.7356H84.9076L82.548 63.4015H70.5612L72.9208 71.7356ZM58.9519 71.7356H70.9387L68.5791 63.4015H65.0869C64.5206 63.4015 64.1431 62.928 64.1431 62.4545C64.1431 61.8862 64.615 61.5074 65.0869 61.5074H68.1072L65.7476 53.1733H53.7608L56.1204 61.5074H59.2351C59.8014 61.5074 60.1789 61.9809 60.1789 62.4545C60.1789 63.0227 59.707 63.4015 59.2351 63.4015H56.6867L58.9519 71.7356ZM98.027 61.5074H110.014L104.823 42.9451H92.7415L98.027 61.5074Z" fill="#474D5E"/>
<path d="M71.0391 51.8428C67.1171 51.8428 63.8226 49.3335 62.5675 45.7263C62.2538 44.9422 62.7244 44.158 63.5088 43.8443C64.2932 43.5307 65.0776 44.0012 65.3914 44.7853C66.1758 47.1378 68.529 48.863 71.0391 48.863C73.5492 48.863 75.9024 47.2947 76.6868 44.7853C77.0006 44.0012 77.785 43.5307 78.5694 43.8443C79.3538 44.158 79.8245 44.9422 79.5107 45.7263C78.2557 49.4903 74.9611 51.8428 71.0391 51.8428Z" fill="#A9AFC3"/>
<path d="M94.7281 51.8428C90.806 51.8428 87.5115 49.3335 86.2565 45.7263C85.9427 44.9422 86.4134 44.158 87.1978 43.8443C87.9822 43.5307 88.7666 44.0012 89.0803 44.7853C89.8648 47.1378 92.218 48.863 94.7281 48.863C97.2382 48.863 99.5914 47.2947 100.376 44.7853C100.69 44.0012 101.474 43.5307 102.258 43.8443C103.043 44.158 103.513 44.9422 103.2 45.7263C101.945 49.4903 98.6501 51.8428 94.7281 51.8428Z" fill="#A9AFC3"/>
<path d="M87.5292 71.0456C89.522 71.0456 91.1374 69.4307 91.1374 67.4385C91.1374 65.4463 89.522 63.8313 87.5292 63.8313C85.5364 63.8313 83.9209 65.4463 83.9209 67.4385C83.9209 69.4307 85.5364 71.0456 87.5292 71.0456Z" fill="#A9AFC3"/>
<path d="M12.4887 5.98024V1.33057H30.4588V5.98024L18.1969 20.7746H30.6703V25.4243H11.8545V20.7746L24.1165 5.98024H12.4887V5.98024Z" fill="#A9AFC3"/>
<path d="M35.6884 35.3249V32.366H47.3162V35.3249L39.4939 44.8355H47.5276V47.7944H35.2656V44.8355L43.0879 35.3249H35.6884Z" fill="#A9AFC3"/>
<defs>
<filter id="filter0_d" x="5.42725" y="4.5752" width="148.011" height="115.882" filterUnits="userSpaceOnUse" color-interpolation-filters="sRGB">
<feFlood flood-opacity="0" result="BackgroundImageFix"/>
<feColorMatrix in="SourceAlpha" type="matrix" values="0 0 0 0 0 0 0 0 0 0 0 0 0 0 0 0 0 0 127 0" result="hardAlpha"/>
<feOffset dy="11"/>
<feGaussianBlur stdDeviation="11"/>
<feColorMatrix type="matrix" values="0 0 0 0 0 0 0 0 0 0 0 0 0 0 0 0 0 0 0.27 0"/>
<feBlend mode="normal" in2="BackgroundImageFix" result="effect1_dropShadow"/>
<feBlend mode="normal" in="SourceGraphic" in2="effect1_dropShadow" result="shape"/>
</filter>
<linearGradient id="paint0_linear" x1="24.9252" y1="51.2083" x2="50.1058" y2="51.2083" gradientUnits="userSpaceOnUse">
<stop stop-color="#474D5D"/>
<stop offset="1" stop-color="#2A2E37"/>
</linearGradient>
<linearGradient id="paint1_linear" x1="79.399" y1="13.9125" x2="79.399" y2="88.2318" gradientUnits="userSpaceOnUse">
<stop stop-color="#5E6882"/>
<stop offset="0.9964" stop-color="#5E6882"/>
</linearGradient>
</defs>
</svg>
