<svg width="154" height="114" viewBox="0 0 154 114" fill="none" xmlns="http://www.w3.org/2000/svg">
<path d="M81.0875 113.567C110.788 113.567 134.987 89.4671 134.987 59.8671C134.887 30.1671 110.788 6.06714 81.0875 6.06714C51.2875 6.06714 27.1875 30.1671 27.1875 59.7671C27.1875 89.4671 51.2875 113.567 81.0875 113.567Z" fill="#2A2E37"/>
<path d="M136.287 41.0672C138.552 41.0672 140.387 39.2316 140.387 36.9672C140.387 34.7028 138.552 32.8672 136.287 32.8672C134.023 32.8672 132.188 34.7028 132.188 36.9672C132.188 39.2316 134.023 41.0672 136.287 41.0672Z" fill="#2A2E37"/>
<path d="M142.288 25.0673C143.834 25.0673 145.088 23.8137 145.088 22.2673C145.088 20.7209 143.834 19.4673 142.288 19.4673C140.741 19.4673 139.488 20.7209 139.488 22.2673C139.488 23.8137 140.741 25.0673 142.288 25.0673Z" fill="#2A2E37"/>
<path d="M22.5877 95.8673C25.4596 95.8673 27.7877 93.5392 27.7877 90.6673C27.7877 87.7954 25.4596 85.4673 22.5877 85.4673C19.7158 85.4673 17.3877 87.7954 17.3877 90.6673C17.3877 93.5392 19.7158 95.8673 22.5877 95.8673Z" fill="#2A2E37"/>
<g filter="url(#filter0_d)">
<path d="M64.1667 73.5764C64.1667 78.226 60.4066 81.9861 55.7165 81.9861C55.6357 81.9861 54.9483 81.9861 49.8944 81.9861C46.3769 81.9861 40.757 81.9861 31.7812 81.9861H27.4955C21.8756 82.1074 17.3877 77.6195 17.3877 72.2017C17.3877 66.7435 21.916 62.2152 27.6168 62.4982C32.509 47.2152 54.9079 49.3581 56.8082 65.1667C61.013 65.6923 64.1667 69.2503 64.1667 73.5764Z" fill="#5C6479"/>
</g>
<path d="M55.7167 81.9864C60.3663 81.9864 64.1669 78.2263 64.1669 73.5767C64.1669 68.9271 60.3663 65.167 55.7167 65.167C51.0671 65.167 47.2666 68.9271 47.2666 73.5767C47.2666 78.2263 51.0671 81.9864 55.7167 81.9864Z" fill="url(#paint0_linear)"/>
<path d="M41.9296 82.0671C50.218 82.0671 56.97 75.3555 56.97 67.0671C56.97 58.7787 50.218 52.0671 41.9296 52.0671C33.6412 52.0671 26.8892 58.7787 26.8892 67.0671C26.8892 75.3555 33.6007 82.0671 41.9296 82.0671Z" fill="url(#paint1_linear)"/>
<g filter="url(#filter1_d)">
<path d="M77.5334 32.3541C77.5334 38.7684 72.3462 43.9557 65.8761 43.9557C65.7646 43.9557 64.8164 43.9557 57.8443 43.9557C52.9918 43.9557 45.2388 43.9557 32.8564 43.9557H26.9441C19.1912 44.123 13 37.9318 13 30.4577C13 22.9279 19.247 16.6809 27.1115 17.0714C33.8604 -4.01216 64.7606 -1.056 67.3821 20.7526C73.1829 21.4777 77.5334 26.386 77.5334 32.3541Z" fill="#5C6479"/>
</g>
<path d="M46.8563 44.0671C58.2905 44.0671 67.6052 34.8082 67.6052 23.374C67.6052 11.9398 58.2905 2.68091 46.8563 2.68091C35.4221 2.68091 26.1074 11.9398 26.1074 23.374C26.1074 34.8082 35.3663 44.0671 46.8563 44.0671Z" fill="url(#paint2_linear)"/>
<path d="M65.876 43.9555C72.2903 43.9555 77.5333 38.7683 77.5333 32.354C77.5333 25.9397 72.2903 20.7524 65.876 20.7524C59.4617 20.7524 54.2188 25.9397 54.2188 32.354C54.2188 38.7683 59.4617 43.9555 65.876 43.9555Z" fill="url(#paint3_linear)" fill-opacity="0.37"/>
<g filter="url(#filter2_d)">
<path d="M62.4439 49.8761C62.4439 40.5086 70.0748 32.8927 79.4609 32.8927C88.847 32.8927 96.478 40.5086 96.478 49.8761C96.478 59.2437 88.847 66.8596 79.4609 66.8596C70.0748 66.8596 62.4439 59.3198 62.4439 49.8761ZM79.4609 17.7371C60.994 17.7371 45.9609 32.7404 45.9609 51.1708C45.9609 64.5748 63.6648 89.9357 73.3562 99.3794C75.4928 101.436 78.3926 102.273 81.1398 101.74C81.3687 101.74 81.5213 101.664 81.7502 101.588C81.8265 101.588 81.9029 101.588 81.9792 101.512C83.2764 101.131 84.5737 100.37 85.642 99.3794C93.7309 91.4589 107.39 70.7437 111.664 58.2536C112.274 56.4258 112.732 54.598 112.885 52.8463C112.961 52.2371 112.961 51.7039 112.961 51.0947C112.961 32.7404 98.0042 17.7371 79.4609 17.7371Z" fill="url(#paint4_linear)"/>
</g>
<path d="M79.4611 109.737C65.3438 109.737 50.9976 106.005 50.9976 98.9226C50.9976 97.0186 52.0659 94.2769 57.1787 91.916C58.1707 91.459 59.239 91.916 59.6969 92.8299C60.1547 93.82 59.6969 94.8862 58.7812 95.3431C55.8051 96.714 54.813 98.0849 54.813 98.8465C54.813 101.74 64.4281 105.853 79.4611 105.853C94.4941 105.853 104.109 101.664 104.109 98.8465C104.109 97.8564 102.659 96.257 98.6912 94.7339C97.6991 94.3531 97.2413 93.2869 97.6228 92.2968C98.0044 91.3067 99.0727 90.8498 100.065 91.2306C106.551 93.7438 107.925 96.7902 107.925 98.9226C107.925 106.005 93.5784 109.737 79.4611 109.737Z" fill="#969EAE"/>
<g filter="url(#filter3_d)">
<path d="M140.388 76.9763C140.388 81.6259 136.628 85.386 131.938 85.386C131.857 85.386 131.17 85.386 126.116 85.386C122.598 85.386 116.978 85.386 108.002 85.386H103.717C98.0968 85.5073 93.6089 81.0194 93.6089 75.6016C93.6089 70.1434 98.1372 65.6151 103.838 65.8981C108.73 50.6151 131.129 52.758 133.029 68.5666C137.234 69.0922 140.388 72.6502 140.388 76.9763Z" fill="#5C6479"/>
</g>
<path d="M118.151 85.467C126.439 85.467 133.191 78.7555 133.191 70.467C133.191 62.1786 126.439 55.467 118.151 55.467C109.862 55.467 103.11 62.1786 103.11 70.467C103.11 78.7555 109.822 85.467 118.151 85.467Z" fill="url(#paint5_linear)"/>
<path d="M131.938 85.3863C136.588 85.3863 140.388 81.6262 140.388 76.9766C140.388 72.327 136.588 68.5669 131.938 68.5669C127.288 68.5669 123.488 72.327 123.488 76.9766C123.488 81.6262 127.288 85.3863 131.938 85.3863Z" fill="url(#paint6_linear)" fill-opacity="0.37"/>
<defs>
<filter id="filter0_d" x="4.3877" y="50.1035" width="72.7788" height="55.885" filterUnits="userSpaceOnUse" color-interpolation-filters="sRGB">
<feFlood flood-opacity="0" result="BackgroundImageFix"/>
<feColorMatrix in="SourceAlpha" type="matrix" values="0 0 0 0 0 0 0 0 0 0 0 0 0 0 0 0 0 0 127 0" result="hardAlpha"/>
<feOffset dy="11"/>
<feGaussianBlur stdDeviation="6.5"/>
<feColorMatrix type="matrix" values="0 0 0 0 0 0 0 0 0 0 0 0 0 0 0 0 0 0 0.22 0"/>
<feBlend mode="normal" in2="BackgroundImageFix" result="effect1_dropShadow"/>
<feBlend mode="normal" in="SourceGraphic" in2="effect1_dropShadow" result="shape"/>
</filter>
<filter id="filter1_d" x="0" y="0.731445" width="90.5332" height="67.2275" filterUnits="userSpaceOnUse" color-interpolation-filters="sRGB">
<feFlood flood-opacity="0" result="BackgroundImageFix"/>
<feColorMatrix in="SourceAlpha" type="matrix" values="0 0 0 0 0 0 0 0 0 0 0 0 0 0 0 0 0 0 127 0" result="hardAlpha"/>
<feOffset dy="11"/>
<feGaussianBlur stdDeviation="6.5"/>
<feColorMatrix type="matrix" values="0 0 0 0 0 0 0 0 0 0 0 0 0 0 0 0 0 0 0.22 0"/>
<feBlend mode="normal" in2="BackgroundImageFix" result="effect1_dropShadow"/>
<feBlend mode="normal" in="SourceGraphic" in2="effect1_dropShadow" result="shape"/>
</filter>
<filter id="filter2_d" x="41.9609" y="17.7371" width="75" height="92.1599" filterUnits="userSpaceOnUse" color-interpolation-filters="sRGB">
<feFlood flood-opacity="0" result="BackgroundImageFix"/>
<feColorMatrix in="SourceAlpha" type="matrix" values="0 0 0 0 0 0 0 0 0 0 0 0 0 0 0 0 0 0 127 0" result="hardAlpha"/>
<feOffset dy="4"/>
<feGaussianBlur stdDeviation="2"/>
<feComposite in2="hardAlpha" operator="out"/>
<feColorMatrix type="matrix" values="0 0 0 0 0 0 0 0 0 0 0 0 0 0 0 0 0 0 0.25 0"/>
<feBlend mode="normal" in2="BackgroundImageFix" result="effect1_dropShadow"/>
<feBlend mode="normal" in="SourceGraphic" in2="effect1_dropShadow" result="shape"/>
</filter>
<filter id="filter3_d" x="80.6089" y="53.5034" width="72.7788" height="55.885" filterUnits="userSpaceOnUse" color-interpolation-filters="sRGB">
<feFlood flood-opacity="0" result="BackgroundImageFix"/>
<feColorMatrix in="SourceAlpha" type="matrix" values="0 0 0 0 0 0 0 0 0 0 0 0 0 0 0 0 0 0 127 0" result="hardAlpha"/>
<feOffset dy="11"/>
<feGaussianBlur stdDeviation="6.5"/>
<feColorMatrix type="matrix" values="0 0 0 0 0 0 0 0 0 0 0 0 0 0 0 0 0 0 0.22 0"/>
<feBlend mode="normal" in2="BackgroundImageFix" result="effect1_dropShadow"/>
<feBlend mode="normal" in="SourceGraphic" in2="effect1_dropShadow" result="shape"/>
</filter>
<linearGradient id="paint0_linear" x1="46.3674" y1="63.3564" x2="53.8584" y2="71.5493" gradientUnits="userSpaceOnUse">
<stop stop-color="#BCCBE1"/>
<stop offset="0.9942" stop-color="white" stop-opacity="0"/>
</linearGradient>
<linearGradient id="paint1_linear" x1="30.5548" y1="58.2983" x2="35.5914" y2="62.1911" gradientUnits="userSpaceOnUse">
<stop stop-color="#80889D"/>
<stop offset="0.9942" stop-color="#5C6479"/>
</linearGradient>
<linearGradient id="paint2_linear" x1="31.1643" y1="11.277" x2="38.1124" y2="16.6474" gradientUnits="userSpaceOnUse">
<stop stop-color="#80889D"/>
<stop offset="0.9942" stop-color="#5C6479"/>
</linearGradient>
<linearGradient id="paint3_linear" x1="52.952" y1="18.2911" x2="63.2688" y2="29.5998" gradientUnits="userSpaceOnUse">
<stop stop-color="white"/>
<stop offset="0.9942" stop-color="white" stop-opacity="0"/>
</linearGradient>
<linearGradient id="paint4_linear" x1="61.3297" y1="39.829" x2="100.894" y2="93.1535" gradientUnits="userSpaceOnUse">
<stop stop-color="#E3EAF7"/>
<stop offset="1" stop-color="#ADB6C8"/>
</linearGradient>
<linearGradient id="paint5_linear" x1="106.776" y1="61.6982" x2="111.813" y2="65.591" gradientUnits="userSpaceOnUse">
<stop stop-color="#80889D"/>
<stop offset="0.9942" stop-color="#5C6479"/>
</linearGradient>
<linearGradient id="paint6_linear" x1="122.57" y1="66.7827" x2="130.048" y2="74.9802" gradientUnits="userSpaceOnUse">
<stop stop-color="white"/>
<stop offset="0.9942" stop-color="white" stop-opacity="0"/>
</linearGradient>
</defs>
</svg>
