<svg width="153" height="139" viewBox="0 0 153 139" fill="none" xmlns="http://www.w3.org/2000/svg">
<path d="M76.9998 122.074C105 122.074 127.7 99.3741 127.7 71.2741C127.7 43.1741 105 20.4741 76.9998 20.4741C48.9998 20.4741 26.2998 43.1741 26.2998 71.2741C26.2998 99.3741 48.9998 122.074 76.9998 122.074Z" fill="#2A2E37"/>
<path d="M133.5 55.3741C135.764 55.3741 137.6 53.5384 137.6 51.2741C137.6 49.0097 135.764 47.1741 133.5 47.1741C131.236 47.1741 129.4 49.0097 129.4 51.2741C129.4 53.5384 131.236 55.3741 133.5 55.3741Z" fill="#2A2E37"/>
<path d="M139.5 39.2741C141.047 39.2741 142.3 38.0205 142.3 36.4741C142.3 34.9277 141.047 33.6741 139.5 33.6741C137.954 33.6741 136.7 34.9277 136.7 36.4741C136.7 38.0205 137.954 39.2741 139.5 39.2741Z" fill="#2A2E37"/>
<path d="M22.8 58.2741C24.3464 58.2741 25.6 57.0205 25.6 55.4741C25.6 53.9277 24.3464 52.6741 22.8 52.6741C21.2536 52.6741 20 53.9277 20 55.4741C20 57.0205 21.2536 58.2741 22.8 58.2741Z" fill="#2A2E37"/>
<g filter="url(#filter0_d)">
<path d="M126.725 103.79L102.684 94.6085L76.3056 105.174L47.6615 94.5357L25.74 102.915C23.767 103.644 21.721 101.822 22.3056 99.782L35.97 52.6377C36.4084 51.1075 37.5045 49.7959 38.9659 49.1401L60.8875 38.866L76.3056 49.9416L91.3584 40.3962L115.618 51.0346C117.226 51.7633 118.395 53.1477 118.76 54.8236L130.159 100.802C130.671 102.77 128.698 104.518 126.725 103.79Z" fill="url(#paint0_linear)"/>
</g>
<path d="M60.8875 38.939L47.6615 94.5358L25.74 102.915C23.767 103.644 21.721 101.822 22.3056 99.7821L35.97 52.6378C36.4084 51.1076 37.5045 49.796 38.9659 49.1402L60.8875 38.939Z" fill="#414758"/>
<g filter="url(#filter1_d)">
<path d="M126.579 104.081L102.538 94.9L91.2119 40.7605L115.472 51.3989C117.079 52.1276 118.248 53.5121 118.614 55.188L130.013 101.166C130.525 103.134 128.552 104.883 126.579 104.081Z" fill="url(#paint1_linear)"/>
</g>
<path d="M102.758 94.6084L76.3057 105.174V49.9415L91.3584 40.396L102.758 94.6084Z" fill="#414758"/>
<path d="M52.7034 81.9299C52.6303 81.9299 52.5572 81.9299 52.4111 81.9299C52.1188 81.857 51.8996 81.857 51.6073 81.7842C50.8035 81.5656 50.3651 80.8369 50.5112 80.0354C50.6573 79.2339 51.4611 78.7967 52.2649 78.9424C52.4841 79.0153 52.7034 79.0153 52.9226 79.0881C53.7264 79.2339 54.2379 79.9625 54.0917 80.764C54.0186 81.4927 53.4341 81.9299 52.7034 81.9299ZM57.8184 81.7842C57.1607 81.7842 56.5762 81.347 56.43 80.6912C56.2108 79.8897 56.7223 79.0881 57.5261 78.9424C57.7453 78.8695 57.9645 78.7967 58.1837 78.7967C58.9875 78.5781 59.7913 79.0153 60.0105 79.7439C60.2297 80.5455 59.7913 81.347 59.0606 81.5656C58.7683 81.6384 58.5491 81.7113 58.2568 81.7842C58.0376 81.7842 57.8914 81.7842 57.8184 81.7842ZM47.3691 79.7439C47.0768 79.7439 46.7845 79.6711 46.5653 79.5253C46.3461 79.3796 46.1269 79.2339 45.9077 79.0881C45.25 78.6509 45.1039 77.7037 45.5423 77.0479C45.9808 76.3921 46.9307 76.2464 47.5883 76.6836C47.8075 76.8293 47.9537 76.975 48.1729 77.0479C48.8306 77.4851 49.0498 78.3595 48.6113 79.0881C48.319 79.5253 47.8806 79.7439 47.3691 79.7439ZM63.0795 79.3796C62.6411 79.3796 62.1296 79.161 61.8373 78.7238C61.3989 78.068 61.545 77.1207 62.2758 76.6836C62.495 76.5378 62.6411 76.465 62.8603 76.3192C63.518 75.882 64.4679 76.0278 64.9063 76.6836C65.3448 77.3393 65.1986 78.2866 64.541 78.7238C64.3218 78.8695 64.1025 79.0153 63.8833 79.161C63.6641 79.2339 63.3718 79.3796 63.0795 79.3796ZM99.9077 77.6308C99.177 77.6308 98.5193 77.0479 98.4463 76.2464C98.3732 75.4448 99.0308 74.7162 99.8346 74.7162C99.9808 74.7162 100.2 74.7162 100.419 74.6433C101.223 74.4976 101.954 75.0076 102.1 75.8092C102.246 76.6107 101.734 77.3393 100.931 77.4851C100.638 77.5579 100.346 77.5579 100.054 77.6308C99.9808 77.6308 99.9808 77.6308 99.9077 77.6308ZM42.9117 75.9549C42.5464 75.9549 42.108 75.8092 41.8887 75.5177C41.7426 75.372 41.5234 75.1534 41.3772 74.9348C40.7927 74.3518 40.8657 73.4046 41.4503 72.8945C42.0349 72.3845 42.9848 72.3845 43.4963 72.9674C43.6425 73.1131 43.7886 73.3317 44.0078 73.4774C44.5924 74.0604 44.5193 75.0076 43.9347 75.5177C43.6425 75.8092 43.2771 75.9549 42.9117 75.9549ZM95.2311 75.9549C94.9388 75.9549 94.5734 75.882 94.3542 75.6634C94.135 75.5177 93.9158 75.372 93.7697 75.1534C93.1851 74.6433 93.112 73.696 93.6235 73.1131C94.135 72.5302 95.085 72.4573 95.6695 72.9674C95.8157 73.1131 96.0349 73.2588 96.181 73.4046C96.8387 73.9146 96.9117 74.789 96.4002 75.4448C96.108 75.7363 95.6695 75.9549 95.2311 75.9549ZM67.6831 75.7363C67.2446 75.7363 66.8793 75.5906 66.587 75.2262C66.0755 74.6433 66.1486 73.696 66.7331 73.186C66.9523 73.0402 67.0985 72.8945 67.2446 72.7488C67.8292 72.2387 68.7791 72.3116 69.2906 72.8945C69.8021 73.4774 69.7291 74.4247 69.1445 74.9348C68.9253 75.0805 68.7791 75.2262 68.5599 75.4448C68.3407 75.6634 68.0484 75.7363 67.6831 75.7363ZM105.315 75.5177C104.803 75.5177 104.365 75.2991 104.073 74.8619C103.634 74.2061 103.854 73.2588 104.511 72.8216C104.73 72.6759 104.877 72.6031 105.096 72.4573C105.753 72.0201 106.703 72.1659 107.142 72.8216C107.58 73.4774 107.434 74.4247 106.776 74.8619C106.557 75.0076 106.338 75.1534 106.119 75.2991C105.826 75.4448 105.534 75.5177 105.315 75.5177ZM90.9929 71.9473C90.6276 71.9473 90.2622 71.8015 89.9699 71.5101C89.8238 71.3643 89.6046 71.2186 89.4584 71C88.8739 70.4899 88.8008 69.5427 89.3854 68.9598C89.8969 68.3768 90.8468 68.304 91.4314 68.8869C91.6506 69.0326 91.7967 69.2512 92.0159 69.3969C92.6005 69.9799 92.6005 70.8543 92.089 71.4372C91.7237 71.8015 91.3583 71.9473 90.9929 71.9473ZM109.919 71.9473C109.48 71.9473 109.115 71.8015 108.822 71.4372C108.311 70.8543 108.384 69.907 108.969 69.3969C109.115 69.2512 109.334 69.1055 109.48 68.9598C110.065 68.4497 111.015 68.5226 111.526 69.1055C112.038 69.6884 111.965 70.6357 111.38 71.1457C111.161 71.2915 111.015 71.4372 110.795 71.6558C110.649 71.8744 110.284 71.9473 109.919 71.9473ZM71.9212 71.8015C71.5559 71.8015 71.1905 71.6558 70.8982 71.3643C70.3136 70.7814 70.3136 69.907 70.8982 69.3241L71.4097 68.814C71.9943 68.2311 72.8712 68.2311 73.4557 68.7412C74.0403 69.3241 74.0403 70.1985 73.5288 70.7814L73.0173 71.2915C72.725 71.6558 72.3596 71.8015 71.9212 71.8015ZM39.1851 71.5101C38.7467 71.5101 38.3082 71.2915 38.0159 70.9271C37.8698 70.7085 37.7237 70.5628 37.5775 70.3442C37.066 69.6884 37.2121 68.814 37.8698 68.304C38.5274 67.7939 39.4043 67.9396 39.9158 68.5954L40.3542 69.1783C40.8657 69.8341 40.7196 70.7085 40.0619 71.2186C39.7697 71.3643 39.4774 71.5101 39.1851 71.5101ZM86.5356 68.2311C86.2433 68.2311 85.951 68.1582 85.6587 67.9396C85.4395 67.7939 85.2933 67.6482 85.0741 67.5024C84.4165 67.0652 84.2703 66.118 84.7818 65.4622C85.2203 64.8064 86.1702 64.6606 86.8278 65.1707C87.0471 65.3164 87.1932 65.4622 87.4124 65.6079C88.0701 66.118 88.2162 66.9924 87.7047 67.6482C87.4124 68.0125 86.974 68.2311 86.5356 68.2311ZM114.303 68.0854C113.937 68.0854 113.499 67.9396 113.207 67.6482C112.622 67.0652 112.695 66.118 113.28 65.6079L113.791 65.0978C114.376 64.5149 115.326 64.5878 115.837 65.1707C116.422 65.7536 116.349 66.7009 115.764 67.211L115.253 67.721C115.034 67.9396 114.668 68.0854 114.303 68.0854ZM75.9402 67.5024C75.5748 67.5024 75.2094 67.3567 74.9172 67.1381C74.3326 66.5552 74.2595 65.6808 74.8441 65.0978C74.9902 64.8792 75.2094 64.7335 75.3556 64.5149C75.9402 63.932 76.817 63.932 77.4016 64.5149C77.9862 65.0979 77.9862 65.9722 77.4016 66.5552C77.2555 66.7009 77.1093 66.9195 76.8901 67.0652C76.6709 67.3567 76.3055 67.5024 75.9402 67.5024ZM35.8238 66.7009C35.3123 66.7009 34.8739 66.4823 34.5816 66.0451L34.1431 65.4622C33.7047 64.8064 33.9239 63.8591 34.5816 63.4219C35.2392 62.9847 36.1891 63.2033 36.6276 63.8591L36.9929 64.4421C37.4314 65.0978 37.2852 66.0451 36.5545 66.4823C36.4084 66.628 36.1161 66.7009 35.8238 66.7009ZM81.5667 65.1707C81.4205 65.1707 81.2013 65.1707 81.0552 65.0978C80.836 65.025 80.6898 65.025 80.5437 64.9521C79.7399 64.8064 79.2284 64.0049 79.4476 63.2033C79.6668 62.4018 80.3975 61.8917 81.2013 62.1103C81.4936 62.1832 81.7859 62.2561 82.0782 62.4018C82.8089 62.6933 83.2473 63.4948 82.955 64.2963C82.6628 64.8064 82.1513 65.1707 81.5667 65.1707Z" fill="#8A94AC"/>
<g filter="url(#filter2_d)">
<path d="M76.3055 0.174072C89.6777 0.174072 100.492 10.9582 100.492 24.2927C100.492 34.9312 85.1472 55.9895 78.863 64.1505C77.5478 65.8993 74.9172 65.8993 73.6019 64.1505C67.3177 55.9895 51.9727 34.9312 51.9727 24.2927C52.1188 10.9582 62.9334 0.174072 76.3055 0.174072Z" fill="url(#paint2_linear)"/>
</g>
<path d="M76.3058 33.7652C81.5925 33.7652 85.8782 29.4916 85.8782 24.2198C85.8782 18.948 81.5925 14.6743 76.3058 14.6743C71.0191 14.6743 66.7334 18.948 66.7334 24.2198C66.7334 29.4916 71.0191 33.7652 76.3058 33.7652Z" fill="#5C6479"/>
<defs>
<filter id="filter0_d" x="0.204102" y="27.866" width="152.037" height="110.308" filterUnits="userSpaceOnUse" color-interpolation-filters="sRGB">
<feFlood flood-opacity="0" result="BackgroundImageFix"/>
<feColorMatrix in="SourceAlpha" type="matrix" values="0 0 0 0 0 0 0 0 0 0 0 0 0 0 0 0 0 0 127 0" result="hardAlpha"/>
<feOffset dy="11"/>
<feGaussianBlur stdDeviation="11"/>
<feColorMatrix type="matrix" values="0 0 0 0 0 0 0 0 0 0 0 0 0 0 0 0 0 0 0.27 0"/>
<feBlend mode="normal" in2="BackgroundImageFix" result="effect1_dropShadow"/>
<feBlend mode="normal" in="SourceGraphic" in2="effect1_dropShadow" result="shape"/>
</filter>
<filter id="filter1_d" x="69.2119" y="29.7605" width="82.8828" height="107.52" filterUnits="userSpaceOnUse" color-interpolation-filters="sRGB">
<feFlood flood-opacity="0" result="BackgroundImageFix"/>
<feColorMatrix in="SourceAlpha" type="matrix" values="0 0 0 0 0 0 0 0 0 0 0 0 0 0 0 0 0 0 127 0" result="hardAlpha"/>
<feOffset dy="11"/>
<feGaussianBlur stdDeviation="11"/>
<feColorMatrix type="matrix" values="0 0 0 0 0 0 0 0 0 0 0 0 0 0 0 0 0 0 0.27 0"/>
<feBlend mode="normal" in2="BackgroundImageFix" result="effect1_dropShadow"/>
<feBlend mode="normal" in="SourceGraphic" in2="effect1_dropShadow" result="shape"/>
</filter>
<filter id="filter2_d" x="47.9727" y="0.174072" width="56.5195" height="73.2881" filterUnits="userSpaceOnUse" color-interpolation-filters="sRGB">
<feFlood flood-opacity="0" result="BackgroundImageFix"/>
<feColorMatrix in="SourceAlpha" type="matrix" values="0 0 0 0 0 0 0 0 0 0 0 0 0 0 0 0 0 0 127 0" result="hardAlpha"/>
<feOffset dy="4"/>
<feGaussianBlur stdDeviation="2"/>
<feComposite in2="hardAlpha" operator="out"/>
<feColorMatrix type="matrix" values="0 0 0 0 0 0 0 0 0 0 0 0 0 0 0 0 0 0 0.25 0"/>
<feBlend mode="normal" in2="BackgroundImageFix" result="effect1_dropShadow"/>
<feBlend mode="normal" in="SourceGraphic" in2="effect1_dropShadow" result="shape"/>
</filter>
<linearGradient id="paint0_linear" x1="76.1875" y1="37.3322" x2="76.1875" y2="105.889" gradientUnits="userSpaceOnUse">
<stop stop-color="#5C6479"/>
<stop offset="0.9964" stop-color="#5C6479"/>
</linearGradient>
<linearGradient id="paint1_linear" x1="110.641" y1="39.2912" x2="110.641" y2="104.965" gradientUnits="userSpaceOnUse">
<stop stop-color="#5C6479"/>
<stop offset="0.9964" stop-color="#5C6479"/>
</linearGradient>
<linearGradient id="paint2_linear" x1="63.1023" y1="17.3122" x2="94.3449" y2="56.62" gradientUnits="userSpaceOnUse">
<stop stop-color="#E3EAF7"/>
<stop offset="1" stop-color="#ADB6C8"/>
</linearGradient>
</defs>
</svg>
