<svg width="139" height="142" viewBox="0 0 139 142" fill="none" xmlns="http://www.w3.org/2000/svg">
<path d="M71.1178 125.111C103.918 125.111 130.518 98.7108 130.518 66.1108C130.518 33.5108 103.918 7.11084 71.1178 7.11084C38.3178 7.11084 11.7178 33.5108 11.7178 66.1108C11.7178 98.7108 38.3178 125.111 71.1178 125.111Z" fill="#2A2E37"/>
<path d="M116.618 58.4105V94.5106C116.618 102.011 110.518 108.111 102.918 108.111H39.5179C32.0179 108.111 25.9179 102.111 25.8179 94.6105C25.8179 94.5105 25.8179 94.5106 25.8179 94.4106V58.4105C25.8179 58.3105 25.8179 58.3105 25.8179 58.2105C25.8179 58.0105 25.8179 57.8105 25.9179 57.6105C26.0179 57.3105 26.1179 57.1105 26.2179 56.8105L43.2179 24.3105C43.8179 23.0105 45.1179 22.3105 46.5179 22.3105H95.8179C97.2179 22.3105 98.4179 23.0105 99.1179 24.3105L116.118 56.8105C116.218 57.0105 116.318 57.3105 116.418 57.6105C116.618 57.8105 116.618 58.1105 116.618 58.4105Z" fill="#414758"/>
<g filter="url(#filter0_d)">
<path d="M116.618 58.4108V98.2108C116.618 103.711 112.218 108.111 106.618 108.111H35.8179C30.3179 108.111 25.8179 103.711 25.8179 98.2108V58.2108C25.8179 58.0108 25.8179 57.8108 25.9179 57.6108H48.7179C52.1179 57.6108 54.9179 60.3108 54.9179 63.8108C54.9179 65.5108 55.6179 67.1108 56.7179 68.2108C57.9179 69.4108 59.3179 70.0108 61.1179 70.0108H81.4179C84.8179 70.0108 87.6179 67.3108 87.6179 63.8108C87.6179 62.1108 88.3179 60.5108 89.4179 59.4108C90.6179 58.2108 92.0179 57.6108 93.7179 57.6108H116.418C116.618 57.8108 116.618 58.1108 116.618 58.4108Z" fill="url(#paint0_linear)"/>
</g>
<path d="M129 37.9109C131.264 37.9109 133.1 36.0753 133.1 33.8109C133.1 31.5466 131.264 29.7109 129 29.7109C126.736 29.7109 124.9 31.5466 124.9 33.8109C124.9 36.0753 126.736 37.9109 129 37.9109Z" fill="#2A2E37"/>
<path d="M124.9 24.6107C126.446 24.6107 127.7 23.3571 127.7 21.8107C127.7 20.2643 126.446 19.0107 124.9 19.0107C123.354 19.0107 122.1 20.2643 122.1 21.8107C122.1 23.3571 123.354 24.6107 124.9 24.6107Z" fill="#2A2E37"/>
<path d="M11.5002 33.8109C13.0466 33.8109 14.3002 32.5573 14.3002 31.0109C14.3002 29.4645 13.0466 28.2109 11.5002 28.2109C9.9538 28.2109 8.7002 29.4645 8.7002 31.0109C8.7002 32.5573 9.9538 33.8109 11.5002 33.8109Z" fill="#2A2E37"/>
<path d="M5.2 95.4107C8.07188 95.4107 10.4 93.0826 10.4 90.2107C10.4 87.3389 8.07188 85.0107 5.2 85.0107C2.32812 85.0107 0 87.3389 0 90.2107C0 93.0826 2.32812 95.4107 5.2 95.4107Z" fill="#2A2E37"/>
<path d="M96.2378 10.28C97.5429 24.5272 98.1954 27.7899 95.2406 40.6927C94.2797 43.5612 93.3188 46.7029 91.2597 48.8885C88.3769 52.3034 83.1605 53.806 78.9051 52.7132C74.5123 51.6204 70.9432 47.7957 70.1196 43.1514C69.4332 40.2829 70.3941 36.8679 72.865 35.0922C75.4732 33.453 79.1796 33.8628 81.376 35.9117C83.8469 37.9607 84.8078 41.1024 84.6705 44.1076C84.5333 47.1127 83.4351 50.1179 81.9251 52.7132C78.5116 59.0948 77.1063 59.0714 70.1196 69.5524" stroke="#667089" stroke-width="2" stroke-miterlimit="10" stroke-dasharray="4 4"/>
<path d="M103.892 4.97381C103.37 6.87761 101.283 7.5699 99.1954 6.3584C96.9344 5.31996 95.369 4.4546 95.7168 2.72387C96.2386 0.993144 98.3258 0.820071 100.761 0.646999C103.718 0.300854 104.239 3.07002 103.892 4.97381Z" fill="#AFB7C9"/>
<path d="M87.0201 6.7044C87.8898 8.26205 90.3248 9.30049 92.0641 7.74284C93.9773 6.01211 95.5427 4.8006 94.673 3.06987C93.8034 1.51222 92.4119 2.03144 89.4551 2.37758C87.0201 2.8968 85.9766 4.97367 87.0201 6.7044Z" fill="#AFB7C9"/>
<path d="M94.6731 0.300919C95.8906 0.127846 97.1081 0.820137 97.456 1.85857C97.6299 2.20472 97.8038 2.72394 97.8038 3.07008C98.1517 5.4931 97.282 7.56997 95.8906 7.74304C94.3252 8.08919 92.7599 6.35846 92.5859 4.10852C92.5859 3.41623 92.5859 3.07008 92.5859 2.55086C92.7599 1.33936 93.4556 0.473992 94.6731 0.300919C94.847 0.300919 94.6731 0.300919 94.6731 0.300919Z" fill="#474E61"/>
<path d="M59.808 84.3706C61.0751 84.3706 62.1023 83.3434 62.1023 82.0763C62.1023 80.8092 61.0751 79.782 59.808 79.782C58.5409 79.782 57.5137 80.8092 57.5137 82.0763C57.5137 83.3434 58.5409 84.3706 59.808 84.3706Z" fill="#989FB0"/>
<path d="M82.6268 84.3706C83.8939 84.3706 84.9211 83.3434 84.9211 82.0763C84.9211 80.8092 83.8939 79.782 82.6268 79.782C81.3597 79.782 80.3325 80.8092 80.3325 82.0763C80.3325 83.3434 81.3597 84.3706 82.6268 84.3706Z" fill="#989FB0"/>
<path d="M74.9379 99.4387H67.745C66.6288 99.4387 65.6987 98.5086 65.6987 97.3925C65.6987 96.2763 66.6288 95.3462 67.745 95.3462H74.8759C75.9921 95.3462 76.9222 96.2763 76.9222 97.3925C76.9842 98.5086 76.0541 99.4387 74.9379 99.4387Z" fill="#989FB0"/>
<defs>
<filter id="filter0_d" x="3.81787" y="46.6108" width="134.8" height="94.5" filterUnits="userSpaceOnUse" color-interpolation-filters="sRGB">
<feFlood flood-opacity="0" result="BackgroundImageFix"/>
<feColorMatrix in="SourceAlpha" type="matrix" values="0 0 0 0 0 0 0 0 0 0 0 0 0 0 0 0 0 0 127 0" result="hardAlpha"/>
<feOffset dy="11"/>
<feGaussianBlur stdDeviation="11"/>
<feColorMatrix type="matrix" values="0 0 0 0 0 0 0 0 0 0 0 0 0 0 0 0 0 0 0.27 0"/>
<feBlend mode="normal" in2="BackgroundImageFix" result="effect1_dropShadow"/>
<feBlend mode="normal" in="SourceGraphic" in2="effect1_dropShadow" result="shape"/>
</filter>
<linearGradient id="paint0_linear" x1="71.1883" y1="56.4427" x2="71.1883" y2="108.655" gradientUnits="userSpaceOnUse">
<stop stop-color="#5C6479"/>
<stop offset="0.9964" stop-color="#5C6479"/>
</linearGradient>
</defs>
</svg>
