<svg width="154" height="144" viewBox="0 0 154 144" fill="none" xmlns="http://www.w3.org/2000/svg">
<path d="M77.1178 118.693C109.918 118.693 136.518 92.2926 136.518 59.6926C136.518 27.0926 109.918 0.692627 77.1178 0.692627C44.3178 0.692627 17.7178 27.0926 17.7178 59.6926C17.7178 92.2926 44.3178 118.693 77.1178 118.693Z" fill="#2A2E37"/>
<path d="M135 31.4925C137.264 31.4925 139.1 29.6568 139.1 27.3925C139.1 25.1281 137.264 23.2925 135 23.2925C132.736 23.2925 130.9 25.1281 130.9 27.3925C130.9 29.6568 132.736 31.4925 135 31.4925Z" fill="#2A2E37"/>
<path d="M130.9 18.1928C132.446 18.1928 133.7 16.9392 133.7 15.3928C133.7 13.8464 132.446 12.5928 130.9 12.5928C129.354 12.5928 128.1 13.8464 128.1 15.3928C128.1 16.9392 129.354 18.1928 130.9 18.1928Z" fill="#2A2E37"/>
<path d="M17.5002 27.3925C19.0466 27.3925 20.3002 26.1389 20.3002 24.5925C20.3002 23.0461 19.0466 21.7925 17.5002 21.7925C15.9538 21.7925 14.7002 23.0461 14.7002 24.5925C14.7002 26.1389 15.9538 27.3925 17.5002 27.3925Z" fill="#2A2E37"/>
<path d="M11.2 88.9928C14.0719 88.9928 16.4 86.6647 16.4 83.7928C16.4 80.9209 14.0719 78.5928 11.2 78.5928C8.32812 78.5928 6 80.9209 6 83.7928C6 86.6647 8.32812 88.9928 11.2 88.9928Z" fill="#2A2E37"/>
<path d="M131.843 45.0856V99.2263C131.843 99.4496 131.843 99.5612 131.843 99.7844C131.731 102.91 130.28 105.589 128.048 107.487C126.15 109.161 123.582 110.278 120.792 110.278H33.3853C31.4875 110.278 29.7015 109.831 28.1386 108.938C27.4689 108.603 26.7991 108.157 26.2409 107.599C25.013 106.594 23.8967 105.143 23.3385 103.58C22.892 102.464 22.5571 101.236 22.5571 100.008V45.0856C22.5571 45.0856 27.134 41.1786 33.7201 35.8203C40.5296 30.1272 49.46 22.7596 57.2741 16.2851C61.7393 12.4896 61.2928 12.9361 68.2139 7.13138C73.4605 2.66617 81.163 2.66617 86.4096 7.13138C87.7492 8.24768 89.2004 9.58724 90.5399 10.7035C93.4423 13.0478 96.5679 15.7269 99.9169 18.5177C106.95 24.3224 114.652 30.797 120.68 35.8203C126.82 40.8437 131.285 44.6391 131.843 45.0856Z" fill="#414758"/>
<path opacity="0.2" d="M120.68 35.7086V55.1322L101.591 66.6301L95.8983 70.0907L83.8423 77.3466L78.1491 80.8072L75.6933 82.2584L73.349 80.8072L67.9908 77.3466L56.4929 70.0907L51.1346 66.6301L33.4971 55.5787V35.8202C40.3065 30.1271 49.2369 22.7595 57.051 16.2849L99.8054 18.4059C106.95 24.3223 114.652 30.6852 120.68 35.7086Z" fill="#1E1F28"/>
<g filter="url(#filter0_d)">
<path d="M116.885 20.3037V54.4626L99.4702 64.8442L94.3352 67.9698L83.2838 74.4444L78.1488 77.57L75.9162 78.798L73.7953 77.57L68.8835 74.4444L58.3903 67.9698L53.4786 64.8442L37.4038 54.7975V20.3037C37.4038 16.7316 40.3062 13.8292 43.99 13.8292H110.298C113.87 13.7175 116.885 16.7316 116.885 20.3037Z" fill="url(#paint0_linear)"/>
</g>
<path opacity="0.5" d="M23.0034 44.8625L75.4696 48.3231L131.061 44.8625L128.94 54.7976C128.94 54.7976 76.6975 82.0354 77.0324 82.0354C77.3673 82.0354 23.115 49.7743 23.115 49.7743L23.0034 44.8625Z" fill="url(#paint1_linear)"/>
<path d="M131.843 45.0857V99.7845C131.731 102.91 130.28 105.589 128.048 107.487C126.15 109.161 123.582 110.278 120.792 110.278H33.3853C31.4875 110.278 29.7015 109.831 28.1386 108.938C27.4689 108.603 26.7991 108.157 26.2409 107.599C25.013 106.594 23.8967 105.143 23.3385 103.58C22.892 102.464 22.5571 101.236 22.5571 100.008V99.8961V45.0857L71.4512 75.6724L75.6931 78.3515L77.1443 77.4584L78.4839 76.677L131.843 45.0857Z" fill="#738DFF"/>
<g filter="url(#filter1_d)">
<path d="M128.159 107.487C126.262 109.161 123.694 110.278 120.903 110.278H33.3853C31.4875 110.278 29.7015 109.831 28.1386 108.938C27.4689 108.603 26.7991 108.157 26.2409 107.599C25.013 106.594 23.8967 105.143 23.3385 103.58C22.892 102.464 22.5571 101.236 22.5571 100.008V99.8961V45.0857L28.2503 48.5462L77.1443 77.4584L78.4839 78.2399L78.5955 78.3515L122.466 104.25L128.159 107.487Z" fill="url(#paint2_linear)"/>
</g>
<path opacity="0.4" d="M78.4837 76.5655V80.3609L28.1385 108.938C27.4687 108.603 26.7989 108.157 26.2408 107.599C25.0128 106.594 23.8965 105.143 23.3384 103.58L72.344 74.5562L76.586 77.2353L77.1441 77.4585L78.4837 76.5655Z" fill="url(#paint3_linear)"/>
<path d="M22.5571 45.0857L77.1443 77.4585" stroke="#7C869F" stroke-miterlimit="10"/>
<g filter="url(#filter2_d)">
<path d="M131.843 45.0857V99.7845C131.731 102.91 130.28 105.589 128.047 107.487C126.15 109.161 123.582 110.278 120.792 110.278H33.3851C31.4873 110.278 29.7013 109.831 28.1384 108.938C27.4687 108.603 26.7989 108.157 26.2407 107.599L31.8222 104.25L75.6929 78.3515L77.1441 77.4584L78.4837 76.677L126.038 48.4346L131.843 45.0857Z" fill="url(#paint4_linear)"/>
</g>
<path d="M131.843 45.0857L78.4837 76.5654L77.1441 77.4584L75.6929 78.3515L26.2407 107.487" stroke="#7C869F" stroke-miterlimit="10"/>
<path d="M118.671 83.3748H89.6469C88.9771 83.3748 88.4189 82.8167 88.4189 82.1469C88.4189 81.4771 88.9771 80.9189 89.6469 80.9189H118.671C119.341 80.9189 119.899 81.4771 119.899 82.1469C120.01 82.8167 119.452 83.3748 118.671 83.3748Z" fill="#B4BDCF"/>
<path d="M118.671 91.7471H89.6469C88.9771 91.7471 88.4189 91.189 88.4189 90.5192C88.4189 89.8494 88.9771 89.2913 89.6469 89.2913H118.671C119.341 89.2913 119.899 89.8494 119.899 90.5192C120.01 91.189 119.452 91.7471 118.671 91.7471Z" fill="#B4BDCF"/>
<path d="M124.699 109.161L128.271 107.375C128.159 107.487 128.159 107.487 128.048 107.599C128.048 107.599 128.048 107.599 127.936 107.599L124.699 109.161Z" fill="#526DFF"/>
<path d="M74.3505 56.508C73.4853 56.508 72.671 56.19 72.0094 55.5011L60.7619 43.7891C59.4895 42.4642 59.4895 40.2384 60.7619 38.9135C62.0342 37.5886 64.1717 37.5886 65.4441 38.9135L74.3505 48.1877L95.3186 26.4065C96.591 25.0816 98.7285 25.0816 100.001 26.4065C101.273 27.7314 101.273 29.9572 100.001 31.2821L76.6916 55.5011C76.0808 56.19 75.2156 56.508 74.3505 56.508Z" fill="#474E61"/>
<defs>
<filter id="filter0_d" x="33.4038" y="13.8262" width="87.4805" height="72.9717" filterUnits="userSpaceOnUse" color-interpolation-filters="sRGB">
<feFlood flood-opacity="0" result="BackgroundImageFix"/>
<feColorMatrix in="SourceAlpha" type="matrix" values="0 0 0 0 0 0 0 0 0 0 0 0 0 0 0 0 0 0 127 0" result="hardAlpha"/>
<feOffset dy="4"/>
<feGaussianBlur stdDeviation="2"/>
<feComposite in2="hardAlpha" operator="out"/>
<feColorMatrix type="matrix" values="0 0 0 0 0 0 0 0 0 0 0 0 0 0 0 0 0 0 0.25 0"/>
<feBlend mode="normal" in2="BackgroundImageFix" result="effect1_dropShadow"/>
<feBlend mode="normal" in="SourceGraphic" in2="effect1_dropShadow" result="shape"/>
</filter>
<filter id="filter1_d" x="0.557129" y="34.0857" width="149.602" height="109.192" filterUnits="userSpaceOnUse" color-interpolation-filters="sRGB">
<feFlood flood-opacity="0" result="BackgroundImageFix"/>
<feColorMatrix in="SourceAlpha" type="matrix" values="0 0 0 0 0 0 0 0 0 0 0 0 0 0 0 0 0 0 127 0" result="hardAlpha"/>
<feOffset dy="11"/>
<feGaussianBlur stdDeviation="11"/>
<feColorMatrix type="matrix" values="0 0 0 0 0 0 0 0 0 0 0 0 0 0 0 0 0 0 0.27 0"/>
<feBlend mode="normal" in2="BackgroundImageFix" result="effect1_dropShadow"/>
<feBlend mode="normal" in="SourceGraphic" in2="effect1_dropShadow" result="shape"/>
</filter>
<filter id="filter2_d" x="4.24072" y="34.0857" width="149.602" height="109.192" filterUnits="userSpaceOnUse" color-interpolation-filters="sRGB">
<feFlood flood-opacity="0" result="BackgroundImageFix"/>
<feColorMatrix in="SourceAlpha" type="matrix" values="0 0 0 0 0 0 0 0 0 0 0 0 0 0 0 0 0 0 127 0" result="hardAlpha"/>
<feOffset dy="11"/>
<feGaussianBlur stdDeviation="11"/>
<feColorMatrix type="matrix" values="0 0 0 0 0 0 0 0 0 0 0 0 0 0 0 0 0 0 0.27 0"/>
<feBlend mode="normal" in2="BackgroundImageFix" result="effect1_dropShadow"/>
<feBlend mode="normal" in="SourceGraphic" in2="effect1_dropShadow" result="shape"/>
</filter>
<linearGradient id="paint0_linear" x1="55.6355" y1="30.8813" x2="80.6285" y2="82.6426" gradientUnits="userSpaceOnUse">
<stop stop-color="#E3EAF7"/>
<stop offset="1" stop-color="#ADB6C8"/>
</linearGradient>
<linearGradient id="paint1_linear" x1="76.9844" y1="93.8205" x2="76.9844" y2="47.3675" gradientUnits="userSpaceOnUse">
<stop stop-color="#8A90B5"/>
<stop offset="1" stop-color="#A7AED2" stop-opacity="0"/>
</linearGradient>
<linearGradient id="paint2_linear" x1="75.3238" y1="43.5777" x2="75.3238" y2="110.981" gradientUnits="userSpaceOnUse">
<stop stop-color="#5E6882"/>
<stop offset="0.9964" stop-color="#5E6882"/>
</linearGradient>
<linearGradient id="paint3_linear" x1="54.06" y1="94.8958" x2="49.7796" y2="88.6308" gradientUnits="userSpaceOnUse">
<stop stop-color="#2A2E37"/>
<stop offset="1" stop-color="#2A2E37" stop-opacity="0"/>
</linearGradient>
<linearGradient id="paint4_linear" x1="79.0074" y1="43.5777" x2="79.0074" y2="110.981" gradientUnits="userSpaceOnUse">
<stop stop-color="#5E6882"/>
<stop offset="0.9964" stop-color="#5E6882"/>
</linearGradient>
</defs>
</svg>
