<svg width="180" height="123" viewBox="0 0 180 123" fill="none" xmlns="http://www.w3.org/2000/svg">
<path d="M152.911 64.9695C152.911 86.1669 141.148 105.035 124.609 114.469C124.609 114.469 124.493 114.585 124.376 114.585C122.28 115.866 119.601 117.031 118.436 117.613H118.32C117.388 117.963 111.798 120.292 110.866 120.292C110.749 120.292 110.633 120.292 110.633 120.409C110.517 120.409 110.4 120.409 110.284 120.525C107.838 121.224 104.344 121.806 103.645 121.923C103.645 122.272 92.9297 123.32 83.8451 121.341C82.6804 121.341 75.2264 119.361 68.7041 116.099C50.3021 106.549 37.6069 87.2151 37.6069 64.9695C37.6069 33.1735 63.463 7.43384 95.2591 7.43384C127.172 7.43384 152.911 33.1735 152.911 64.9695Z" fill="#2A2E37"/>
<path d="M112.729 88.4963V119.826C112.613 119.826 111.099 120.409 110.982 120.409C110.866 120.409 110.749 120.409 110.749 120.525C110.633 120.525 110.516 120.525 110.4 120.642C107.954 121.341 104.46 121.923 103.761 122.039V88.4963H112.729Z" fill="#4988FD"/>
<path d="M112.729 88.4963V119.826C112.613 119.826 111.099 120.409 110.982 120.409C110.866 120.409 110.749 120.409 110.749 120.525C110.633 120.525 110.516 120.525 110.4 120.642C107.954 121.341 104.46 121.923 103.761 122.039V88.4963H112.729Z" fill="#5E6882"/>
<path d="M120.882 88.4963V116.565C120.3 116.915 119.251 117.264 118.436 117.73H118.32C116.805 118.429 115.058 119.128 112.03 120.059V88.6128H120.882V88.4963Z" fill="#2767F4"/>
<path d="M120.882 88.4963V116.565C120.3 116.915 119.251 117.264 118.436 117.73H118.32C116.805 118.429 115.058 119.128 112.03 120.059V88.6128H120.882V88.4963Z" fill="#444A5D"/>
<path opacity="0.1" d="M120.882 100.609V114.585C119.717 115.168 118.785 115.634 118.785 115.634H118.669C116.689 116.682 113.661 117.614 112.38 117.963C112.263 117.963 112.147 118.079 112.03 118.079V115.051C113.428 110.858 115.757 106.549 118.902 102.939C119.484 102.123 120.183 101.308 120.882 100.609Z" fill="#062C78"/>
<path opacity="0.1" d="M120.882 88.4963H103.761V98.3962H120.882V88.4963Z" fill="black"/>
<g filter="url(#filter0_d)">
<path d="M157.337 53.3227V88.9622H129.501V89.0787H73.7124V25.0208H126.706C127.405 24.9043 128.103 24.9043 128.919 24.9043C129.85 24.9043 130.666 24.9043 131.597 25.0208C132.762 25.1372 133.81 25.2537 134.859 25.4866C140.333 26.6513 145.224 29.4466 148.951 33.1736C154.192 38.4147 157.337 45.5193 157.337 53.3227Z" fill="url(#paint0_linear)"/>
</g>
<path d="M146.622 63.1063C150.116 63.1063 153.027 60.311 153.027 56.7005C153.027 53.0899 150.116 50.2947 146.622 50.2947C143.128 50.2947 140.216 53.0899 140.216 56.7005C140.216 60.311 143.011 63.1063 146.622 63.1063Z" fill="#414758"/>
<path d="M147.67 62.2908C151.281 62.2908 154.309 59.4956 154.309 55.885C154.309 52.2745 151.397 49.4792 147.67 49.4792C144.059 49.4792 141.031 52.2745 141.031 55.885C141.031 59.4956 143.943 62.2908 147.67 62.2908Z" fill="#606882"/>
<path d="M148.02 62.2908C151.514 62.2908 154.425 59.4956 154.425 55.885C154.425 52.2745 151.514 49.4792 148.02 49.4792C144.525 49.4792 141.614 52.2745 141.614 55.885C141.614 59.4956 144.409 62.2908 148.02 62.2908Z" fill="#8B93AA"/>
<path d="M148.02 58.3309C149.417 58.3309 150.465 57.2827 150.465 55.8851C150.465 54.4874 149.417 53.4392 148.02 53.4392C146.622 53.4392 145.574 54.4874 145.574 55.8851C145.574 57.2827 146.622 58.3309 148.02 58.3309Z" fill="#CED7E2"/>
<path d="M101.432 50.5275V89.0787H44.5952V50.5275C44.5952 38.4147 53.2139 28.1654 64.5114 25.6031C66.3749 25.1372 68.2384 25.0208 70.2184 25.0208H76.0418C88.8534 25.0208 99.3356 34.3383 101.316 46.5675C101.316 47.7322 101.432 49.1298 101.432 50.5275Z" fill="#414758"/>
<path opacity="0.7" d="M101.432 56.2346L101.083 46.9171C99.1026 34.6879 88.504 25.3704 75.8088 25.3704H69.9854C68.0054 25.3704 66.1419 25.6033 64.2784 25.9527L63.5796 26.5351L77.9053 85.5848L101.199 86.866L101.432 56.2346Z" fill="url(#paint1_linear)"/>
<path d="M101.316 46.5675C99.3356 34.3383 88.737 25.0208 76.0418 25.0208H70.2184C68.2384 25.0208 66.3749 25.1372 64.5114 25.6031C53.0975 28.1654 44.5952 38.2982 44.5952 50.5275V89.0787H101.432V50.5275C101.432 49.1298 101.316 47.7322 101.316 46.5675ZM99.1027 86.7493H46.9246V50.5275C46.9246 39.8123 54.4951 30.2619 65.0938 27.9325C66.6079 27.5831 68.122 27.4666 70.2184 27.4666H76.0418C87.4558 27.4666 97.1227 35.6194 98.9862 46.9169C98.9862 47.3828 98.9862 47.9651 98.9862 48.5475C98.9862 49.2463 98.9862 49.9451 98.9862 50.6439V86.7493H99.1027Z" fill="#77819B"/>
<path opacity="0.6" d="M88.1543 110.858C86.5238 113.304 84.5438 117.264 83.3791 120.525C83.2627 120.758 83.1462 121.108 83.1462 121.341C82.3309 121.224 81.5156 120.991 80.7003 120.758C80.0015 119.128 79.5356 117.381 79.5356 117.381C80.0015 116.798 80.3509 116.332 80.8168 115.867C83.0297 113.188 85.3591 111.324 88.1543 110.858Z" fill="#5E6882"/>
<path d="M83.8452 121.457C83.6123 121.457 83.3793 121.341 83.1464 121.341C82.3311 121.224 81.5158 120.991 80.7006 120.758C80.1182 120.642 79.6523 120.409 79.07 120.292C78.837 120.176 78.6041 120.176 78.3712 120.059C78.1382 119.943 77.9053 119.943 77.5559 119.826C74.5277 118.895 71.616 117.614 68.8207 116.216C65.909 111.324 64.2784 105.384 61.4832 97.115C61.4832 96.9985 61.4832 96.9985 61.3667 96.8821C61.3667 96.8821 61.5996 96.8821 62.182 97.115C62.5314 97.348 63.1137 97.5809 63.8126 98.0468C65.2102 98.9785 67.4231 100.609 70.6842 103.288C74.7606 106.665 78.2547 111.674 80.7006 115.75C81.7488 117.614 82.6805 119.244 83.3793 120.525C83.6123 120.758 83.7287 121.108 83.8452 121.457Z" fill="#5E6882"/>
<path d="M79.0697 120.176C78.8368 120.059 78.6038 120.059 78.3709 119.943C78.138 119.826 77.905 119.826 77.5556 119.71C72.1981 108.995 66.1417 102.123 62.6476 98.1632C62.2982 97.6974 61.9488 97.348 61.5994 96.9986C61.5994 96.8821 61.5994 96.8821 61.4829 96.7656C61.4829 96.7656 61.7158 96.7656 62.2982 96.9986C62.6476 97.2315 63.2299 97.4644 63.9288 97.9303C67.5393 102.123 73.7121 109.228 79.0697 120.176Z" fill="#2A2E37"/>
<path d="M133.461 95.135C133.461 95.135 133.344 95.3679 133.111 95.8338C131.714 98.3961 127.055 106.898 124.842 114.352C124.726 114.352 124.726 114.469 124.609 114.469C124.609 114.469 124.493 114.585 124.376 114.585C122.28 115.866 119.601 117.031 118.436 117.614H118.32C114.826 119.244 111.099 120.292 110.866 120.292C112.613 114.585 115.175 109.461 118.786 105.151C119.484 104.336 120.183 103.521 120.882 102.822C120.999 102.705 121.115 102.589 121.231 102.473C124.26 99.4444 127.404 97.4644 130.433 96.1832C130.782 96.0668 131.131 95.8338 131.481 95.7174C131.83 95.4844 132.412 95.3679 132.995 95.135C133.228 95.2515 133.344 95.135 133.461 95.135Z" fill="#5E6882"/>
<path d="M133.344 94.9023C133.344 94.9023 133.228 95.0188 133.111 95.3682C133.111 95.4847 132.995 95.4847 132.995 95.6012C126.938 100.959 122.163 109.927 119.135 117.381C118.902 117.497 118.669 117.614 118.436 117.73H118.32C118.087 117.847 117.737 117.963 117.504 118.08C117.621 117.847 117.737 117.73 117.737 117.73C119.251 114.003 123.328 103.405 130.432 96.3C130.665 96.067 130.898 95.8341 131.131 95.6012C131.947 95.3682 132.645 95.1353 133.344 94.9023Z" fill="#2A2E37"/>
<g filter="url(#filter1_d)">
<path d="M101.781 85.0024V89.0789H24.0964C22.9318 89.0789 22 88.1471 22 87.0989C22 85.9342 22.9318 85.0024 24.0964 85.0024H101.781Z" fill="url(#paint2_linear)"/>
</g>
<path d="M117.737 54.2546H148.369C149.3 54.2546 149.999 54.9535 149.999 55.8852C149.999 56.817 149.3 57.5158 148.369 57.5158H117.737V54.2546Z" fill="#A9AFC3"/>
<path d="M116.689 38.6479C117.039 38.182 117.854 38.415 117.854 39.1138V54.1383V57.6323H105.275V39.1138C105.275 38.5314 105.974 38.182 106.44 38.6479L110.516 43.5396C111.099 44.2384 112.147 44.2384 112.729 43.5396L116.689 38.6479Z" fill="#A9AFC3"/>
<path d="M34.9278 12.4424C33.4137 19.547 32.5984 26.7681 32.4819 33.9891C32.3655 40.6279 32.3655 47.9654 34.3455 54.3712C36.7913 62.524 44.3618 70.6769 53.6793 68.231C58.8039 66.8334 62.9968 62.4076 64.1615 56.9335C64.8603 53.4395 63.8121 49.363 61.0168 47.2666C57.9887 45.2866 53.5628 45.7525 50.884 48.1984C47.9723 50.6442 46.8076 54.3712 46.9241 57.9818C47.0406 61.5923 48.4382 65.0864 50.0688 68.231C54.9605 77.1991 80.3507 72.4239 99.2187 70.211" stroke="#667089" stroke-width="2" stroke-miterlimit="10" stroke-dasharray="4 4"/>
<path d="M25.8433 6.61874C26.4256 8.94812 28.9879 9.7634 31.5503 8.36577C34.3455 6.96815 36.209 6.03639 35.6267 3.82348C35.0443 1.72704 32.482 1.49411 29.5703 1.26117C25.9597 0.91176 25.2609 4.28936 25.8433 6.61874Z" fill="#AFB7C9"/>
<path d="M46.2255 8.71531C45.2937 10.6953 42.2655 11.86 40.1691 9.88C37.8397 7.78355 36.0927 6.38593 37.0244 4.17302C37.9562 2.19304 39.8197 2.77539 43.3138 3.35773C46.2255 4.05655 47.3902 6.61887 46.2255 8.71531Z" fill="#AFB7C9"/>
<path d="M36.9076 0.911801C35.3935 0.678863 33.9959 1.49415 33.53 2.89177C33.4135 3.24118 33.1806 3.82353 33.1806 4.40587C32.8312 7.3176 33.763 9.87991 35.51 10.1129C37.257 10.3458 39.0041 8.13288 39.4699 5.45409C39.4699 4.63881 39.4699 4.05646 39.4699 3.47412C39.3535 2.07649 38.3052 1.14474 36.9076 0.911801C36.7911 0.911801 36.9076 0.911801 36.9076 0.911801Z" fill="#474E61"/>
<path d="M105.974 89.0789H104.576C105.159 90.4765 105.508 92.6894 105.741 95.3682C104.111 95.7176 101.082 95.2517 99.2189 93.8541C98.6366 91.7577 98.1707 90.1271 97.7048 89.0789H96.1907C96.5401 89.6612 97.1225 91.5247 97.8213 94.2035C95.259 96.6493 93.6284 95.7176 88.6202 93.2717C88.1544 93.0388 87.572 92.6894 86.8732 92.4565C85.7085 91.0588 84.7767 89.8941 83.845 89.0789H81.6321C82.5638 89.6612 83.845 90.8259 85.2426 92.4565C77.9051 98.047 71.2664 95.6011 67.6558 94.32C67.0735 94.087 66.6076 93.9706 66.1417 93.8541C62.1818 91.7577 58.5712 90.1271 55.543 89.0789H50.8843V89.1953C56.5913 90.1271 69.9852 96.9987 81.9815 104.802V104.919H82.098C91.1825 110.859 99.4518 117.381 102.597 122.156L103.761 122.04V122.156V122.04C103.994 122.04 104.344 121.923 104.576 121.923C104.809 121.923 105.042 121.807 105.159 121.807C104.926 120.758 104.111 116.566 103.062 111.441C103.645 111.79 104.344 112.14 105.275 112.14C105.508 112.14 105.741 112.14 105.858 112.14C105.741 115.867 105.625 119.361 105.392 121.923C105.858 121.807 106.324 121.807 106.789 121.69C107.139 115.867 108.187 96.1835 105.974 89.0789ZM105.741 96.7658C105.858 98.5129 105.974 100.376 105.974 102.24C104.46 102.939 103.528 102.123 102.131 100.609C101.665 100.027 101.082 99.4446 100.5 99.0952C100.267 97.9305 99.9177 96.8823 99.6848 95.8341C101.548 96.6493 103.994 96.9988 105.741 96.7658ZM99.4518 101.075C99.9177 103.288 100.5 105.734 100.966 108.18C100.617 108.18 100.384 108.413 100.151 108.529C99.6848 108.879 98.986 109.228 97.3554 108.762C96.7731 107.714 96.1907 106.666 95.6084 105.734C94.9096 104.453 94.0943 103.288 93.5119 102.24C96.1907 102.356 97.9377 102.007 99.4518 101.075ZM98.1707 95.7176C98.5201 96.8823 98.753 98.1634 99.1024 99.5611C97.8213 100.609 96.1907 101.075 92.5802 100.609C91.1825 98.5128 89.9014 96.5329 88.7367 94.9023C92.9296 96.9987 95.259 98.047 98.1707 95.7176ZM72.0816 97.1152C73.1299 97.3482 74.1781 97.4646 75.3428 97.4646C78.6039 97.4646 82.2144 96.5329 86.0579 93.6211C87.6885 95.7176 89.4355 98.2799 91.1825 101.075C89.0861 103.055 85.592 103.288 82.5638 103.521C79.0698 101.192 75.4592 99.0952 72.0816 97.1152ZM84.4273 104.686C87.1061 104.453 90.0179 103.987 91.8814 102.24C93.279 104.453 94.6766 106.899 96.0742 109.228C95.4919 110.393 94.3272 110.626 91.7649 110.043C89.552 108.18 86.9897 106.433 84.4273 104.686ZM94.0943 111.674C95.1425 111.674 96.1907 111.441 97.006 110.509C98.5201 113.188 100.034 115.867 101.199 117.963C99.2189 115.983 96.7731 113.887 94.0943 111.674ZM103.179 119.128C101.898 116.682 100.151 113.421 98.2872 110.276C99.5683 110.393 100.267 109.927 100.849 109.694C100.966 109.694 100.966 109.577 101.082 109.577C101.082 109.577 101.199 109.694 101.315 109.81C102.014 112.955 102.597 116.216 103.179 119.128ZM105.858 110.509C104.576 110.859 103.528 110.16 102.597 109.228C102.131 106.666 101.548 104.103 100.966 101.541L101.082 101.658C102.247 102.939 103.761 104.453 105.974 103.87C105.974 105.967 105.974 108.296 105.858 110.509Z" fill="#444A5E"/>
<path d="M144.316 108.378C146.58 108.378 148.416 106.542 148.416 104.278C148.416 102.014 146.58 100.178 144.316 100.178C142.051 100.178 140.216 102.014 140.216 104.278C140.216 106.542 142.051 108.378 144.316 108.378Z" fill="#2A2E37"/>
<path d="M136.735 21.1962C138.281 21.1962 139.535 19.9426 139.535 18.3962C139.535 16.8498 138.281 15.5962 136.735 15.5962C135.189 15.5962 133.935 16.8498 133.935 18.3962C133.935 19.9426 135.189 21.1962 136.735 21.1962Z" fill="#2A2E37"/>
<path d="M31.1585 107.076C34.0304 107.076 36.3585 104.748 36.3585 101.876C36.3585 99.0039 34.0304 96.6758 31.1585 96.6758C28.2866 96.6758 25.9585 99.0039 25.9585 101.876C25.9585 104.748 28.2866 107.076 31.1585 107.076Z" fill="#2A2E37"/>
<defs>
<filter id="filter0_d" x="51.7124" y="13.9043" width="127.625" height="108.174" filterUnits="userSpaceOnUse" color-interpolation-filters="sRGB">
<feFlood flood-opacity="0" result="BackgroundImageFix"/>
<feColorMatrix in="SourceAlpha" type="matrix" values="0 0 0 0 0 0 0 0 0 0 0 0 0 0 0 0 0 0 127 0" result="hardAlpha"/>
<feOffset dy="11"/>
<feGaussianBlur stdDeviation="11"/>
<feColorMatrix type="matrix" values="0 0 0 0 0 0 0 0 0 0 0 0 0 0 0 0 0 0 0.27 0"/>
<feBlend mode="normal" in2="BackgroundImageFix" result="effect1_dropShadow"/>
<feBlend mode="normal" in="SourceGraphic" in2="effect1_dropShadow" result="shape"/>
</filter>
<filter id="filter1_d" x="0" y="74.0024" width="123.781" height="48.0764" filterUnits="userSpaceOnUse" color-interpolation-filters="sRGB">
<feFlood flood-opacity="0" result="BackgroundImageFix"/>
<feColorMatrix in="SourceAlpha" type="matrix" values="0 0 0 0 0 0 0 0 0 0 0 0 0 0 0 0 0 0 127 0" result="hardAlpha"/>
<feOffset dy="11"/>
<feGaussianBlur stdDeviation="11"/>
<feColorMatrix type="matrix" values="0 0 0 0 0 0 0 0 0 0 0 0 0 0 0 0 0 0 0.27 0"/>
<feBlend mode="normal" in2="BackgroundImageFix" result="effect1_dropShadow"/>
<feBlend mode="normal" in="SourceGraphic" in2="effect1_dropShadow" result="shape"/>
</filter>
<linearGradient id="paint0_linear" x1="115.498" y1="23.4199" x2="115.498" y2="89.7705" gradientUnits="userSpaceOnUse">
<stop stop-color="#5E6882"/>
<stop offset="0.9964" stop-color="#5E6882"/>
</linearGradient>
<linearGradient id="paint1_linear" x1="99.9922" y1="55.3884" x2="75.9924" y2="56.5065" gradientUnits="userSpaceOnUse">
<stop stop-color="#42465A"/>
<stop offset="1" stop-color="#575E84" stop-opacity="0"/>
</linearGradient>
<linearGradient id="paint2_linear" x1="61.8646" y1="84.9082" x2="61.8646" y2="89.1228" gradientUnits="userSpaceOnUse">
<stop stop-color="#5E6882"/>
<stop offset="0.9964" stop-color="#5E6882"/>
</linearGradient>
</defs>
</svg>
