<svg width="135" height="131" viewBox="0 0 135 131" fill="none" xmlns="http://www.w3.org/2000/svg">
<path d="M70.7493 121.202C103.898 121.202 130.772 94.3281 130.772 61.0608C130.772 27.7935 103.898 0.919189 70.7493 0.919189C37.6004 0.919189 10.7261 27.7935 10.7261 61.0608C10.7261 94.3281 37.6004 121.202 70.7493 121.202Z" fill="#2A2E37"/>
<path d="M26.5901 29.214H111.949C115.382 29.214 117.986 31.8185 117.986 35.2518V89.3556C117.986 92.7889 115.382 95.3934 111.949 95.3934H26.5901C23.1568 95.3934 20.5522 92.7889 20.5522 89.3556V35.2518C20.5522 31.8185 23.3936 29.214 26.5901 29.214Z" fill="#414758"/>
<g filter="url(#filter0_d)">
<path d="M101.623 35.2476L102.348 93.6584C102.348 95.6538 100.716 97.1957 98.7204 97.1957H41.7608C39.7654 97.1957 38.1328 95.5631 38.1328 93.6584V18.5588C38.1328 16.5634 39.7654 15.0215 41.7608 15.0215H83.0293L101.623 35.2476Z" fill="url(#paint0_linear)"/>
</g>
<path d="M75.0477 27.2662H47.747C47.1121 27.2662 46.5679 26.722 46.5679 26.0871C46.5679 25.4522 47.1121 24.908 47.747 24.908H75.0477C75.6826 24.908 76.2268 25.4522 76.2268 26.0871C76.2268 26.722 75.6826 27.2662 75.0477 27.2662Z" fill="#A9AFC4"/>
<path d="M58.2682 33.7967H47.747C47.1121 33.7967 46.5679 33.2525 46.5679 32.6176C46.5679 31.9827 47.1121 31.4385 47.747 31.4385H58.1775C58.8124 31.4385 59.3566 31.9827 59.3566 32.6176C59.3566 33.2525 58.8124 33.7967 58.2682 33.7967Z" fill="#A9AFC4"/>
<path d="M83.0293 15.0215V31.1661C83.0293 33.4336 85.0247 35.2476 87.2922 35.2476H101.623" fill="#3A4050"/>
<path d="M94.0233 47.5889H84.1257H81.6724H48.0881C47.6652 47.5889 47.2422 48.0127 47.2422 48.6062C47.2422 49.1148 47.5806 49.6235 48.0881 49.6235H81.6724H84.1257H93.9387C94.5309 49.6235 94.8693 49.1996 94.8693 48.6062C94.8693 48.0975 94.5309 47.5889 94.0233 47.5889Z" fill="#A9AFC4"/>
<path d="M119.644 63.9022V90.5397C119.644 93.973 116.921 96.8144 113.369 96.8144H25.6433C22.21 96.8144 19.3687 93.973 19.3687 90.5397V61.6528" stroke="#1676EE" stroke-width="3" stroke-linecap="round" stroke-linejoin="round"/>
<path d="M112.185 48.985H84.4821C81.7592 48.985 79.1546 49.9321 77.142 51.5895L69.9203 57.509C67.9077 59.1664 65.3031 60.1136 62.5802 60.1136H31.3255C28.129 60.1136 25.5244 62.7181 25.5244 65.9146C25.5244 66.1514 25.5244 66.5066 25.6428 66.7433L31.4439 97.2877C31.9174 100.129 34.2852 102.26 37.2449 102.26H104.135C106.976 102.26 109.462 100.247 109.936 97.4061L117.986 55.6148C118.578 52.4183 116.447 49.5769 113.251 48.985C112.777 48.985 112.422 48.985 112.185 48.985Z" fill="white"/>
<path d="M124.616 40.8161H88.626C85.0743 40.8161 81.7594 42 79.0364 44.2494L69.5653 51.9447C66.9608 54.0757 63.5275 55.378 59.9758 55.378H19.25C15.1064 55.378 11.7915 58.8113 11.7915 62.8365C11.7915 63.1917 11.7915 63.5468 11.9099 63.902L19.3684 103.799C19.9603 107.588 23.1568 110.31 26.8269 110.31H113.961C117.75 110.31 120.828 107.706 121.42 103.917L131.956 49.3401C132.667 45.1965 129.944 41.5265 125.8 40.6978C125.445 40.8161 124.971 40.8161 124.616 40.8161Z" fill="#414758"/>
<path d="M129 36.8085C131.264 36.8085 133.1 34.9729 133.1 32.7085C133.1 30.4442 131.264 28.6085 129 28.6085C126.736 28.6085 124.9 30.4442 124.9 32.7085C124.9 34.9729 126.736 36.8085 129 36.8085Z" fill="#2A2E37"/>
<path d="M124.9 23.5086C126.446 23.5086 127.7 22.255 127.7 20.7086C127.7 19.1622 126.446 17.9086 124.9 17.9086C123.354 17.9086 122.1 19.1622 122.1 20.7086C122.1 22.255 123.354 23.5086 124.9 23.5086Z" fill="#2A2E37"/>
<path d="M11.5002 32.7085C13.0466 32.7085 14.3002 31.4549 14.3002 29.9085C14.3002 28.3621 13.0466 27.1085 11.5002 27.1085C9.9538 27.1085 8.7002 28.3621 8.7002 29.9085C8.7002 31.4549 9.9538 32.7085 11.5002 32.7085Z" fill="#2A2E37"/>
<path d="M5.2 94.3086C8.07188 94.3086 10.4 91.9804 10.4 89.1086C10.4 86.2367 8.07188 83.9086 5.2 83.9086C2.32812 83.9086 0 86.2367 0 89.1086C0 91.9804 2.32812 94.3086 5.2 94.3086Z" fill="#2A2E37"/>
<g filter="url(#filter1_d)">
<path d="M123.417 118.119L106.023 100.76C87.6637 114.261 62.4917 101.097 62.4917 79.0608C62.4917 64.0644 74.7153 51.9131 89.6929 51.9131C111.338 51.9131 124.624 76.2158 112.014 94.5875L129.504 112.043C131.195 113.731 131.195 116.431 129.504 118.119C127.813 119.806 125.108 119.806 123.417 118.119ZM89.6929 60.5444C79.4502 60.5444 71.0917 68.8864 71.0917 79.109C71.0917 95.5519 90.8041 103.46 102.11 92.8998C114.913 80.9413 106.361 60.5444 89.6929 60.5444Z" fill="url(#paint1_linear)"/>
</g>
<path d="M87.8085 83.1595C87.7602 82.7738 87.7119 82.388 87.7119 81.954C87.7119 80.3628 88.3883 78.9162 90.0793 77.6625L91.5288 76.6017C92.4467 75.9266 92.8332 75.1551 92.8332 74.2389C92.8332 72.8887 91.867 71.5868 89.8377 71.5868C87.7119 71.5868 86.7939 73.2745 86.7939 74.9622C86.7939 75.2997 86.8422 75.6373 86.8905 75.9266L83.122 75.7819C83.0254 75.3479 82.9771 74.8657 82.9771 74.4318C82.9771 71.201 85.3928 68.115 89.7894 68.115C94.4276 68.115 96.8434 71.0082 96.8434 74.046C96.8434 76.4088 95.6355 78.0482 93.8962 79.302L92.6883 80.1699C91.6254 80.8932 91.0939 81.8576 91.0939 83.0631V83.256H87.8085V83.1595ZM89.4995 85.0883C90.804 85.0883 91.867 86.1492 91.867 87.4511C91.867 88.753 90.804 89.8139 89.4995 89.8139C88.195 89.8139 87.1321 88.753 87.1321 87.4511C87.1321 86.1492 88.195 85.0883 89.4995 85.0883Z" fill="#989FB0"/>
<defs>
<filter id="filter0_d" x="16.1328" y="4.02148" width="108.216" height="126.174" filterUnits="userSpaceOnUse" color-interpolation-filters="sRGB">
<feFlood flood-opacity="0" result="BackgroundImageFix"/>
<feColorMatrix in="SourceAlpha" type="matrix" values="0 0 0 0 0 0 0 0 0 0 0 0 0 0 0 0 0 0 127 0" result="hardAlpha"/>
<feOffset dy="11"/>
<feGaussianBlur stdDeviation="11"/>
<feColorMatrix type="matrix" values="0 0 0 0 0 0 0 0 0 0 0 0 0 0 0 0 0 0 0.27 0"/>
<feBlend mode="normal" in2="BackgroundImageFix" result="effect1_dropShadow"/>
<feBlend mode="normal" in="SourceGraphic" in2="effect1_dropShadow" result="shape"/>
</filter>
<filter id="filter1_d" x="58.4917" y="51.9131" width="76.2808" height="75.4714" filterUnits="userSpaceOnUse" color-interpolation-filters="sRGB">
<feFlood flood-opacity="0" result="BackgroundImageFix"/>
<feColorMatrix in="SourceAlpha" type="matrix" values="0 0 0 0 0 0 0 0 0 0 0 0 0 0 0 0 0 0 127 0" result="hardAlpha"/>
<feOffset dy="4"/>
<feGaussianBlur stdDeviation="2"/>
<feComposite in2="hardAlpha" operator="out"/>
<feColorMatrix type="matrix" values="0 0 0 0 0 0 0 0 0 0 0 0 0 0 0 0 0 0 0.25 0"/>
<feBlend mode="normal" in2="BackgroundImageFix" result="effect1_dropShadow"/>
<feBlend mode="normal" in="SourceGraphic" in2="effect1_dropShadow" result="shape"/>
</filter>
<linearGradient id="paint0_linear" x1="70.2197" y1="13.1207" x2="70.2197" y2="98.0816" gradientUnits="userSpaceOnUse">
<stop stop-color="#5C6479"/>
<stop offset="0.9964" stop-color="#5C6479"/>
</linearGradient>
<linearGradient id="paint1_linear" x1="78.1543" y1="69.6243" x2="107.012" y2="119.066" gradientUnits="userSpaceOnUse">
<stop stop-color="#E3EAF7"/>
<stop offset="1" stop-color="#ADB6C8"/>
</linearGradient>
</defs>
</svg>
