<svg width="180" height="129" viewBox="0 0 180 129" fill="none" xmlns="http://www.w3.org/2000/svg">
<path d="M152.911 70.732C152.911 91.9293 141.148 110.797 124.609 120.231C124.609 120.231 124.493 120.348 124.376 120.348C122.28 121.629 119.601 122.794 118.436 123.376H118.32C117.388 123.725 111.798 126.055 110.866 126.055C110.749 126.055 110.633 126.055 110.633 126.171C110.517 126.171 110.4 126.171 110.284 126.288C107.838 126.986 104.344 127.569 103.645 127.685C103.645 128.035 92.9297 129.083 83.8451 127.103C82.6804 127.103 75.2264 125.123 68.7041 121.862C50.3021 112.311 37.6069 92.9775 37.6069 70.732C37.6069 38.9359 63.463 13.1963 95.2591 13.1963C127.172 13.1963 152.911 38.9359 152.911 70.732Z" fill="#2A2E37"/>
<path d="M112.729 94.2588V125.589C112.613 125.589 111.099 126.171 110.982 126.171C110.866 126.171 110.749 126.171 110.749 126.288C110.633 126.288 110.516 126.288 110.4 126.404C107.954 127.103 104.46 127.685 103.761 127.802V94.2588H112.729Z" fill="#4988FD"/>
<path d="M112.729 94.2588V125.589C112.613 125.589 111.099 126.171 110.982 126.171C110.866 126.171 110.749 126.171 110.749 126.288C110.633 126.288 110.516 126.288 110.4 126.404C107.954 127.103 104.46 127.685 103.761 127.802V94.2588H112.729Z" fill="#5E6882"/>
<path d="M120.882 94.2588V122.328C120.3 122.677 119.251 123.027 118.436 123.493H118.32C116.805 124.191 115.058 124.89 112.03 125.822V94.3753H120.882V94.2588Z" fill="#2767F4"/>
<path d="M120.882 94.2588V122.328C120.3 122.677 119.251 123.027 118.436 123.493H118.32C116.805 124.191 115.058 124.89 112.03 125.822V94.3753H120.882V94.2588Z" fill="#444A5D"/>
<path opacity="0.1" d="M120.882 106.372V120.348C119.717 120.93 118.785 121.396 118.785 121.396H118.669C116.689 122.444 113.661 123.376 112.38 123.725C112.263 123.725 112.147 123.842 112.03 123.842V120.814C113.428 116.621 115.757 112.311 118.902 108.701C119.484 107.886 120.183 107.07 120.882 106.372Z" fill="#062C78"/>
<path opacity="0.1" d="M120.882 94.2588H103.761V104.159H120.882V94.2588Z" fill="black"/>
<g filter="url(#filter0_d)">
<path d="M157.337 59.0852V94.7247H129.501V94.8412H73.7124V30.7832H126.706C127.405 30.6667 128.103 30.6667 128.919 30.6667C129.85 30.6667 130.666 30.6667 131.597 30.7832C132.762 30.8997 133.81 31.0162 134.859 31.2491C140.333 32.4138 145.224 35.209 148.951 38.936C154.192 44.1771 157.337 51.2818 157.337 59.0852Z" fill="url(#paint0_linear)"/>
</g>
<path d="M146.622 68.8685C150.116 68.8685 153.027 66.0732 153.027 62.4627C153.027 58.8521 150.116 56.0569 146.622 56.0569C143.128 56.0569 140.216 58.8521 140.216 62.4627C140.216 66.0732 143.011 68.8685 146.622 68.8685Z" fill="#414758"/>
<path d="M147.67 68.0533C151.281 68.0533 154.309 65.258 154.309 61.6475C154.309 58.037 151.397 55.2417 147.67 55.2417C144.059 55.2417 141.031 58.037 141.031 61.6475C141.031 65.258 143.943 68.0533 147.67 68.0533Z" fill="#606882"/>
<path d="M148.02 68.0533C151.514 68.0533 154.425 65.258 154.425 61.6475C154.425 58.037 151.514 55.2417 148.02 55.2417C144.525 55.2417 141.614 58.037 141.614 61.6475C141.614 65.258 144.409 68.0533 148.02 68.0533Z" fill="#8B93AA"/>
<path d="M148.02 64.0934C149.417 64.0934 150.465 63.0451 150.465 61.6475C150.465 60.2499 149.417 59.2017 148.02 59.2017C146.622 59.2017 145.574 60.2499 145.574 61.6475C145.574 63.0451 146.622 64.0934 148.02 64.0934Z" fill="#CED7E2"/>
<path d="M101.432 56.2899V94.8411H44.5952V56.2899C44.5952 44.1771 53.2139 33.9279 64.5114 31.3655C66.3749 30.8997 68.2384 30.7832 70.2184 30.7832H76.0418C88.8534 30.7832 99.3356 40.1007 101.316 52.33C101.316 53.4947 101.432 54.8923 101.432 56.2899Z" fill="#414758"/>
<path opacity="0.7" d="M101.432 61.9971L101.083 52.6796C99.1026 40.4503 88.504 31.1328 75.8088 31.1328H69.9854C68.0054 31.1328 66.1419 31.3658 64.2784 31.7152L63.5796 32.2975L77.9053 91.3473L101.199 92.6284L101.432 61.9971Z" fill="url(#paint1_linear)"/>
<path d="M101.316 52.33C99.3356 40.1007 88.737 30.7832 76.0418 30.7832H70.2184C68.2384 30.7832 66.3749 30.8997 64.5114 31.3655C53.0975 33.9279 44.5952 44.0607 44.5952 56.2899V94.8411H101.432V56.2899C101.432 54.8923 101.316 53.4947 101.316 52.33ZM99.1027 92.5118H46.9246V56.2899C46.9246 45.5748 54.4951 36.0243 65.0938 33.6949C66.6079 33.3455 68.122 33.229 70.2184 33.229H76.0418C87.4558 33.229 97.1227 41.3819 98.9862 52.6794C98.9862 53.1452 98.9862 53.7276 98.9862 54.3099C98.9862 55.0087 98.9862 55.7076 98.9862 56.4064V92.5118H99.1027Z" fill="#77819B"/>
<path opacity="0.6" d="M88.1543 116.621C86.5238 119.067 84.5438 123.027 83.3791 126.288C83.2627 126.521 83.1462 126.87 83.1462 127.103C82.3309 126.987 81.5156 126.754 80.7003 126.521C80.0015 124.89 79.5356 123.143 79.5356 123.143C80.0015 122.561 80.3509 122.095 80.8168 121.629C83.0297 118.95 85.3591 117.087 88.1543 116.621Z" fill="#5D6781"/>
<path d="M83.8452 127.219C83.6123 127.219 83.3793 127.103 83.1464 127.103C82.3311 126.987 81.5158 126.754 80.7006 126.521C80.1182 126.404 79.6523 126.171 79.07 126.055C78.837 125.938 78.6041 125.938 78.3712 125.822C78.1382 125.705 77.9053 125.705 77.5559 125.589C74.5277 124.657 71.616 123.376 68.8207 121.978C65.909 117.087 64.2784 111.147 61.4832 102.877C61.4832 102.761 61.4832 102.761 61.3667 102.645C61.3667 102.645 61.5996 102.645 62.182 102.877C62.5314 103.11 63.1137 103.343 63.8126 103.809C65.2102 104.741 67.4231 106.372 70.6842 109.05C74.7606 112.428 78.2547 117.436 80.7006 121.513C81.7488 123.376 82.6805 125.007 83.3793 126.288C83.6123 126.521 83.7287 126.87 83.8452 127.219Z" fill="#5E6882"/>
<path d="M79.0697 125.938C78.8368 125.822 78.6038 125.822 78.3709 125.705C78.138 125.589 77.905 125.589 77.5556 125.472C72.1981 114.757 66.1417 107.886 62.6476 103.926C62.2982 103.46 61.9488 103.11 61.5994 102.761C61.5994 102.645 61.5994 102.645 61.4829 102.528C61.4829 102.528 61.7158 102.528 62.2982 102.761C62.6476 102.994 63.2299 103.227 63.9288 103.693C67.5393 107.886 73.7121 114.99 79.0697 125.938Z" fill="#2A2E37"/>
<path d="M133.461 100.897C133.461 100.897 133.344 101.13 133.111 101.596C131.714 104.159 127.055 112.661 124.842 120.115C124.726 120.115 124.726 120.231 124.609 120.231C124.609 120.231 124.493 120.348 124.376 120.348C122.28 121.629 119.601 122.794 118.436 123.376H118.32C114.826 125.007 111.099 126.055 110.866 126.055C112.613 120.348 115.175 115.223 118.786 110.914C119.484 110.099 120.183 109.283 120.882 108.584C120.999 108.468 121.115 108.351 121.231 108.235C124.26 105.207 127.404 103.227 130.433 101.946C130.782 101.829 131.131 101.596 131.481 101.48C131.83 101.247 132.412 101.13 132.995 100.897C133.228 101.014 133.344 100.897 133.461 100.897Z" fill="#5E6882"/>
<path d="M133.344 100.665C133.344 100.665 133.228 100.781 133.111 101.13C133.111 101.247 132.995 101.247 132.995 101.363C126.938 106.721 122.163 115.689 119.135 123.143C118.902 123.26 118.669 123.376 118.436 123.492H118.32C118.087 123.609 117.737 123.725 117.504 123.842C117.621 123.609 117.737 123.492 117.737 123.492C119.251 119.765 123.328 109.167 130.432 102.062C130.665 101.829 130.898 101.596 131.131 101.363C131.947 101.13 132.645 100.897 133.344 100.665Z" fill="#2A2E37"/>
<g filter="url(#filter1_d)">
<path d="M101.781 90.7646V94.8411H24.0964C22.9318 94.8411 22 93.9093 22 92.8611C22 91.6964 22.9318 90.7646 24.0964 90.7646H101.781Z" fill="url(#paint2_linear)"/>
</g>
<path d="M150 30.5503L150 61.1816C150 62.1134 149.301 62.8122 148.369 62.8122C147.437 62.8122 146.738 62.1134 146.738 61.1816L146.738 30.5503L150 30.5503Z" fill="#A9AFC3"/>
<path d="M165.606 29.5021C166.072 29.8515 165.839 30.6668 165.14 30.6668L150.116 30.6668L146.622 30.6668L146.622 18.0881L165.14 18.0881C165.723 18.0881 166.072 18.7869 165.606 19.2528L160.715 23.3292C160.016 23.9116 160.016 24.9598 160.715 25.5422L165.606 29.5021Z" fill="#A9AFC3"/>
<path d="M144.316 114.14C146.58 114.14 148.416 112.305 148.416 110.04C148.416 107.776 146.58 105.94 144.316 105.94C142.051 105.94 140.216 107.776 140.216 110.04C140.216 112.305 142.051 114.14 144.316 114.14Z" fill="#2A2E37"/>
<path d="M31.1585 112.838C34.0304 112.838 36.3585 110.51 36.3585 107.638C36.3585 104.766 34.0304 102.438 31.1585 102.438C28.2866 102.438 25.9585 104.766 25.9585 107.638C25.9585 110.51 28.2866 112.838 31.1585 112.838Z" fill="#2A2E37"/>
<g filter="url(#filter2_d)">
<rect x="41.3389" y="54.6279" width="52.4811" height="36.137" fill="url(#paint3_linear)"/>
</g>
<path d="M93.0853 55.9869L71.7549 71.7825C69.2745 73.6193 65.8851 73.6193 63.4047 71.7825L42.0742 55.9869C42.7159 55.1601 43.7194 54.6279 44.8471 54.6279H90.3125C91.4402 54.6279 92.4436 55.1601 93.0853 55.9869Z" fill="#EFF2FA"/>
<path d="M145.355 12.5254L141.031 1.1106" stroke="#A6B0C1" stroke-width="2.5"/>
<path d="M142.585 16.791L133.851 13.7644" stroke="#A6B0C1" stroke-width="2.5"/>
<path d="M150.465 10.7957L151.417 1.88867" stroke="#A6B0C1" stroke-width="2.5"/>
<defs>
<filter id="filter0_d" x="51.7124" y="19.6667" width="127.625" height="108.174" filterUnits="userSpaceOnUse" color-interpolation-filters="sRGB">
<feFlood flood-opacity="0" result="BackgroundImageFix"/>
<feColorMatrix in="SourceAlpha" type="matrix" values="0 0 0 0 0 0 0 0 0 0 0 0 0 0 0 0 0 0 127 0" result="hardAlpha"/>
<feOffset dy="11"/>
<feGaussianBlur stdDeviation="11"/>
<feColorMatrix type="matrix" values="0 0 0 0 0 0 0 0 0 0 0 0 0 0 0 0 0 0 0.27 0"/>
<feBlend mode="normal" in2="BackgroundImageFix" result="effect1_dropShadow"/>
<feBlend mode="normal" in="SourceGraphic" in2="effect1_dropShadow" result="shape"/>
</filter>
<filter id="filter1_d" x="0" y="79.7646" width="123.781" height="48.0764" filterUnits="userSpaceOnUse" color-interpolation-filters="sRGB">
<feFlood flood-opacity="0" result="BackgroundImageFix"/>
<feColorMatrix in="SourceAlpha" type="matrix" values="0 0 0 0 0 0 0 0 0 0 0 0 0 0 0 0 0 0 127 0" result="hardAlpha"/>
<feOffset dy="11"/>
<feGaussianBlur stdDeviation="11"/>
<feColorMatrix type="matrix" values="0 0 0 0 0 0 0 0 0 0 0 0 0 0 0 0 0 0 0.27 0"/>
<feBlend mode="normal" in2="BackgroundImageFix" result="effect1_dropShadow"/>
<feBlend mode="normal" in="SourceGraphic" in2="effect1_dropShadow" result="shape"/>
</filter>
<filter id="filter2_d" x="37.3389" y="54.6279" width="60.481" height="44.137" filterUnits="userSpaceOnUse" color-interpolation-filters="sRGB">
<feFlood flood-opacity="0" result="BackgroundImageFix"/>
<feColorMatrix in="SourceAlpha" type="matrix" values="0 0 0 0 0 0 0 0 0 0 0 0 0 0 0 0 0 0 127 0" result="hardAlpha"/>
<feOffset dy="4"/>
<feGaussianBlur stdDeviation="2"/>
<feComposite in2="hardAlpha" operator="out"/>
<feColorMatrix type="matrix" values="0 0 0 0 0 0 0 0 0 0 0 0 0 0 0 0 0 0 0.25 0"/>
<feBlend mode="normal" in2="BackgroundImageFix" result="effect1_dropShadow"/>
<feBlend mode="normal" in="SourceGraphic" in2="effect1_dropShadow" result="shape"/>
</filter>
<linearGradient id="paint0_linear" x1="115.498" y1="29.1823" x2="115.498" y2="95.533" gradientUnits="userSpaceOnUse">
<stop stop-color="#5E6882"/>
<stop offset="0.9964" stop-color="#5E6882"/>
</linearGradient>
<linearGradient id="paint1_linear" x1="99.9922" y1="61.1508" x2="75.9924" y2="62.2689" gradientUnits="userSpaceOnUse">
<stop stop-color="#42465A"/>
<stop offset="1" stop-color="#575E84" stop-opacity="0"/>
</linearGradient>
<linearGradient id="paint2_linear" x1="61.8646" y1="90.6704" x2="61.8646" y2="94.885" gradientUnits="userSpaceOnUse">
<stop stop-color="#5E6882"/>
<stop offset="0.9964" stop-color="#5E6882"/>
</linearGradient>
<linearGradient id="paint3_linear" x1="53.3773" y1="64.1139" x2="65.767" y2="94.5762" gradientUnits="userSpaceOnUse">
<stop stop-color="#E3EAF7"/>
<stop offset="1" stop-color="#ADB6C8"/>
</linearGradient>
</defs>
</svg>
