<svg width="174" height="132" viewBox="0 0 174 132" fill="none" xmlns="http://www.w3.org/2000/svg">
<path d="M78.4979 117.639C106.498 117.639 129.198 94.9386 129.198 66.8386C129.198 38.7386 106.498 16.0386 78.4979 16.0386C50.4979 16.0386 27.7979 38.7386 27.7979 66.8386C27.7979 94.9386 50.4979 117.639 78.4979 117.639Z" fill="#2A2E37"/>
<g filter="url(#filter0_d)">
<path d="M88.7858 47.227C88.7858 54.6663 82.7696 60.6825 75.2656 60.6825C75.1362 60.6825 74.0365 60.6825 65.9502 60.6825C60.3222 60.6825 51.3303 60.6825 36.9691 60.6825H30.112C21.12 60.8766 13.9395 53.696 13.9395 45.0275C13.9395 36.2944 21.1847 29.0491 30.306 29.5019C38.1335 5.04908 73.9718 8.47765 77.0122 33.7715C83.74 34.6124 88.7858 40.3051 88.7858 47.227Z" fill="#5C6479"/>
</g>
<path d="M53.2063 60.8118C66.4677 60.8118 77.271 50.0732 77.271 36.8118C77.271 23.5503 66.4677 12.8118 53.2063 12.8118C39.9448 12.8118 29.1416 23.5503 29.1416 36.8118C29.1416 50.0732 39.8801 60.8118 53.2063 60.8118Z" fill="url(#paint0_linear)"/>
<path d="M75.2658 60.6825C82.7052 60.6825 88.786 54.6664 88.786 47.227C88.786 39.7877 82.7052 33.7715 75.2658 33.7715C67.8265 33.7715 61.7456 39.7877 61.7456 47.227C61.7456 54.6664 67.8265 60.6825 75.2658 60.6825Z" fill="url(#paint1_linear)" fill-opacity="0.37"/>
<g filter="url(#filter1_d)">
<path d="M160.345 82.3627C160.345 90.5332 153.738 97.1406 145.496 97.1406C145.354 97.1406 144.146 97.1406 135.265 97.1406C129.084 97.1406 119.209 97.1406 103.436 97.1406H95.905C86.0293 97.3538 78.1431 89.4675 78.1431 79.9471C78.1431 70.3557 86.1004 62.3984 96.1181 62.8957C104.715 36.0397 144.075 39.8052 147.414 67.5848C154.803 68.5084 160.345 74.7606 160.345 82.3627Z" fill="#5C6479"/>
</g>
<path d="M121.269 97.283C135.834 97.283 147.699 85.4891 147.699 70.9243C147.699 56.3596 135.834 44.5657 121.269 44.5657C106.704 44.5657 94.8394 56.3596 94.8394 70.9243C94.8394 85.4891 106.633 97.283 121.269 97.283Z" fill="url(#paint2_linear)"/>
<path d="M145.496 97.141C153.667 97.141 160.345 90.5336 160.345 82.3631C160.345 74.1926 153.667 67.5852 145.496 67.5852C137.326 67.5852 130.647 74.1926 130.647 82.3631C130.647 90.5336 137.326 97.141 145.496 97.141Z" fill="url(#paint3_linear)" fill-opacity="0.37"/>
<g filter="url(#filter2_d)">
<path d="M77.2712 99.0163C77.2712 103.666 73.5111 107.426 68.821 107.426C68.7402 107.426 68.0528 107.426 62.9989 107.426C59.4814 107.426 53.8615 107.426 44.8857 107.426H40.6C34.9801 107.547 30.4922 103.059 30.4922 97.6417C30.4922 92.1835 35.0205 87.6552 40.7213 87.9382C45.6135 72.6552 68.0124 74.798 69.9127 90.6066C74.1175 91.1322 77.2712 94.6902 77.2712 99.0163Z" fill="#5C6479"/>
</g>
<path d="M68.8212 107.426C73.4708 107.426 77.2714 103.666 77.2714 99.0164C77.2714 94.3668 73.4708 90.6067 68.8212 90.6067C64.1716 90.6067 60.3711 94.3668 60.3711 99.0164C60.3711 103.666 64.1716 107.426 68.8212 107.426Z" fill="url(#paint4_linear)"/>
<path d="M55.0341 107.507C63.3225 107.507 70.0745 100.795 70.0745 92.5068C70.0745 84.2184 63.3225 77.5068 55.0341 77.5068C46.7457 77.5068 39.9937 84.2184 39.9937 92.5068C39.9937 100.795 46.7052 107.507 55.0341 107.507Z" fill="url(#paint5_linear)"/>
<path d="M74.6006 48.3208L69.1062 53.273C68.075 54.1207 66.5597 53.3337 66.0756 51.6989L62.6898 35.934" fill="#A5B0BE"/>
<g filter="url(#filter3_d)">
<path d="M134.826 9.89952L131.055 13.8856L91.6239 55.9421C89.8324 57.9171 86.7581 57.5782 84.5379 55.4449L67.4607 38.0142L64.0322 34.484L54.5709 24.6658C52.5382 22.4964 53.0559 18.9043 55.5588 18.6548L125.883 11.1571L134.826 9.89952Z" fill="url(#paint6_linear)"/>
</g>
<path d="M136.592 9.36243L132.723 13.7109L67.5944 39.7532L63.884 35.9415L127.541 10.4547L136.592 9.36243Z" fill="#A5B0BE"/>
<path d="M14.9818 92.7343L12.6276 94.9758C12.1849 95.3606 11.513 95.0336 11.2838 94.3218L9.6351 87.4417" fill="#A5B0BE"/>
<g filter="url(#filter4_d)">
<path d="M40.8941 75.1693L39.2888 76.9638L22.5046 95.8929C21.7427 96.7811 20.3959 96.6698 19.4034 95.7611L11.7586 88.3226L10.2234 86.8158L5.98628 82.624C5.07531 81.6971 5.26363 80.1151 6.3545 79.9752L37.0002 75.8299L40.8941 75.1693Z" fill="url(#paint7_linear)"/>
</g>
<path d="M41.6596 74.9332L40.0125 76.8797L11.8182 89.0776L10.1595 87.4627L37.7163 75.5261L41.6596 74.9332Z" fill="#A5B0BE"/>
<path d="M69.9146 103.439L65.6041 107.544C64.7935 108.248 63.5633 107.649 63.1436 106.346L60.1247 93.7488" fill="#A5B0BE"/>
<g filter="url(#filter5_d)">
<path d="M117.36 71.2778L114.421 74.5636L83.6884 109.223C82.2933 110.849 79.8274 110.645 78.0101 108.981L64.0123 95.3616L61.2014 92.6025L53.4431 84.9274C51.7751 83.2302 52.1199 80.3335 54.1173 80.0773L110.23 72.4873L117.36 71.2778Z" fill="url(#paint8_linear)"/>
</g>
<path d="M118.762 70.8457L115.746 74.4099L64.1217 96.7446L61.0845 93.7877L111.541 71.9314L118.762 70.8457Z" fill="#A5B0BE"/>
<defs>
<filter id="filter0_d" x="0.939453" y="10.8704" width="100.846" height="73.8159" filterUnits="userSpaceOnUse" color-interpolation-filters="sRGB">
<feFlood flood-opacity="0" result="BackgroundImageFix"/>
<feColorMatrix in="SourceAlpha" type="matrix" values="0 0 0 0 0 0 0 0 0 0 0 0 0 0 0 0 0 0 127 0" result="hardAlpha"/>
<feOffset dy="11"/>
<feGaussianBlur stdDeviation="6.5"/>
<feColorMatrix type="matrix" values="0 0 0 0 0 0 0 0 0 0 0 0 0 0 0 0 0 0 0.22 0"/>
<feBlend mode="normal" in2="BackgroundImageFix" result="effect1_dropShadow"/>
<feBlend mode="normal" in="SourceGraphic" in2="effect1_dropShadow" result="shape"/>
</filter>
<filter id="filter1_d" x="65.1431" y="42.6296" width="108.202" height="78.5151" filterUnits="userSpaceOnUse" color-interpolation-filters="sRGB">
<feFlood flood-opacity="0" result="BackgroundImageFix"/>
<feColorMatrix in="SourceAlpha" type="matrix" values="0 0 0 0 0 0 0 0 0 0 0 0 0 0 0 0 0 0 127 0" result="hardAlpha"/>
<feOffset dy="11"/>
<feGaussianBlur stdDeviation="6.5"/>
<feColorMatrix type="matrix" values="0 0 0 0 0 0 0 0 0 0 0 0 0 0 0 0 0 0 0.22 0"/>
<feBlend mode="normal" in2="BackgroundImageFix" result="effect1_dropShadow"/>
<feBlend mode="normal" in="SourceGraphic" in2="effect1_dropShadow" result="shape"/>
</filter>
<filter id="filter2_d" x="17.4922" y="75.5435" width="72.7788" height="55.885" filterUnits="userSpaceOnUse" color-interpolation-filters="sRGB">
<feFlood flood-opacity="0" result="BackgroundImageFix"/>
<feColorMatrix in="SourceAlpha" type="matrix" values="0 0 0 0 0 0 0 0 0 0 0 0 0 0 0 0 0 0 127 0" result="hardAlpha"/>
<feOffset dy="11"/>
<feGaussianBlur stdDeviation="6.5"/>
<feColorMatrix type="matrix" values="0 0 0 0 0 0 0 0 0 0 0 0 0 0 0 0 0 0 0.22 0"/>
<feBlend mode="normal" in2="BackgroundImageFix" result="effect1_dropShadow"/>
<feBlend mode="normal" in="SourceGraphic" in2="effect1_dropShadow" result="shape"/>
</filter>
<filter id="filter3_d" x="49.3174" y="9.89941" width="89.5088" height="55.3506" filterUnits="userSpaceOnUse" color-interpolation-filters="sRGB">
<feFlood flood-opacity="0" result="BackgroundImageFix"/>
<feColorMatrix in="SourceAlpha" type="matrix" values="0 0 0 0 0 0 0 0 0 0 0 0 0 0 0 0 0 0 127 0" result="hardAlpha"/>
<feOffset dy="4"/>
<feGaussianBlur stdDeviation="2"/>
<feComposite in2="hardAlpha" operator="out"/>
<feColorMatrix type="matrix" values="0 0 0 0 0 0 0 0 0 0 0 0 0 0 0 0 0 0 0.25 0"/>
<feBlend mode="normal" in2="BackgroundImageFix" result="effect1_dropShadow"/>
<feBlend mode="normal" in="SourceGraphic" in2="effect1_dropShadow" result="shape"/>
</filter>
<filter id="filter4_d" x="1.40527" y="75.1694" width="43.4888" height="29.3345" filterUnits="userSpaceOnUse" color-interpolation-filters="sRGB">
<feFlood flood-opacity="0" result="BackgroundImageFix"/>
<feColorMatrix in="SourceAlpha" type="matrix" values="0 0 0 0 0 0 0 0 0 0 0 0 0 0 0 0 0 0 127 0" result="hardAlpha"/>
<feOffset dy="4"/>
<feGaussianBlur stdDeviation="2"/>
<feComposite in2="hardAlpha" operator="out"/>
<feColorMatrix type="matrix" values="0 0 0 0 0 0 0 0 0 0 0 0 0 0 0 0 0 0 0.25 0"/>
<feBlend mode="normal" in2="BackgroundImageFix" result="effect1_dropShadow"/>
<feBlend mode="normal" in="SourceGraphic" in2="effect1_dropShadow" result="shape"/>
</filter>
<filter id="filter5_d" x="48.3794" y="71.2778" width="72.9805" height="47.0637" filterUnits="userSpaceOnUse" color-interpolation-filters="sRGB">
<feFlood flood-opacity="0" result="BackgroundImageFix"/>
<feColorMatrix in="SourceAlpha" type="matrix" values="0 0 0 0 0 0 0 0 0 0 0 0 0 0 0 0 0 0 127 0" result="hardAlpha"/>
<feOffset dy="4"/>
<feGaussianBlur stdDeviation="2"/>
<feComposite in2="hardAlpha" operator="out"/>
<feColorMatrix type="matrix" values="0 0 0 0 0 0 0 0 0 0 0 0 0 0 0 0 0 0 0.25 0"/>
<feBlend mode="normal" in2="BackgroundImageFix" result="effect1_dropShadow"/>
<feBlend mode="normal" in="SourceGraphic" in2="effect1_dropShadow" result="shape"/>
</filter>
<linearGradient id="paint0_linear" x1="35.0066" y1="22.7816" x2="43.0651" y2="29.0102" gradientUnits="userSpaceOnUse">
<stop stop-color="#80889D"/>
<stop offset="0.9942" stop-color="#5C6479"/>
</linearGradient>
<linearGradient id="paint1_linear" x1="60.2764" y1="30.9168" x2="72.2419" y2="44.0328" gradientUnits="userSpaceOnUse">
<stop stop-color="white"/>
<stop offset="0.9942" stop-color="white" stop-opacity="0"/>
</linearGradient>
<linearGradient id="paint2_linear" x1="101.281" y1="55.5153" x2="110.131" y2="62.356" gradientUnits="userSpaceOnUse">
<stop stop-color="#80889D"/>
<stop offset="0.9942" stop-color="#5C6479"/>
</linearGradient>
<linearGradient id="paint3_linear" x1="129.034" y1="64.45" x2="142.175" y2="78.8549" gradientUnits="userSpaceOnUse">
<stop stop-color="white"/>
<stop offset="0.9942" stop-color="white" stop-opacity="0"/>
</linearGradient>
<linearGradient id="paint4_linear" x1="59.4719" y1="88.7961" x2="66.9628" y2="96.989" gradientUnits="userSpaceOnUse">
<stop stop-color="#BCCBE1"/>
<stop offset="0.9942" stop-color="white" stop-opacity="0"/>
</linearGradient>
<linearGradient id="paint5_linear" x1="43.6593" y1="83.738" x2="48.6958" y2="87.6308" gradientUnits="userSpaceOnUse">
<stop stop-color="#80889D"/>
<stop offset="0.9942" stop-color="#5C6479"/>
</linearGradient>
<linearGradient id="paint6_linear" x1="74.2467" y1="26.8706" x2="94.9925" y2="64.1171" gradientUnits="userSpaceOnUse">
<stop stop-color="#E3EAF7"/>
<stop offset="1" stop-color="#ADB6C8"/>
</linearGradient>
<linearGradient id="paint7_linear" x1="14.6059" y1="83.3516" x2="24.1486" y2="99.3868" gradientUnits="userSpaceOnUse">
<stop stop-color="#E3EAF7"/>
<stop offset="1" stop-color="#ADB6C8"/>
</linearGradient>
<linearGradient id="paint8_linear" x1="69.2258" y1="86.2597" x2="86.6985" y2="115.62" gradientUnits="userSpaceOnUse">
<stop stop-color="#E3EAF7"/>
<stop offset="1" stop-color="#ADB6C8"/>
</linearGradient>
</defs>
</svg>
