<svg width="122" height="115" viewBox="0 0 122 115" fill="none" xmlns="http://www.w3.org/2000/svg">
<path d="M64.9822 106.531C92.9822 106.531 115.682 83.8312 115.682 55.7312C115.682 27.6312 92.8822 4.93115 64.9822 4.93115C36.9822 4.93115 14.2822 27.6312 14.2822 55.7312C14.2822 83.8312 36.9822 106.531 64.9822 106.531Z" fill="#2A2E37"/>
<path d="M112.382 22.431C114.647 22.431 116.482 20.5953 116.482 18.331C116.482 16.0666 114.647 14.231 112.382 14.231C110.118 14.231 108.282 16.0666 108.282 18.331C108.282 20.5953 110.118 22.431 112.382 22.431Z" fill="#2A2E37"/>
<path d="M118.382 6.43105C119.928 6.43105 121.182 5.17745 121.182 3.63105C121.182 2.08466 119.928 0.831055 118.382 0.831055C116.836 0.831055 115.582 2.08466 115.582 3.63105C115.582 5.17745 116.836 6.43105 118.382 6.43105Z" fill="#2A2E37"/>
<path d="M16.9821 22.331C18.5285 22.331 19.7821 21.0774 19.7821 19.531C19.7821 17.9846 18.5285 16.731 16.9821 16.731C15.4357 16.731 14.1821 17.9846 14.1821 19.531C14.1821 21.0774 15.4357 22.331 16.9821 22.331Z" fill="#2A2E37"/>
<path d="M5.2 82.8592C8.07188 82.8592 10.4 80.5311 10.4 77.6592C10.4 74.7874 8.07188 72.4592 5.2 72.4592C2.32812 72.4592 0 74.7874 0 77.6592C0 80.5311 2.32812 82.8592 5.2 82.8592Z" fill="#2A2E37"/>
<path d="M118.941 78.3601H103.56C102.832 78.3601 102.209 77.8925 102.001 77.2689C100.494 72.8001 97.1681 71.7088 89.1138 68.5391C88.6462 68.3312 88.5942 67.7077 89.0619 67.4479C91.4002 66.3047 90.9845 65.3174 90.9845 58.4582C90.8806 58.3543 90.7767 58.1984 90.7247 58.0945C90.2051 57.315 89.8413 56.3797 89.7374 55.4443L89.2178 55.1845C87.6589 55.5483 87.7628 53.8854 87.3471 50.6637C87.1912 49.3127 87.399 49.0528 87.9706 48.845L88.4903 48.1695C85.4244 41.3103 86.9833 36.9974 89.9972 35.4385C89.0099 33.256 88.9579 32.4766 88.9579 32.4766C88.9579 32.4766 95.3494 33.5678 97.5319 33.1001C100.338 32.5285 104.599 33.204 106.21 36.8934C108.86 37.9327 109.899 39.6475 110.159 41.4142C110.523 44.3242 108.912 47.494 108.6 48.7411C108.652 48.793 108.652 48.845 108.704 48.897C109.12 49.1048 109.276 49.4686 109.12 50.6117C108.756 53.6776 108.808 55.6002 107.249 55.1326L105.846 57.5748C105.794 57.8866 105.742 57.9905 105.742 58.1464C105.69 58.6141 105.69 59.4975 105.69 64.5899C105.69 65.2134 105.846 65.785 106.158 66.2527C106.47 66.8243 106.989 67.24 107.613 67.4998H107.665C111.302 69.0067 113.9 69.9941 115.823 70.7735C120.084 72.4883 120.811 72.956 121.175 75.8139C121.279 77.2169 120.292 78.3601 118.941 78.3601Z" fill="#8E94A7"/>
<path d="M108.495 48.6883C108.651 47.9089 108.287 46.9735 107.975 46.298C107.923 46.1941 107.871 46.0902 107.819 45.9343C106.624 43.492 103.87 42.4527 101.272 42.3488C94.6206 41.9851 93.997 43.2842 91.9185 41.3615C92.5421 42.3488 92.646 43.8557 91.6067 45.7784C90.9312 47.1294 89.5802 47.701 88.385 48.1167C85.3711 41.2576 86.8781 36.9446 89.8919 35.3857C88.9046 33.2033 88.8527 32.4238 88.8527 32.4238C88.8527 32.4238 95.2442 33.5151 97.4266 33.0474C100.233 32.4758 104.494 33.1513 106.104 36.8407C108.755 37.88 109.794 39.5948 110.054 41.3615C110.469 44.2715 108.807 47.4412 108.495 48.6883Z" fill="#464D60"/>
<path opacity="0.1" d="M117.329 78.3593C118.939 75.8651 118.316 73.5268 115.718 70.7727C119.979 72.4875 120.706 72.9552 121.07 75.8131C121.278 77.1122 120.239 78.3074 118.888 78.3074H117.329V78.3593Z" fill="#9AA2B2"/>
<path d="M106.052 66.3039V67.4991H90.6191V65.9402C90.9829 65.1088 90.879 65.1607 90.879 58.4575C90.775 58.3535 90.6711 58.1976 90.6191 58.0937V57.73C90.9309 58.3016 91.3986 58.8212 91.8663 59.2369L96.6988 62.6145C97.842 63.5499 99.4529 63.6018 100.596 62.6665L105.117 58.6134C105.273 58.4575 105.429 58.3535 105.585 58.1977C105.533 58.6653 105.533 59.5487 105.533 64.6411C105.585 65.2127 105.74 65.7843 106.052 66.3039Z" fill="url(#paint0_linear)"/>
<path d="M39.4354 66.7717C36.9412 66.7197 36.6814 66.252 36.6814 66.252V62.095C39.3315 59.9125 41.5659 57.3663 42.1895 54.0407C43.8523 53.6769 44.8916 52.17 44.7357 50.5071C44.6837 49.7797 44.2161 49.1041 44.1641 48.3247C44.1641 47.9609 44.1641 47.5972 44.1641 47.2335C44.1641 46.9736 44.1641 46.7658 44.1121 46.506C44.1121 46.2462 44.0602 45.9863 44.0602 45.7265C43.9043 44.4794 43.5925 43.1803 42.7611 41.6734C40.6826 37.7761 36.5775 35.178 31.9527 35.178C31.0174 35.178 30.082 35.2819 29.1987 35.4898C27.5358 35.8535 26.0289 36.581 24.6779 37.6203C24.418 37.8281 24.1582 38.036 23.8984 38.2438C23.8464 38.2958 23.7945 38.3477 23.6906 38.3997C22.2356 39.7507 21.0924 41.4655 20.4688 43.3882C19.8453 45.3108 19.6894 47.2854 19.9492 49.26C19.9492 49.312 19.9492 49.364 19.9492 49.4159C19.9492 49.4679 19.9492 49.5198 19.9492 49.5718C20.0012 49.9356 20.1051 49.8836 19.8453 50.1954C19.7933 50.2993 19.6894 50.4032 19.6374 50.5591C19.3256 51.1307 19.0658 51.9102 19.4296 52.8455C20.0531 54.6122 21.3002 54.3524 22.4434 55.3397C22.3915 55.3917 22.2875 55.4437 22.2356 55.4437H22.1836L20.8845 55.8594C13.09 58.3016 12.2067 66.5638 20.209 68.0707C19.6374 68.1227 19.1178 68.4345 18.754 68.6943C16.2078 70.6689 14.597 73.6828 14.1813 76.6447C14.0254 77.5281 14.7529 78.3595 15.6882 78.3595H28.0555C28.3153 78.3595 28.5751 78.1516 28.679 77.8918C29.8222 73.7347 32.4204 72.2798 37.8246 70.0973L40.9424 68.8502C41.462 68.6423 42.0336 68.4345 42.6572 68.1747C43.2288 67.9668 43.1768 67.1354 42.5532 66.9795C41.9297 66.8236 41.3061 66.7717 40.6826 66.7197C40.1629 66.7717 39.7472 66.7717 39.4354 66.7717ZM23.5866 61.4714C23.5866 60.9518 23.9504 60.3802 24.7298 59.7566C25.0416 60.1723 25.4573 60.64 25.925 61.0557C26.2887 61.3675 26.6525 61.6793 27.0682 61.991C27.328 62.1469 27.5878 62.3548 27.8476 62.5626C27.8996 62.6146 27.9515 62.6666 28.0035 62.6666C28.0555 62.7185 28.1594 62.7705 28.2114 62.8224V65.3686C28.1594 65.3167 28.1074 65.2647 28.0555 65.2647C27.7957 65.0569 27.5878 64.849 27.38 64.6931C27.0162 64.4333 26.6525 64.2255 26.2887 64.0176C26.1328 63.9137 26.0289 63.8617 25.925 63.7578C24.7298 62.9783 23.6386 62.2508 23.5866 61.4714Z" fill="#8E94A7"/>
<path d="M39.4354 66.7716C39.0197 68.2786 38.552 69.2139 38.552 69.2139L25.1455 67.0834L25.925 63.7578C26.0289 63.8617 26.1848 63.9136 26.2887 63.9656C26.6524 64.1735 27.0681 64.4333 27.3799 64.6931C27.5878 64.849 27.8476 65.0049 28.0555 65.2647C28.1074 65.3167 28.1594 65.3686 28.1594 65.3686V62.8224C28.0555 62.7705 28.0035 62.7185 27.9515 62.6665C30.134 63.7578 32.8361 64.3294 36.7333 62.043C36.6814 62.043 36.6814 62.0949 36.6294 62.0949V66.252C36.6294 66.252 36.9412 66.7197 39.4354 66.7716Z" fill="url(#paint1_linear)"/>
<path d="M44.0602 46.506C41.8258 47.2855 39.4355 47.5972 37.0452 47.3894C33.3038 47.0776 29.6664 45.5707 26.8604 43.0764C25.925 45.7785 23.5867 47.8051 20.9366 49.0003C20.5728 49.1561 20.2091 49.312 19.8453 49.416C19.8453 49.364 19.8453 49.312 19.8453 49.312C19.5855 47.3374 19.7414 45.3628 20.365 43.4402C20.9885 41.5175 22.1317 39.8027 23.5867 38.4517C23.6387 38.3997 23.6906 38.3478 23.7946 38.2958C24.0544 38.088 24.3142 37.8801 24.574 37.6723C25.925 36.685 27.4839 35.9575 29.0948 35.5418C30.0301 35.3339 30.9135 35.23 31.8489 35.23C36.4736 35.23 40.5787 37.8281 42.6572 41.7254C43.4367 43.2323 43.8004 44.5314 43.9563 45.7266C44.0602 45.9864 44.0602 46.2462 44.0602 46.506Z" fill="#464D60"/>
<path d="M24.8857 59.9124C25.1975 60.3281 25.5613 60.6918 25.873 61.0036C25.5093 60.6918 25.1456 60.3281 24.8857 59.9124Z" fill="#3973F4"/>
<path d="M29.7703 73.0592C28.783 74.3063 26.9123 74.3582 25.3534 74.3063C27.0163 72.6954 26.0809 67.4471 20.261 68.0707H20.2091C12.2067 66.5637 13.0901 58.3016 20.8326 55.8593L22.1317 55.4436C22.2356 55.4956 22.2876 55.5475 22.3396 55.6515C22.9631 57.2623 23.7945 58.6134 24.6779 59.7046C21.5082 62.3547 25.925 63.1861 28.0555 65.2127C29.9262 66.3039 31.4851 70.8767 29.7703 73.0592Z" fill="#292D35"/>
<path d="M24.8339 59.9125C24.7819 59.8605 24.73 59.8086 24.73 59.7566C24.73 59.7566 24.7819 59.8605 24.8339 59.9125Z" fill="#3973F4"/>
<path d="M99.0372 80.7497C99.297 82.6724 97.7901 84.4391 95.8155 84.4391H34.9145C32.9399 84.4391 31.433 82.6724 31.6928 80.7497C32.2644 76.7485 33.1477 75.9171 39.0716 73.5268L40.5265 72.9552C43.2806 71.864 46.866 70.5129 51.6986 68.4864C52.7899 68.0187 53.6732 67.1873 54.1409 66.0961C54.4007 65.5245 54.5566 64.849 54.5566 64.1734V55.0799C54.4007 54.872 54.2448 54.7161 54.1409 54.5083C53.3615 53.3651 52.8418 52.014 52.6859 50.559L51.9065 50.1953C49.5681 50.7669 49.776 48.2727 49.1524 43.492C48.8926 41.5174 49.2044 41.1017 50.0878 40.79L50.8153 39.8027C46.3464 29.6698 48.5808 23.3303 52.9977 21.0959C51.6467 17.8741 51.5427 16.731 51.5427 16.731C51.5427 16.731 60.9481 18.2899 64.1698 17.6663C68.2749 16.8349 74.6144 17.8222 76.9528 23.2783C80.85 24.8372 82.357 27.2795 82.7207 29.9816C83.2923 34.2426 80.85 38.9193 80.3824 40.738C80.4343 40.8419 80.4343 40.8939 80.4863 40.9458C81.1099 41.2576 81.3177 41.7773 81.1098 43.492C80.5383 48.0128 80.6941 50.8189 78.3558 50.1953L76.2773 53.8327C76.1733 54.2484 76.1733 54.4043 76.1214 54.7161C76.0175 55.3916 76.0694 56.7427 76.0694 64.1734C76.0694 65.0568 76.3292 65.9402 76.7969 66.6157C77.3165 67.3952 78.044 68.0707 78.9274 68.4344C78.9794 68.4344 78.9794 68.4344 79.0313 68.4864C84.3835 70.7208 88.2288 72.1758 91.0348 73.267C97.4263 75.7612 98.4136 76.5407 99.0372 80.7497Z" fill="#8E94A7"/>
<path d="M80.4344 40.738C80.6423 39.5948 80.1226 38.1918 79.7069 37.2045C79.655 37.0486 79.551 36.8927 79.4991 36.6849C77.6804 33.0474 73.6792 31.5925 69.8339 31.3846C60.0128 30.865 59.1295 32.7356 56.0636 29.9296C56.999 31.3846 57.1029 33.619 55.6479 36.425C54.6087 38.3996 52.6341 39.283 50.9193 39.8546C46.4504 29.7218 48.6848 23.3823 53.1017 21.1478C51.6468 17.8741 51.5428 16.731 51.5428 16.731C51.5428 16.731 60.9482 18.2899 64.1699 17.6663C68.275 16.8349 74.6145 17.8222 76.9529 23.2783C80.8501 24.8372 82.3571 27.2795 82.7208 29.9816C83.3444 34.1906 80.9021 38.8673 80.4344 40.738Z" fill="#464D60"/>
<path opacity="0.1" d="M93.529 84.3872C95.9193 80.7498 94.984 77.3202 91.1387 73.2671C97.4262 75.7613 98.4655 76.5408 99.0371 80.6978C99.2969 82.6205 97.79 84.3872 95.8154 84.3872H93.529Z" fill="#9AA2B2"/>
<path d="M76.8489 66.6156V68.3824H54.1929V66.096C54.4527 65.5244 54.6086 64.8489 54.6086 64.1733V55.0798C54.4527 54.8719 54.2968 54.716 54.1929 54.5082V53.9885C54.6605 54.8199 55.2841 55.5994 56.0635 56.2229L63.1825 61.2114C64.8453 62.6144 67.2357 62.6664 68.9504 61.3154L75.6017 55.3396C75.8096 55.1317 76.0694 54.9239 76.2773 54.716C76.1733 55.3915 76.2253 56.7426 76.2253 64.1733C76.1733 65.0567 76.4332 65.8881 76.8489 66.6156Z" fill="url(#paint2_linear)"/>
<g filter="url(#filter0_d)">
<path d="M82.979 93.9264C82.6565 95.2971 82.1728 96.7484 81.6084 97.9578C80.0764 100.941 77.6576 103.279 74.6743 104.811C71.6105 106.343 67.9822 106.988 64.3539 106.182C55.8073 104.408 50.3246 96.0228 52.0984 87.4762C53.8723 78.9296 62.177 73.3662 70.7236 75.2207C73.7874 75.8657 76.4482 77.3976 78.7057 79.494C82.4953 83.2835 84.1078 88.7662 82.979 93.9264Z" fill="url(#paint3_linear)"/>
</g>
<path d="M72.5781 89.3305H68.9498V85.7022C68.9498 84.9766 68.3854 84.3315 67.5791 84.3315C66.8535 84.3315 66.2084 84.8959 66.2084 85.7022V89.3305H62.5802C61.8545 89.3305 61.2095 89.8949 61.2095 90.7012C61.2095 91.5075 61.7739 92.0719 62.5802 92.0719H66.2084V95.7001C66.2084 96.4258 66.7728 97.0708 67.5791 97.0708C68.3048 97.0708 68.9498 96.5064 68.9498 95.7001V92.0719H72.5781C73.3037 92.0719 73.9487 91.5075 73.9487 90.7012C73.9487 89.8949 73.3037 89.3305 72.5781 89.3305Z" fill="#474E61"/>
<defs>
<filter id="filter0_d" x="47.7651" y="74.8638" width="39.5674" height="39.6672" filterUnits="userSpaceOnUse" color-interpolation-filters="sRGB">
<feFlood flood-opacity="0" result="BackgroundImageFix"/>
<feColorMatrix in="SourceAlpha" type="matrix" values="0 0 0 0 0 0 0 0 0 0 0 0 0 0 0 0 0 0 127 0" result="hardAlpha"/>
<feOffset dy="4"/>
<feGaussianBlur stdDeviation="2"/>
<feComposite in2="hardAlpha" operator="out"/>
<feColorMatrix type="matrix" values="0 0 0 0 0 0 0 0 0 0 0 0 0 0 0 0 0 0 0.25 0"/>
<feBlend mode="normal" in2="BackgroundImageFix" result="effect1_dropShadow"/>
<feBlend mode="normal" in="SourceGraphic" in2="effect1_dropShadow" result="shape"/>
</filter>
<linearGradient id="paint0_linear" x1="98.3058" y1="67.1949" x2="98.3058" y2="62.0778" gradientUnits="userSpaceOnUse">
<stop stop-color="#8E94A7"/>
<stop offset="0.9913" stop-color="#6C707C"/>
</linearGradient>
<linearGradient id="paint1_linear" x1="32.2628" y1="68.9906" x2="32.2628" y2="65.2344" gradientUnits="userSpaceOnUse">
<stop stop-color="#8E94A7"/>
<stop offset="0.9913" stop-color="#6C707C"/>
</linearGradient>
<linearGradient id="paint2_linear" x1="65.4771" y1="67.9341" x2="65.4771" y2="60.3946" gradientUnits="userSpaceOnUse">
<stop stop-color="#8E94A7"/>
<stop offset="0.9913" stop-color="#6C707C"/>
</linearGradient>
<linearGradient id="paint3_linear" x1="59.0063" y1="83.1764" x2="72.6501" y2="106.202" gradientUnits="userSpaceOnUse">
<stop stop-color="#E3EAF7"/>
<stop offset="1" stop-color="#ADB6C8"/>
</linearGradient>
</defs>
</svg>
