<svg width="110" height="136" viewBox="0 0 110 136" fill="none" xmlns="http://www.w3.org/2000/svg">
<path d="M109.779 54.9087C109.779 68.3277 104.997 80.5333 97.0022 90.0979C86.938 102.161 71.8059 109.798 54.818 109.798C38.5439 109.798 23.9829 102.732 13.9186 91.5254C5.28195 81.8181 0 68.9701 0 54.9087C0 24.5732 24.5539 0.0192871 54.8894 0.0192871C85.2249 0.0192871 109.779 24.5732 109.779 54.9087Z" fill="#2A2E37"/>
<path d="M97.0738 90.0979C87.0096 102.161 71.8775 109.798 54.8896 109.798C38.6155 109.798 24.0545 102.732 13.9902 91.5255C15.7033 90.1693 17.8446 88.9559 20.4856 87.8852L22.4842 87.1001C26.2672 85.6011 31.1922 83.7453 37.8304 80.9616C39.3293 80.3192 40.5427 79.1772 41.1851 77.6782C41.542 76.8931 41.7561 75.9652 41.7561 75.0372V62.6889C41.542 62.4034 41.3279 62.1893 41.1851 61.9038C40.1145 60.3335 39.4007 58.4776 39.1865 56.4791L38.1159 55.9794C34.9039 56.7646 35.118 53.3384 34.3329 46.7717C33.976 44.0593 34.4042 43.4883 35.6177 43.0601L36.6169 41.7039C30.4785 27.7852 33.5477 19.0772 39.6148 16.0079C37.6162 11.5825 37.4735 10.0122 37.4735 10.0122C37.4735 10.0122 50.3928 12.1535 54.8896 11.297C60.5285 10.155 69.2365 11.5111 72.4485 19.0058C77.8019 21.1471 79.9432 24.5019 80.3715 28.2135C81.1566 34.0665 77.8019 40.4905 77.1595 42.9887C77.2308 43.1314 77.3022 43.2028 77.3022 43.2742C78.1587 43.7025 78.4443 44.4162 78.1587 46.7717C77.3736 52.9816 77.5877 56.8359 74.3757 55.9794L71.5206 60.9759C71.3779 61.5469 71.3779 61.761 71.3065 62.1893C71.1637 63.1172 71.2351 64.973 71.2351 75.18C71.2351 76.3934 71.592 77.5355 72.2344 78.6061C72.9482 79.6768 73.9475 80.6047 75.2323 81.1043C75.2323 81.1043 75.3036 81.1043 75.375 81.1757C82.7269 84.245 88.0089 86.2435 91.8633 87.7425C93.8618 88.3849 95.5749 89.2414 97.0738 90.0979Z" fill="#8E94A7"/>
<path d="M77.3022 42.9173C77.5877 41.347 76.8739 39.4198 76.3029 38.0636C76.2315 37.8495 76.0887 37.6354 76.0174 37.3498C73.5191 32.3534 68.0231 30.3548 62.7411 30.0693C49.2507 29.3555 48.0373 31.9251 43.826 28.0708C45.1108 30.0693 45.2536 33.1386 43.255 36.993C41.8275 39.7053 39.1151 40.9187 36.7596 41.7039C30.6212 27.7852 33.6904 19.0772 39.7575 16.0079C37.7589 11.5825 37.6162 10.0122 37.6162 10.0122C37.6162 10.0122 50.5355 12.1535 54.961 11.297C60.5998 10.155 69.3079 11.5111 72.5199 19.0058C77.8732 21.1471 79.9431 24.5019 80.4428 28.2135C81.2279 33.9951 77.9446 40.3477 77.3022 42.9173Z" fill="#464D60"/>
<path d="M72.3771 78.4633V80.8902H41.1851V77.7496C41.5419 76.9644 41.7561 76.0365 41.7561 75.1086V62.6889C41.5419 62.4034 41.3278 62.1892 41.1851 61.9037V61.1899C41.8275 62.332 42.684 63.4027 43.7547 64.2592L53.5334 71.0401C55.8175 72.9673 59.1008 73.0386 61.4563 71.1828L70.5927 62.9744C70.8782 62.6889 71.235 62.4034 71.5206 62.1179C71.3778 63.0458 71.4492 64.9016 71.4492 75.1086C71.3778 76.322 71.7347 77.5354 72.3771 78.4633Z" fill="url(#paint0_linear)"/>
<g filter="url(#filter0_d)">
<path d="M76.7125 111.15C76.2982 112.91 75.6767 114.775 74.9516 116.329C72.9836 120.161 69.8761 123.165 66.0436 125.133C62.1074 127.101 57.4462 127.93 52.785 126.894C41.8053 124.615 34.7617 113.843 37.0405 102.863C39.3193 91.8832 49.9883 84.736 60.968 87.1184C64.9042 87.9471 68.3224 89.9151 71.2227 92.6083C76.0911 97.4766 78.1627 104.52 76.7125 111.15Z" fill="url(#paint1_linear)"/>
</g>
<path d="M63.3502 105.245H58.689V100.584C58.689 99.6517 57.964 98.823 56.9281 98.823C55.9959 98.823 55.1672 99.5481 55.1672 100.584V105.245H50.506C49.5738 105.245 48.7451 105.97 48.7451 107.006C48.7451 108.042 49.4702 108.767 50.506 108.767H55.1672V113.428C55.1672 114.36 55.8923 115.189 56.9281 115.189C57.8604 115.189 58.689 114.464 58.689 113.428V108.767H63.3502C64.2825 108.767 65.1111 108.042 65.1111 107.006C65.1111 105.97 64.2825 105.245 63.3502 105.245Z" fill="#474E61"/>
<defs>
<filter id="filter0_d" x="32.6123" y="86.6599" width="48.5547" height="48.6826" filterUnits="userSpaceOnUse" color-interpolation-filters="sRGB">
<feFlood flood-opacity="0" result="BackgroundImageFix"/>
<feColorMatrix in="SourceAlpha" type="matrix" values="0 0 0 0 0 0 0 0 0 0 0 0 0 0 0 0 0 0 127 0" result="hardAlpha"/>
<feOffset dy="4"/>
<feGaussianBlur stdDeviation="2"/>
<feComposite in2="hardAlpha" operator="out"/>
<feColorMatrix type="matrix" values="0 0 0 0 0 0 0 0 0 0 0 0 0 0 0 0 0 0 0.25 0"/>
<feBlend mode="normal" in2="BackgroundImageFix" result="effect1_dropShadow"/>
<feBlend mode="normal" in="SourceGraphic" in2="effect1_dropShadow" result="shape"/>
</filter>
<linearGradient id="paint0_linear" x1="56.7208" y1="80.2767" x2="56.7208" y2="69.9577" gradientUnits="userSpaceOnUse">
<stop stop-color="#8E94A7"/>
<stop offset="0.9913" stop-color="#6C707C"/>
</linearGradient>
<linearGradient id="paint1_linear" x1="45.9149" y1="97.3391" x2="63.443" y2="126.92" gradientUnits="userSpaceOnUse">
<stop stop-color="#E3EAF7"/>
<stop offset="1" stop-color="#ADB6C8"/>
</linearGradient>
</defs>
</svg>
