<svg width="185" height="138" viewBox="0 0 185 138" fill="none" xmlns="http://www.w3.org/2000/svg">
<g filter="url(#filter0_d)">
<path d="M114.798 88.3318H70.1555C68.2519 88.3318 66.7109 86.7909 66.7109 84.8873V23.6562C66.7109 21.7526 68.2519 20.2117 70.1555 20.2117H114.798C116.702 20.2117 118.243 21.7526 118.243 23.6562V84.8873C118.243 86.7909 116.702 88.3318 114.798 88.3318Z" fill="url(#paint0_linear)"/>
</g>
<path d="M98.2781 71.8116H86.6754C85.3837 71.8116 84.3413 70.7691 84.3413 69.4774C84.3413 68.1857 85.3837 67.1433 86.6754 67.1433H98.2781C99.5698 67.1433 100.612 68.1857 100.612 69.4774C100.612 70.7691 99.5698 71.8116 98.2781 71.8116Z" fill="#A9AFC3"/>
<path d="M103.604 76.8652H81.3277C80.6479 76.8652 80.104 76.3213 80.104 75.6414C80.104 74.9616 80.6479 74.4177 81.3277 74.4177H103.604C104.284 74.4177 104.828 74.9616 104.828 75.6414C104.828 76.2986 104.284 76.8652 103.604 76.8652Z" fill="#A9AFC3"/>
<path d="M107.705 44.5045C107.705 49.0821 105.689 53.1839 102.493 55.9712C99.8193 58.3053 96.3068 59.7103 92.477 59.7103C88.6472 59.7103 85.1347 58.3053 82.4607 55.9485C79.2654 53.1612 77.2485 49.0595 77.2485 44.4819C77.2485 36.0745 84.0696 29.2534 92.477 29.2534C100.884 29.2534 107.705 36.0972 107.705 44.5045Z" fill="#4B5161"/>
<path d="M102.493 55.9712C99.8191 58.3053 96.3066 59.7103 92.4768 59.7103C88.647 59.7103 85.1345 58.3053 82.4604 55.9486C83.5709 55.518 85.0212 54.9515 86.9701 54.1583C87.4233 53.977 87.7632 53.6371 87.9672 53.2065C88.0805 52.9572 88.1258 52.708 88.1258 52.436V48.7876C88.0578 48.7196 88.0125 48.6289 87.9672 48.5609C87.6499 48.085 87.446 47.5412 87.378 46.9746L87.0607 46.816C86.1316 47.0426 86.1996 46.0455 85.9503 44.1193C85.8597 43.3262 85.973 43.1675 86.3355 43.0316L86.6302 42.6237C84.8172 38.5446 85.7237 35.9839 87.5139 35.0774C86.9247 33.7857 86.8794 33.3098 86.8794 33.3098C86.8794 33.3098 90.6865 33.9443 91.9782 33.6951C93.6325 33.3551 96.1933 33.763 97.145 35.9612C98.7313 36.5731 99.3432 37.5928 99.4792 38.6579C99.6151 39.655 99.3205 40.7428 99.0259 41.5812C99.0033 41.6492 98.9806 41.6945 98.958 41.7399C98.958 41.7625 98.9353 41.7852 98.9353 41.8078C98.89 41.9211 98.8673 42.0118 98.822 42.1024C98.7993 42.1478 98.7993 42.1931 98.7767 42.2384C98.754 42.3291 98.7087 42.4197 98.686 42.4877C98.686 42.5103 98.686 42.5103 98.6634 42.533C98.6407 42.601 98.618 42.669 98.5954 42.737C98.5727 42.8276 98.55 42.8956 98.5274 42.9636C98.55 42.9862 98.55 43.0316 98.5727 43.0542C98.822 43.1675 98.9126 43.3941 98.822 44.0966C98.5954 45.9322 98.6634 47.0426 97.7116 46.7933L96.8731 48.2437C96.8504 48.4023 96.8278 48.493 96.8051 48.5836C96.7825 48.8555 96.7825 49.3994 96.7825 52.3907C96.7825 52.7533 96.8958 53.0932 97.0771 53.3878C97.281 53.7051 97.5756 53.977 97.9382 54.1356C97.9382 54.1356 97.9609 54.1356 97.9609 54.1583C99.9324 54.9968 101.383 55.5406 102.493 55.9712Z" fill="#A9AFC3"/>
<path d="M98.5502 42.9862C98.6182 42.533 98.4142 41.9438 98.2556 41.5586C98.2329 41.4906 98.1876 41.4226 98.1649 41.3546C97.4398 39.9043 95.8081 39.2924 94.2672 39.2018C90.3241 38.9978 89.9388 39.7457 88.7151 38.6126C89.1004 39.1791 89.123 40.1082 88.5338 41.2413C88.1259 42.0345 87.3328 42.397 86.6076 42.6237C84.7947 38.5446 85.7012 35.9839 87.4914 35.0774C86.9022 33.7857 86.8569 33.3098 86.8569 33.3098C86.8569 33.3098 90.664 33.9443 91.9557 33.6951C93.61 33.3551 96.1707 33.763 97.1225 35.9612C98.7088 36.5731 99.3207 37.5928 99.4566 38.6579C99.7286 40.3575 98.7315 42.2384 98.5502 42.9862Z" fill="#292D35"/>
<path d="M97.0995 53.4333V54.1358H87.9443V53.2067C88.0576 52.9574 88.103 52.7081 88.103 52.4362V48.7877C88.035 48.7197 87.9897 48.6291 87.9443 48.5611V48.3345C88.1483 48.6744 88.3976 48.969 88.6922 49.2409L91.5475 51.2578C92.2047 51.8243 93.1791 51.8243 93.859 51.2805L96.533 48.8783C96.6236 48.8104 96.7143 48.7197 96.8049 48.6291C96.7823 48.901 96.7823 49.4449 96.7823 52.4362C96.8276 52.7988 96.9182 53.1387 97.0995 53.4333Z" fill="url(#paint1_linear)"/>
<g filter="url(#filter1_d)">
<path d="M54.1565 77.7943H25.4445C23.541 77.7943 22 76.2534 22 74.3498V34.1938C22 32.2902 23.541 30.7493 25.4445 30.7493H54.1565C56.0601 30.7493 57.6011 32.2902 57.6011 34.1938V74.3725C57.6011 76.276 56.0601 77.7943 54.1565 77.7943Z" fill="#414758"/>
</g>
<path d="M43.8 66.3957H35.7779C34.8941 66.3957 34.1689 65.6705 34.1689 64.7867C34.1689 63.9029 34.8941 63.1777 35.7779 63.1777H43.8C44.6838 63.1777 45.409 63.9029 45.409 64.7867C45.409 65.6705 44.6838 66.3957 43.8 66.3957Z" fill="#8E94A7"/>
<path d="M47.4941 69.8854H32.107C31.6311 69.8854 31.2686 69.5002 31.2686 69.047C31.2686 68.5711 31.6538 68.2085 32.107 68.2085H47.4941C47.97 68.2085 48.3326 68.5937 48.3326 69.047C48.3326 69.5002 47.9473 69.8854 47.4941 69.8854Z" fill="#8E94A7"/>
<path d="M50.3042 47.5186C50.3042 50.6911 48.8992 53.5238 46.701 55.45C44.8428 57.059 42.4407 58.0334 39.7893 58.0334C37.1379 58.0334 34.7132 57.059 32.8776 55.45C30.6794 53.5238 29.2744 50.6911 29.2744 47.5186C29.2744 41.7172 33.988 37.0037 39.7893 37.0037C45.5906 37.0037 50.3042 41.7172 50.3042 47.5186Z" fill="#4B5161"/>
<path d="M46.7009 55.4508C44.8427 57.0598 42.4406 58.0342 39.7892 58.0342C37.1378 58.0342 34.713 57.0598 32.8774 55.4508C33.6479 55.1562 34.645 54.771 35.9821 54.2044C36.2993 54.0685 36.5259 53.8419 36.6619 53.5473C36.7299 53.3886 36.7752 53.2073 36.7752 53.0034V50.488C36.7299 50.4427 36.6846 50.3747 36.6619 50.3293C36.4353 50.0121 36.2993 49.6268 36.254 49.2416L36.0274 49.1283C35.3929 49.2869 35.4382 48.5844 35.2569 47.2701C35.1889 46.7262 35.2795 46.6129 35.5062 46.5222L35.7101 46.2503C34.4637 43.4176 35.0983 41.65 36.322 41.0382C35.9141 40.1544 35.8914 39.8145 35.8914 39.8145C35.8914 39.8145 38.5201 40.245 39.4266 40.0864C40.5823 39.8598 42.3272 40.1317 42.9844 41.65C44.0722 42.0806 44.5027 42.7831 44.5934 43.5083C44.684 44.2108 44.4801 44.9359 44.2988 45.5251C44.2761 45.5705 44.2761 45.5931 44.2535 45.6384C44.2535 45.6611 44.2308 45.6611 44.2308 45.6838C44.2081 45.7517 44.1855 45.8197 44.1628 45.8877C44.1402 45.9104 44.1402 45.9557 44.1175 45.9784C44.0948 46.0463 44.0722 46.0917 44.0495 46.1596V46.1823C44.0269 46.2276 44.0042 46.273 44.0042 46.3183C43.9815 46.3863 43.9589 46.4316 43.9589 46.4769C43.9815 46.4996 43.9815 46.5222 43.9815 46.5449C44.1628 46.6355 44.2081 46.7715 44.1402 47.2474C43.9815 48.5164 44.0269 49.2869 43.3697 49.1056L42.8031 50.1254C42.7805 50.2387 42.7578 50.284 42.7578 50.3747C42.7351 50.556 42.7352 50.9412 42.7352 53.0034C42.7352 53.2527 42.8031 53.4793 42.9391 53.6832C43.0751 53.9098 43.279 54.0911 43.5283 54.1818H43.551C44.956 54.771 45.9531 55.1562 46.7009 55.4508Z" fill="#8E94A7"/>
<path d="M44.0041 46.4761C44.0494 46.1589 43.9135 45.7736 43.8002 45.479C43.7775 45.4337 43.7548 45.3884 43.7322 45.3431C43.2336 44.346 42.1006 43.9154 41.0355 43.8701C38.3161 43.7341 38.0442 44.2553 37.2057 43.4622C37.4776 43.8701 37.5003 44.4819 37.0924 45.2751C36.7978 45.8189 36.2539 46.0682 35.778 46.2269C34.5316 43.3942 35.1662 41.6266 36.3899 41.0147C35.982 40.1309 35.9593 39.791 35.9593 39.791C35.9593 39.791 38.588 40.2216 39.4945 40.063C40.6502 39.8363 42.3952 40.1083 43.0523 41.6266C44.1401 42.0572 44.5706 42.7597 44.6613 43.4848C44.7973 44.6632 44.1174 45.9549 44.0041 46.4761Z" fill="#292D35"/>
<path d="M43.0071 53.7051V54.2037H36.6846V53.5465C36.7526 53.3879 36.7979 53.2066 36.7979 53.0026V50.4872C36.7526 50.4419 36.7072 50.3739 36.6846 50.3286V50.1926C36.8205 50.4192 37.0018 50.6459 37.2058 50.8045L39.1773 52.1868C39.6306 52.5721 40.3104 52.5947 40.7863 52.2095L42.6445 50.5552C42.7125 50.5099 42.7805 50.4419 42.8258 50.3739C42.8031 50.5552 42.8031 50.9405 42.8031 53.0026C42.8031 53.2519 42.8711 53.5012 43.0071 53.7051Z" fill="url(#paint2_linear)"/>
<g filter="url(#filter2_d)">
<path d="M158.829 77.7943H130.117C128.214 77.7943 126.673 76.2534 126.673 74.3498V34.1938C126.673 32.2902 128.214 30.7493 130.117 30.7493H158.829C160.733 30.7493 162.274 32.2902 162.274 34.1938V74.3725C162.274 76.276 160.733 77.7943 158.829 77.7943Z" fill="#414758"/>
</g>
<path d="M148.473 66.3957H140.451C139.567 66.3957 138.842 65.6705 138.842 64.7867C138.842 63.9029 139.567 63.1777 140.451 63.1777H148.473C149.357 63.1777 150.082 63.9029 150.082 64.7867C150.105 65.6705 149.38 66.3957 148.473 66.3957Z" fill="#8E94A7"/>
<path d="M152.167 69.8854H136.78C136.304 69.8854 135.941 69.5002 135.941 69.047C135.941 68.5711 136.327 68.2085 136.78 68.2085H152.167C152.643 68.2085 153.005 68.5937 153.005 69.047C153.005 69.5002 152.643 69.8854 152.167 69.8854Z" fill="#8E94A7"/>
<path d="M155 47.5186C155 50.6911 153.594 53.5238 151.396 55.45C149.538 57.059 147.136 58.0334 144.485 58.0334C141.833 58.0334 139.408 57.059 137.573 55.45C135.375 53.5238 133.97 50.6911 133.97 47.5186C133.97 41.7172 138.683 37.0037 144.485 37.0037C150.286 37.0037 155 41.7172 155 47.5186Z" fill="#4B5161"/>
<path d="M151.397 55.4508C149.538 57.0598 147.136 58.0342 144.485 58.0342C141.834 58.0342 139.409 57.0598 137.573 55.4508C138.344 55.1562 139.341 54.771 140.678 54.2044C140.995 54.0685 141.222 53.8419 141.358 53.5473C141.426 53.3886 141.471 53.2073 141.471 53.0034V50.488C141.426 50.4427 141.38 50.3747 141.358 50.3293C141.131 50.0121 140.995 49.6268 140.95 49.2416L140.723 49.1283C140.089 49.2869 140.134 48.5844 139.953 47.2701C139.885 46.7262 139.975 46.6129 140.202 46.5222L140.406 46.2503C139.16 43.4176 139.794 41.65 141.018 41.0382C140.61 40.1544 140.587 39.8145 140.587 39.8145C140.587 39.8145 143.216 40.245 144.122 40.0864C145.278 39.8598 147.023 40.1317 147.68 41.65C148.768 42.0806 149.199 42.7831 149.289 43.5083C149.38 44.2108 149.176 44.9359 148.995 45.5251C148.972 45.5705 148.972 45.5931 148.949 45.6384C148.949 45.6611 148.927 45.6611 148.927 45.6838C148.904 45.7517 148.881 45.8197 148.859 45.8877C148.836 45.9104 148.836 45.9557 148.813 45.9784C148.791 46.0463 148.768 46.0917 148.745 46.1596V46.1823C148.723 46.2276 148.7 46.273 148.7 46.3183C148.677 46.3863 148.655 46.4316 148.655 46.4769C148.677 46.4996 148.677 46.5222 148.677 46.5449C148.859 46.6355 148.904 46.7715 148.836 47.2474C148.677 48.5164 148.723 49.2869 148.065 49.1056L147.499 50.1254C147.476 50.2387 147.454 50.284 147.454 50.3747C147.431 50.556 147.431 50.9412 147.431 53.0034C147.431 53.2527 147.499 53.4793 147.635 53.6832C147.771 53.9098 147.975 54.0911 148.224 54.1818H148.247C149.629 54.771 150.626 55.1562 151.397 55.4508Z" fill="#8E94A7"/>
<path d="M148.677 46.4761C148.723 46.1589 148.587 45.7736 148.473 45.479C148.451 45.4337 148.428 45.3884 148.406 45.3431C147.907 44.346 146.774 43.9154 145.709 43.8701C142.989 43.7341 142.718 44.2553 141.879 43.4622C142.151 43.8701 142.174 44.4819 141.766 45.2751C141.471 45.8189 140.927 46.0682 140.451 46.2269C139.205 43.3942 139.84 41.6266 141.063 41.0147C140.655 40.1309 140.633 39.791 140.633 39.791C140.633 39.791 143.261 40.2216 144.168 40.063C145.324 39.8363 147.068 40.1083 147.726 41.6266C148.813 42.0572 149.244 42.7597 149.335 43.4848C149.471 44.6632 148.813 45.9549 148.677 46.4761Z" fill="#292D35"/>
<path d="M147.68 53.7051V54.2037H141.357V53.5465C141.425 53.3879 141.471 53.2066 141.471 53.0026V50.4872C141.425 50.4419 141.38 50.3739 141.357 50.3286V50.1926C141.493 50.4192 141.675 50.6459 141.879 50.8045L143.85 52.1868C144.303 52.5721 144.983 52.5947 145.459 52.2095L147.317 50.5552C147.385 50.5099 147.453 50.4419 147.499 50.3739C147.476 50.5552 147.476 50.9405 147.476 53.0026C147.476 53.2519 147.544 53.5012 147.68 53.7051Z" fill="url(#paint3_linear)"/>
<path d="M153.459 121.01L124.792 92.3655L131.364 85.7937L160.008 114.46L153.459 121.01Z" fill="#858B9B"/>
<path d="M167.736 135.4L145.754 113.418C143.919 111.582 143.919 108.591 145.754 106.756C147.59 104.92 150.581 104.92 152.417 106.756L174.398 128.737C176.234 130.573 176.234 133.564 174.398 135.4C172.563 137.235 169.571 137.235 167.736 135.4Z" fill="#858B9B"/>
<path d="M166.172 136.805L137.89 108.523C137.233 107.866 137.233 106.801 137.89 106.121L145.119 98.8921C145.777 98.2349 146.842 98.2349 147.521 98.8921L175.803 127.173C176.46 127.831 176.46 128.896 175.803 129.576L168.574 136.805C167.894 137.462 166.829 137.462 166.172 136.805Z" fill="url(#paint4_linear)"/>
<path d="M92.3409 0.0656738C62.3372 0.0656738 38.0215 24.3814 38.0215 54.385C38.0215 84.3661 62.3372 108.704 92.3182 108.704C122.322 108.704 146.638 84.3887 146.638 54.385C146.638 24.3814 122.322 0.0656738 92.3409 0.0656738ZM92.3409 98.6428C68.2518 98.6428 48.7403 78.814 48.7403 54.3624C48.7403 29.9107 68.2518 10.1047 92.3409 10.1047C116.43 10.1047 135.941 29.9334 135.941 54.385C135.941 78.8367 116.407 98.6428 92.3409 98.6428Z" fill="url(#paint5_linear)"/>
<defs>
<filter id="filter0_d" x="44.7109" y="9.21167" width="95.5322" height="112.12" filterUnits="userSpaceOnUse" color-interpolation-filters="sRGB">
<feFlood flood-opacity="0" result="BackgroundImageFix"/>
<feColorMatrix in="SourceAlpha" type="matrix" values="0 0 0 0 0 0 0 0 0 0 0 0 0 0 0 0 0 0 127 0" result="hardAlpha"/>
<feOffset dy="11"/>
<feGaussianBlur stdDeviation="11"/>
<feColorMatrix type="matrix" values="0 0 0 0 0 0 0 0 0 0 0 0 0 0 0 0 0 0 0.27 0"/>
<feBlend mode="normal" in2="BackgroundImageFix" result="effect1_dropShadow"/>
<feBlend mode="normal" in="SourceGraphic" in2="effect1_dropShadow" result="shape"/>
</filter>
<filter id="filter1_d" x="0" y="19.7493" width="79.6011" height="91.0452" filterUnits="userSpaceOnUse" color-interpolation-filters="sRGB">
<feFlood flood-opacity="0" result="BackgroundImageFix"/>
<feColorMatrix in="SourceAlpha" type="matrix" values="0 0 0 0 0 0 0 0 0 0 0 0 0 0 0 0 0 0 127 0" result="hardAlpha"/>
<feOffset dy="11"/>
<feGaussianBlur stdDeviation="11"/>
<feColorMatrix type="matrix" values="0 0 0 0 0 0 0 0 0 0 0 0 0 0 0 0 0 0 0.27 0"/>
<feBlend mode="normal" in2="BackgroundImageFix" result="effect1_dropShadow"/>
<feBlend mode="normal" in="SourceGraphic" in2="effect1_dropShadow" result="shape"/>
</filter>
<filter id="filter2_d" x="104.673" y="19.7493" width="79.6011" height="91.0452" filterUnits="userSpaceOnUse" color-interpolation-filters="sRGB">
<feFlood flood-opacity="0" result="BackgroundImageFix"/>
<feColorMatrix in="SourceAlpha" type="matrix" values="0 0 0 0 0 0 0 0 0 0 0 0 0 0 0 0 0 0 127 0" result="hardAlpha"/>
<feOffset dy="11"/>
<feGaussianBlur stdDeviation="11"/>
<feColorMatrix type="matrix" values="0 0 0 0 0 0 0 0 0 0 0 0 0 0 0 0 0 0 0.27 0"/>
<feBlend mode="normal" in2="BackgroundImageFix" result="effect1_dropShadow"/>
<feBlend mode="normal" in="SourceGraphic" in2="effect1_dropShadow" result="shape"/>
</filter>
<linearGradient id="paint0_linear" x1="92.4602" y1="18.636" x2="92.4602" y2="89.0662" gradientUnits="userSpaceOnUse">
<stop stop-color="#5C6479"/>
<stop offset="0.9964" stop-color="#5C6479"/>
</linearGradient>
<linearGradient id="paint1_linear" x1="92.5042" y1="53.9551" x2="92.5042" y2="50.9164" gradientUnits="userSpaceOnUse">
<stop stop-color="#8E94A7"/>
<stop offset="0.9913" stop-color="#6C707C"/>
</linearGradient>
<linearGradient id="paint2_linear" x1="39.8336" y1="54.0788" x2="39.8336" y2="51.9778" gradientUnits="userSpaceOnUse">
<stop stop-color="#8E94A7"/>
<stop offset="0.9913" stop-color="#6C707C"/>
</linearGradient>
<linearGradient id="paint3_linear" x1="144.506" y1="54.0788" x2="144.506" y2="51.9778" gradientUnits="userSpaceOnUse">
<stop stop-color="#8E94A7"/>
<stop offset="0.9913" stop-color="#6C707C"/>
</linearGradient>
<linearGradient id="paint4_linear" x1="137.38" y1="117.853" x2="176.303" y2="117.853" gradientUnits="userSpaceOnUse">
<stop stop-color="#B0BACC"/>
<stop offset="1" stop-color="#969EAE"/>
</linearGradient>
<linearGradient id="paint5_linear" x1="37.9717" y1="54.3969" x2="146.657" y2="54.3969" gradientUnits="userSpaceOnUse">
<stop stop-color="#B0BACC"/>
<stop offset="1" stop-color="#969EAE"/>
</linearGradient>
</defs>
</svg>
