<svg width="153" height="137" viewBox="0 0 153 137" fill="none" xmlns="http://www.w3.org/2000/svg">
<path d="M79.7 109.227C107.7 109.227 130.4 86.527 130.4 58.427C130.4 30.327 107.7 7.62695 79.7 7.62695C51.7 7.62695 29 30.327 29 58.427C29 86.527 51.7 109.227 79.7 109.227Z" fill="#2A2E37"/>
<path d="M136.2 37.5269C138.464 37.5269 140.3 35.6913 140.3 33.4269C140.3 31.1625 138.464 29.3269 136.2 29.3269C133.936 29.3269 132.1 31.1625 132.1 33.4269C132.1 35.6913 133.936 37.5269 136.2 37.5269Z" fill="#2A2E37"/>
<path d="M142.2 21.4269C143.746 21.4269 145 20.1733 145 18.6269C145 17.0805 143.746 15.8269 142.2 15.8269C140.654 15.8269 139.4 17.0805 139.4 18.6269C139.4 20.1733 140.654 21.4269 142.2 21.4269Z" fill="#2A2E37"/>
<path d="M25.5002 40.4269C27.0466 40.4269 28.3002 39.1733 28.3002 37.6269C28.3002 36.0805 27.0466 34.8269 25.5002 34.8269C23.9538 34.8269 22.7002 36.0805 22.7002 37.6269C22.7002 39.1733 23.9538 40.4269 25.5002 40.4269Z" fill="#2A2E37"/>
<path d="M30.7 101.327C33.5719 101.327 35.9 98.9989 35.9 96.127C35.9 93.2551 33.5719 90.927 30.7 90.927C27.8281 90.927 25.5 93.2551 25.5 96.127C25.5 98.9989 27.8281 101.327 30.7 101.327Z" fill="#2A2E37"/>
<g filter="url(#filter0_d)">
<path d="M126.7 38.1269H40.0001C38.1001 38.1269 36.6001 36.6269 36.6001 34.7269V15.2269C36.6001 13.3269 38.1001 11.8269 40.0001 11.8269H126.6C128.5 11.8269 130 13.3269 130 15.2269V34.7269C130.1 36.6269 128.5 38.1269 126.7 38.1269Z" fill="url(#paint0_linear)"/>
</g>
<path d="M57.6001 24.927C57.6001 27.127 56.6001 29.127 55.1001 30.527C53.8001 31.727 52.0001 32.427 50.1001 32.427C48.2001 32.427 46.4001 31.727 45.1001 30.527C43.5001 29.127 42.6001 27.127 42.6001 24.927C42.6001 20.827 46.0001 17.427 50.1001 17.427C54.2001 17.427 57.6001 20.827 57.6001 24.927Z" fill="#484D5B"/>
<path d="M55.1001 30.5269C53.8001 31.7269 52.0001 32.4269 50.1001 32.4269C48.2001 32.4269 46.4001 31.7269 45.1001 30.5269C45.7001 30.3269 46.4001 30.0269 47.3001 29.6269C47.5001 29.5269 47.7001 29.3269 47.8001 29.1269C47.9001 29.0269 47.9001 28.8269 47.9001 28.7269V26.8269L47.8001 26.7269C47.6001 26.5269 47.5001 26.2269 47.5001 25.9269L47.3001 25.8269C46.8001 25.9269 46.9001 25.4269 46.7001 24.4269C46.7001 24.0269 46.7001 23.9269 46.9001 23.8269L47.1001 23.6269C46.2001 21.5269 46.6001 20.2269 47.6001 19.7269C47.3001 19.0269 47.3001 18.8269 47.3001 18.8269C47.3001 18.8269 49.3001 19.1269 49.9001 19.0269C50.8001 18.8269 52.1001 19.0269 52.6001 20.2269C53.4001 20.5269 53.7001 21.0269 53.8001 21.6269C53.9001 22.5269 53.4001 23.5269 53.3001 23.8269C53.4001 23.9269 53.5001 24.0269 53.4001 24.3269C53.3001 25.2269 53.3001 25.8269 52.8001 25.7269L52.4001 26.6269C52.4001 26.7269 52.4001 26.7269 52.4001 26.8269C52.4001 26.9269 52.4001 27.2269 52.4001 28.8269C52.4001 29.0269 52.5001 29.2269 52.5001 29.3269C52.6001 29.5269 52.8001 29.6269 52.9001 29.7269C53.8001 30.0269 54.5001 30.3269 55.1001 30.5269Z" fill="#8E94A7"/>
<path d="M53.3265 23.9269C53.3265 23.7188 53.2224 23.4065 53.1183 23.1983V23.0943C52.702 22.2616 51.8693 21.9494 51.0367 21.9494C48.955 21.8453 48.7469 22.2616 48.0183 21.6371C48.2265 21.9494 48.2265 22.4698 47.9142 23.0943C47.7061 23.5106 47.2897 23.7188 46.8734 23.8228C45.9367 21.6371 46.353 20.2841 47.3938 19.7636C47.0816 19.0351 47.0816 18.8269 47.0816 18.8269C47.0816 18.8269 49.1632 19.1392 49.7877 19.0351C50.7244 18.8269 52.0775 19.0351 52.5979 20.2841C53.4306 20.5963 53.7428 21.1167 53.8469 21.7412C53.951 22.4698 53.4306 23.5106 53.3265 23.9269Z" fill="#2A2E37"/>
<path d="M52.5003 29.3268V29.7268H47.8003V29.2268C47.9003 29.1268 47.9003 28.9268 47.9003 28.8268V26.9268L47.8003 26.8268V26.7268C47.9003 26.9268 48.0003 27.0268 48.2003 27.2268L49.7003 28.2268C50.0003 28.5268 50.5003 28.5268 50.9003 28.2268L52.3003 27.0268L52.4003 26.9268C52.4003 27.0268 52.4003 27.3268 52.4003 28.9268C52.3003 29.0268 52.4003 29.1268 52.5003 29.3268Z" fill="url(#paint1_linear)"/>
<path d="M82.2002 22.727H63.0002C62.5002 22.727 62.2002 22.327 62.2002 21.927V19.427C62.2002 18.927 62.6002 18.627 63.0002 18.627H82.2002C82.7002 18.627 83.0002 19.027 83.0002 19.427V21.927C83.0002 22.427 82.7002 22.727 82.2002 22.727Z" fill="#484D5B"/>
<path d="M105 31.227H63.0002C62.5002 31.227 62.2002 30.827 62.2002 30.427V27.927C62.2002 27.427 62.6002 27.127 63.0002 27.127H105C105.5 27.127 105.8 27.527 105.8 27.927V30.427C105.8 30.927 105.4 31.227 105 31.227Z" fill="#484D5B"/>
<g filter="url(#filter1_d)">
<path d="M126.7 103.727H40.0001C38.1001 103.727 36.6001 102.227 36.6001 100.327V80.827C36.6001 78.927 38.1001 77.427 40.0001 77.427H126.6C128.5 77.427 130 78.927 130 80.827V100.327C130.1 102.227 128.5 103.727 126.7 103.727Z" fill="url(#paint2_linear)"/>
</g>
<path d="M57.6001 90.5271C57.6001 92.7271 56.6001 94.7271 55.1001 96.1271C53.8001 97.3271 52.0001 98.0271 50.1001 98.0271C48.2001 98.0271 46.4001 97.3271 45.1001 96.1271C43.5001 94.7271 42.6001 92.7271 42.6001 90.5271C42.6001 86.4271 46.0001 83.0271 50.1001 83.0271C54.2001 83.0271 57.6001 86.4271 57.6001 90.5271Z" fill="#484D5B"/>
<path d="M55.1001 96.127C53.8001 97.327 52.0001 98.027 50.1001 98.027C48.2001 98.027 46.4001 97.327 45.1001 96.127C45.7001 95.927 46.4001 95.627 47.3001 95.227C47.5001 95.127 47.7001 94.927 47.8001 94.727C47.9001 94.627 47.9001 94.427 47.9001 94.327V92.427L47.8001 92.327C47.6001 92.127 47.5001 91.827 47.5001 91.527L47.3001 91.427C46.8001 91.527 46.9001 91.027 46.7001 90.027C46.7001 89.627 46.7001 89.527 46.9001 89.427L47.1001 89.227C46.2001 87.127 46.6001 85.827 47.6001 85.327C47.3001 84.627 47.3001 84.427 47.3001 84.427C47.3001 84.427 49.3001 84.727 49.9001 84.627C50.8001 84.427 52.1001 84.627 52.6001 85.827C53.4001 86.127 53.7001 86.627 53.8001 87.227C53.9001 88.127 53.4001 89.127 53.3001 89.427C53.4001 89.527 53.5001 89.627 53.4001 89.927C53.3001 90.827 53.3001 91.427 52.8001 91.327L52.4001 92.127C52.4001 92.227 52.4001 92.227 52.4001 92.327C52.4001 92.427 52.4001 92.727 52.4001 94.327C52.4001 94.527 52.5001 94.727 52.5001 94.827C52.6001 95.027 52.8001 95.127 52.9001 95.227C53.8001 95.727 54.5001 95.927 55.1001 96.127Z" fill="#8E94A7"/>
<path d="M53.3265 89.527C53.3265 89.3189 53.2224 89.0066 53.1183 88.7984V88.6944C52.702 87.8617 51.8693 87.5495 51.0367 87.5495C48.955 87.4454 48.7469 87.8617 48.0183 87.2372C48.2265 87.5495 48.2265 88.0699 47.9142 88.6944C47.7061 89.1107 47.2897 89.3189 46.8734 89.4229C45.9367 87.2372 46.353 85.8841 47.3938 85.3637C47.0816 84.6352 47.0816 84.427 47.0816 84.427C47.0816 84.427 49.1632 84.7392 49.7877 84.6352C50.7244 84.427 52.0775 84.6352 52.5979 85.8841C53.4306 86.1964 53.7428 86.7168 53.8469 87.3413C53.951 88.174 53.4306 89.1107 53.3265 89.527Z" fill="#2A2E37"/>
<path d="M52.5003 94.9269V95.3269H47.8003V94.8269C47.9003 94.7269 47.9003 94.5269 47.9003 94.4269V92.5269L47.8003 92.4269V92.3269C47.9003 92.5269 48.0003 92.6269 48.2003 92.8269L49.7003 93.8269C50.0003 94.1269 50.5003 94.1269 50.9003 93.8269L52.3003 92.6269L52.4003 92.5269C52.4003 92.6269 52.4003 92.9269 52.4003 94.5269C52.3003 94.6269 52.4003 94.8269 52.5003 94.9269Z" fill="url(#paint3_linear)"/>
<path d="M82.2002 88.4269H63.0002C62.5002 88.4269 62.2002 88.0269 62.2002 87.6269V85.1269C62.2002 84.6269 62.6002 84.3269 63.0002 84.3269H82.2002C82.7002 84.3269 83.0002 84.7269 83.0002 85.1269V87.6269C83.0002 88.0269 82.7002 88.4269 82.2002 88.4269Z" fill="#484D5B"/>
<path d="M105 96.9269H63.0002C62.5002 96.9269 62.2002 96.5269 62.2002 96.1269V93.6269C62.2002 93.1269 62.6002 92.8269 63.0002 92.8269H105C105.5 92.8269 105.8 93.2269 105.8 93.6269V96.1269C105.8 96.5269 105.4 96.9269 105 96.9269Z" fill="#484D5B"/>
<g filter="url(#filter2_d)">
<path d="M112 70.927H25.4C23.5 70.927 22 69.427 22 67.527V48.027C22 46.127 23.5 44.627 25.4 44.627H112C113.9 44.627 115.4 46.127 115.4 48.027V67.527C115.5 69.427 113.9 70.927 112 70.927Z" fill="url(#paint4_linear)"/>
</g>
<path d="M67.6001 55.527H48.4001C47.9001 55.527 47.6001 55.127 47.6001 54.727V52.227C47.6001 51.727 48.0001 51.427 48.4001 51.427H67.6001C68.1001 51.427 68.4001 51.827 68.4001 52.227V54.727C68.4001 55.227 68.1001 55.527 67.6001 55.527Z" fill="#484D5B"/>
<path d="M90.4001 64.1269H48.4001C47.9001 64.1269 47.6001 63.7269 47.6001 63.3269V60.8269C47.6001 60.3269 48.0001 60.0269 48.4001 60.0269H90.3001C90.8001 60.0269 91.1001 60.4269 91.1001 60.8269V63.3269C91.2001 63.7269 90.8001 64.1269 90.4001 64.1269Z" fill="#484D5B"/>
<path d="M43.1 57.7271C43.1 59.8271 42.2 61.7271 40.8 63.1271C40.7 63.2271 40.7 63.2271 40.6 63.3271C39.3 64.5271 37.5 65.2271 35.6 65.2271C33.7 65.2271 32 64.5271 30.7 63.4271C30.7 63.4271 30.7 63.4271 30.6 63.4271C29 62.0271 28 60.0271 28 57.7271C28 53.6271 31.4 50.2271 35.5 50.2271C39.7 50.2271 43.1 53.6271 43.1 57.7271Z" fill="#484D5B"/>
<path d="M40.7707 63.2792C40.4665 62.5693 39.9594 61.9608 39.1482 61.5552C38.7425 61.3524 38.4383 61.251 37.9312 61.251H37.627C36.9171 61.251 36.8157 61.1496 36.8157 61.1496V59.9326C37.627 59.3242 38.2355 58.5129 38.4383 57.6002C38.9453 57.4988 39.2496 57.0932 39.1482 56.5861C39.1482 56.3833 38.9453 56.1805 38.9453 55.9777C38.9453 55.8762 38.9453 55.7748 38.9453 55.6734C38.9453 55.572 38.9453 55.572 38.9453 55.4706C38.9453 55.3692 38.9453 55.3692 38.9453 55.2678C38.9453 54.8621 38.8439 54.5579 38.5397 54.1523C37.9312 53.0368 36.7143 52.3269 35.396 52.3269C35.0918 52.3269 34.8889 52.3269 34.5847 52.4283C34.0777 52.5297 33.672 52.7325 33.2664 53.0368C33.165 53.1382 33.165 53.1382 33.0636 53.2396C33.0636 53.2396 33.0636 53.2396 32.9622 53.341C32.5565 53.7466 32.2523 54.2537 32.0495 54.7607C31.8466 55.2678 31.8466 55.8762 31.8466 56.4847C31.8466 56.4847 31.8466 56.4847 31.8466 56.5861C31.8466 56.6875 31.8466 56.6875 31.8466 56.7889C31.8466 56.7889 31.8466 56.8903 31.7452 56.8903C31.9481 56.6875 31.8466 56.9918 31.9481 57.1946C32.1509 57.7016 32.4551 57.6002 32.8607 57.9044C32.8607 57.9044 32.8607 57.9044 32.7593 57.9044L32.3537 58.0059C30.1227 58.7157 29.9199 61.0481 32.1509 61.5552C31.9481 61.6566 31.8466 61.758 31.7452 61.758C31.1368 62.2651 30.7311 62.8735 30.5283 63.482C31.8466 64.5975 33.5706 65.3074 35.4974 65.3074C37.4242 65.3074 39.2496 64.5975 40.5679 63.3806C40.6693 63.482 40.7707 63.3806 40.7707 63.2792C40.8721 63.2792 40.8721 63.2792 40.7707 63.2792ZM34.4833 60.8453C34.3819 60.7439 34.2805 60.6425 34.2805 60.6425C34.1791 60.5411 34.0777 60.5411 33.9763 60.4397C33.9763 60.4397 33.8748 60.4397 33.8748 60.3383C33.5706 60.1355 33.2664 59.9326 33.165 59.6284C33.165 59.527 33.2664 59.3242 33.4692 59.1214C33.5706 59.2228 33.672 59.3242 33.7734 59.527C33.8748 59.6284 33.9763 59.7298 34.0777 59.8312C34.1791 59.8312 34.2805 59.9326 34.2805 60.034C34.2805 60.034 34.2805 60.034 34.3819 60.034C34.3819 60.034 34.3819 60.034 34.4833 60.034V60.8453V60.8453Z" fill="#8E94A7"/>
<path d="M37.7499 61.1931C37.6499 61.5931 37.4499 61.8931 37.4499 61.8931L33.6499 61.2931L33.8499 60.2931C33.8499 60.2931 33.9499 60.2931 33.9499 60.3931C34.0499 60.4931 34.1499 60.4931 34.2499 60.5931C34.3499 60.5931 34.3499 60.6931 34.4499 60.7931V60.0931C34.4499 60.0931 34.4499 60.0931 34.3499 60.0931C34.9499 60.3931 35.7499 60.5931 36.8499 59.8931V61.0931C36.9499 61.0931 37.0499 61.1931 37.7499 61.1931Z" fill="url(#paint5_linear)"/>
<path d="M36.96 55.6155C37.6734 55.6155 38.3868 55.5136 38.9983 55.3098C38.9983 55.3098 38.9983 55.2078 39.1002 55.1059C38.9983 54.8002 38.8964 54.3925 38.6926 53.9849C38.0811 52.8638 36.8581 52.1504 35.5332 52.1504C35.2274 52.1504 34.9342 52.1722 34.5252 52.2741C33.981 52.4404 33.7284 52.5866 33.5995 52.6647C33.5995 52.6647 33.3016 52.8651 33.0872 53.0676C32.8729 53.2702 32.3738 53.9849 32.17 54.4944C31.9662 55.1059 31.8017 55.6257 31.9036 56.2372C32.0055 56.2372 32.17 56.1251 32.2719 56.1251C33.0872 55.7174 33.6987 55.2078 34.0045 54.3925C34.8198 55.1059 35.8389 55.5136 36.96 55.6155Z" fill="#2A2E37"/>
<path d="M33.5 59.2271C33.6 59.3271 33.7 59.4271 33.8 59.5271C33.7 59.4271 33.6 59.3271 33.5 59.2271Z" fill="#3973F4"/>
<path d="M34.9001 62.927C34.6001 63.327 34.1001 63.327 33.6001 63.327C34.1001 62.827 33.8001 61.327 32.2001 61.527C29.9001 61.127 30.2001 58.727 32.4001 58.027L32.8001 57.927C32.8001 57.927 32.8001 57.927 32.9001 58.027C33.1001 58.527 33.3001 58.827 33.6001 59.227C32.7001 60.027 34.0001 60.227 34.6001 60.827C35.0001 61.027 35.4001 62.327 34.9001 62.927Z" fill="#2A2E37"/>
<defs>
<filter id="filter0_d" x="14.6001" y="0.826904" width="137.404" height="70.3" filterUnits="userSpaceOnUse" color-interpolation-filters="sRGB">
<feFlood flood-opacity="0" result="BackgroundImageFix"/>
<feColorMatrix in="SourceAlpha" type="matrix" values="0 0 0 0 0 0 0 0 0 0 0 0 0 0 0 0 0 0 127 0" result="hardAlpha"/>
<feOffset dy="11"/>
<feGaussianBlur stdDeviation="11"/>
<feColorMatrix type="matrix" values="0 0 0 0 0 0 0 0 0 0 0 0 0 0 0 0 0 0 0.27 0"/>
<feBlend mode="normal" in2="BackgroundImageFix" result="effect1_dropShadow"/>
<feBlend mode="normal" in="SourceGraphic" in2="effect1_dropShadow" result="shape"/>
</filter>
<filter id="filter1_d" x="14.6001" y="66.427" width="137.404" height="70.3" filterUnits="userSpaceOnUse" color-interpolation-filters="sRGB">
<feFlood flood-opacity="0" result="BackgroundImageFix"/>
<feColorMatrix in="SourceAlpha" type="matrix" values="0 0 0 0 0 0 0 0 0 0 0 0 0 0 0 0 0 0 127 0" result="hardAlpha"/>
<feOffset dy="11"/>
<feGaussianBlur stdDeviation="11"/>
<feColorMatrix type="matrix" values="0 0 0 0 0 0 0 0 0 0 0 0 0 0 0 0 0 0 0.27 0"/>
<feBlend mode="normal" in2="BackgroundImageFix" result="effect1_dropShadow"/>
<feBlend mode="normal" in="SourceGraphic" in2="effect1_dropShadow" result="shape"/>
</filter>
<filter id="filter2_d" x="0" y="33.627" width="137.404" height="70.3" filterUnits="userSpaceOnUse" color-interpolation-filters="sRGB">
<feFlood flood-opacity="0" result="BackgroundImageFix"/>
<feColorMatrix in="SourceAlpha" type="matrix" values="0 0 0 0 0 0 0 0 0 0 0 0 0 0 0 0 0 0 127 0" result="hardAlpha"/>
<feOffset dy="11"/>
<feGaussianBlur stdDeviation="11"/>
<feColorMatrix type="matrix" values="0 0 0 0 0 0 0 0 0 0 0 0 0 0 0 0 0 0 0.27 0"/>
<feBlend mode="normal" in2="BackgroundImageFix" result="effect1_dropShadow"/>
<feBlend mode="normal" in="SourceGraphic" in2="effect1_dropShadow" result="shape"/>
</filter>
<linearGradient id="paint0_linear" x1="83.2719" y1="11.2186" x2="83.2719" y2="38.4104" gradientUnits="userSpaceOnUse">
<stop stop-color="#5C6479"/>
<stop offset="0.9964" stop-color="#5C6479"/>
</linearGradient>
<linearGradient id="paint1_linear" x1="50.1412" y1="29.6334" x2="50.1412" y2="28.062" gradientUnits="userSpaceOnUse">
<stop stop-color="#8E94A7"/>
<stop offset="0.9913" stop-color="#6C707C"/>
</linearGradient>
<linearGradient id="paint2_linear" x1="83.2719" y1="76.8187" x2="83.2719" y2="104.011" gradientUnits="userSpaceOnUse">
<stop stop-color="#5C6479"/>
<stop offset="0.9964" stop-color="#5C6479"/>
</linearGradient>
<linearGradient id="paint3_linear" x1="50.1412" y1="95.2335" x2="50.1412" y2="93.6621" gradientUnits="userSpaceOnUse">
<stop stop-color="#8E94A7"/>
<stop offset="0.9913" stop-color="#6C707C"/>
</linearGradient>
<linearGradient id="paint4_linear" x1="68.6718" y1="44.0186" x2="68.6718" y2="71.2105" gradientUnits="userSpaceOnUse">
<stop stop-color="#5C6479"/>
<stop offset="0.9964" stop-color="#5C6479"/>
</linearGradient>
<linearGradient id="paint5_linear" x1="35.692" y1="61.8308" x2="35.692" y2="60.7832" gradientUnits="userSpaceOnUse">
<stop stop-color="#8E94A7"/>
<stop offset="0.9913" stop-color="#6C707C"/>
</linearGradient>
</defs>
</svg>
