<svg width="139" height="119" viewBox="0 0 139 119" fill="none" xmlns="http://www.w3.org/2000/svg">
<path d="M122.1 55.383C122.1 69.583 116.3 82.383 107 91.583C97.9002 100.683 85.3002 106.183 71.4002 106.183C57.6002 106.183 45.0002 100.583 35.8002 91.583C26.5002 82.383 20.7002 69.583 20.7002 55.383C20.7002 27.283 43.4002 4.58301 71.4002 4.58301C99.4002 4.58301 122.1 27.383 122.1 55.383Z" fill="#2A2E37"/>
<path d="M117.7 22.0828C119.964 22.0828 121.8 20.2472 121.8 17.9828C121.8 15.7184 119.964 13.8828 117.7 13.8828C115.436 13.8828 113.6 15.7184 113.6 17.9828C113.6 20.2472 115.436 22.0828 117.7 22.0828Z" fill="#2A2E37"/>
<path d="M123.7 6.08291C125.246 6.08291 126.5 4.82931 126.5 3.28291C126.5 1.73651 125.246 0.48291 123.7 0.48291C122.154 0.48291 120.9 1.73651 120.9 3.28291C120.9 4.82931 122.154 6.08291 123.7 6.08291Z" fill="#2A2E37"/>
<path d="M22.3 21.9828C23.8464 21.9828 25.1 20.7292 25.1 19.1828C25.1 17.6364 23.8464 16.3828 22.3 16.3828C20.7536 16.3828 19.5 17.6364 19.5 19.1828C19.5 20.7292 20.7536 21.9828 22.3 21.9828Z" fill="#2A2E37"/>
<path d="M5.2 75.983C8.07188 75.983 10.4 73.6549 10.4 70.783C10.4 67.9111 8.07188 65.583 5.2 65.583C2.32812 65.583 0 67.9111 0 70.783C0 73.6549 2.32812 75.983 5.2 75.983Z" fill="#2A2E37"/>
<g filter="url(#filter0_d)">
<path d="M116.718 26.2657V81.6705C116.718 83.9765 114.872 85.8034 112.61 85.8034H29.1546C26.8918 85.8034 25.0161 83.9466 25.0161 81.6705V26.2657C25.0161 23.9896 26.8621 22.1328 29.1546 22.1328H112.61C114.872 22.1328 116.718 23.9896 116.718 26.2657Z" fill="url(#paint0_linear)"/>
</g>
<path d="M116.718 26.2657V32.4651H25.0161V26.2657C25.0161 23.9896 26.8621 22.1328 29.1546 22.1328H112.61C114.872 22.1328 116.718 23.9896 116.718 26.2657Z" fill="#474E61"/>
<path d="M30.7924 28.8412C31.6474 28.8412 32.3406 28.144 32.3406 27.2839C32.3406 26.4238 31.6474 25.7266 30.7924 25.7266C29.9373 25.7266 29.2441 26.4238 29.2441 27.2839C29.2441 28.144 29.9373 28.8412 30.7924 28.8412Z" fill="#989FB0"/>
<path d="M35.8539 28.8412C36.7089 28.8412 37.4021 28.144 37.4021 27.2839C37.4021 26.4238 36.7089 25.7266 35.8539 25.7266C34.9988 25.7266 34.3057 26.4238 34.3057 27.2839C34.3057 28.144 34.9988 28.8412 35.8539 28.8412Z" fill="#989FB0"/>
<path d="M40.8856 28.8412C41.7407 28.8412 42.4338 28.144 42.4338 27.2839C42.4338 26.4238 41.7407 25.7266 40.8856 25.7266C40.0306 25.7266 39.3374 26.4238 39.3374 27.2839C39.3374 28.144 40.0306 28.8412 40.8856 28.8412Z" fill="#989FB0"/>
<path opacity="0.6" d="M44.1606 70.2002H97.5742" stroke="#2A2E37" stroke-width="2" stroke-miterlimit="10" stroke-linecap="round" stroke-linejoin="round"/>
<path opacity="0.6" d="M52.5864 75.9204H89.1482" stroke="#2A2E37" stroke-width="2" stroke-miterlimit="10" stroke-linecap="round" stroke-linejoin="round"/>
<path d="M61.9353 54.0879V57.1726H60.0595V60.1375H56.5463V57.1726H48.8052V53.6386L55.9806 43.6059H60.0893V54.1178H61.9353V54.0879ZM56.5463 47.7088L52.0803 54.0879H56.5463V47.7088Z" fill="url(#paint1_linear)"/>
<path d="M70.7482 60.4669C66.9968 60.4669 63.6919 57.1726 63.6919 51.8417C63.6919 46.5109 66.967 43.2166 70.7482 43.2166C74.5294 43.2166 77.8045 46.5109 77.8045 51.8417C77.8045 57.1726 74.5294 60.4669 70.7482 60.4669ZM70.7482 57.2924C72.5048 57.2924 74.2615 55.5254 74.2615 51.8717C74.2615 48.218 72.5048 46.451 70.7482 46.451C68.9916 46.451 67.2349 48.218 67.2349 51.8717C67.2349 55.5254 68.9916 57.2924 70.7482 57.2924Z" fill="url(#paint2_linear)"/>
<path d="M92.9592 54.0879V57.1726H91.0835V60.1375H87.5702V57.1726H79.8291V53.6386L87.0045 43.6059H91.1133V54.1178H92.9592V54.0879ZM87.5405 47.7088L83.0744 54.0879H87.5405V47.7088Z" fill="url(#paint3_linear)"/>
<path d="M112.664 98.0377L92.7173 78.1067L97.2901 73.5339L117.221 93.4807L112.664 98.0377Z" fill="#858B9B"/>
<path d="M119.598 105.051L104.303 89.7554C103.025 88.4782 103.025 86.3968 104.303 85.1195C105.58 83.8423 107.661 83.8423 108.939 85.1195L124.234 100.415C125.511 101.692 125.511 103.773 124.234 105.051C122.956 106.328 120.875 106.328 119.598 105.051Z" fill="#858B9B"/>
<path d="M118.51 106.028L98.8312 86.3494C98.374 85.8921 98.374 85.151 98.8312 84.6779L103.861 79.6479C104.319 79.1906 105.06 79.1906 105.533 79.6479L125.211 99.3266C125.669 99.7839 125.669 100.525 125.211 100.998L120.181 106.028C119.708 106.485 118.967 106.485 118.51 106.028Z" fill="url(#paint4_linear)"/>
<path d="M70.1372 13.8828C49.2601 13.8828 32.3408 30.8021 32.3408 51.6792C32.3408 72.5405 49.2601 89.4756 70.1214 89.4756C90.9985 89.4756 107.918 72.5563 107.918 51.6792C107.918 30.8021 90.9985 13.8828 70.1372 13.8828ZM70.1372 82.4745C53.3756 82.4745 39.7992 68.6773 39.7992 51.6634C39.7992 34.6495 53.3756 20.8681 70.1372 20.8681C86.8988 20.8681 100.475 34.6653 100.475 51.6792C100.475 68.6931 86.883 82.4745 70.1372 82.4745Z" fill="url(#paint5_linear)"/>
<defs>
<filter id="filter0_d" x="3.01611" y="11.1328" width="135.702" height="107.671" filterUnits="userSpaceOnUse" color-interpolation-filters="sRGB">
<feFlood flood-opacity="0" result="BackgroundImageFix"/>
<feColorMatrix in="SourceAlpha" type="matrix" values="0 0 0 0 0 0 0 0 0 0 0 0 0 0 0 0 0 0 127 0" result="hardAlpha"/>
<feOffset dy="11"/>
<feGaussianBlur stdDeviation="11"/>
<feColorMatrix type="matrix" values="0 0 0 0 0 0 0 0 0 0 0 0 0 0 0 0 0 0 0.27 0"/>
<feBlend mode="normal" in2="BackgroundImageFix" result="effect1_dropShadow"/>
<feBlend mode="normal" in="SourceGraphic" in2="effect1_dropShadow" result="shape"/>
</filter>
<linearGradient id="paint0_linear" x1="70.8374" y1="20.6601" x2="70.8374" y2="86.4898" gradientUnits="userSpaceOnUse">
<stop stop-color="#5C6479"/>
<stop offset="0.9964" stop-color="#5C6479"/>
</linearGradient>
<linearGradient id="paint1_linear" x1="77.9647" y1="43.2166" x2="81.2639" y2="60.4669" gradientUnits="userSpaceOnUse">
<stop stop-color="#B0BACC"/>
<stop offset="1" stop-color="#969EAE"/>
</linearGradient>
<linearGradient id="paint2_linear" x1="77.9647" y1="43.2166" x2="81.2639" y2="60.4669" gradientUnits="userSpaceOnUse">
<stop stop-color="#B0BACC"/>
<stop offset="1" stop-color="#969EAE"/>
</linearGradient>
<linearGradient id="paint3_linear" x1="77.9647" y1="43.2166" x2="81.2639" y2="60.4669" gradientUnits="userSpaceOnUse">
<stop stop-color="#B0BACC"/>
<stop offset="1" stop-color="#969EAE"/>
</linearGradient>
<linearGradient id="paint4_linear" x1="98.4759" y1="92.8409" x2="125.559" y2="92.8409" gradientUnits="userSpaceOnUse">
<stop stop-color="#B0BACC"/>
<stop offset="1" stop-color="#969EAE"/>
</linearGradient>
<linearGradient id="paint5_linear" x1="32.3062" y1="51.6874" x2="107.932" y2="51.6874" gradientUnits="userSpaceOnUse">
<stop stop-color="#B0BACC"/>
<stop offset="1" stop-color="#969EAE"/>
</linearGradient>
</defs>
</svg>
