<svg width="136" height="128" viewBox="0 0 136 128" fill="none" xmlns="http://www.w3.org/2000/svg">
<path d="M122.1 55.4772C122.1 69.6772 116.3 82.4772 107 91.6772C97.9002 100.777 85.3002 106.277 71.4002 106.277C57.6002 106.277 45.0002 100.677 35.8002 91.6772C26.5002 82.4772 20.7002 69.6772 20.7002 55.4772C20.7002 27.3772 43.4002 4.67725 71.4002 4.67725C99.4002 4.67725 122.1 27.4772 122.1 55.4772Z" fill="#2A2E37"/>
<path d="M117.7 22.1773C119.964 22.1773 121.8 20.3417 121.8 18.0773C121.8 15.8129 119.964 13.9773 117.7 13.9773C115.436 13.9773 113.6 15.8129 113.6 18.0773C113.6 20.3417 115.436 22.1773 117.7 22.1773Z" fill="#2A2E37"/>
<path d="M123.7 6.17739C125.246 6.17739 126.5 4.92379 126.5 3.37739C126.5 1.831 125.246 0.577393 123.7 0.577393C122.154 0.577393 120.9 1.831 120.9 3.37739C120.9 4.92379 122.154 6.17739 123.7 6.17739Z" fill="#2A2E37"/>
<path d="M22.3 22.0773C23.8464 22.0773 25.1 20.8237 25.1 19.2773C25.1 17.7309 23.8464 16.4773 22.3 16.4773C20.7536 16.4773 19.5 17.7309 19.5 19.2773C19.5 20.8237 20.7536 22.0773 22.3 22.0773Z" fill="#2A2E37"/>
<path d="M5.2 76.0775C8.07188 76.0775 10.4 73.7494 10.4 70.8775C10.4 68.0056 8.07188 65.6775 5.2 65.6775C2.32812 65.6775 0 68.0056 0 70.8775C0 73.7494 2.32812 76.0775 5.2 76.0775Z" fill="#2A2E37"/>
<g filter="url(#filter0_d)">
<path d="M112.249 31.8713C110.881 29.9577 108.829 30.1278 108.102 32.4666C106.477 37.6546 101.39 39.5682 98.2692 40.036C96.4737 26.7259 85.0164 16.4775 71.165 16.4775C57.3564 16.4775 45.9419 26.6834 44.1036 39.9084C40.94 39.313 36.3229 37.3569 34.7838 32.4241C34.0571 30.0853 32.005 29.9577 30.637 31.8288C27.8582 35.656 29.0124 40.5462 30.7225 44.5435C33.2448 50.6245 38.1184 54.962 43.8471 57.8961C43.7188 65.0827 43.2058 70.9511 41.1965 78.5204C40.5125 81.1144 39.914 83.2406 39.3582 84.6439C38.9734 85.6219 38.7169 86.6 39.3155 87.578C40.3415 89.2365 42.3508 89.7468 44.1891 90.0444C45.8991 90.3421 47.3527 90.4697 48.5497 90.5122C51.4568 90.5973 52.7393 90.172 52.7393 90.172C52.7393 90.172 52.9531 90.5122 53.5088 90.98C55.0906 92.3833 59.494 95.1048 69.4122 94.7221C81.7673 94.2543 86.5127 93.0637 88.693 91.1926C88.864 91.0225 89.035 90.8949 89.1633 90.7248C90.5313 90.7248 91.7711 90.7674 92.8826 90.7674C96.7729 90.8099 99.5518 90.8949 101.775 90.087C103.528 89.4491 104.639 87.4079 103.528 85.2392C100.193 78.6905 98.483 71.4614 98.483 64.1047V58.1513C104.425 55.2171 109.556 50.8371 112.163 44.5435C113.873 40.5462 115.028 35.656 112.249 31.8713Z" fill="url(#paint0_linear)"/>
</g>
<path d="M92.9246 90.6821C91.7703 90.6821 90.5305 90.6396 89.2052 90.6396C89.077 90.8097 88.906 90.9798 88.735 91.1074C87.4952 85.6217 86.4264 80.0086 86.1699 73.1196C87.9227 79.0305 90.1458 86.0045 92.9246 90.6821Z" fill="#2A2E36"/>
<path d="M53.5085 90.9375C52.9527 90.4697 52.7389 90.1295 52.7389 90.1295C52.7389 90.1295 51.4564 90.5973 48.5493 90.4697C50.9861 86.0047 53.1664 77.6274 52.9099 72.4395C53.2947 81.5822 53.4229 87.3229 53.5085 90.9375Z" fill="#2A2E36"/>
<path d="M61.0326 47.435C63.0631 47.435 64.7091 45.7977 64.7091 43.7779C64.7091 41.7582 63.0631 40.1208 61.0326 40.1208C59.002 40.1208 57.356 41.7582 57.356 43.7779C57.356 45.7977 59.002 47.435 61.0326 47.435Z" fill="#A9AFC3"/>
<path d="M79.4153 49.3486C82.5084 49.3486 85.0157 46.8545 85.0157 43.7779C85.0157 40.7014 82.5084 38.2073 79.4153 38.2073C76.3223 38.2073 73.8149 40.7014 73.8149 43.7779C73.8149 46.8545 76.3223 49.3486 79.4153 49.3486Z" fill="#A9AFC3"/>
<path d="M80.8692 54.4941C80.8692 55.8974 75.9956 57.0456 70.0104 57.0456C63.9825 57.0456 59.1089 55.8974 59.1089 54.4941H80.8692Z" fill="#A9AFC3"/>
<path d="M72.5326 66.741C69.7538 66.741 67.5308 64.4872 67.5308 61.7656V55.8123H77.5773V61.7656C77.5773 64.4872 75.3115 66.741 72.5326 66.741Z" fill="#A9AFC3"/>
<path opacity="0.2" d="M71.1643 105.991C87.2432 105.991 100.278 103.478 100.278 100.378C100.278 97.2778 87.2432 94.7646 71.1643 94.7646C55.0853 94.7646 42.0508 97.2778 42.0508 100.378C42.0508 103.478 55.0853 105.991 71.1643 105.991Z" fill="black"/>
<defs>
<filter id="filter0_d" x="6.96533" y="5.47754" width="128.955" height="122.281" filterUnits="userSpaceOnUse" color-interpolation-filters="sRGB">
<feFlood flood-opacity="0" result="BackgroundImageFix"/>
<feColorMatrix in="SourceAlpha" type="matrix" values="0 0 0 0 0 0 0 0 0 0 0 0 0 0 0 0 0 0 127 0" result="hardAlpha"/>
<feOffset dy="11"/>
<feGaussianBlur stdDeviation="11"/>
<feColorMatrix type="matrix" values="0 0 0 0 0 0 0 0 0 0 0 0 0 0 0 0 0 0 0.27 0"/>
<feBlend mode="normal" in2="BackgroundImageFix" result="effect1_dropShadow"/>
<feBlend mode="normal" in="SourceGraphic" in2="effect1_dropShadow" result="shape"/>
</filter>
<linearGradient id="paint0_linear" x1="71.4152" y1="14.6668" x2="71.4152" y2="95.6025" gradientUnits="userSpaceOnUse">
<stop stop-color="#5C6479"/>
<stop offset="0.9964" stop-color="#5C6479"/>
</linearGradient>
</defs>
</svg>
