<svg width="143" height="161" viewBox="0 0 143 161" fill="none" xmlns="http://www.w3.org/2000/svg">
<path d="M122.1 95.1185C122.1 109.318 116.3 122.118 107 131.318C97.9002 140.418 85.3002 145.918 71.4002 145.918C57.6002 145.918 45.0002 140.318 35.8002 131.318C26.5002 122.118 20.7002 109.318 20.7002 95.1185C20.7002 67.0185 43.4002 44.3185 71.4002 44.3185C99.4002 44.3185 122.1 67.1185 122.1 95.1185Z" fill="#2A2E37"/>
<path d="M127.351 75.849C129.616 75.849 131.451 74.0134 131.451 71.749C131.451 69.4847 129.616 67.649 127.351 67.649C125.087 67.649 123.251 69.4847 123.251 71.749C123.251 74.0134 125.087 75.849 127.351 75.849Z" fill="#2A2E37"/>
<path d="M123.7 45.8185C125.246 45.8185 126.5 44.5649 126.5 43.0185C126.5 41.4721 125.246 40.2185 123.7 40.2185C122.154 40.2185 120.9 41.4721 120.9 43.0185C120.9 44.5649 122.154 45.8185 123.7 45.8185Z" fill="#2A2E37"/>
<path d="M22.3 61.7184C23.8464 61.7184 25.1 60.4648 25.1 58.9184C25.1 57.372 23.8464 56.1184 22.3 56.1184C20.7536 56.1184 19.5 57.372 19.5 58.9184C19.5 60.4648 20.7536 61.7184 22.3 61.7184Z" fill="#2A2E37"/>
<path d="M5.2 115.718C8.07188 115.718 10.4 113.39 10.4 110.518C10.4 107.647 8.07188 105.318 5.2 105.318C2.32812 105.318 0 107.647 0 110.518C0 113.39 2.32812 115.718 5.2 115.718Z" fill="#2A2E37"/>
<path d="M109.843 65.2116L105.673 95.5046L100.46 132.936C99.2433 133.632 97.8532 134.154 96.4631 134.154H36.3404C33.734 134.154 31.475 133.284 29.5636 131.891C29.0423 131.543 28.521 131.021 27.9997 130.498C25.9145 128.409 24.5244 125.275 24.5244 121.967V57.2032C24.5244 54.2435 26.9571 51.9802 29.7374 51.9802H47.9827C49.199 51.9802 50.4154 52.5025 51.458 53.5471L57.366 59.9887C58.2348 60.8592 59.4512 61.3815 60.6675 61.3815H106.368C108.453 61.3815 110.017 63.1225 109.843 65.2116Z" fill="#414758"/>
<g filter="url(#filter0_d)">
<path d="M33.3862 127.539L38.2516 71.3051C38.4254 69.2159 40.1631 67.649 42.2482 67.649H111.407C113.318 67.649 114.708 69.2159 114.534 71.131L109.669 119.008L33.3862 127.539Z" fill="url(#paint0_linear)"/>
</g>
<g filter="url(#filter1_d)">
<path d="M61.0152 121.445L35.6455 127.365L51.2843 84.3624C51.9794 82.4473 53.7171 81.2286 55.8022 81.2286H117.141C119.4 81.2286 120.964 83.666 119.921 85.7552L103.24 119.878L61.0152 121.445Z" fill="url(#paint1_linear)"/>
</g>
<path d="M125.829 99.683L102.545 131.021C102.023 131.717 101.155 132.413 100.46 132.936C99.2432 133.632 97.8531 134.154 96.463 134.154H36.3403C33.7338 134.154 31.4749 133.284 29.5635 131.891L53.8906 103.513H92.1188C93.8565 103.513 95.5941 102.991 96.9843 101.772L103.587 96.7233C104.282 96.201 104.977 95.8528 105.673 95.5046C106.541 95.1564 107.584 94.9823 108.453 94.9823H123.397C125.829 94.8082 127.219 97.7679 125.829 99.683Z" fill="#414758"/>
<path d="M112.88 58.2599L85.6024 40.5917C84.034 39.5658 83.5766 37.4803 84.5972 35.8945L101.536 9.81467C102.564 8.24677 104.652 7.788 106.238 8.80659L133.515 26.4748C135.083 27.5007 135.541 29.5863 134.52 31.172L117.589 57.2697C116.561 58.8376 114.448 59.2858 112.88 58.2599Z" fill="#2A2E37"/>
<path d="M113.907 53.3769L89.9252 37.8416C89.2475 37.4102 89.0646 36.505 89.497 35.8274L103.505 14.2636C103.937 13.5861 104.843 13.4027 105.521 13.8341L129.503 29.3694C130.18 29.8009 130.363 30.7061 129.931 31.3836L115.923 52.9474C115.491 53.6249 114.585 53.8083 113.907 53.3769Z" fill="#414758"/>
<path d="M107.698 37.757L98.9445 32.0833L106.529 29.9573L107.698 37.757Z" fill="#5C6479"/>
<path d="M114.941 42.4437L102.33 34.2836L113.25 31.2293L114.941 42.4437Z" fill="#2A2E37"/>
<path d="M105.885 26.5508C106.297 27.5568 107.447 28.0379 108.455 27.6255C109.462 27.213 109.944 26.0632 109.532 25.0572C109.12 24.0512 107.97 23.5701 106.963 23.9825C105.955 24.395 105.473 25.5448 105.885 26.5508Z" fill="#5C6479"/>
<g filter="url(#filter2_d)">
<path d="M87.7935 128.46C87.4508 129.916 86.9369 131.458 86.3372 132.743C84.7097 135.913 82.1399 138.397 78.9704 140.024C75.7153 141.652 71.8606 142.337 68.0059 141.481C58.9258 139.596 53.1009 130.687 54.9854 121.607C56.87 112.527 65.693 106.617 74.773 108.587C78.0281 109.272 80.8549 110.9 83.2534 113.127C87.2795 117.153 88.9927 122.978 87.7935 128.46Z" fill="url(#paint2_linear)"/>
</g>
<path d="M76.7432 123.578H72.8885V119.723C72.8885 118.952 72.2888 118.267 71.4322 118.267C70.6613 118.267 69.976 118.866 69.976 119.723V123.578H66.1213C65.3503 123.578 64.665 124.177 64.665 125.034C64.665 125.89 65.2647 126.49 66.1213 126.49H69.976V130.345C69.976 131.116 70.5756 131.801 71.4322 131.801C72.2032 131.801 72.8885 131.201 72.8885 130.345V126.49H76.7432C77.5141 126.49 78.1994 125.89 78.1994 125.034C78.1994 124.177 77.5141 123.578 76.7432 123.578Z" fill="#474E61"/>
<defs>
<filter id="filter0_d" x="11.3862" y="56.649" width="125.163" height="103.89" filterUnits="userSpaceOnUse" color-interpolation-filters="sRGB">
<feFlood flood-opacity="0" result="BackgroundImageFix"/>
<feColorMatrix in="SourceAlpha" type="matrix" values="0 0 0 0 0 0 0 0 0 0 0 0 0 0 0 0 0 0 127 0" result="hardAlpha"/>
<feOffset dy="11"/>
<feGaussianBlur stdDeviation="11"/>
<feColorMatrix type="matrix" values="0 0 0 0 0 0 0 0 0 0 0 0 0 0 0 0 0 0 0.67 0"/>
<feBlend mode="normal" in2="BackgroundImageFix" result="effect1_dropShadow"/>
<feBlend mode="normal" in="SourceGraphic" in2="effect1_dropShadow" result="shape"/>
</filter>
<filter id="filter1_d" x="13.6455" y="70.2286" width="128.606" height="90.1359" filterUnits="userSpaceOnUse" color-interpolation-filters="sRGB">
<feFlood flood-opacity="0" result="BackgroundImageFix"/>
<feColorMatrix in="SourceAlpha" type="matrix" values="0 0 0 0 0 0 0 0 0 0 0 0 0 0 0 0 0 0 127 0" result="hardAlpha"/>
<feOffset dy="11"/>
<feGaussianBlur stdDeviation="11"/>
<feColorMatrix type="matrix" values="0 0 0 0 0 0 0 0 0 0 0 0 0 0 0 0 0 0 0.67 0"/>
<feBlend mode="normal" in2="BackgroundImageFix" result="effect1_dropShadow"/>
<feBlend mode="normal" in="SourceGraphic" in2="effect1_dropShadow" result="shape"/>
</filter>
<filter id="filter2_d" x="50.6313" y="108.208" width="41.5381" height="41.6438" filterUnits="userSpaceOnUse" color-interpolation-filters="sRGB">
<feFlood flood-opacity="0" result="BackgroundImageFix"/>
<feColorMatrix in="SourceAlpha" type="matrix" values="0 0 0 0 0 0 0 0 0 0 0 0 0 0 0 0 0 0 127 0" result="hardAlpha"/>
<feOffset dy="4"/>
<feGaussianBlur stdDeviation="2"/>
<feComposite in2="hardAlpha" operator="out"/>
<feColorMatrix type="matrix" values="0 0 0 0 0 0 0 0 0 0 0 0 0 0 0 0 0 0 0.25 0"/>
<feBlend mode="normal" in2="BackgroundImageFix" result="effect1_dropShadow"/>
<feBlend mode="normal" in="SourceGraphic" in2="effect1_dropShadow" result="shape"/>
</filter>
<linearGradient id="paint0_linear" x1="73.9412" y1="66.2637" x2="73.9412" y2="128.184" gradientUnits="userSpaceOnUse">
<stop stop-color="#5C6479"/>
<stop offset="0.9964" stop-color="#5C6479"/>
</linearGradient>
<linearGradient id="paint1_linear" x1="77.921" y1="80.1615" x2="77.921" y2="127.862" gradientUnits="userSpaceOnUse">
<stop stop-color="#5C6479"/>
<stop offset="0.9964" stop-color="#5C6479"/>
</linearGradient>
<linearGradient id="paint2_linear" x1="62.3244" y1="117.039" x2="76.8198" y2="141.502" gradientUnits="userSpaceOnUse">
<stop stop-color="#E3EAF7"/>
<stop offset="1" stop-color="#ADB6C8"/>
</linearGradient>
</defs>
</svg>
