<svg width="173" height="120" viewBox="0 0 173 120" fill="none" xmlns="http://www.w3.org/2000/svg">
<path d="M122.347 23.9986C122.347 36.5469 112.368 46.9233 99.9548 47.6473C99.468 47.6473 98.9812 47.6473 98.4944 47.6473C94.3567 47.6473 90.219 46.4407 86.8114 44.5102C79.5095 40.4079 74.6416 32.6859 74.6416 23.7573C74.6416 17.7245 76.8322 12.1743 80.7265 8.07196C85.1076 3.24571 91.4359 0.108643 98.4944 0.108643C107.743 0.108643 115.776 5.41752 119.67 13.1395C121.374 16.5179 122.347 20.1376 122.347 23.9986Z" fill="#5E6882"/>
<path opacity="0.1" d="M122.138 23.9986C122.138 36.5469 112.159 46.9234 99.7458 47.6473C95.1213 46.9234 90.7402 45.7168 86.6024 44.7515C79.3005 40.6492 74.4326 32.9272 74.4326 23.9986C74.4326 17.9658 76.6232 12.4156 80.5175 8.31331C88.5496 8.072 97.7987 8.79594 107.291 10.4851C111.672 11.2091 115.81 12.1743 119.704 13.1396C121.165 16.5179 122.138 20.1376 122.138 23.9986Z" fill="black"/>
<path d="M151.241 39.9691C153.078 29.7349 130.428 17.1795 100.652 11.9259C70.875 6.67223 45.2471 10.7098 43.4101 20.944C41.5732 31.1782 64.2227 43.7335 93.9993 48.9872C123.776 54.2408 149.404 50.2033 151.241 39.9691Z" fill="#5E6882"/>
<path d="M93.0607 17.7696C93.1962 16.0423 90.4812 14.4242 86.9966 14.1556C83.5121 13.887 80.5775 15.0696 80.4421 16.7969C80.3066 18.5243 83.0216 20.1423 86.5061 20.4109C89.9906 20.6795 92.9252 19.497 93.0607 17.7696Z" fill="#9CA4B5"/>
<path d="M62.4352 22.2063C65.7855 21.2201 68.0984 19.0743 67.601 17.4135C67.1037 15.7527 63.9845 15.2058 60.6342 16.1919C57.2839 17.1781 54.971 19.3239 55.4684 20.9847C55.9657 22.6456 59.0849 23.1925 62.4352 22.2063Z" fill="#9CA4B5"/>
<path d="M117.676 24.1186C117.982 22.4129 115.441 20.538 112 19.9309C108.559 19.3238 105.522 20.2144 105.215 21.9201C104.909 23.6258 107.45 25.5007 110.891 26.1078C114.332 26.7149 117.37 25.8243 117.676 24.1186Z" fill="#9CA4B5"/>
<path d="M136.153 36.7361C136.954 35.1962 135.085 32.6605 131.979 31.0724C128.873 29.4844 125.705 29.4453 124.904 30.9852C124.103 32.5251 125.972 35.0608 129.079 36.6489C132.185 38.2369 135.353 38.276 136.153 36.7361Z" fill="#9CA4B5"/>
<path d="M94.2904 32.6407L71.4111 32.3994L38.8281 93.0037L130.281 102.621L120.09 40.8454L94.2904 32.6407Z" fill="url(#paint0_linear)"/>
<path opacity="0.5" d="M142.235 118.746H25.1616C28.3258 115.91 32.9503 113.075 38.305 110.948C41.2258 109.884 44.6333 108.466 48.0409 107.758C58.2635 104.922 70.6767 103.149 83.8201 103.149C99.6409 103.149 114.245 105.631 125.441 109.53C129.335 110.948 132.743 112.366 135.664 114.138C138.341 115.556 140.531 116.974 142.235 118.746Z" fill="url(#paint1_linear)"/>
<path opacity="0.3" d="M49.6624 109.472C49.8158 110.912 47.3068 112.635 44.4025 112.944C41.4982 113.254 38.9501 112.312 38.5547 110.898C41.3824 109.869 44.6685 108.548 48.0058 107.707C49.025 108.084 49.5857 108.752 49.6624 109.472Z" fill="url(#paint2_linear)"/>
<path opacity="0.3" d="M70.1903 108.458C74.0886 108.458 77.2488 107.702 77.2488 106.769C77.2488 105.836 74.0886 105.08 70.1903 105.08C66.292 105.08 63.1318 105.836 63.1318 106.769C63.1318 107.702 66.292 108.458 70.1903 108.458Z" fill="url(#paint3_linear)"/>
<path opacity="0.3" d="M108.237 108.32C108.317 107.123 105.229 105.945 101.339 105.69C97.4493 105.434 94.2312 106.197 94.1512 107.394C94.0712 108.591 97.1596 109.768 101.049 110.024C104.939 110.279 108.157 109.516 108.237 108.32Z" fill="url(#paint4_linear)"/>
<path opacity="0.3" d="M135.034 113.757C134.067 113.646 132.906 113.683 131.483 113.276C127.642 112.59 124.637 111.029 124.775 109.83C124.802 109.591 124.802 109.591 125.072 109.379C128.83 110.784 132.246 112.143 135.034 113.757Z" fill="url(#paint5_linear)"/>
<path d="M119.945 41.4689C120.769 36.8766 110.495 31.2231 96.996 28.8415C83.4972 26.4598 71.8861 28.2519 71.0618 32.8441C70.2376 37.4364 80.5122 43.0899 94.0109 45.4715C107.51 47.8532 119.121 46.0611 119.945 41.4689Z" fill="url(#paint6_linear)"/>
<path d="M32.5418 63.7085C32.5418 63.7085 24.1342 65.8432 26.682 67.5509C29.2297 69.1733 35.2595 71.991 40.9495 70.1125C46.6395 68.234 40.9495 65.587 41.0344 65.587C41.1193 65.587 32.5418 63.7085 32.5418 63.7085Z" fill="#5E6882"/>
<path d="M22.2656 63.0255C25.3229 63.9648 34.7497 62.4278 40.7794 58.5C45.5353 64.3917 47.3187 65.9287 49.0172 66.0994C46.3845 68.7464 37.6372 73.0158 32.7115 67.4656C26.9365 71.1373 22.2656 63.0255 22.2656 63.0255Z" fill="#9CA4B5"/>
<path d="M123.25 70.7114C126.478 70.8822 135.225 66.9544 139.981 61.6604C146.096 66.1859 148.134 67.2105 149.917 66.9544C147.964 70.1991 142.019 77.2862 133.611 77.7985C127.497 74.2123 123.25 70.7114 123.25 70.7114Z" fill="#9CA4B5"/>
<path d="M95.2823 70.817C94.6438 67.649 88.6609 60.1557 82.3491 56.8685C85.2089 49.8193 85.6935 47.5901 85.0012 45.9267C88.6301 47.0102 96.9747 51.0023 99.5652 59.0173C97.6151 65.8325 95.2823 70.817 95.2823 70.817Z" fill="#9CA4B5"/>
<path d="M171.152 118.746H163.761H10.5479H1" stroke="#2B323C" stroke-width="2" stroke-miterlimit="10" stroke-linecap="round" stroke-linejoin="round"/>
<g filter="url(#filter0_d)">
<path d="M67.0256 99.3576V104.184H64.1048V108.769H58.5067V104.184H46.3369V98.6337L57.5331 83.1897H64.1048V99.3576H67.0256ZM58.7501 89.4638L51.6916 99.3576H58.7501V89.4638Z" fill="url(#paint7_linear)"/>
</g>
<g filter="url(#filter1_d)">
<path d="M84.55 109.251C78.7085 109.251 73.5972 104.184 73.5972 95.9792C73.5972 87.7746 78.7085 82.707 84.55 82.707C90.3915 82.707 95.5028 87.7746 95.5028 95.9792C95.7462 103.943 90.6349 109.251 84.55 109.251ZM84.55 104.184C87.2274 104.184 90.1481 101.529 90.1481 95.7379C90.1481 90.1877 87.4708 87.292 84.55 87.292C81.8726 87.292 78.9519 89.9464 78.9519 95.7379C79.1953 101.529 81.8726 104.184 84.55 104.184Z" fill="url(#paint8_linear)"/>
</g>
<g filter="url(#filter2_d)">
<path d="M123.25 99.3576V104.184H120.329V108.769H114.731V104.184H102.562V98.6337L113.758 83.1897H120.086V99.3576H123.25ZM114.731 89.4638L107.673 99.3576H114.731V89.4638Z" fill="url(#paint9_linear)"/>
</g>
<g filter="url(#filter3_d)">
<path d="M64.8352 99.3576V104.184H61.9144V108.769H56.3163V104.184H44.1465V98.6337L55.3427 83.1897H61.671V99.3576H64.8352ZM56.5597 89.4638L49.5012 99.3576H56.5597V89.4638Z" fill="url(#paint10_linear)"/>
</g>
<g filter="url(#filter4_d)">
<path d="M82.3596 109.251C76.5181 109.251 71.4067 104.184 71.4067 95.9792C71.4067 87.7746 76.5181 82.707 82.3596 82.707C88.2011 82.707 93.3124 87.7746 93.3124 95.9792C93.5558 103.943 88.4445 109.251 82.3596 109.251ZM82.3596 104.184C85.0369 104.184 87.9577 101.529 87.9577 95.7379C87.9577 90.1877 85.2803 87.292 82.3596 87.292C79.6822 87.292 76.7615 89.9464 76.7615 95.7379C77.0049 101.529 79.6822 104.184 82.3596 104.184Z" fill="url(#paint11_linear)"/>
</g>
<g filter="url(#filter5_d)">
<path d="M121.06 99.3576V104.184H118.139V108.769H112.541V104.184H100.371V98.6337L111.567 83.1897H117.896V99.3576H121.06ZM112.541 89.4638L105.482 99.3576H112.541V89.4638Z" fill="url(#paint12_linear)"/>
</g>
<defs>
<filter id="filter0_d" x="42.3369" y="83.1897" width="28.6885" height="33.5791" filterUnits="userSpaceOnUse" color-interpolation-filters="sRGB">
<feFlood flood-opacity="0" result="BackgroundImageFix"/>
<feColorMatrix in="SourceAlpha" type="matrix" values="0 0 0 0 0 0 0 0 0 0 0 0 0 0 0 0 0 0 127 0" result="hardAlpha"/>
<feOffset dy="4"/>
<feGaussianBlur stdDeviation="2"/>
<feComposite in2="hardAlpha" operator="out"/>
<feColorMatrix type="matrix" values="0 0 0 0 0 0 0 0 0 0 0 0 0 0 0 0 0 0 0.25 0"/>
<feBlend mode="normal" in2="BackgroundImageFix" result="effect1_dropShadow"/>
<feBlend mode="normal" in="SourceGraphic" in2="effect1_dropShadow" result="shape"/>
</filter>
<filter id="filter1_d" x="69.5972" y="82.707" width="29.9141" height="34.5444" filterUnits="userSpaceOnUse" color-interpolation-filters="sRGB">
<feFlood flood-opacity="0" result="BackgroundImageFix"/>
<feColorMatrix in="SourceAlpha" type="matrix" values="0 0 0 0 0 0 0 0 0 0 0 0 0 0 0 0 0 0 127 0" result="hardAlpha"/>
<feOffset dy="4"/>
<feGaussianBlur stdDeviation="2"/>
<feComposite in2="hardAlpha" operator="out"/>
<feColorMatrix type="matrix" values="0 0 0 0 0 0 0 0 0 0 0 0 0 0 0 0 0 0 0.25 0"/>
<feBlend mode="normal" in2="BackgroundImageFix" result="effect1_dropShadow"/>
<feBlend mode="normal" in="SourceGraphic" in2="effect1_dropShadow" result="shape"/>
</filter>
<filter id="filter2_d" x="98.5615" y="83.1897" width="28.6885" height="33.5791" filterUnits="userSpaceOnUse" color-interpolation-filters="sRGB">
<feFlood flood-opacity="0" result="BackgroundImageFix"/>
<feColorMatrix in="SourceAlpha" type="matrix" values="0 0 0 0 0 0 0 0 0 0 0 0 0 0 0 0 0 0 127 0" result="hardAlpha"/>
<feOffset dy="4"/>
<feGaussianBlur stdDeviation="2"/>
<feComposite in2="hardAlpha" operator="out"/>
<feColorMatrix type="matrix" values="0 0 0 0 0 0 0 0 0 0 0 0 0 0 0 0 0 0 0.25 0"/>
<feBlend mode="normal" in2="BackgroundImageFix" result="effect1_dropShadow"/>
<feBlend mode="normal" in="SourceGraphic" in2="effect1_dropShadow" result="shape"/>
</filter>
<filter id="filter3_d" x="40.1465" y="83.1897" width="28.6885" height="33.5791" filterUnits="userSpaceOnUse" color-interpolation-filters="sRGB">
<feFlood flood-opacity="0" result="BackgroundImageFix"/>
<feColorMatrix in="SourceAlpha" type="matrix" values="0 0 0 0 0 0 0 0 0 0 0 0 0 0 0 0 0 0 127 0" result="hardAlpha"/>
<feOffset dy="4"/>
<feGaussianBlur stdDeviation="2"/>
<feComposite in2="hardAlpha" operator="out"/>
<feColorMatrix type="matrix" values="0 0 0 0 0 0 0 0 0 0 0 0 0 0 0 0 0 0 0.25 0"/>
<feBlend mode="normal" in2="BackgroundImageFix" result="effect1_dropShadow"/>
<feBlend mode="normal" in="SourceGraphic" in2="effect1_dropShadow" result="shape"/>
</filter>
<filter id="filter4_d" x="67.4067" y="82.707" width="29.9141" height="34.5444" filterUnits="userSpaceOnUse" color-interpolation-filters="sRGB">
<feFlood flood-opacity="0" result="BackgroundImageFix"/>
<feColorMatrix in="SourceAlpha" type="matrix" values="0 0 0 0 0 0 0 0 0 0 0 0 0 0 0 0 0 0 127 0" result="hardAlpha"/>
<feOffset dy="4"/>
<feGaussianBlur stdDeviation="2"/>
<feComposite in2="hardAlpha" operator="out"/>
<feColorMatrix type="matrix" values="0 0 0 0 0 0 0 0 0 0 0 0 0 0 0 0 0 0 0.25 0"/>
<feBlend mode="normal" in2="BackgroundImageFix" result="effect1_dropShadow"/>
<feBlend mode="normal" in="SourceGraphic" in2="effect1_dropShadow" result="shape"/>
</filter>
<filter id="filter5_d" x="96.3711" y="83.1897" width="28.6885" height="33.5791" filterUnits="userSpaceOnUse" color-interpolation-filters="sRGB">
<feFlood flood-opacity="0" result="BackgroundImageFix"/>
<feColorMatrix in="SourceAlpha" type="matrix" values="0 0 0 0 0 0 0 0 0 0 0 0 0 0 0 0 0 0 127 0" result="hardAlpha"/>
<feOffset dy="4"/>
<feGaussianBlur stdDeviation="2"/>
<feComposite in2="hardAlpha" operator="out"/>
<feColorMatrix type="matrix" values="0 0 0 0 0 0 0 0 0 0 0 0 0 0 0 0 0 0 0.25 0"/>
<feBlend mode="normal" in2="BackgroundImageFix" result="effect1_dropShadow"/>
<feBlend mode="normal" in="SourceGraphic" in2="effect1_dropShadow" result="shape"/>
</filter>
<linearGradient id="paint0_linear" x1="84.5605" y1="34.8388" x2="84.5605" y2="74.2537" gradientUnits="userSpaceOnUse">
<stop stop-color="#BDC4D1" stop-opacity="0.53"/>
<stop offset="1" stop-color="#5D7CB8" stop-opacity="0"/>
</linearGradient>
<linearGradient id="paint1_linear" x1="83.6984" y1="103.149" x2="83.6984" y2="118.746" gradientUnits="userSpaceOnUse">
<stop stop-color="#B6BFD7"/>
<stop offset="1" stop-color="#838DA7" stop-opacity="0"/>
</linearGradient>
<linearGradient id="paint2_linear" x1="43.91" y1="108.312" x2="44.1969" y2="111.006" gradientUnits="userSpaceOnUse">
<stop stop-color="#B0BACC"/>
<stop offset="1" stop-color="#969EAE"/>
</linearGradient>
<linearGradient id="paint3_linear" x1="70.1914" y1="105.197" x2="70.1914" y2="107.093" gradientUnits="userSpaceOnUse">
<stop stop-color="#B0BACC"/>
<stop offset="1" stop-color="#969EAE"/>
</linearGradient>
<linearGradient id="paint4_linear" x1="94.6406" y1="107.426" x2="102.546" y2="107.954" gradientUnits="userSpaceOnUse">
<stop stop-color="#B0BACC"/>
<stop offset="1" stop-color="#969EAE"/>
</linearGradient>
<linearGradient id="paint5_linear" x1="130.137" y1="110.076" x2="129.929" y2="111.885" gradientUnits="userSpaceOnUse">
<stop stop-color="#B0BACC"/>
<stop offset="1" stop-color="#969EAE"/>
</linearGradient>
<linearGradient id="paint6_linear" x1="95.5034" y1="43.5739" x2="99.106" y2="31.1392" gradientUnits="userSpaceOnUse">
<stop stop-color="#525A70"/>
<stop offset="1" stop-color="#414757"/>
</linearGradient>
<linearGradient id="paint7_linear" x1="51.0826" y1="89.9042" x2="63.0512" y2="106.293" gradientUnits="userSpaceOnUse">
<stop stop-color="#E3EAF7"/>
<stop offset="0.0001" stop-color="#B2BAC9"/>
<stop offset="1" stop-color="#5B6579"/>
</linearGradient>
<linearGradient id="paint8_linear" x1="78.6239" y1="89.6749" x2="90.9646" y2="106.923" gradientUnits="userSpaceOnUse">
<stop stop-color="#E3EAF7"/>
<stop offset="0.0001" stop-color="#B2BAC9"/>
<stop offset="1" stop-color="#5B6579"/>
</linearGradient>
<linearGradient id="paint9_linear" x1="107.307" y1="89.9042" x2="119.276" y2="106.293" gradientUnits="userSpaceOnUse">
<stop stop-color="#E3EAF7"/>
<stop offset="0.0001" stop-color="#B2BAC9"/>
<stop offset="1" stop-color="#5B6579"/>
</linearGradient>
<linearGradient id="paint10_linear" x1="48.8922" y1="89.9042" x2="60.8608" y2="106.293" gradientUnits="userSpaceOnUse">
<stop stop-color="#E3EAF7"/>
<stop offset="1" stop-color="#ADB6C8"/>
</linearGradient>
<linearGradient id="paint11_linear" x1="76.4335" y1="89.6749" x2="88.7742" y2="106.923" gradientUnits="userSpaceOnUse">
<stop stop-color="#E3EAF7"/>
<stop offset="1" stop-color="#ADB6C8"/>
</linearGradient>
<linearGradient id="paint12_linear" x1="105.117" y1="89.9042" x2="117.085" y2="106.293" gradientUnits="userSpaceOnUse">
<stop stop-color="#E3EAF7"/>
<stop offset="1" stop-color="#ADB6C8"/>
</linearGradient>
</defs>
</svg>
