<svg width="146" height="103" viewBox="0 0 146 103" fill="none" xmlns="http://www.w3.org/2000/svg">
<path d="M121.265 85.7861H12.7705C19.6493 70.4626 41.2923 59.2776 67.0179 59.2776C92.6875 59.2216 114.386 70.4066 121.265 85.7861Z" fill="#2A2E37"/>
<path d="M132.618 85.7859H144.027" stroke="#2B323C" stroke-width="3" stroke-miterlimit="10" stroke-linecap="round" stroke-linejoin="round"/>
<path d="M1.58594 85.7859H126.914" stroke="#2B323C" stroke-width="3" stroke-miterlimit="10" stroke-linecap="round" stroke-linejoin="round"/>
<path d="M35.8677 93.2239H131.108" stroke="#2B323C" stroke-width="3" stroke-miterlimit="10" stroke-linecap="round" stroke-linejoin="round"/>
<path d="M14.0571 93.2239H29.7721" stroke="#2B323C" stroke-width="3" stroke-miterlimit="10" stroke-linecap="round" stroke-linejoin="round"/>
<path d="M120.091 22.3108C105.606 35.2854 97.2176 50.8885 96.3228 70.1827" stroke="#9CA4B5" stroke-width="4" stroke-miterlimit="10" stroke-linecap="round" stroke-linejoin="round"/>
<path d="M17.5727 31.0407C28.8219 40.7292 35.457 52.5147 36.4268 67.2289" stroke="#9CA4B5" stroke-width="4" stroke-miterlimit="10" stroke-linecap="round" stroke-linejoin="round"/>
<path d="M120.93 22.3668C120.93 22.3668 116.792 17.725 111.591 13.1951L112.374 11.2936L109.857 11.741C108.123 10.287 106.278 8.88885 104.432 7.77035C108.011 5.6452 111.087 5.8689 113.883 7.6585C118.973 10.7903 120.315 16.8861 120.93 22.3668Z" fill="#5C6479"/>
<path d="M16.9331 31.0958C16.9331 31.0958 20.023 27.4912 23.9258 23.9561L23.2999 22.5163L25.2275 22.8204C26.5292 21.6847 27.9172 20.5901 29.3093 19.7089C26.5456 18.1399 24.2011 18.3564 22.0932 19.764C18.2551 22.2302 17.3212 26.9032 16.9331 31.0958Z" fill="#5C6479"/>
<path d="M119.196 21.472C119.196 21.472 114.051 20.1298 108.235 19.3468L107.899 17.6131L106.333 19.1231C104.376 18.8994 102.419 18.7875 100.629 18.8435C102.195 15.6557 104.432 14.3695 107.34 14.3135C112.317 14.1458 116.176 17.8927 119.196 21.472Z" fill="#5C6479"/>
<path d="M18.2429 30.3873C18.2429 30.3873 22.1503 29.2863 26.5783 28.6022L26.8087 27.2739L28.0264 28.4032C29.5172 28.2034 31.0096 28.0889 32.3765 28.105C31.1338 25.695 29.4072 24.7464 27.1865 24.747C23.3848 24.6929 20.4949 27.6103 18.2429 30.3873Z" fill="#5C6479"/>
<path d="M120.315 23.3734C120.315 23.3734 120.203 16.7742 119.14 9.61581L121.098 8.66508L118.805 7.32288C118.413 4.97403 117.854 2.56925 117.183 0.444092C121.489 1.22704 123.782 3.46405 124.845 6.87548C126.634 12.7476 123.503 18.5638 120.315 23.3734Z" fill="#5C6479"/>
<path d="M17.4175 31.855C17.4175 31.855 17.4048 26.8161 18.1095 21.3362L16.6013 20.6396L18.3315 19.581C18.5955 17.7822 18.9866 15.9383 19.4673 14.3062C16.1919 14.9678 14.4749 16.7094 13.7145 19.3292C12.4358 23.8381 14.9128 28.2312 17.4175 31.855Z" fill="#5C6479"/>
<path d="M119.252 22.8701C119.252 22.8701 123.279 27.6238 127.081 33.384L129.039 32.8248L128.256 35.2296C129.43 37.1869 130.549 39.2003 131.444 41.1576C134.016 37.914 134.24 34.8381 132.842 31.7622C130.437 26.4493 124.565 24.2682 119.252 22.8701Z" fill="#5C6479"/>
<path d="M18.2212 31.4551C18.2212 31.4551 15.2183 35.1435 12.401 39.5969L10.8986 39.1991L11.532 41.0231C10.6646 42.5346 9.8408 44.088 9.18687 45.5954C7.17499 43.1577 6.95852 40.8132 7.98002 38.4445C9.73667 34.3534 14.1866 32.6013 18.2212 31.4551Z" fill="#5C6479"/>
<path d="M119.42 22.199C119.42 22.199 125.907 23.2057 132.898 25.2749L134.128 23.4853L135.135 25.946C137.428 26.673 139.721 27.5119 141.734 28.5185C141.566 24.1564 139.665 21.5279 136.421 20.0179C130.829 17.3335 124.621 19.6265 119.42 22.199Z" fill="#5C6479"/>
<path d="M18.083 30.9454C18.083 30.9454 13.1461 31.8102 7.84076 33.4936L6.87501 32.1458L6.14319 34.0391C4.40376 34.6281 2.666 35.3025 1.14417 36.1009C1.2074 32.7686 2.61975 30.734 5.07325 29.5332C9.30221 27.4011 14.0747 29.059 18.083 30.9454Z" fill="#5C6479"/>
<path d="M121.44 20.4062C122.412 19.4346 122.412 17.8593 121.44 16.8878C120.469 15.9162 118.893 15.9162 117.922 16.8878C116.95 17.8594 116.95 19.4346 117.922 20.4062C118.893 21.3778 120.469 21.3778 121.44 20.4062Z" fill="url(#paint0_linear)"/>
<path d="M16.5143 29.6068C15.7582 28.8796 15.7348 27.6772 16.462 26.9212C17.1891 26.1651 18.3916 26.1417 19.1476 26.8689C19.9037 27.596 19.9271 28.7985 19.1999 29.5545C18.4727 30.3106 17.2703 30.334 16.5143 29.6068Z" fill="url(#paint1_linear)"/>
<path d="M124.968 24.4691C126.337 23.1001 126.337 20.8804 124.968 19.5114C123.599 18.1423 121.38 18.1423 120.011 19.5114C118.642 20.8804 118.642 23.1001 120.011 24.4691C121.38 25.8382 123.599 25.8382 124.968 24.4691Z" fill="url(#paint2_linear)"/>
<path d="M13.8818 32.7608C12.8165 31.7361 12.7835 30.0418 13.8081 28.9764C14.8328 27.911 16.5271 27.8781 17.5925 28.9027C18.6578 29.9274 18.6908 31.6217 17.6662 32.6871C16.6415 33.7524 14.9472 33.7854 13.8818 32.7608Z" fill="url(#paint3_linear)"/>
<path d="M119.937 24.0793C120.821 23.196 120.821 21.764 119.937 20.8807C119.054 19.9974 117.622 19.9974 116.739 20.8807C115.856 21.764 115.856 23.196 116.739 24.0793C117.622 24.9625 119.054 24.9625 119.937 24.0793Z" fill="url(#paint4_linear)"/>
<path d="M17.716 32.3883C17.0287 31.7272 17.0074 30.6341 17.6685 29.9467C18.3295 29.2594 19.4226 29.2381 20.11 29.8992C20.7973 30.5603 20.8186 31.6534 20.1575 32.3407C19.4964 33.028 18.4033 33.0493 17.716 32.3883Z" fill="url(#paint5_linear)"/>
<path opacity="0.4" d="M24.7388 80.5287C26.5843 80.1373 28.5417 80.6965 29.9398 81.9269" stroke="#D5DAE8" stroke-miterlimit="10" stroke-linecap="round" stroke-linejoin="round"/>
<path opacity="0.4" d="M44.4805 74.4331C46.2141 73.762 47.9478 73.2027 49.7934 72.7553C50.9119 72.4757 52.0863 72.3079 53.2048 72.5316C54.3233 72.7553 55.3859 73.5942 55.6096 74.7127" stroke="#D5DAE8" stroke-miterlimit="10" stroke-linecap="round" stroke-linejoin="round"/>
<path opacity="0.4" d="M69.7026 76.8377C71.9956 74.0415 76.134 72.9789 79.4895 74.2652C80.2166 74.5448 80.8877 74.9363 81.6706 74.8804C82.5095 74.8244 83.1806 74.2652 83.7958 73.7059C84.4109 73.1467 84.9702 72.5315 85.7531 72.196C86.5361 71.9163 87.5427 72.0841 87.9342 72.8111" stroke="#D5DAE8" stroke-miterlimit="10" stroke-linecap="round" stroke-linejoin="round"/>
<path opacity="0.4" d="M92.0166 79.8577C94.8688 77.9003 98.6158 77.2851 101.971 78.124" stroke="#D5DAE8" stroke-miterlimit="10" stroke-linecap="round" stroke-linejoin="round"/>
<path opacity="0.4" d="M39.7827 68.3371C39.9505 67.4423 41.0131 66.939 41.9638 67.0508C42.9145 67.1068 43.7534 67.5542 44.7041 67.7219C45.9345 67.9456 47.2208 67.6101 48.2274 66.8271" stroke="#D5DAE8" stroke-miterlimit="10" stroke-linecap="round" stroke-linejoin="round"/>
<path opacity="0.4" d="M27.5908 76.782C29.4363 76.8938 31.3378 76.2786 32.8478 75.2161" stroke="#D5DAE8" stroke-miterlimit="10" stroke-linecap="round" stroke-linejoin="round"/>
<path opacity="0.4" d="M75.4067 67.6102C77.2523 67.3306 79.1537 67.6102 80.7756 68.4491" stroke="#D5DAE8" stroke-miterlimit="10" stroke-linecap="round" stroke-linejoin="round"/>
<path opacity="0.6" d="M66.1794 65.7649C74.2408 65.7649 80.7759 64.7522 80.7759 63.503C80.7759 62.2539 74.2408 61.2412 66.1794 61.2412C58.1181 61.2412 51.583 62.2539 51.583 63.503C51.583 64.7522 58.1181 65.7649 66.1794 65.7649Z" fill="#1E1F28"/>
<path d="M51.4233 100.835H102.222" stroke="#2B323C" stroke-width="3" stroke-miterlimit="10" stroke-linecap="round" stroke-linejoin="round"/>
<path d="M85.3187 43.0078C85.3187 47.8078 83.6081 52.1738 80.7485 55.5951C77.1484 59.91 71.7356 62.642 65.659 62.642C59.8377 62.642 54.6291 60.1143 51.0291 56.1057C47.9397 52.6334 46.0503 48.0376 46.0503 43.0078C46.0503 32.1566 54.8333 23.3735 65.6845 23.3735C76.5357 23.3735 85.3187 32.1566 85.3187 43.0078Z" fill="#5C6479"/>
<path d="M80.7741 55.5953C77.1741 59.9102 71.7613 62.6422 65.6846 62.6422C59.8633 62.6422 54.6547 60.1145 51.0547 56.1059C51.6675 55.6208 52.4334 55.1868 53.3781 54.8038L54.093 54.523C55.4462 53.9868 57.2079 53.3229 59.5824 52.3272C60.1186 52.0974 60.5526 51.6889 60.7824 51.1527C60.9101 50.8719 60.9867 50.5399 60.9867 50.208V45.791C60.9101 45.6888 60.8335 45.6122 60.7824 45.5101C60.3995 44.9484 60.1441 44.2846 60.0675 43.5697L59.6846 43.3909C58.5356 43.6718 58.6122 42.4463 58.3313 40.0973C58.2037 39.1271 58.3569 38.9228 58.7909 38.7696L59.1484 38.2845C56.9526 33.3057 58.0505 30.1908 60.2207 29.0929C59.5058 27.5099 59.4548 26.9482 59.4548 26.9482C59.4548 26.9482 64.0761 27.7142 65.6846 27.4078C67.7016 26.9993 70.8166 27.4844 71.9655 30.1653C73.8804 30.9313 74.6464 32.1313 74.7996 33.4589C75.0804 35.5526 73.8804 37.8505 73.6506 38.7441C73.6762 38.7952 73.7017 38.8207 73.7017 38.8462C74.0081 38.9994 74.1102 39.2547 74.0081 40.0973C73.7272 42.3186 73.8038 43.6973 72.6549 43.3909L71.6336 45.1782C71.5825 45.3824 71.5825 45.459 71.557 45.6122C71.5059 45.9442 71.5315 46.608 71.5315 50.2591C71.5315 50.6931 71.6591 51.1016 71.8889 51.4846C72.1442 51.8676 72.5017 52.1995 72.9613 52.3783C72.9613 52.3783 72.9868 52.3783 73.0123 52.4038C75.6421 53.5017 77.5315 54.2166 78.9103 54.7527C79.6252 54.9825 80.2379 55.2889 80.7741 55.5953Z" fill="#8E94A7"/>
<path d="M73.7015 38.7186C73.8037 38.1569 73.5483 37.4675 73.3441 36.9824C73.3186 36.9058 73.2675 36.8292 73.242 36.7271C72.3483 34.9398 70.3824 34.2249 68.493 34.1228C63.6674 33.8675 63.2334 34.7866 61.727 33.4079C62.1865 34.1228 62.2376 35.2207 61.5227 36.5994C61.0121 37.5696 60.0418 38.0037 59.1993 38.2845C57.0035 33.3057 58.1014 30.1908 60.2716 29.0929C59.5567 27.5099 59.5057 26.9482 59.5057 26.9482C59.5057 26.9482 64.127 27.7142 65.71 27.4078C67.727 26.9993 70.8419 27.4844 71.9909 30.1653C73.9058 30.9313 74.6462 32.1313 74.825 33.4589C75.1058 35.527 73.9313 37.7994 73.7015 38.7186Z" fill="#292D35"/>
<path d="M71.9398 51.4334V52.3015H60.7822V51.1781C60.9099 50.8972 60.9865 50.5653 60.9865 50.2334V45.7908C60.9099 45.6887 60.8333 45.6121 60.7822 45.51V45.2546C61.012 45.6632 61.3184 46.0461 61.7014 46.3525L65.1993 48.7781C66.0163 49.4674 67.1908 49.493 68.0334 48.8291L71.3015 45.8929C71.4036 45.7908 71.5313 45.6887 71.6334 45.5866C71.5823 45.9185 71.6079 46.5823 71.6079 50.2334C71.5823 50.6675 71.71 51.1015 71.9398 51.4334Z" fill="url(#paint6_linear)"/>
<defs>
<linearGradient id="paint0_linear" x1="118.044" y1="17.0097" x2="120.019" y2="18.9846" gradientUnits="userSpaceOnUse">
<stop stop-color="#B0BACC"/>
<stop offset="1" stop-color="#969EAE"/>
</linearGradient>
<linearGradient id="paint1_linear" x1="19.0559" y1="26.9638" x2="17.5778" y2="28.5006" gradientUnits="userSpaceOnUse">
<stop stop-color="#B0BACC"/>
<stop offset="1" stop-color="#969EAE"/>
</linearGradient>
<linearGradient id="paint2_linear" x1="120.183" y1="19.6832" x2="122.966" y2="22.4659" gradientUnits="userSpaceOnUse">
<stop stop-color="#B0BACC"/>
<stop offset="1" stop-color="#969EAE"/>
</linearGradient>
<linearGradient id="paint3_linear" x1="17.4633" y1="29.0365" x2="15.3805" y2="31.2019" gradientUnits="userSpaceOnUse">
<stop stop-color="#B0BACC"/>
<stop offset="1" stop-color="#969EAE"/>
</linearGradient>
<linearGradient id="paint4_linear" x1="116.85" y1="20.9916" x2="118.646" y2="22.7869" gradientUnits="userSpaceOnUse">
<stop stop-color="#B0BACC"/>
<stop offset="1" stop-color="#969EAE"/>
</linearGradient>
<linearGradient id="paint5_linear" x1="20.0266" y1="29.9855" x2="18.6829" y2="31.3826" gradientUnits="userSpaceOnUse">
<stop stop-color="#B0BACC"/>
<stop offset="1" stop-color="#969EAE"/>
</linearGradient>
<linearGradient id="paint6_linear" x1="66.3394" y1="52.0821" x2="66.3394" y2="48.3909" gradientUnits="userSpaceOnUse">
<stop stop-color="#8E94A7"/>
<stop offset="0.9913" stop-color="#6C707C"/>
</linearGradient>
</defs>
</svg>
