<svg width="147" height="121" viewBox="0 0 147 121" fill="none" xmlns="http://www.w3.org/2000/svg">
<path d="M146.652 60.6171C146.652 82.3107 135.109 101.309 117.817 111.774C117.098 112.223 116.38 112.628 115.661 113.032L122.263 63.9857C122.398 62.9976 121.68 62.0993 120.736 61.9646C119.748 61.8298 118.85 62.5035 118.715 63.4916L111.798 114.963C110.047 115.772 108.25 116.49 106.454 117.119L111.394 63.8959C111.484 62.9078 110.765 62.0544 109.777 61.9646C108.789 61.8747 107.891 62.5934 107.846 63.5815L102.726 118.287C101.019 118.736 99.2224 119.14 97.4708 119.455L100.211 63.806C100.255 62.8179 99.4919 61.9646 98.5038 61.9196C97.5157 61.8747 96.6623 62.6383 96.6174 63.6264L93.8327 119.994C92.126 120.173 90.4642 120.308 88.7125 120.353V63.7611C88.7125 62.773 87.9041 61.9646 86.916 61.9646C85.9278 61.9646 85.1194 62.773 85.1194 63.7611V120.398C83.5474 120.353 82.0203 120.263 80.4932 120.083L77.7086 63.6713C77.6636 62.6832 76.8103 61.9197 75.8222 61.9646C74.8341 62.0095 74.0705 62.8628 74.1154 63.851L76.8552 119.589C75.0586 119.275 73.307 118.916 71.6002 118.467L66.4351 63.5815C66.3453 62.5934 65.4919 61.8747 64.5038 61.9646C63.5157 62.0544 62.7971 62.9527 62.8869 63.8959L67.8724 117.344C66.0309 116.715 64.2792 116.041 62.5276 115.278L55.5659 63.5366C55.4311 62.5485 54.5329 61.8747 53.5448 62.0095C52.5566 62.1442 51.8829 63.0425 52.0177 64.0306L58.6201 113.391C57.7667 112.942 56.9582 112.493 56.1498 111.999C38.7231 101.534 27.0454 82.4454 27.0454 60.6171C27.0454 27.6053 53.8142 0.836426 86.8261 0.836426C119.883 0.836426 146.652 27.6053 146.652 60.6171Z" fill="#2A2E37"/>
<path d="M104.465 64.1534C102.919 42.8162 102.454 32.6676 95.8689 22.7615C95.7858 22.6367 95.6125 22.609 95.4946 22.7061C94.2052 23.7736 92.7772 26.1305 92.181 28.6331C89.9627 28.2241 87.7375 27.8012 85.4638 27.9398C84.0704 28.023 82.6978 28.3835 81.3253 28.6331C80.7291 26.1236 79.308 23.7736 78.0117 22.7061C77.8939 22.609 77.7206 22.6367 77.6374 22.7615C71.0518 32.6676 70.5874 42.8162 69.0415 64.1534L86.7532 62.7254L104.465 64.1534Z" fill="#AFB7C9"/>
<path d="M80.5282 42.2754C78.7675 42.2754 77.1453 41.3187 76.2927 39.7798C76.0917 39.4124 76.2234 38.9479 76.5908 38.74C76.9582 38.5389 77.4226 38.6706 77.6306 39.038C78.2198 40.0917 79.329 40.7503 80.5352 40.7503C81.7414 40.7503 82.8574 40.0917 83.4397 39.038C83.6408 38.6706 84.1052 38.5389 84.4796 38.74C84.847 38.941 84.9787 39.4054 84.7776 39.7798C83.9111 41.3187 82.289 42.2754 80.5282 42.2754Z" fill="#2A2E37"/>
<path d="M93.0268 42.2754C91.266 42.2754 89.6439 41.3187 88.7912 39.7798C88.5902 39.4124 88.7219 38.9479 89.0893 38.74C89.4567 38.5389 89.9212 38.6706 90.1291 39.038C90.7184 40.0917 91.8275 40.7503 93.0337 40.7503C94.2399 40.7503 95.356 40.0917 95.9383 39.038C96.1393 38.6706 96.6038 38.5389 96.9781 38.74C97.3455 38.941 97.4772 39.4054 97.2762 39.7798C96.4097 41.3187 94.7875 42.2754 93.0268 42.2754Z" fill="#2A2E37"/>
<path d="M82.4689 48.2093C82.4343 48.2093 82.3927 48.2092 82.3511 48.2023L74.5663 47.0239C74.1503 46.9615 73.8661 46.5733 73.9285 46.1573C73.9909 45.7414 74.3791 45.4572 74.795 45.5196L82.5798 46.698C82.9958 46.7604 83.28 47.1486 83.2176 47.5646C83.1621 47.9389 82.8363 48.2093 82.4689 48.2093Z" fill="#2A2E37"/>
<path d="M76.0709 51.5162C75.6757 51.5162 75.336 51.2112 75.3083 50.8022C75.2806 50.3793 75.5995 50.0189 76.0154 49.9911L82.4138 49.5544C82.8297 49.5267 83.1971 49.8456 83.2248 50.2615C83.2526 50.6844 82.9337 51.0448 82.5178 51.0726L76.1194 51.5093C76.1055 51.5162 76.0847 51.5162 76.0709 51.5162Z" fill="#2A2E37"/>
<path d="M91.0513 48.2093C90.6839 48.2093 90.3581 47.939 90.2957 47.5577C90.2333 47.1418 90.5175 46.7536 90.9335 46.6912L98.7183 45.5127C99.1342 45.4503 99.5224 45.7346 99.5848 46.1505C99.6472 46.5664 99.363 46.9546 98.947 47.017L91.1622 48.1955C91.1276 48.2093 91.0929 48.2093 91.0513 48.2093Z" fill="#2A2E37"/>
<path d="M97.4492 51.5159C97.4285 51.5159 97.4146 51.5159 97.3938 51.5159L90.9954 51.0791C90.5726 51.0514 90.2606 50.684 90.2883 50.2681C90.3161 49.8522 90.6765 49.5333 91.0994 49.561L97.4978 49.9977C97.9206 50.0255 98.2326 50.3929 98.2049 50.8088C98.1841 51.2109 97.8513 51.5159 97.4492 51.5159Z" fill="#2A2E37"/>
<path d="M87.7238 45.9633C87.3356 45.9009 86.171 45.9009 85.7759 45.9633C85.36 46.0326 84.8401 46.1366 85.0064 47.1071C85.0966 47.6339 85.4154 48.0984 85.8314 48.445C86.5662 49.055 86.9266 48.9857 87.5089 48.5559C87.9873 48.2093 88.3824 47.6963 88.4864 47.1002C88.6666 46.1297 88.1398 46.0257 87.7238 45.9633Z" fill="#2A2E37"/>
<path d="M23.9706 9.55449C35.3918 13.1986 45.9972 19.6386 54.3033 28.2892C55.9672 30.1513 57.8269 32.1251 58.552 34.4953C59.8217 37.9588 58.7659 42.3136 56.2421 44.918C53.6621 47.6208 49.4601 48.6158 45.7932 47.3071C43.4557 46.6262 41.4001 44.5407 41.1373 42.0428C41.0286 39.5023 42.8381 37.0123 45.2054 36.2754C47.6851 35.3416 50.3307 35.9374 52.4294 37.2647C54.528 38.5921 56.2336 40.6085 57.4771 42.7525C61.6971 49.464 63.1281 58.1069 61.4094 66.1274C60.1135 72.0411 57.0259 77.4546 52.7917 81.6924" stroke="#667089" stroke-width="2" stroke-miterlimit="10" stroke-dasharray="4 4"/>
<path d="M23.3899 3.74472C24.2989 4.65448 24.017 6.05906 22.6577 6.84918C21.3403 7.79359 20.3453 8.40014 19.4782 7.64467C18.6672 6.79078 19.2429 5.55378 19.9308 4.11992C20.6893 2.33491 22.4248 2.9334 23.3899 3.74472Z" fill="#AFB7C9"/>
<path d="M18.9244 13.8509C20.0865 13.8615 21.4601 12.8187 21.14 11.3317C20.7781 9.69033 20.5977 8.41345 19.3376 8.34698C18.1754 8.33638 18.0201 9.29139 17.2617 11.0764C16.7696 12.622 17.6081 13.8829 18.9244 13.8509Z" fill="#AFB7C9"/>
<path d="M17.7702 7.45315C18.0652 6.70829 18.8499 6.24273 19.5499 6.38104C19.8019 6.39433 20.1519 6.46349 20.3478 6.57521C21.8312 7.1604 22.7259 8.32287 22.3747 9.16616C22.0654 10.1637 20.5807 10.491 19.2513 9.86322C18.8595 9.63978 18.6636 9.52806 18.3698 9.36048C17.7403 8.87102 17.4752 8.19801 17.7702 7.45315C17.8263 7.35472 17.7702 7.45315 17.7702 7.45315Z" fill="#474E61"/>
<path d="M126.44 56.9341L117.772 111.774C117.053 112.223 116.335 112.628 115.616 113.032C114.359 113.75 113.056 114.379 111.709 115.008C109.957 115.817 108.16 116.535 106.364 117.164C105.151 117.568 103.894 117.972 102.636 118.332C100.929 118.781 99.1326 119.185 97.381 119.499C96.1683 119.724 94.9556 119.904 93.7429 120.038C92.0362 120.218 90.3744 120.353 88.6227 120.398C87.9939 120.398 87.41 120.443 86.7812 120.443C86.1974 120.443 85.6135 120.443 85.0296 120.398C83.4576 120.353 81.9305 120.263 80.4034 120.083C79.1908 119.949 77.9781 119.769 76.7654 119.589C74.9688 119.275 73.2172 118.916 71.5104 118.466C70.2528 118.152 69.0402 117.748 67.7826 117.344C65.9411 116.715 64.1894 116.041 62.4378 115.278C61.1353 114.694 59.8328 114.065 58.5303 113.391C57.6769 112.942 56.8684 112.493 56.06 111.999L47.0771 58.5061L57.2727 56.979H126.44V56.9341Z" fill="#5C6479"/>
<path d="M125.353 61.8725L124.243 65.2896L134.707 68.6909L135.818 65.2738L125.353 61.8725Z" fill="#5C6479"/>
<path d="M48.2792 61.8806L37.8145 65.282L38.9251 68.6991L49.3899 65.2977L48.2792 61.8806Z" fill="#5C6479"/>
<g opacity="0.4">
<path d="M62.5275 115.278C61.225 114.694 59.9225 114.065 58.62 113.391L52.0176 63.9858C51.8829 62.9977 52.5566 62.0994 53.5447 61.9647C54.5328 61.8299 55.4311 62.5036 55.5658 63.4917L62.5275 115.278Z" fill="url(#paint0_linear)"/>
<path d="M71.5553 118.467C70.2977 118.152 69.085 117.748 67.8274 117.344L62.8419 63.8959C62.7521 62.9078 63.4707 62.0544 64.4589 61.9646C65.447 61.8748 66.3452 62.5934 66.3902 63.5815L71.5553 118.467Z" fill="url(#paint1_linear)"/>
<path d="M80.4483 120.083C79.2356 119.949 78.0229 119.769 76.8102 119.589L74.0705 63.851C74.0256 62.8629 74.7891 62.0095 75.7772 61.9646C76.7653 61.9197 77.6187 62.6832 77.6636 63.6713L80.4483 120.083Z" fill="url(#paint2_linear)"/>
<path d="M88.6675 63.7612V120.398C88.0387 120.398 87.4548 120.443 86.8261 120.443C86.2422 120.443 85.6583 120.443 85.0744 120.398V63.7612C85.0744 62.7731 85.8828 61.9646 86.871 61.9646C87.904 61.9646 88.6675 62.7731 88.6675 63.7612Z" fill="url(#paint3_linear)"/>
<path d="M100.166 63.851L97.4258 119.5C96.2131 119.724 95.0004 119.904 93.7877 120.039L96.5724 63.6713C96.6173 62.6832 97.4707 61.9197 98.4588 61.9646C99.4469 62.0095 100.21 62.8629 100.166 63.851Z" fill="url(#paint4_linear)"/>
<path d="M111.349 63.9409L106.409 117.164C105.196 117.568 103.938 117.973 102.681 118.332L107.801 63.6265C107.891 62.6384 108.744 61.9197 109.732 62.0096C110.72 62.0994 111.484 62.9528 111.349 63.9409Z" fill="url(#paint5_linear)"/>
<path d="M122.218 63.9857L115.616 113.032C114.358 113.751 113.056 114.379 111.709 115.008L118.67 63.5366C118.805 62.5485 119.703 61.8748 120.691 62.0095C121.679 62.0993 122.353 62.9976 122.218 63.9857Z" fill="url(#paint6_linear)"/>
</g>
<g filter="url(#filter0_d)">
<path d="M126.62 58.5063H47.1218C46.2684 58.5063 45.5947 57.8326 45.5947 56.9792C45.5947 56.1259 46.2684 55.4521 47.1218 55.4521H126.62C127.473 55.4521 128.147 56.1259 128.147 56.9792C128.147 57.7877 127.473 58.5063 126.62 58.5063Z" fill="#5C6479"/>
</g>
<path d="M139.44 33.7017C138.296 33.3386 137.874 32.0686 138.566 30.6454C139.258 29.2222 139.793 28.0675 141.023 28.4254C142.082 28.7937 142.164 30.1704 142.257 31.7192C142.29 33.7034 140.413 34.0751 139.44 33.7017Z" fill="#AFB7C9"/>
<path d="M138.445 22.8807C137.352 23.3781 136.838 24.877 137.776 26.116C138.891 27.4308 139.555 28.4271 140.729 27.8386C141.822 27.3412 141.507 26.4102 141.221 24.5276C140.875 23.0803 139.538 22.3834 138.445 22.8807Z" fill="#AFB7C9"/>
<path d="M141.268 29.6196C141.015 29.7212 140.762 29.8227 140.504 29.8382C139.138 30.0929 137.897 29.5629 137.759 28.7076C137.621 27.8524 138.694 27.0108 140.151 26.837C140.49 26.7303 140.834 26.7096 141.098 26.7802C141.705 26.8301 142.252 27.3154 142.294 28.0037C142.421 28.6869 141.946 29.4062 141.268 29.6196Z" fill="#474E61"/>
<path d="M111.945 54.6956C111.046 35.4062 127.423 29.1556 136.458 28.6133" stroke="#667089" stroke-width="2" stroke-miterlimit="10" stroke-dasharray="4 4"/>
<defs>
<filter id="filter0_d" x="43.5947" y="55.4521" width="86.5522" height="7.0542" filterUnits="userSpaceOnUse" color-interpolation-filters="sRGB">
<feFlood flood-opacity="0" result="BackgroundImageFix"/>
<feColorMatrix in="SourceAlpha" type="matrix" values="0 0 0 0 0 0 0 0 0 0 0 0 0 0 0 0 0 0 127 0" result="hardAlpha"/>
<feOffset dy="2"/>
<feGaussianBlur stdDeviation="1"/>
<feColorMatrix type="matrix" values="0 0 0 0 0.397708 0 0 0 0 0.47749 0 0 0 0 0.575 0 0 0 0.15 0"/>
<feBlend mode="normal" in2="BackgroundImageFix" result="effect1_dropShadow"/>
<feBlend mode="normal" in="SourceGraphic" in2="effect1_dropShadow" result="shape"/>
</filter>
<linearGradient id="paint0_linear" x1="95.6161" y1="98.356" x2="98.1323" y2="63.6327" gradientUnits="userSpaceOnUse">
<stop offset="0.869792" stop-color="#2A2E37"/>
<stop offset="1" stop-color="#15161B"/>
</linearGradient>
<linearGradient id="paint1_linear" x1="95.6161" y1="98.356" x2="98.1323" y2="63.6327" gradientUnits="userSpaceOnUse">
<stop offset="0.869792" stop-color="#2A2E37"/>
<stop offset="1" stop-color="#15161B"/>
</linearGradient>
<linearGradient id="paint2_linear" x1="95.6161" y1="98.356" x2="98.1323" y2="63.6327" gradientUnits="userSpaceOnUse">
<stop offset="0.869792" stop-color="#2A2E37"/>
<stop offset="1" stop-color="#15161B"/>
</linearGradient>
<linearGradient id="paint3_linear" x1="95.6161" y1="98.356" x2="98.1323" y2="63.6327" gradientUnits="userSpaceOnUse">
<stop offset="0.869792" stop-color="#2A2E37"/>
<stop offset="1" stop-color="#15161B"/>
</linearGradient>
<linearGradient id="paint4_linear" x1="95.6161" y1="98.356" x2="98.1323" y2="63.6327" gradientUnits="userSpaceOnUse">
<stop offset="0.869792" stop-color="#2A2E37"/>
<stop offset="1" stop-color="#15161B"/>
</linearGradient>
<linearGradient id="paint5_linear" x1="95.6161" y1="98.356" x2="98.1323" y2="63.6327" gradientUnits="userSpaceOnUse">
<stop offset="0.869792" stop-color="#2A2E37"/>
<stop offset="1" stop-color="#15161B"/>
</linearGradient>
<linearGradient id="paint6_linear" x1="95.6161" y1="98.356" x2="98.1323" y2="63.6327" gradientUnits="userSpaceOnUse">
<stop offset="0.869792" stop-color="#2A2E37"/>
<stop offset="1" stop-color="#15161B"/>
</linearGradient>
</defs>
</svg>
