<svg width="119" height="123" viewBox="0 0 119 123" fill="none" xmlns="http://www.w3.org/2000/svg">
<path d="M104.11 45.7434C106.222 45.7434 107.934 44.0296 107.934 41.9154C107.934 39.8013 106.222 38.0874 104.11 38.0874C101.997 38.0874 100.285 39.8013 100.285 41.9154C100.285 44.0296 101.997 45.7434 104.11 45.7434Z" fill="#2A2E37"/>
<path d="M2.51618 66.4446C3.90582 66.4446 5.03235 65.317 5.03235 63.9261C5.03235 62.5353 3.90582 61.4077 2.51618 61.4077C1.12653 61.4077 0 62.5353 0 63.9261C0 65.317 1.12653 66.4446 2.51618 66.4446Z" fill="#2A2E37"/>
<path d="M14.0826 111.721C15.4722 111.721 16.5988 110.594 16.5988 109.203C16.5988 107.812 15.4722 106.684 14.0826 106.684C12.6929 106.684 11.5664 107.812 11.5664 109.203C11.5664 110.594 12.6929 111.721 14.0826 111.721Z" fill="#2A2E37"/>
<path d="M27.5322 111.721L62.8412 100.657V55.2957L27.5322 66.2744V111.721Z" fill="#B7BFCD"/>
<path opacity="0.4" d="M98.1503 111.721L62.8413 100.657V55.2957L98.1503 66.2744V111.721Z" fill="#6D7C9A"/>
<path d="M27.5322 111.721L62.8412 100.657V55.2957L27.5322 66.2744V111.721Z" fill="#414758"/>
<path d="M98.1502 111.721L62.8412 100.657V55.2957L98.1502 66.2744V111.721Z" fill="#414758"/>
<path d="M98.1503 111.721L62.8413 100.657V55.2957L98.1503 66.2744V111.721Z" fill="#383D4B"/>
<path d="M62.8412 122.87L27.5322 111.806V66.4446L62.8412 77.5084V122.87Z" fill="#5C6378"/>
<path d="M62.8413 122.87L98.1503 111.806V66.4446L62.8413 77.5084V122.87Z" fill="#4D5464"/>
<path opacity="0.29" d="M54.8412 114.87L27.5322 111.806V66.4446L62.8412 77.5084L54.8412 114.87Z" fill="url(#paint0_linear)"/>
<path opacity="0.29" d="M70.8413 106.87L98.1503 111.806V66.4446L62.8413 77.5084L70.8413 106.87Z" fill="url(#paint1_linear)"/>
<path d="M62.8413 55.2956L46.2402 42.8701L10.3413 54.9552L27.5323 66.2744L62.8413 55.2956Z" fill="#5C6479"/>
<path d="M62.8413 55.2956L79.4424 42.8701L115.341 54.9552L98.1503 66.2744L62.8413 55.2956Z" fill="#5C6479"/>
<path d="M27.5323 66.4446L62.8413 77.5084L45.229 88.7425L10.3413 77.168L27.5323 66.4446Z" fill="#5C6479"/>
<path d="M98.1503 66.4446L62.8413 77.5084L80.4537 88.7425L115.341 77.168L98.1503 66.4446Z" fill="#5C6479"/>
<path d="M72.6928 11.7469C77.6394 25.1714 79.1138 28.1542 79.5977 41.3821C79.4116 44.4016 79.2962 47.6849 77.8727 50.3288C75.9715 54.3733 71.3215 57.1742 66.9282 57.2196C62.4022 57.3005 57.9651 54.5293 55.968 50.2562C54.5629 47.6629 54.6076 44.1157 56.535 41.7611C58.6303 39.503 62.3165 38.9399 64.9682 40.3509C67.8851 41.6908 69.6261 44.477 70.271 47.4153C70.9158 50.3537 70.6325 53.5406 69.8454 56.4383C68.1991 63.4858 66.8356 63.8267 62.7983 75.7584" stroke="#667089" stroke-width="2" stroke-miterlimit="10" stroke-dasharray="4 4"/>
<path d="M78.7132 4.64145C78.7017 6.61543 76.8648 7.82412 74.5352 7.19383C72.0825 6.77572 70.3465 6.34479 70.2348 4.583C70.291 2.7762 72.2623 2.06905 74.5697 1.2719C77.3363 0.172582 78.5567 2.71247 78.7132 4.64145Z" fill="#AFB7C9"/>
<path d="M62.8639 10.6778C64.107 11.9575 66.7277 12.3306 68.0048 10.376C69.4051 8.20919 70.6038 6.63395 69.316 5.18714C68.0729 3.9075 66.8632 4.76903 64.0966 5.86835C61.8789 6.99985 61.4081 9.276 62.8639 10.6778Z" fill="#AFB7C9"/>
<path d="M68.5996 2.51249C69.7309 2.03033 71.086 2.38406 71.6907 3.29715C71.9483 3.58651 72.2506 4.04305 72.3402 4.37742C73.303 6.62794 73.0003 8.8591 71.701 9.38626C70.2785 10.1256 68.3187 8.85877 67.5686 6.73042C67.3895 6.0617 67.2999 5.72734 67.1656 5.2258C67.0202 4.01054 67.4683 2.99465 68.5996 2.51249C68.7676 2.46749 68.5996 2.51249 68.5996 2.51249Z" fill="#474E61"/>
<path d="M16.5986 38.7403H14.4085V36.5503H12.5314V38.7403H10.3413V40.6801H12.5314V42.8701H14.4085V40.6801H16.5986V38.7403Z" fill="#5C6479"/>
<path d="M21.4096 93.6876H19.2196V91.4976H17.3424V93.6876H15.1523V95.6274H17.3424V97.8174H19.2196V95.6274H21.4096V93.6876Z" fill="#5C6479"/>
<path d="M117.147 93.8115L114.468 92.4586L115.821 89.7791L113.524 88.6195L112.171 91.299L109.491 89.9462L108.293 92.3195L110.973 93.6723L109.62 96.3519L111.917 97.5115L113.269 94.8319L115.949 96.1848L117.147 93.8115Z" fill="#5C6479"/>
<defs>
<linearGradient id="paint0_linear" x1="35.4483" y1="97.4899" x2="43.9309" y2="73.5317" gradientUnits="userSpaceOnUse">
<stop offset="0.00289017" stop-color="#292D36" stop-opacity="0"/>
<stop offset="1" stop-color="#2A2E37"/>
</linearGradient>
<linearGradient id="paint1_linear" x1="70.7574" y1="95.5257" x2="78.3036" y2="72.7728" gradientUnits="userSpaceOnUse">
<stop offset="0.00289017" stop-color="#292D36" stop-opacity="0"/>
<stop offset="1" stop-color="#2A2E37"/>
</linearGradient>
</defs>
</svg>
