<svg width="148" height="147" viewBox="0 0 148 147" fill="none" xmlns="http://www.w3.org/2000/svg">
<path d="M70.3001 118.609C98.3001 118.609 121 95.9088 121 67.8088C121 39.7088 98.2001 17.0088 70.3001 17.0088C42.3001 17.0088 19.6001 39.7088 19.6001 67.8088C19.6001 95.9088 42.3001 118.609 70.3001 118.609Z" fill="#2A2E37"/>
<path d="M117.7 34.5086C119.964 34.5086 121.8 32.673 121.8 30.4086C121.8 28.1442 119.964 26.3086 117.7 26.3086C115.436 26.3086 113.6 28.1442 113.6 30.4086C113.6 32.673 115.436 34.5086 117.7 34.5086Z" fill="#2A2E37"/>
<path d="M123.7 18.5087C125.246 18.5087 126.5 17.2551 126.5 15.7087C126.5 14.1623 125.246 12.9087 123.7 12.9087C122.154 12.9087 120.9 14.1623 120.9 15.7087C120.9 17.2551 122.154 18.5087 123.7 18.5087Z" fill="#2A2E37"/>
<path d="M22.3 34.4086C23.8464 34.4086 25.1 33.155 25.1 31.6086C25.1 30.0622 23.8464 28.8086 22.3 28.8086C20.7536 28.8086 19.5 30.0622 19.5 31.6086C19.5 33.155 20.7536 34.4086 22.3 34.4086Z" fill="#2A2E37"/>
<path d="M5.2 88.4088C8.07188 88.4088 10.4 86.0807 10.4 83.2088C10.4 80.3369 8.07188 78.0088 5.2 78.0088C2.32812 78.0088 0 80.3369 0 83.2088C0 86.0807 2.32812 88.4088 5.2 88.4088Z" fill="#2A2E37"/>
<path d="M147.569 51.8589H142.608V46.8977H138.355V51.8589H133.394V56.253H138.355V61.2142H142.608V56.253H147.569V51.8589Z" fill="#5C6479"/>
<path d="M65.4684 4.91122H61.2273V0.670166H57.5921V4.91122H53.3511V8.66757H57.5921V12.9086H61.2273V8.66757H65.4684V4.91122Z" fill="#5C6479"/>
<path d="M15.5532 47.2229H11.9296V43.5994H8.82373V47.2229H5.2002V50.4323H8.82373V54.0559H11.9296V50.4323H15.5532V47.2229Z" fill="#5C6479"/>
<g filter="url(#filter0_d)">
<path d="M105.964 58.0121L95.9507 33.5605C94.1654 29.2136 89.5079 26.7296 84.9281 27.7387L59.0793 33.3276C56.9059 33.7934 55.0429 35.2682 53.9562 37.2088L29.3494 84.0937C28.3403 86.0343 29.0389 88.5183 31.0571 89.5274L75.6133 112.97C77.5538 113.979 80.0378 113.28 81.0469 111.262L105.654 64.3772C106.74 62.4366 106.818 60.1079 105.964 58.0121ZM81.2022 48.1538C78.0196 46.5237 76.7776 42.5649 78.4853 39.3823C80.1154 36.1997 84.0743 34.9577 87.2568 36.6655C90.4394 38.2956 91.6814 42.2544 89.9737 45.437C88.3436 48.6196 84.3848 49.8615 81.2022 48.1538Z" fill="url(#paint0_linear)"/>
</g>
<path d="M84.3848 42.1768C104.645 31.6975 112.64 16.0951 102.083 9.34183C91.5262 2.58855 81.1246 9.34183 78.4854 28.9807" stroke="#9CA4B5" stroke-width="5" stroke-miterlimit="10" stroke-linecap="round" stroke-linejoin="round"/>
<path d="M79.0974 76.0048C80.4679 76.7635 82.293 76.2391 83.0517 74.8685C83.8105 73.498 83.286 71.6729 81.9154 70.9142C80.5449 70.1554 78.7198 70.6799 77.9611 72.0505C77.1482 73.5189 77.6289 75.1919 79.0974 76.0048Z" fill="#9CA4B5"/>
<path d="M71.2872 79.5855L70.0146 78.881C70.2383 75.9353 67.8871 73.4826 64.9851 73.4109C63.8872 73.3148 62.6705 73.6644 61.7912 74.3287L60.5185 73.6242C63.2754 71.1855 67.6668 71.5701 69.9534 74.3707C70.9988 75.7168 71.6211 77.5961 71.2872 79.5855Z" fill="#9CA4B5"/>
<path d="M59.5178 65.1662C60.8884 65.9249 62.7134 65.4004 63.4722 64.0299C64.2309 62.6593 63.7064 60.8342 62.3359 60.0755C60.9653 59.3168 59.1402 59.8413 58.3815 61.2118C57.6665 62.7345 58.1472 64.4075 59.5178 65.1662Z" fill="#9CA4B5"/>
<defs>
<filter id="filter0_d" x="6.8916" y="16.5149" width="121.652" height="129.913" filterUnits="userSpaceOnUse" color-interpolation-filters="sRGB">
<feFlood flood-opacity="0" result="BackgroundImageFix"/>
<feColorMatrix in="SourceAlpha" type="matrix" values="0 0 0 0 0 0 0 0 0 0 0 0 0 0 0 0 0 0 127 0" result="hardAlpha"/>
<feOffset dy="11"/>
<feGaussianBlur stdDeviation="11"/>
<feColorMatrix type="matrix" values="0 0 0 0 0 0 0 0 0 0 0 0 0 0 0 0 0 0 0.27 0"/>
<feBlend mode="normal" in2="BackgroundImageFix" result="effect1_dropShadow"/>
<feBlend mode="normal" in="SourceGraphic" in2="effect1_dropShadow" result="shape"/>
</filter>
<linearGradient id="paint0_linear" x1="67.6925" y1="25.5277" x2="67.6925" y2="114.354" gradientUnits="userSpaceOnUse">
<stop stop-color="#5C6479"/>
<stop offset="0.9964" stop-color="#5C6479"/>
</linearGradient>
</defs>
</svg>
