<svg width="137" height="133" viewBox="0 0 137 133" fill="none" xmlns="http://www.w3.org/2000/svg">
<path d="M70.3001 119.295C98.3001 119.295 121 96.5946 121 68.4946C121 40.3946 98.2001 17.6946 70.3001 17.6946C42.3001 17.6946 19.6001 40.3946 19.6001 68.4946C19.6001 96.5946 42.3001 119.295 70.3001 119.295Z" fill="#2A2E37"/>
<path d="M124.15 101.272C126.414 101.272 128.25 99.4359 128.25 97.1715C128.25 94.9072 126.414 93.0715 124.15 93.0715C121.885 93.0715 120.05 94.9072 120.05 97.1715C120.05 99.4359 121.885 101.272 124.15 101.272Z" fill="#2A2E37"/>
<path d="M130.15 85.2714C131.696 85.2714 132.95 84.0178 132.95 82.4714C132.95 80.925 131.696 79.6714 130.15 79.6714C128.604 79.6714 127.35 80.925 127.35 82.4714C127.35 84.0178 128.604 85.2714 130.15 85.2714Z" fill="#2A2E37"/>
<path d="M22.3 35.0946C23.8464 35.0946 25.1 33.841 25.1 32.2946C25.1 30.7482 23.8464 29.4946 22.3 29.4946C20.7536 29.4946 19.5 30.7482 19.5 32.2946C19.5 33.841 20.7536 35.0946 22.3 35.0946Z" fill="#2A2E37"/>
<path d="M5.2 89.0946C8.07188 89.0946 10.4 86.7665 10.4 83.8946C10.4 81.0227 8.07188 78.6946 5.2 78.6946C2.32812 78.6946 0 81.0227 0 83.8946C0 86.7665 2.32812 89.0946 5.2 89.0946Z" fill="#2A2E37"/>
<path d="M76.6613 86.9128H65.3941C62.7834 86.9128 60.585 89.3212 60.585 92.1811V98.3524C60.585 104.674 65.2567 109.792 71.0277 109.792C76.7987 109.792 81.4705 104.674 81.4705 98.3524V92.1811C81.4705 89.1706 79.272 86.9128 76.6613 86.9128Z" fill="#5C6479"/>
<g filter="url(#filter0_d)">
<path fill-rule="evenodd" clip-rule="evenodd" d="M75.6613 27.7784C86.686 30.3286 94.8979 40.202 94.8979 52.0011V55.1604C94.8979 81.8088 114.959 99.2538 114.959 99.2538H24.959C24.959 99.2538 45.1575 81.8088 45.1575 55.1604V52.0011C45.1575 40.202 53.3694 30.3286 64.3941 27.7784V26.7264C64.3941 23.567 66.8674 21.0945 70.0277 21.0945C73.188 21.0945 75.6613 23.567 75.6613 26.7264V27.7784Z" fill="url(#paint0_linear)"/>
</g>
<path d="M59.585 66.0122C56.1499 66.0122 53.2644 63.8144 52.1652 60.6551C51.8904 59.9682 52.3026 59.2814 52.9896 59.0067C53.6766 58.732 54.3637 59.1441 54.6385 59.8309C55.3255 61.8913 57.3866 63.4023 59.585 63.4023C61.7835 63.4023 63.8446 62.0287 64.5316 59.8309C64.8064 59.1441 65.4934 58.732 66.1804 59.0067C66.8675 59.2814 67.2797 59.9682 67.0049 60.6551C65.9056 63.9518 63.0201 66.0122 59.585 66.0122Z" fill="#9FA8BA"/>
<path d="M80.3331 66.0122C76.898 66.0122 74.0125 63.8144 72.9132 60.6551C72.6384 59.9682 73.0506 59.2814 73.7377 59.0067C74.4247 58.732 75.1117 59.1441 75.3865 59.8309C76.0735 61.8913 78.1346 63.4023 80.3331 63.4023C82.5315 63.4023 84.5926 62.0287 85.2796 59.8309C85.5544 59.1441 86.2415 58.732 86.9285 59.0067C87.6155 59.2814 88.0277 59.9682 87.7529 60.6551C86.6537 63.9518 83.7682 66.0122 80.3331 66.0122Z" fill="#9FA8BA"/>
<path d="M70.0275 82.8309C71.7729 82.8309 73.1878 81.4164 73.1878 79.6715C73.1878 77.9267 71.7729 76.5122 70.0275 76.5122C68.2821 76.5122 66.8672 77.9267 66.8672 79.6715C66.8672 81.4164 68.2821 82.8309 70.0275 82.8309Z" fill="#9FA8BA"/>
<path d="M86.9619 5.3235V0.673828H104.932V5.3235L92.67 20.1179H105.143V24.7676H86.3276V20.1179L98.5896 5.3235H86.9619V5.3235Z" fill="#9FA8BA"/>
<path d="M101.761 40.1959V37.2371H113.388V40.1959L105.566 49.7066H113.6V52.6655H101.338V49.7066L109.16 40.1959H101.761Z" fill="#9FA8BA"/>
<defs>
<filter id="filter0_d" x="2.95898" y="10.0945" width="134" height="122.159" filterUnits="userSpaceOnUse" color-interpolation-filters="sRGB">
<feFlood flood-opacity="0" result="BackgroundImageFix"/>
<feColorMatrix in="SourceAlpha" type="matrix" values="0 0 0 0 0 0 0 0 0 0 0 0 0 0 0 0 0 0 127 0" result="hardAlpha"/>
<feOffset dy="11"/>
<feGaussianBlur stdDeviation="11"/>
<feColorMatrix type="matrix" values="0 0 0 0 0 0 0 0 0 0 0 0 0 0 0 0 0 0 0.27 0"/>
<feBlend mode="normal" in2="BackgroundImageFix" result="effect1_dropShadow"/>
<feBlend mode="normal" in="SourceGraphic" in2="effect1_dropShadow" result="shape"/>
</filter>
<linearGradient id="paint0_linear" x1="69.9297" y1="19.2866" x2="69.9297" y2="100.096" gradientUnits="userSpaceOnUse">
<stop stop-color="#5C6479"/>
<stop offset="0.9964" stop-color="#5C6479"/>
</linearGradient>
</defs>
</svg>
