<svg width="133" height="161" viewBox="0 0 133 161" fill="none" xmlns="http://www.w3.org/2000/svg">
<path d="M70.3001 101.71C98.3001 101.71 121 79.0101 121 50.9101C121 22.8101 98.2001 0.110107 70.3001 0.110107C42.3001 0.110107 19.6001 22.8101 19.6001 50.9101C19.6001 79.0101 42.3001 101.71 70.3001 101.71Z" fill="#2A2E37"/>
<path d="M124.15 83.6871C126.414 83.6871 128.25 81.8514 128.25 79.5871C128.25 77.3227 126.414 75.4871 124.15 75.4871C121.885 75.4871 120.05 77.3227 120.05 79.5871C120.05 81.8514 121.885 83.6871 124.15 83.6871Z" fill="#2A2E37"/>
<path d="M130.15 67.6869C131.696 67.6869 132.95 66.4333 132.95 64.8869C132.95 63.3405 131.696 62.0869 130.15 62.0869C128.604 62.0869 127.35 63.3405 127.35 64.8869C127.35 66.4333 128.604 67.6869 130.15 67.6869Z" fill="#2A2E37"/>
<path d="M22.3 17.5102C23.8464 17.5102 25.1 16.2566 25.1 14.7102C25.1 13.1638 23.8464 11.9102 22.3 11.9102C20.7536 11.9102 19.5 13.1638 19.5 14.7102C19.5 16.2566 20.7536 17.5102 22.3 17.5102Z" fill="#2A2E37"/>
<path d="M5.2 71.5101C8.07188 71.5101 10.4 69.182 10.4 66.3101C10.4 63.4382 8.07188 61.1101 5.2 61.1101C2.32812 61.1101 0 63.4382 0 66.3101C0 69.182 2.32812 71.5101 5.2 71.5101Z" fill="#2A2E37"/>
<path d="M108.112 52.1093L110.814 51.2947C111.01 51.2379 111.01 50.9538 110.814 50.897L108.112 50.0824C108.042 50.0635 107.992 50.013 107.973 49.9435L107.159 47.2474C107.102 47.0517 106.818 47.0517 106.761 47.2474L105.946 49.9435C105.927 50.013 105.877 50.0635 105.807 50.0824L103.111 50.897C102.915 50.9538 102.915 51.2379 103.111 51.2947L105.814 52.1093C105.883 52.1282 105.934 52.1787 105.953 52.2482L106.767 54.9506C106.824 55.1464 107.108 55.1464 107.165 54.9506L107.979 52.2482C107.992 52.1787 108.042 52.1282 108.112 52.1093Z" fill="#5C6479"/>
<path d="M92.112 23.1098L94.8144 22.2953C95.0101 22.2384 95.0101 21.9543 94.8144 21.8975L92.112 21.083C92.0425 21.0641 91.992 21.0136 91.973 20.9441L91.1585 18.2481C91.1017 18.0524 90.8176 18.0524 90.7607 18.2481L89.9462 20.9441C89.9273 21.0136 89.8767 21.0641 89.8073 21.083L87.1112 21.8975C86.9154 21.9543 86.9154 22.2384 87.1112 22.2953L89.8136 23.1098C89.8831 23.1287 89.9336 23.1792 89.9525 23.2487L90.767 25.951C90.8239 26.1467 91.108 26.1467 91.1648 25.951L91.9794 23.2487C91.992 23.1792 92.0425 23.1287 92.112 23.1098Z" fill="#5C6479"/>
<path d="M51.4685 26.4837L53.8331 25.771C54.0044 25.7213 54.0044 25.4727 53.8331 25.423L51.4685 24.7103C51.4077 24.6937 51.3635 24.6495 51.347 24.5887L50.6342 22.2298C50.5845 22.0585 50.3359 22.0585 50.2862 22.2298L49.5735 24.5887C49.5569 24.6495 49.5127 24.6937 49.4519 24.7103L47.0928 25.423C46.9215 25.4727 46.9215 25.7213 47.0928 25.771L49.4575 26.4837C49.5182 26.5002 49.5624 26.5444 49.579 26.6052L50.2917 28.9697C50.3414 29.141 50.59 29.141 50.6398 28.9697L51.3525 26.6052C51.3635 26.5444 51.4077 26.5002 51.4685 26.4837Z" fill="#5C6479"/>
<path d="M34.4685 69.9122L36.8331 69.0977C37.0044 69.0409 37.0044 68.7568 36.8331 68.6999L34.4685 67.8854C34.4077 67.8665 34.3635 67.816 34.347 67.7465L33.6342 65.0504C33.5845 64.8546 33.3359 64.8546 33.2862 65.0504L32.5735 67.7465C32.5569 67.816 32.5127 67.8665 32.4519 67.8854L30.0928 68.6999C29.9215 68.7568 29.9215 69.0409 30.0928 69.0977L32.4575 69.9122C32.5182 69.9312 32.5624 69.9817 32.579 70.0512L33.2917 72.7536C33.3414 72.9493 33.59 72.9493 33.6398 72.7536L34.3525 70.0512C34.3635 69.9817 34.4077 69.9312 34.4685 69.9122Z" fill="#5C6479"/>
<path d="M30.6826 39.115L32.3716 38.606C32.4939 38.5705 32.4939 38.3929 32.3716 38.3574L30.6826 37.8484C30.6392 37.8365 30.6076 37.805 30.5958 37.7616L30.0867 36.0766C30.0512 35.9543 29.8736 35.9543 29.8381 36.0766L29.329 37.7616C29.3171 37.805 29.2856 37.8365 29.2422 37.8484L27.5571 38.3574C27.4347 38.3929 27.4347 38.5705 27.5571 38.606L29.2461 39.115C29.2895 39.1269 29.3211 39.1584 29.3329 39.2019L29.842 40.8908C29.8775 41.0131 30.0551 41.0131 30.0906 40.8908L30.5997 39.2019C30.6076 39.1584 30.6392 39.1269 30.6826 39.115Z" fill="#5C6479"/>
<path d="M48.6821 55.8213L50.3711 55.3123C50.4935 55.2768 50.4935 55.0992 50.3711 55.0637L48.6821 54.5547C48.6387 54.5428 48.6071 54.5113 48.5953 54.4679L48.0862 52.7829C48.0507 52.6606 47.8731 52.6606 47.8376 52.7829L47.3285 54.4679C47.3167 54.5113 47.2851 54.5428 47.2417 54.5547L45.5566 55.0637C45.4343 55.0992 45.4343 55.2768 45.5566 55.3123L47.2456 55.8213C47.289 55.8332 47.3206 55.8647 47.3324 55.9082L47.8415 57.597C47.877 57.7194 48.0546 57.7194 48.0901 57.597L48.5992 55.9082C48.6071 55.8647 48.6387 55.8332 48.6821 55.8213Z" fill="#5C6479"/>
<path d="M63.0039 8.23003L64.6929 7.721C64.8152 7.68548 64.8152 7.50791 64.6929 7.4724L63.0039 6.96336C62.9605 6.95152 62.9289 6.91995 62.917 6.87655L62.408 5.1916C62.3725 5.06927 62.1949 5.06927 62.1594 5.1916L61.6503 6.87655C61.6384 6.91995 61.6069 6.95152 61.5635 6.96336L59.8784 7.4724C59.756 7.50791 59.756 7.68548 59.8784 7.721L61.5674 8.23003C61.6108 8.24187 61.6424 8.27344 61.6542 8.31684L62.1633 10.0057C62.1988 10.1281 62.3764 10.1281 62.4119 10.0057L62.921 8.31684C62.9289 8.27344 62.9605 8.24187 63.0039 8.23003Z" fill="#5C6479"/>
<path d="M103.027 80.5809L104.716 80.0718C104.838 80.0363 104.838 79.8587 104.716 79.8232L103.027 79.3142C102.983 79.3024 102.952 79.2708 102.94 79.2274L102.431 77.5424C102.395 77.4201 102.218 77.4201 102.182 77.5424L101.673 79.2274C101.661 79.2708 101.63 79.3024 101.586 79.3142L99.9013 79.8232C99.779 79.8587 99.779 80.0363 99.9013 80.0718L101.59 80.5809C101.634 80.5927 101.665 80.6243 101.677 80.6677L102.186 82.3566C102.222 82.4789 102.399 82.4789 102.435 82.3566L102.944 80.6677C102.952 80.6243 102.983 80.5927 103.027 80.5809Z" fill="#5C6479"/>
<g filter="url(#filter0_d)">
<path d="M55.3655 58.6606C51.1127 61.7591 45.5234 66.2548 45.5234 70.2038C45.5234 74.1527 45.5234 80.9571 45.5234 80.9571C45.5234 80.9571 49.7154 75.793 58.3424 76.5828C66.9693 77.3726 56.8235 62.9134 56.8235 62.9134L55.3655 58.6606Z" fill="url(#paint0_linear)"/>
</g>
<g filter="url(#filter1_d)">
<path d="M86.2889 58.6606C90.5416 61.8198 96.1309 66.2548 96.1309 70.2038C96.1309 74.1527 96.1309 80.9571 96.1309 80.9571C96.1309 80.9571 91.9389 75.793 83.312 76.5828C74.685 77.3726 84.8308 62.9134 84.8308 62.9134L86.2889 58.6606Z" fill="url(#paint1_linear)"/>
</g>
<g filter="url(#filter2_d)">
<path d="M70.797 15.1614C62.7776 20.8722 53.1786 34.9062 54.9404 52.7676C56.6415 70.629 58.1603 79.4383 61.441 81.5646C64.7824 83.691 68.0631 84.177 70.797 84.177C73.5309 84.177 76.8115 83.691 80.153 81.5646C83.4944 79.4383 84.9525 70.629 86.6536 52.7676C88.3546 34.9062 78.7556 20.8722 70.797 15.1614Z" fill="url(#paint2_linear)"/>
</g>
<g filter="url(#filter3_d)">
<path d="M76.8722 86.668H64.7216C63.7495 86.668 63.0205 85.8782 63.0205 84.9669V81.99H78.6341V84.9061C78.5733 85.8782 77.7835 86.668 76.8722 86.668Z" fill="url(#paint3_linear)"/>
</g>
<path d="M71.6474 57.6887H69.9463V80.1066H71.6474V57.6887Z" fill="#99A1B4"/>
<path d="M70.7968 45.4771C74.1185 45.4771 76.8114 42.7843 76.8114 39.4626C76.8114 36.1408 74.1185 33.448 70.7968 33.448C67.475 33.448 64.7822 36.1408 64.7822 39.4626C64.7822 42.7843 67.475 45.4771 70.7968 45.4771Z" stroke="#9FA8BA" stroke-width="4" stroke-miterlimit="10"/>
<g filter="url(#filter4_d)">
<path d="M79.1198 98.2718C79.1198 103.193 75.1709 127.859 70.2498 127.859C65.3288 127.859 61.3799 103.193 61.3799 98.2718C61.3799 93.3508 65.3288 89.4019 70.2498 89.4019C75.1709 89.4019 79.1198 93.4116 79.1198 98.2718Z" fill="url(#paint4_linear)"/>
</g>
<path d="M70.2501 116.498C68.4883 112.731 66.4834 102.281 66.4834 98.94C66.4834 96.8744 68.1845 95.1733 70.2501 95.1733C72.3157 95.1733 74.0168 96.8744 74.0168 98.94C74.0168 102.281 72.0119 112.67 70.2501 116.498Z" fill="#2A2E37"/>
<defs>
<filter id="filter0_d" x="23.5234" y="47.6606" width="60.2954" height="66.2964" filterUnits="userSpaceOnUse" color-interpolation-filters="sRGB">
<feFlood flood-opacity="0" result="BackgroundImageFix"/>
<feColorMatrix in="SourceAlpha" type="matrix" values="0 0 0 0 0 0 0 0 0 0 0 0 0 0 0 0 0 0 127 0" result="hardAlpha"/>
<feOffset dy="11"/>
<feGaussianBlur stdDeviation="11"/>
<feColorMatrix type="matrix" values="0 0 0 0 0 0 0 0 0 0 0 0 0 0 0 0 0 0 0.27 0"/>
<feBlend mode="normal" in2="BackgroundImageFix" result="effect1_dropShadow"/>
<feBlend mode="normal" in="SourceGraphic" in2="effect1_dropShadow" result="shape"/>
</filter>
<filter id="filter1_d" x="57.8354" y="47.6606" width="60.2954" height="66.2964" filterUnits="userSpaceOnUse" color-interpolation-filters="sRGB">
<feFlood flood-opacity="0" result="BackgroundImageFix"/>
<feColorMatrix in="SourceAlpha" type="matrix" values="0 0 0 0 0 0 0 0 0 0 0 0 0 0 0 0 0 0 127 0" result="hardAlpha"/>
<feOffset dy="11"/>
<feGaussianBlur stdDeviation="11"/>
<feColorMatrix type="matrix" values="0 0 0 0 0 0 0 0 0 0 0 0 0 0 0 0 0 0 0.27 0"/>
<feBlend mode="normal" in2="BackgroundImageFix" result="effect1_dropShadow"/>
<feBlend mode="normal" in="SourceGraphic" in2="effect1_dropShadow" result="shape"/>
</filter>
<filter id="filter2_d" x="32.729" y="4.16138" width="76.1226" height="113.016" filterUnits="userSpaceOnUse" color-interpolation-filters="sRGB">
<feFlood flood-opacity="0" result="BackgroundImageFix"/>
<feColorMatrix in="SourceAlpha" type="matrix" values="0 0 0 0 0 0 0 0 0 0 0 0 0 0 0 0 0 0 127 0" result="hardAlpha"/>
<feOffset dy="11"/>
<feGaussianBlur stdDeviation="11"/>
<feColorMatrix type="matrix" values="0 0 0 0 0 0 0 0 0 0 0 0 0 0 0 0 0 0 0.27 0"/>
<feBlend mode="normal" in2="BackgroundImageFix" result="effect1_dropShadow"/>
<feBlend mode="normal" in="SourceGraphic" in2="effect1_dropShadow" result="shape"/>
</filter>
<filter id="filter3_d" x="41.0205" y="70.99" width="59.6138" height="48.678" filterUnits="userSpaceOnUse" color-interpolation-filters="sRGB">
<feFlood flood-opacity="0" result="BackgroundImageFix"/>
<feColorMatrix in="SourceAlpha" type="matrix" values="0 0 0 0 0 0 0 0 0 0 0 0 0 0 0 0 0 0 127 0" result="hardAlpha"/>
<feOffset dy="11"/>
<feGaussianBlur stdDeviation="11"/>
<feColorMatrix type="matrix" values="0 0 0 0 0 0 0 0 0 0 0 0 0 0 0 0 0 0 0.27 0"/>
<feBlend mode="normal" in2="BackgroundImageFix" result="effect1_dropShadow"/>
<feBlend mode="normal" in="SourceGraphic" in2="effect1_dropShadow" result="shape"/>
</filter>
<filter id="filter4_d" x="39.3799" y="78.4019" width="61.7397" height="82.4568" filterUnits="userSpaceOnUse" color-interpolation-filters="sRGB">
<feFlood flood-opacity="0" result="BackgroundImageFix"/>
<feColorMatrix in="SourceAlpha" type="matrix" values="0 0 0 0 0 0 0 0 0 0 0 0 0 0 0 0 0 0 127 0" result="hardAlpha"/>
<feOffset dy="11"/>
<feGaussianBlur stdDeviation="11"/>
<feColorMatrix type="matrix" values="0 0 0 0 0 0 0 0 0 0 0 0 0 0 0 0 0 0 0.27 0"/>
<feBlend mode="normal" in2="BackgroundImageFix" result="effect1_dropShadow"/>
<feBlend mode="normal" in="SourceGraphic" in2="effect1_dropShadow" result="shape"/>
</filter>
<linearGradient id="paint0_linear" x1="53.6658" y1="58.1449" x2="53.6658" y2="81.1974" gradientUnits="userSpaceOnUse">
<stop stop-color="#5C6479"/>
<stop offset="0.9964" stop-color="#5C6479"/>
</linearGradient>
<linearGradient id="paint1_linear" x1="87.9779" y1="58.1449" x2="87.9779" y2="81.1974" gradientUnits="userSpaceOnUse">
<stop stop-color="#5C6479"/>
<stop offset="0.9964" stop-color="#5C6479"/>
</linearGradient>
<linearGradient id="paint2_linear" x1="70.7798" y1="13.565" x2="70.7798" y2="84.921" gradientUnits="userSpaceOnUse">
<stop stop-color="#5C6479"/>
<stop offset="0.9964" stop-color="#5C6479"/>
</linearGradient>
<linearGradient id="paint3_linear" x1="70.8222" y1="81.8818" x2="70.8222" y2="86.7184" gradientUnits="userSpaceOnUse">
<stop stop-color="#5C6479"/>
<stop offset="0.9964" stop-color="#5C6479"/>
</linearGradient>
<linearGradient id="paint4_linear" x1="70.2441" y1="88.5123" x2="70.2441" y2="128.273" gradientUnits="userSpaceOnUse">
<stop stop-color="#5C6479"/>
<stop offset="0.9964" stop-color="#5C6479"/>
</linearGradient>
</defs>
</svg>
