<svg width="128" height="141" viewBox="0 0 128 141" fill="none" xmlns="http://www.w3.org/2000/svg">
<path d="M61.9002 118.785C89.9002 118.785 112.6 96.0848 112.6 67.9848C112.6 39.8848 89.9002 17.1848 61.9002 17.1848C33.9002 17.1848 11.2002 39.8848 11.2002 67.9848C11.2002 96.0848 33.9002 118.785 61.9002 118.785Z" fill="#2A2E37"/>
<path d="M118.4 47.0848C120.664 47.0848 122.5 45.2491 122.5 42.9848C122.5 40.7204 120.664 38.8848 118.4 38.8848C116.135 38.8848 114.3 40.7204 114.3 42.9848C114.3 45.2491 116.135 47.0848 118.4 47.0848Z" fill="#2A2E37"/>
<path d="M124.4 30.9848C125.946 30.9848 127.2 29.7312 127.2 28.1848C127.2 26.6384 125.946 25.3848 124.4 25.3848C122.854 25.3848 121.6 26.6384 121.6 28.1848C121.6 29.7312 122.854 30.9848 124.4 30.9848Z" fill="#2A2E37"/>
<path d="M7.8 49.9848C9.3464 49.9848 10.6 48.7312 10.6 47.1848C10.6 45.6384 9.3464 44.3848 7.8 44.3848C6.2536 44.3848 5 45.6384 5 47.1848C5 48.7312 6.2536 49.9848 7.8 49.9848Z" fill="#2A2E37"/>
<path d="M12.9998 110.885C15.8717 110.885 18.1998 108.557 18.1998 105.685C18.1998 102.813 15.8717 100.485 12.9998 100.485C10.1279 100.485 7.7998 102.813 7.7998 105.685C7.7998 108.557 10.1279 110.885 12.9998 110.885Z" fill="#2A2E37"/>
<path d="M65.9025 22.4963H57.5122V27.957H65.9025V22.4963Z" fill="#3C4151"/>
<path d="M34.0995 33.3741L29.5464 37.9248L32.8577 41.2344L37.4108 36.6837L34.0995 33.3741Z" fill="#3C4151"/>
<path d="M87.3425 36.3483L91.8955 40.8992L94.8618 37.9342L90.3089 33.3834L87.3425 36.3483Z" fill="#3C4151"/>
<g filter="url(#filter0_d)">
<path d="M62.3902 107.722C84.6972 107.722 102.78 89.6476 102.78 67.3518C102.78 45.056 84.6972 26.9817 62.3902 26.9817C40.0833 26.9817 22 45.056 22 67.3518C22 89.6476 40.0833 107.722 62.3902 107.722Z" fill="url(#paint0_linear)"/>
</g>
<path opacity="0.3" d="M26.7805 69.5946C25.8049 69.5946 25.0244 68.8145 25.0244 67.8394C25.0244 67.6444 25.0244 67.4493 25.0244 67.3518C25.0244 48.5319 39.0732 32.6374 57.7073 30.2971C58.683 30.1996 59.561 30.8822 59.6586 31.8573C59.7561 32.8324 59.0732 33.71 58.0976 33.8076C41.2195 35.9528 28.5366 50.3847 28.5366 67.3518C28.5366 67.5469 28.5366 67.6444 28.5366 67.8394C28.5366 68.8145 27.7561 69.5946 26.7805 69.5946Z" fill="#777F96"/>
<path opacity="0.8" d="M93.9023 67.352C93.9023 67.742 93.9023 68.0346 93.9023 68.4246C93.317 85.2943 79.4633 98.8485 62.3901 98.8485C45.317 98.8485 31.4633 85.2943 30.8779 68.4246C30.8779 68.0346 30.8779 67.742 30.8779 67.352C30.8779 50.3848 44.3413 36.4405 61.2194 35.8555C61.6096 35.8555 61.9999 35.8555 62.3901 35.8555C79.6584 35.8555 93.6096 49.7022 93.9023 66.7669C93.9023 66.9619 93.9023 67.157 93.9023 67.352Z" fill="#373C47"/>
<path d="M93.9023 68.4246C93.317 85.2943 79.4633 98.8485 62.3901 98.8485C45.317 98.8485 31.4633 85.2943 30.8779 68.4246C31.4633 51.555 45.317 38.0008 62.3901 38.0008C79.4633 37.9033 93.317 51.4575 93.9023 68.4246Z" fill="#414758"/>
<path d="M89.7073 68.9121H84.5366C83.6585 68.9121 82.9756 68.2296 82.9756 67.3519C82.9756 66.4743 83.6585 65.7917 84.5366 65.7917H89.7073C90.5853 65.7917 91.2683 66.4743 91.2683 67.3519C91.2683 68.2296 90.4878 68.9121 89.7073 68.9121Z" fill="#313541"/>
<path d="M38.6829 68.9121H33.5121C32.6341 68.9121 31.9512 68.2296 31.9512 67.3519C31.9512 66.4743 32.6341 65.7917 33.5121 65.7917H38.6829C39.5609 65.7917 40.2439 66.4743 40.2439 67.3519C40.2439 68.2296 39.4634 68.9121 38.6829 68.9121Z" fill="#313541"/>
<path d="M61.6098 97.0932C60.7318 97.0932 60.0488 96.4107 60.0488 95.533V90.3649C60.0488 89.4873 60.7318 88.8047 61.6098 88.8047C62.4879 88.8047 63.1708 89.4873 63.1708 90.3649V95.533C63.0732 96.4107 62.3903 97.0932 61.6098 97.0932Z" fill="#313541"/>
<path d="M61.6098 46.0941C60.7318 46.0941 60.0488 45.4115 60.0488 44.5339V39.4633C60.0488 38.5857 60.7318 37.9031 61.6098 37.9031C62.4879 37.9031 63.1708 38.5857 63.1708 39.4633V44.6314C63.0732 45.4115 62.3903 46.0941 61.6098 46.0941Z" fill="#313541"/>
<path d="M62.0002 71.6424C64.6404 71.6424 66.7807 69.5032 66.7807 66.8643C66.7807 64.2254 64.6404 62.0862 62.0002 62.0862C59.36 62.0862 57.2197 64.2254 57.2197 66.8643C57.2197 69.5032 59.36 71.6424 62.0002 71.6424Z" fill="#AAB2C5"/>
<path d="M87.9071 67.582C87.8756 66.8694 87.322 66.2616 86.677 66.2313L63.7515 65.7363C63.69 65.6688 63.69 65.6688 63.6285 65.6012C62.829 64.7233 61.5389 64.6627 60.6614 65.4619C60.5939 65.5234 60.5264 65.5848 60.4589 65.6463L56.7793 65.5381C56.0667 65.5693 55.4592 66.1226 55.4292 66.7676C55.4113 67.1546 55.5283 67.4187 55.7743 67.6888C56.0203 67.959 56.3338 68.1676 56.6594 68.1183L60.339 68.2265C60.4005 68.294 60.462 68.3615 60.462 68.3615C61.2616 69.2395 62.5516 69.3001 63.4291 68.5009C63.4966 68.4394 63.5641 68.378 63.6316 68.3165L86.4896 68.873C87.3311 68.8479 87.8771 68.227 87.9071 67.582Z" fill="#AAB2C5"/>
<g filter="url(#filter1_d)">
<path d="M69.9026 14.7928V20.0584C69.9026 22.1062 68.2441 23.6664 66.2929 23.6664H57.3173C55.2685 23.6664 53.7075 22.0087 53.7075 20.0584V14.7928C53.7075 12.745 55.3661 11.1848 57.3173 11.1848H66.2929C68.3417 11.1848 69.9026 12.8425 69.9026 14.7928Z" fill="#5C6479"/>
</g>
<path opacity="0.1" d="M69.9026 14.7928V20.0584C69.9026 22.1062 68.2441 23.6664 66.2929 23.6664H57.3173C55.2685 23.6664 53.7075 22.0087 53.7075 20.0584V19.0833C54.2929 21.6186 56.5368 21.6186 56.5368 21.6186H65.8051C67.0734 21.6186 68.1465 20.546 68.1465 19.2783V15.4754C68.1465 12.8425 67.6587 11.8674 66.2929 11.1848C68.3417 11.1848 69.9026 12.8425 69.9026 14.7928Z" fill="#495A7C"/>
<path d="M55.0728 20.6435C54.7801 20.6435 54.585 20.4484 54.585 20.1559V14.1101C54.585 13.8176 54.7801 13.6226 55.0728 13.6226C55.3654 13.6226 55.5606 13.8176 55.5606 14.1101V20.1559C55.463 20.4484 55.2679 20.6435 55.0728 20.6435Z" fill="#43495B"/>
<path d="M57.3169 20.6435C57.0242 20.6435 56.8291 20.4484 56.8291 20.1559V14.1101C56.8291 13.8176 57.0242 13.6226 57.3169 13.6226C57.6096 13.6226 57.8047 13.8176 57.8047 14.1101V20.1559C57.8047 20.4484 57.6096 20.6435 57.3169 20.6435Z" fill="#43495B"/>
<path d="M59.6587 20.6435C59.366 20.6435 59.1709 20.4484 59.1709 20.1559V14.1101C59.1709 13.8176 59.366 13.6226 59.6587 13.6226C59.9514 13.6226 60.1465 13.8176 60.1465 14.1101V20.1559C60.0489 20.4484 59.8538 20.6435 59.6587 20.6435Z" fill="#43495B"/>
<path d="M61.9024 20.6435C61.6097 20.6435 61.4146 20.4484 61.4146 20.1559V14.1101C61.4146 13.8176 61.6097 13.6226 61.9024 13.6226C62.195 13.6226 62.3902 13.8176 62.3902 14.1101V20.1559C62.3902 20.4484 62.195 20.6435 61.9024 20.6435Z" fill="#43495B"/>
<path d="M64.2437 20.6435C63.951 20.6435 63.7559 20.4484 63.7559 20.1559V14.1101C63.7559 13.8176 63.951 13.6226 64.2437 13.6226C64.5363 13.6226 64.7315 13.8176 64.7315 14.1101V20.1559C64.6339 20.4484 64.4388 20.6435 64.2437 20.6435Z" fill="#43495B"/>
<path d="M66.4878 20.6435C66.1951 20.6435 66 20.4484 66 20.1559V14.1101C66 13.8176 66.1951 13.6226 66.4878 13.6226C66.7805 13.6226 66.9756 13.8176 66.9756 14.1101V20.1559C66.9756 20.4484 66.6829 20.6435 66.4878 20.6435Z" fill="#43495B"/>
<path opacity="0.7" d="M68.7319 20.6435C68.4393 20.6435 68.2441 20.4484 68.2441 20.1559V14.1101C68.2441 13.8176 68.4393 13.6226 68.7319 13.6226C69.0246 13.6226 69.2198 13.8176 69.2198 14.1101V20.1559C69.2198 20.4484 69.0246 20.6435 68.7319 20.6435Z" fill="#43495B"/>
<g filter="url(#filter2_d)">
<path d="M34.9761 33.8078L30.098 38.6835C29.0248 39.7561 27.2687 39.7561 26.098 38.6835L23.2687 35.8556C22.1956 34.783 22.1956 33.0277 23.2687 31.8576L28.1468 26.982C29.22 25.9093 30.9761 25.9093 32.1468 26.982L34.9761 29.8098C36.0492 30.98 36.0492 32.7352 34.9761 33.8078Z" fill="#5C6479"/>
</g>
<g filter="url(#filter3_d)">
<path d="M89.4143 33.8078L94.2923 38.6835C95.3655 39.7561 97.1216 39.7561 98.2923 38.6835L101.122 35.8556C102.195 34.783 102.195 33.0277 101.122 31.8576L96.2435 26.982C95.1704 25.9093 93.4143 25.9093 92.2435 26.982L89.4143 29.8098C88.3411 30.98 88.3411 32.7352 89.4143 33.8078Z" fill="#5C6479"/>
</g>
<path d="M61.8058 67.2614C61.9417 67.4106 62.1728 67.4214 62.322 67.2855C62.4712 67.1497 62.482 66.9186 62.3461 66.7694C62.2102 66.6202 61.9792 66.6094 61.83 66.7453C61.6808 66.8811 61.67 67.1122 61.8058 67.2614Z" fill="#414758"/>
<path d="M50.8225 62.9323C52.4497 62.9323 53.8266 61.5554 53.8266 59.9282C53.8266 58.301 52.4497 56.9241 50.8225 56.9241C49.1952 56.9241 47.8184 58.301 47.8184 59.9282C47.8184 61.5554 49.1952 62.9323 50.8225 62.9323Z" fill="#AAB2C5"/>
<path d="M73.8537 62.9323C75.4809 62.9323 76.8578 61.5554 76.8578 59.9282C76.8578 58.301 75.4809 56.9241 73.8537 56.9241C72.2265 56.9241 70.8496 58.301 70.8496 59.9282C70.8496 61.6806 72.2265 62.9323 73.8537 62.9323Z" fill="#989FB0"/>
<path d="M50.705 49.9893L44.0967 53.5574L44.9887 55.2094L51.597 51.6413L50.705 49.9893Z" fill="#AAB2C5"/>
<path d="M73.4455 49.9417L72.5537 51.594L79.1627 55.1614L80.0546 53.5091L73.4455 49.9417Z" fill="#AAB2C5"/>
<rect x="57.5757" y="76.9417" width="9" height="2" fill="#AAB2C5"/>
<defs>
<filter id="filter0_d" x="0" y="15.9817" width="124.78" height="124.74" filterUnits="userSpaceOnUse" color-interpolation-filters="sRGB">
<feFlood flood-opacity="0" result="BackgroundImageFix"/>
<feColorMatrix in="SourceAlpha" type="matrix" values="0 0 0 0 0 0 0 0 0 0 0 0 0 0 0 0 0 0 127 0" result="hardAlpha"/>
<feOffset dy="11"/>
<feGaussianBlur stdDeviation="11"/>
<feColorMatrix type="matrix" values="0 0 0 0 0 0 0 0 0 0 0 0 0 0 0 0 0 0 0.27 0"/>
<feBlend mode="normal" in2="BackgroundImageFix" result="effect1_dropShadow"/>
<feBlend mode="normal" in="SourceGraphic" in2="effect1_dropShadow" result="shape"/>
</filter>
<filter id="filter1_d" x="31.7075" y="0.184814" width="60.1953" height="56.4817" filterUnits="userSpaceOnUse" color-interpolation-filters="sRGB">
<feFlood flood-opacity="0" result="BackgroundImageFix"/>
<feColorMatrix in="SourceAlpha" type="matrix" values="0 0 0 0 0 0 0 0 0 0 0 0 0 0 0 0 0 0 127 0" result="hardAlpha"/>
<feOffset dy="11"/>
<feGaussianBlur stdDeviation="11"/>
<feColorMatrix type="matrix" values="0 0 0 0 0 0 0 0 0 0 0 0 0 0 0 0 0 0 0.27 0"/>
<feBlend mode="normal" in2="BackgroundImageFix" result="effect1_dropShadow"/>
<feBlend mode="normal" in="SourceGraphic" in2="effect1_dropShadow" result="shape"/>
</filter>
<filter id="filter2_d" x="0.463867" y="15.1775" width="57.3169" height="57.3105" filterUnits="userSpaceOnUse" color-interpolation-filters="sRGB">
<feFlood flood-opacity="0" result="BackgroundImageFix"/>
<feColorMatrix in="SourceAlpha" type="matrix" values="0 0 0 0 0 0 0 0 0 0 0 0 0 0 0 0 0 0 127 0" result="hardAlpha"/>
<feOffset dy="11"/>
<feGaussianBlur stdDeviation="11"/>
<feColorMatrix type="matrix" values="0 0 0 0 0 0 0 0 0 0 0 0 0 0 0 0 0 0 0.27 0"/>
<feBlend mode="normal" in2="BackgroundImageFix" result="effect1_dropShadow"/>
<feBlend mode="normal" in="SourceGraphic" in2="effect1_dropShadow" result="shape"/>
</filter>
<filter id="filter3_d" x="66.6094" y="15.1775" width="57.3169" height="57.3105" filterUnits="userSpaceOnUse" color-interpolation-filters="sRGB">
<feFlood flood-opacity="0" result="BackgroundImageFix"/>
<feColorMatrix in="SourceAlpha" type="matrix" values="0 0 0 0 0 0 0 0 0 0 0 0 0 0 0 0 0 0 127 0" result="hardAlpha"/>
<feOffset dy="11"/>
<feGaussianBlur stdDeviation="11"/>
<feColorMatrix type="matrix" values="0 0 0 0 0 0 0 0 0 0 0 0 0 0 0 0 0 0 0.27 0"/>
<feBlend mode="normal" in2="BackgroundImageFix" result="effect1_dropShadow"/>
<feBlend mode="normal" in="SourceGraphic" in2="effect1_dropShadow" result="shape"/>
</filter>
<linearGradient id="paint0_linear" x1="62.3639" y1="25.1141" x2="62.3639" y2="108.592" gradientUnits="userSpaceOnUse">
<stop stop-color="#5C6479"/>
<stop offset="0.9964" stop-color="#5C6479"/>
</linearGradient>
</defs>
</svg>
