<svg width="128" height="136" viewBox="0 0 128 136" fill="none" xmlns="http://www.w3.org/2000/svg">
<path d="M70.3001 110.058C98.3001 110.058 121 87.3581 121 59.2581C121 31.1581 98.2001 8.45813 70.3001 8.45813C42.3001 8.45813 19.6001 31.1581 19.6001 59.2581C19.6001 87.3581 42.3001 110.058 70.3001 110.058Z" fill="#2A2E37"/>
<path d="M117.7 25.9582C119.964 25.9582 121.8 24.1225 121.8 21.8582C121.8 19.5938 119.964 17.7582 117.7 17.7582C115.436 17.7582 113.6 19.5938 113.6 21.8582C113.6 24.1225 115.436 25.9582 117.7 25.9582Z" fill="#2A2E37"/>
<path d="M123.7 9.95815C125.246 9.95815 126.5 8.70455 126.5 7.15815C126.5 5.61176 125.246 4.35815 123.7 4.35815C122.154 4.35815 120.9 5.61176 120.9 7.15815C120.9 8.70455 122.154 9.95815 123.7 9.95815Z" fill="#2A2E37"/>
<path d="M22.3 25.8582C23.8464 25.8582 25.1 24.6046 25.1 23.0582C25.1 21.5118 23.8464 20.2582 22.3 20.2582C20.7536 20.2582 19.5 21.5118 19.5 23.0582C19.5 24.6046 20.7536 25.8582 22.3 25.8582Z" fill="#2A2E37"/>
<path d="M5.2 79.8581C8.07188 79.8581 10.4 77.53 10.4 74.6581C10.4 71.7863 8.07188 69.4581 5.2 69.4581C2.32812 69.4581 0 71.7863 0 74.6581C0 77.53 2.32812 79.8581 5.2 79.8581Z" fill="#2A2E37"/>
<g filter="url(#filter0_d)">
<path d="M104.8 33.8581L105.6 98.2581C105.6 100.458 103.8 102.158 101.6 102.158H38.7998C36.5998 102.158 34.7998 100.358 34.7998 98.2581V15.4581C34.7998 13.2581 36.5998 11.5581 38.7998 11.5581H84.2998L104.8 33.8581Z" fill="url(#paint0_linear)"/>
</g>
<path d="M84.2998 11.5581V29.3581C84.2998 31.8581 86.4998 33.8581 88.9998 33.8581H104.8" fill="#3A4050"/>
<path d="M61.7081 81.2892L62.6539 82.8595C62.9119 83.3263 63.1699 83.8356 63.4278 84.26H63.4708C63.7288 83.7507 63.9437 83.2839 64.2017 82.817L65.0616 81.2892H68.2861L65.1476 85.7878L68.3291 90.7533H64.9756L64.0297 89.0557C63.7718 88.5889 63.5138 88.122 63.2988 87.6127H63.1699C62.9549 88.122 62.6969 88.5889 62.439 89.0557L61.5361 90.7533H58.2686L61.5361 85.9576L58.3545 81.2892H61.7081Z" fill="#A9AFC3"/>
<path d="M69.5762 77.0028H72.5427V90.7533H69.5762V77.0028Z" fill="#A9AFC3"/>
<path d="M74.95 88.1645C75.5089 88.504 76.6267 88.886 77.5296 88.886C78.4325 88.886 78.8194 88.5889 78.8194 88.0796C78.8194 87.5703 78.5184 87.3581 77.4006 87.0186C75.4229 86.3396 74.649 85.2786 74.692 84.1751C74.692 82.4351 76.2398 81.077 78.6044 81.077C79.7223 81.077 80.7111 81.3317 81.313 81.6287L80.7971 83.6659C80.3672 83.4537 79.5503 83.1141 78.7334 83.1141C78.0025 83.1141 77.6156 83.4112 77.6156 83.8781C77.6156 84.3449 78.0025 84.5571 79.1634 84.9815C80.9691 85.6181 81.743 86.5093 81.786 87.9099C81.786 89.6499 80.3672 90.9655 77.6156 90.9655C76.3688 90.9655 75.2509 90.7109 74.52 90.2865L74.95 88.1645Z" fill="#A9AFC3"/>
<path d="M92.1145 39.3794H77.5368C77.4785 39.3794 77.4785 39.3794 77.4202 39.3794C77.3619 39.3794 77.3619 39.3794 77.3036 39.3794H62.2595C62.2011 39.3794 62.2011 39.3794 62.1428 39.3794C62.0845 39.3794 62.0845 39.3794 62.0262 39.3794H47.8567C46.2823 39.3794 44.9995 40.7033 44.9995 42.2574V67.4684C44.9995 69.08 46.2823 70.3463 47.8567 70.3463H92.1145C93.6889 70.3463 94.9717 69.08 94.9717 67.4684V42.2574C94.9717 40.7033 93.6889 39.3794 92.1145 39.3794ZM63.0175 61.7124V56.0716H76.5456V61.7124H63.0175ZM76.5456 63.4392V68.6771H63.0175V63.4392H76.5456ZM76.5456 48.6464V54.3448H63.0175V48.704H76.5456V48.6464ZM63.0175 46.9197V41.1062H76.5456V46.9197H63.0175ZM93.2224 54.3448H78.2949V48.704H93.2224V54.3448ZM61.2682 54.3448H46.7488V48.704H61.2682V54.3448ZM46.7488 56.0716H61.2682V61.7124H46.7488V56.0716ZM78.2949 56.0716H93.2224V61.7124H78.2949V56.0716ZM93.2224 42.2574V46.9197H78.2949V41.1062H92.1145C92.7559 41.1062 93.2224 41.6242 93.2224 42.2574ZM47.8567 41.1062H61.2682V46.9197H46.7488V42.2574C46.7488 41.6242 47.2153 41.1062 47.8567 41.1062ZM46.7488 67.5259V63.4392H61.2682V68.6771H47.8567C47.2736 68.6771 46.7488 68.1591 46.7488 67.5259ZM92.1145 68.6771H78.2949V63.4392H93.2224V67.5259C93.2224 68.1591 92.6976 68.6771 92.1145 68.6771Z" fill="#A9AFC3"/>
<defs>
<filter id="filter0_d" x="12.7998" y="0.558105" width="114.8" height="134.6" filterUnits="userSpaceOnUse" color-interpolation-filters="sRGB">
<feFlood flood-opacity="0" result="BackgroundImageFix"/>
<feColorMatrix in="SourceAlpha" type="matrix" values="0 0 0 0 0 0 0 0 0 0 0 0 0 0 0 0 0 0 127 0" result="hardAlpha"/>
<feOffset dy="11"/>
<feGaussianBlur stdDeviation="11"/>
<feColorMatrix type="matrix" values="0 0 0 0 0 0 0 0 0 0 0 0 0 0 0 0 0 0 0.27 0"/>
<feBlend mode="normal" in2="BackgroundImageFix" result="effect1_dropShadow"/>
<feBlend mode="normal" in="SourceGraphic" in2="effect1_dropShadow" result="shape"/>
</filter>
<linearGradient id="paint0_linear" x1="70.1767" y1="9.46244" x2="70.1767" y2="103.135" gradientUnits="userSpaceOnUse">
<stop stop-color="#5C6479"/>
<stop offset="0.9964" stop-color="#5C6479"/>
</linearGradient>
</defs>
</svg>
