<svg width="144" height="155" viewBox="0 0 144 155" fill="none" xmlns="http://www.w3.org/2000/svg">
<path d="M125.887 71.1142C125.887 89.2553 116.422 105.227 102.028 114.101C101.239 114.495 100.45 115.087 99.8588 115.481C92.5629 119.622 84.0839 121.988 75.2105 121.988C66.9287 121.988 59.0412 120.016 52.1397 116.467C35.5761 107.988 24.3364 90.8328 24.3364 71.1142C24.3364 43.1137 47.0129 20.4373 75.0133 20.4373C84.2811 20.4373 92.7601 22.8035 100.253 27.1416C105.38 29.9022 109.718 33.6487 113.465 38.184C114.253 38.9728 115.042 39.9587 115.634 40.9446C122.141 49.2265 125.887 59.6774 125.887 71.1142Z" fill="#2A2E37"/>
<path d="M62.3937 20.0428V74.2691C62.3937 79.1987 58.4499 83.1425 53.5203 83.1425C53.1259 83.1425 52.7315 83.1425 52.14 83.1425C47.8019 82.5509 44.4497 78.8044 44.4497 74.2691V20.0428C44.4497 15.5075 47.8019 11.761 52.14 11.1694C52.5344 11.1694 52.9287 11.1694 53.5203 11.1694C56.0837 11.1694 58.2528 12.1554 59.8302 13.7329C61.4077 15.3103 62.3937 17.4794 62.3937 20.0428Z" fill="#454B57"/>
<path d="M80.1403 44.4939V98.7202C80.1403 103.65 76.1965 107.594 71.2669 107.594C70.8725 107.594 70.4781 107.594 69.8866 107.396C65.5485 106.805 62.1963 103.058 62.1963 98.523V44.4939C62.1963 39.9586 65.5485 36.2121 69.8866 35.6205C70.2809 35.6205 70.6753 35.4233 71.2669 35.4233C73.8303 35.4233 75.9993 36.4093 77.5768 37.9868C79.1543 39.7614 80.1403 41.9305 80.1403 44.4939Z" fill="#454B57"/>
<path d="M98.0841 50.4094V104.636C98.0841 109.565 94.1404 113.509 89.2107 113.509C88.8163 113.509 88.422 113.509 87.8304 113.312C83.4923 112.72 80.1401 108.974 80.1401 104.439V50.4094C80.1401 45.8742 83.4923 42.3248 87.8304 41.5361C88.2248 41.5361 88.6192 41.3389 89.2107 41.3389C91.7741 41.3389 93.9432 42.3248 95.5207 43.9023C96.901 45.677 98.0841 47.846 98.0841 50.4094Z" fill="#454B57"/>
<path d="M64.7598 105.03C63.7739 105.819 62.5908 106.41 61.4076 106.805C57.6611 107.791 53.5202 106.41 50.9568 103.255L24.3366 68.3534C20.9844 64.0153 21.7732 57.7054 26.3085 54.3532L26.5057 54.156C28.2803 52.9729 30.2522 52.3813 32.2241 52.3813C35.1819 52.3813 38.1396 53.7617 40.1115 56.3251L66.5345 91.2271C69.8867 95.5652 69.0979 101.875 64.7598 105.03Z" fill="#7F3F98"/>
<path d="M44.4496 62.0435V94.9736L24.3366 68.3534C20.9844 64.0153 21.7732 57.7054 26.3085 54.3532L26.5057 54.156C28.2803 52.9729 30.2522 52.3813 32.2241 52.3813C35.1819 52.3813 38.1396 53.7617 40.1115 56.3251L44.4496 62.0435Z" fill="#454B57"/>
<path d="M115.831 33.057V72.2971C115.831 94.7763 102.028 97.7341 102.028 102.664V114.101C101.24 114.495 100.451 115.087 99.8592 115.481C92.5633 119.622 84.0843 121.988 75.2109 121.988C66.9291 121.988 59.0417 120.016 52.1401 116.467V60.2687L92.9577 59.0856H95.1268L95.9155 59.6772L98.0846 61.0575V33.057C98.0846 30.6907 99.0705 28.5217 100.451 26.9442C101.831 25.3667 103.803 24.3808 105.972 24.1836C106.366 24.1836 106.761 24.1836 107.155 24.1836C111.888 24.1836 115.831 28.1273 115.831 33.057Z" fill="#454B57"/>
<g filter="url(#filter0_d)">
<path d="M77.5769 44.494V52.3815H79.9431V50.4095C79.9431 45.8742 83.2953 42.3249 87.6334 41.5361C89.6053 41.7333 91.38 42.7192 92.5631 44.0996C94.3378 45.677 95.3237 47.8461 95.3237 50.4095V56.5223H98.0843V33.0571C98.0843 30.6909 99.0703 28.5218 100.451 26.9443C101.831 25.3668 103.803 24.3809 105.972 24.1837C110.113 24.7753 113.662 28.5218 113.662 33.0571V72.2972C113.662 87.607 107.26 93.8618 103.176 97.8516C101.263 99.72 99.859 101.092 99.859 102.664V115.284C92.5631 119.425 84.0841 121.791 75.2107 121.791C66.9289 121.791 59.0414 119.819 52.1399 116.27V104.492C51.7174 104.116 51.3212 103.704 50.9568 103.255L24.3366 68.3534C20.9844 64.0153 21.7732 57.7053 26.3085 54.3532L26.5057 54.156C27.2944 53.9588 28.2803 53.7616 29.0691 53.7616C32.0269 53.7616 34.9847 55.1419 36.9565 57.7053L44.2524 67.3425V20.0428C44.2524 15.5075 47.6046 11.761 51.9427 11.1694C53.9146 11.3666 55.6893 12.3526 56.8724 13.7329C58.647 15.3103 59.633 17.4794 59.633 20.0428V49.4236H62.1964V44.494C62.1964 39.9587 65.5485 36.2122 69.8866 35.6206C71.8585 35.8178 73.6332 36.8037 74.8163 38.184C76.591 39.7615 77.5769 41.9306 77.5769 44.494Z" fill="url(#paint0_linear)"/>
</g>
<path d="M80.5904 15.8451C83.2041 15.8451 85.3229 13.7263 85.3229 11.1126C85.3229 8.49893 83.2041 6.38013 80.5904 6.38013C77.9767 6.38013 75.8579 8.49893 75.8579 11.1126C75.8579 13.7263 77.9767 15.8451 80.5904 15.8451Z" fill="#2A2E37"/>
<path d="M139.099 62.6351C141.713 62.6351 143.832 60.5163 143.832 57.9026C143.832 55.289 141.713 53.1702 139.099 53.1702C136.486 53.1702 134.367 55.289 134.367 57.9026C134.367 60.5163 136.486 62.6351 139.099 62.6351Z" fill="#2A2E37"/>
<path d="M130.203 6.94088H125.242V1.97974H120.989V6.94088H116.028V11.335H120.989V16.2962H125.242V11.335H130.203V6.94088Z" fill="#5C6479"/>
<path d="M17.606 30.5404H12.7836V25.718H8.65014V30.5404H4V34.6738H8.65014V39.324H12.7836V34.6738H17.606V30.5404Z" fill="#5C6479"/>
<defs>
<filter id="filter0_d" x="0.274414" y="0.169434" width="135.388" height="154.622" filterUnits="userSpaceOnUse" color-interpolation-filters="sRGB">
<feFlood flood-opacity="0" result="BackgroundImageFix"/>
<feColorMatrix in="SourceAlpha" type="matrix" values="0 0 0 0 0 0 0 0 0 0 0 0 0 0 0 0 0 0 127 0" result="hardAlpha"/>
<feOffset dy="11"/>
<feGaussianBlur stdDeviation="11"/>
<feColorMatrix type="matrix" values="0 0 0 0 0 0 0 0 0 0 0 0 0 0 0 0 0 0 0.27 0"/>
<feBlend mode="normal" in2="BackgroundImageFix" result="effect1_dropShadow"/>
<feBlend mode="normal" in="SourceGraphic" in2="effect1_dropShadow" result="shape"/>
</filter>
<linearGradient id="paint0_linear" x1="67.9385" y1="8.61065" x2="67.9385" y2="122.984" gradientUnits="userSpaceOnUse">
<stop stop-color="#5C6479"/>
<stop offset="0.9964" stop-color="#5C6479"/>
</linearGradient>
</defs>
</svg>
