<svg width="196" height="105" viewBox="0 0 196 105" fill="none" xmlns="http://www.w3.org/2000/svg">
<g filter="url(#filter0_d)">
<path d="M157.659 74.2107C156.419 72.4205 154.4 71.3647 152.242 71.3647H133.514L127.638 62.7349C126.399 60.8987 124.333 59.8429 122.13 59.8429H94.1284L91.3742 49.5147C91.1906 48.8261 90.5021 48.413 89.8135 48.5966L86.0494 49.6065C85.3609 49.7901 84.9477 50.4786 85.1314 51.1672L91.8792 76.3223L85.0396 90.3228L90.8234 93.1688L98.1679 78.0207C98.2597 77.7912 98.3516 77.5617 98.3975 77.3322H152.196C152.38 77.3322 152.564 77.424 152.701 77.6076L165.646 96.6116L170.558 93.2607L157.659 74.2107ZM122.13 63.4234C123.094 63.4234 124.012 63.9283 124.562 64.7087L129.015 71.2729H97.204L95.0924 63.3775H122.13V63.4234Z" fill="url(#paint0_linear)"/>
</g>
<path d="M186.761 97.7132H11.5479C25.273 89.5424 43.5885 83.4831 61.9957 83.7585C83.9835 84.0799 105.099 89.1751 110.837 91.9753C126.582 91.0113 146.596 86.88 157.062 87.2013C165.967 87.5226 178.912 89.9096 186.761 97.7132Z" fill="#2A2E37"/>
<path d="M194.152 97.7131H186.761H11.5479H2" stroke="#2B323C" stroke-width="3" stroke-miterlimit="10" stroke-linecap="round" stroke-linejoin="round"/>
<path d="M71.8652 88.9916C70.9013 88.9916 70.0291 88.303 69.8455 87.339L53.5957 3.0144C53.3662 1.91272 54.1006 0.811034 55.2482 0.581516C56.3499 0.351999 57.4516 1.08645 57.6811 2.23404L73.9309 86.5128C74.1604 87.6145 73.426 88.7161 72.2784 88.9457C72.0948 88.9916 72.003 88.9916 71.8652 88.9916Z" fill="#4E5563"/>
<path d="M44.2769 45.7047C44.3228 45.4293 44.4146 45.1997 44.5064 44.9243C44.5523 45.3374 44.5523 45.7506 44.5982 46.1637C44.5064 45.9801 44.3687 45.8424 44.2769 45.7047Z" fill="white"/>
<path d="M80.7705 38.5437C80.7246 38.5896 80.7246 38.6814 80.7246 38.7273C80.6787 38.5896 80.6328 38.4519 80.5869 38.2683C80.6328 38.3601 80.7246 38.4519 80.7705 38.5437Z" fill="white"/>
<path d="M143.681 39.8648C152.453 39.8648 159.564 32.7539 159.564 23.9822C159.564 15.2105 152.453 8.09961 143.681 8.09961C134.909 8.09961 127.798 15.2105 127.798 23.9822C127.798 32.7539 134.909 39.8648 143.681 39.8648Z" fill="#5C6479"/>
<path d="M37.5752 93.6277C39.3654 90.8735 43.0836 91.5162 44.5984 92.067" stroke="#4E5563" stroke-width="0.918069" stroke-miterlimit="10" stroke-linecap="round" stroke-linejoin="round"/>
<path d="M62.8223 90.7819C66.5863 88.4408 71.498 90.231 71.8652 92.0213" stroke="#4E5563" stroke-width="0.918069" stroke-miterlimit="10" stroke-linecap="round" stroke-linejoin="round"/>
<path d="M78.3374 95.2344C78.9801 94.3163 80.449 93.6277 81.4129 94.2704" stroke="#4E5563" stroke-width="0.918069" stroke-miterlimit="10" stroke-linecap="round" stroke-linejoin="round"/>
<path d="M138.012 94.6376C141.822 93.3982 142.005 94.1786 142.969 94.6376" stroke="#4E5563" stroke-width="0.918069" stroke-miterlimit="10" stroke-linecap="round" stroke-linejoin="round"/>
<path d="M150.911 93.6279C151.324 92.8934 153.344 93.2148 153.344 93.2148" stroke="#4E5563" stroke-width="0.918069" stroke-miterlimit="10" stroke-linecap="round" stroke-linejoin="round"/>
<path d="M109.827 25.8285C105.971 23.9006 101.473 23.1661 96.8822 24.0383C88.9409 25.5072 82.8817 31.291 80.7701 38.5438C80.7242 38.5897 80.7242 38.6815 80.7242 38.7274C80.6783 38.5897 80.6324 38.452 80.5865 38.2684C75.9961 32.4386 68.3762 29.2254 60.5267 30.6943C52.6772 32.1173 46.7097 37.8093 44.5064 44.9243C44.5523 45.3375 44.5523 45.7506 44.5982 46.1637C44.5064 46.026 44.3687 45.8424 44.2769 45.7047C39.7324 39.4159 31.8829 35.9732 23.758 37.4421C19.489 38.2224 15.7249 40.2881 12.8789 43.1341C17.8365 23.2579 33.9945 7.05401 55.4773 3.15222C77.1437 -0.841383 98.1675 8.75244 109.827 25.8285Z" fill="#5C6479"/>
<path d="M80.5865 38.2683C75.9962 32.4386 68.3762 29.2253 60.5267 30.6943C52.6772 32.1173 46.7098 37.8093 44.5064 44.9243C42.6703 22.2939 46.9393 4.7129 55.5232 3.15219C64.0613 1.59147 74.2518 16.5101 80.5865 38.2683Z" fill="#2A2E37"/>
<defs>
<filter id="filter0_d" x="81.0396" y="48.553" width="93.5181" height="56.0586" filterUnits="userSpaceOnUse" color-interpolation-filters="sRGB">
<feFlood flood-opacity="0" result="BackgroundImageFix"/>
<feColorMatrix in="SourceAlpha" type="matrix" values="0 0 0 0 0 0 0 0 0 0 0 0 0 0 0 0 0 0 127 0" result="hardAlpha"/>
<feOffset dy="4"/>
<feGaussianBlur stdDeviation="2"/>
<feComposite in2="hardAlpha" operator="out"/>
<feColorMatrix type="matrix" values="0 0 0 0 0 0 0 0 0 0 0 0 0 0 0 0 0 0 0.25 0"/>
<feBlend mode="normal" in2="BackgroundImageFix" result="effect1_dropShadow"/>
<feBlend mode="normal" in="SourceGraphic" in2="effect1_dropShadow" result="shape"/>
</filter>
<linearGradient id="paint0_linear" x1="104.656" y1="61.1684" x2="118.773" y2="103.696" gradientUnits="userSpaceOnUse">
<stop stop-color="#E3EAF7"/>
<stop offset="1" stop-color="#ADB6C8"/>
</linearGradient>
</defs>
</svg>
