<svg width="206" height="188" viewBox="0 0 206 188" fill="none" xmlns="http://www.w3.org/2000/svg">
<path d="M64.5581 162.496H181.337" stroke="#2B323C" stroke-width="3" stroke-miterlimit="10" stroke-linecap="round" stroke-linejoin="round"/>
<path d="M192.741 162.496H204.306" stroke="#2B323C" stroke-width="3" stroke-miterlimit="10" stroke-linecap="round" stroke-linejoin="round"/>
<path d="M67.1171 153.624C70.6745 153.624 73.5584 150.74 73.5584 147.182C73.5584 143.625 70.6745 140.741 67.1171 140.741C63.5597 140.741 60.6758 143.625 60.6758 147.182C60.6758 150.74 63.5597 153.624 67.1171 153.624Z" fill="#B8BFCD"/>
<path d="M130.178 126.825C130.258 137.003 131.133 149.886 131.451 151.238C131.371 152.669 128.349 157.202 125.884 154.101C123.419 150.999 118.409 144.319 120.715 131.755C123.021 119.27 130.178 126.825 130.178 126.825Z" fill="#969EAF"/>
<path d="M66.2426 153.544C66.2426 153.624 66.2426 153.783 66.3221 153.862C66.3221 153.942 66.4016 154.101 66.4016 154.18C66.4811 154.26 66.4811 154.419 66.5607 154.498C66.6402 154.578 66.7197 154.658 66.7992 154.817C67.1969 155.373 67.9126 155.85 68.7078 156.327C68.8668 156.407 69.1054 156.487 69.2644 156.566C69.344 156.646 69.503 156.646 69.5825 156.725C69.662 156.805 69.8211 156.805 69.9006 156.884L70.2187 156.964C70.6163 157.123 71.0935 157.282 71.5706 157.361C71.8092 157.441 71.9682 157.441 72.2068 157.52C72.3658 157.52 72.5249 157.6 72.7634 157.6C72.9225 157.6 73.0815 157.679 73.2406 157.679C74.5129 157.838 75.7058 157.759 76.7396 157.361C80.3181 156.009 81.7495 153.226 81.7495 153.226C81.7495 153.226 82.7037 153.465 84.2147 153.624C87.0775 154.021 91.8488 154.578 95.984 154.18C97.3359 154.021 98.7673 153.703 100.278 153.306C100.755 153.147 101.232 152.988 101.789 152.828C102.743 152.51 103.618 152.113 104.572 151.715C107.117 150.602 109.503 149.091 111.491 147.421C111.729 147.262 111.968 147.023 112.207 146.864C113.32 145.831 114.274 144.717 114.99 143.604C116.421 141.139 118.33 139.071 120.397 137.083C123.499 134.141 127.157 131.596 130.497 128.892C131.531 128.097 132.564 127.222 133.519 126.427C136.62 123.723 139.403 120.542 141.312 116.884C143.379 112.908 143.379 109.171 143.061 104.797C143.061 104.558 142.584 101.696 142.743 101.616C144.175 100.662 145.208 99.3098 145.765 97.6399C147.037 94.2999 146.56 90.0057 145.049 87.2224C144.89 86.9043 144.731 86.5862 144.572 86.3477C142.982 83.5644 141.073 80.304 138.926 78.1569L135.03 74.2603H101.153C101.153 74.2603 100.755 76.5664 100.199 79.4292C100.119 79.6678 100.119 79.9064 100.04 80.1449C99.9601 80.6221 99.8806 81.0992 99.7216 81.5763C99.642 81.8149 99.642 82.0535 99.5625 82.292C99.5625 82.3715 99.5625 82.3715 99.483 82.4511C99.4035 83.0077 99.2444 83.4849 99.1649 84.0415C98.8468 85.632 98.4492 87.0634 97.9721 88.2562C97.9721 88.3357 97.8925 88.4948 97.8925 88.5743C97.654 89.2105 97.4154 89.7671 97.1768 90.1648C95.2683 93.2661 85.5665 102.173 78.8071 107.183C72.0477 112.192 68.9463 120.701 67.1969 134.459C65.2088 148.137 65.9245 150.92 66.2426 153.544Z" fill="#5C6479"/>
<path d="M127.315 149.807C131.848 149.329 131.769 149.807 134.313 149.807C136.858 149.807 137.494 151.079 138.449 152.272C139.005 153.067 139.8 155.373 140.278 157.043C140.596 157.997 139.88 158.872 138.926 158.952C136.063 158.952 130.894 159.031 130.019 158.952C128.747 158.793 126.043 158.475 124.85 156.486C124.453 155.771 124.214 154.816 123.976 153.862C123.657 152.033 124.85 150.204 126.759 149.966L127.315 149.807Z" fill="#5C6479"/>
<path opacity="0.3" d="M66.2422 153.544C66.4808 156.168 73.0016 158.633 76.5801 157.282C80.2382 155.93 81.59 153.146 81.59 153.146C81.59 153.146 89.4628 154.737 95.8246 154.18C100.596 153.703 107.037 150.92 111.252 147.341L110.695 135.254C110.695 135.254 110.218 124.677 109.741 120.065C109.343 115.453 113.001 115.532 112.842 109.568C112.604 103.604 114.99 93.0274 118.091 83.3257L107.276 75.2144L99.8802 79.429C99.1645 83.4052 97.9717 88.4151 96.9379 90.2441C95.0294 93.3455 85.3276 102.252 78.5682 107.262C71.8088 112.272 68.7074 120.781 66.9579 134.538C65.2084 148.136 65.9241 150.92 66.2422 153.544Z" fill="#BFC8D6"/>
<path opacity="0.4" d="M66.2423 153.544C66.2423 153.624 66.2423 153.783 66.3218 153.862C66.3218 153.942 66.4013 154.101 66.4013 154.18C66.4809 154.26 66.4809 154.419 66.5604 154.498C66.6399 154.578 66.7194 154.657 66.799 154.816C67.1966 155.373 67.9123 155.85 68.7075 156.327C68.8665 156.407 69.1051 156.486 69.2642 156.566C69.3437 156.645 69.5027 156.645 69.5822 156.725C69.6618 156.804 69.8208 156.804 69.9003 156.884L70.2184 156.963C70.616 157.122 71.0932 157.282 71.5703 157.361C71.8089 157.441 71.9679 157.441 72.2065 157.52C73.3198 156.804 73.956 156.327 73.956 156.327C73.956 156.327 73.956 156.327 73.4789 153.464C73.3198 152.59 73.1608 151.397 72.9222 149.806C71.8884 143.206 72.6041 130.164 81.4311 130.562C80.4768 123.882 84.1349 116.486 87.3158 111.795C90.5762 107.182 92.9619 109.727 95.7452 112.908C96.0632 111.556 94.6318 106.149 92.8823 101.377C96.4609 105.671 99.6418 107.182 108.151 107.978C104.334 104.797 103.856 103.127 100.755 96.1287C104.652 97.9577 112.604 100.105 117.375 100.741C128.906 102.252 138.846 101.695 145.526 97.6397C146.799 94.2997 146.321 90.0055 144.811 87.2222C144.652 86.9041 144.492 86.586 144.333 86.3475C138.21 85.7908 127.793 84.9161 118.011 84.0413C110.854 83.4051 104.015 82.769 99.4032 82.3713C99.4032 82.4509 99.4032 82.4509 99.3237 82.5304C99.2441 83.087 99.0851 83.5642 99.0056 84.1208C98.6875 85.7113 98.2899 87.1427 97.8127 88.3355C97.8127 88.415 97.7332 88.5741 97.7332 88.6536C97.4947 89.2898 97.2561 89.8465 97.0175 90.2441C95.109 93.3454 85.4072 102.252 78.6478 107.262C71.8884 112.272 68.787 120.781 67.0375 134.538C65.2085 148.136 65.9242 150.92 66.2423 153.544Z" fill="#BFC8D6"/>
<path d="M111.968 158.236C111.968 158.236 111.332 148.614 111.252 147.341C111.173 146.467 106.004 150.602 101.232 141.775C96.461 132.948 95.7453 131.357 95.9043 129.131C94.4729 140.343 98.9262 147.898 99.8009 151.954C100.676 156.009 101.471 155.85 101.471 155.85L109.503 157.441L111.968 158.236Z" fill="#969EAF"/>
<path d="M104.016 151.715C108.549 151.158 108.469 151.715 111.014 151.715C113.558 151.715 114.195 153.067 115.149 154.339C115.706 155.134 116.501 157.679 116.978 159.508C117.296 160.542 116.58 161.496 115.626 161.496C112.763 161.496 106.401 161.417 105.527 161.337C104.254 161.178 102.743 160.94 101.63 158.792C101.232 157.997 100.994 156.963 100.755 155.93C100.437 153.942 101.63 152.033 103.539 151.715H104.016Z" fill="#5C6479"/>
<path d="M83.3395 153.067C85.4071 154.339 86.5999 157.361 87.2361 159.508C87.5542 160.542 86.8385 161.496 85.8842 161.496C83.0214 161.496 76.6596 161.417 75.7848 161.337C70.7749 160.701 70.2183 155.214 74.0353 153.067C76.421 151.636 80.9538 151.556 83.3395 153.067Z" fill="#5C6479"/>
<path d="M138.5 92.1195C137.831 92.7782 137.073 93.3651 136.3 93.8711C135.249 94.5757 134.108 95.2086 132.953 95.7606C129.412 97.4255 125.622 98.5422 121.578 98.6154C118.235 98.6869 114.671 98.3719 111.352 97.2014C110.199 96.8443 109.019 96.3253 107.991 95.7879C102.071 92.6169 98.6711 90.0515 97.9776 83.1953C97.2841 76.3391 97.4001 71.0378 97.4001 71.0378C97.3806 70.4618 97.9453 69.6504 98.0923 69.137C98.3786 68.5243 98.5748 67.8398 98.861 67.2271C99.3572 66.0108 99.916 64.7044 100.502 63.5599C101.8 61.0906 103.473 58.9894 105.638 57.4899C109.131 55.087 113.435 54.2391 117.668 53.8954C120.74 53.6086 123.93 53.5555 127.055 54.5016C129.77 55.3317 132.123 56.7837 134.252 58.7583C136.561 60.8764 138.404 63.4638 140.449 65.8616C140.449 65.8616 142.321 70.9238 143.932 77.6697C145.543 84.4156 143.117 87.5988 138.5 92.1195Z" fill="#5C6479"/>
<path d="M112.021 81.0885C111.243 82.0063 110.592 85.0514 106.097 83.779C99.7112 81.9098 98.9259 73.5982 101.767 70.6193C106.845 65.2286 113.239 66.6848 115.193 72.713C117.216 79.1451 113.591 79.3338 112.021 81.0885Z" fill="#BFC8D6"/>
<path d="M98.7068 61.5517C100.299 59.1518 102.794 59.8312 102.036 62.6209C100.794 67.1041 98.081 69.2308 98.4271 85.8674C98.4616 88.8065 88.728 82.5433 87.9781 72.169C87.8046 70.2278 89.995 69.5542 89.995 69.5542C91.3092 69.1501 96.2016 65.3701 98.7068 61.5517Z" fill="#BFC8D6"/>
<path d="M135.034 88.9181C135.378 90.9513 135.171 92.9678 134.526 94.7051C133.61 95.3131 132.604 95.849 131.598 96.3849C128.476 97.8393 125.118 98.8241 121.685 98.9051C118.803 99.0029 115.608 98.6403 112.701 97.6623C111.323 96.0025 110.455 94.1153 110.083 91.9195C108.953 85.2508 113.649 79.2092 120.558 78.378C127.391 77.5561 133.904 82.2494 135.034 88.9181Z" fill="#BFC8D6"/>
<path d="M108.425 80.6218C110.911 80.3229 112.564 77.9465 112.118 75.3141C111.672 72.6816 109.296 70.7899 106.81 71.0889C104.325 71.3878 102.672 73.7642 103.117 76.3966C103.563 79.0291 105.94 80.9208 108.425 80.6218Z" fill="white"/>
<path d="M111.745 75.827C112.087 77.8467 110.772 79.7359 108.865 79.9652C106.958 80.1946 105.069 78.6907 104.727 76.671C105.087 76.9575 105.509 77.154 105.967 77.0989C106.806 76.998 107.446 76.1792 107.282 75.2098C107.131 74.3211 106.321 73.6766 105.469 73.6967C105.983 73.0578 106.767 72.6338 107.606 72.5328C109.59 72.2943 111.389 73.7266 111.745 75.827Z" fill="#2E333D"/>
<path d="M134.246 76.9363C136.732 76.6374 138.385 74.261 137.939 71.6285C137.493 68.9961 135.117 67.1044 132.632 67.4033C130.146 67.7023 128.493 70.0786 128.939 72.7111C129.385 75.3435 131.761 77.2352 134.246 76.9363Z" fill="white"/>
<path d="M129.447 73.1427C129.789 75.1624 131.678 76.6662 133.585 76.4369C135.492 76.2076 136.806 74.3184 136.464 72.2987C136.214 72.6586 135.874 72.9468 135.416 73.0018C134.577 73.1027 133.691 72.4674 133.527 71.498C133.376 70.6093 133.94 69.7997 134.765 69.618C134.059 69.1258 133.165 68.9036 132.326 69.0045C130.419 69.2339 129.091 71.0422 129.447 73.1427Z" fill="#2E333D"/>
<path d="M120.916 79.4007C120.298 79.4752 119.694 79.6318 119.104 79.8704C118.374 80.2098 117.285 80.7598 117.465 81.8264C117.686 83.1392 120.828 84.0159 121.6 83.9227C122.373 83.8296 125.113 82.3268 124.877 80.932C124.656 79.6192 123.428 79.3487 122.397 79.3057C121.92 79.2796 121.365 79.2627 120.916 79.4007Z" fill="#989FB0"/>
<path d="M121.737 83.5387L121.449 83.1676L121.294 83.5929C121.294 83.5929 121.536 86.4076 121.091 87.356C121.553 87.8683 121.922 87.8231 122.057 87.7253C122.292 87.7779 122.661 87.7326 122.864 87.139C122.288 86.3968 121.737 83.5387 121.737 83.5387Z" fill="#989FB0"/>
<path d="M105.595 65.9319C104.579 66.385 103.715 66.8197 103.059 67.5602C102.404 68.3007 101.956 69.3471 101.828 70.4376C101.842 70.5187 101.766 70.5279 101.689 70.5371C101.612 70.5463 101.599 70.4652 101.599 70.4652C101.503 69.8978 101.622 69.2218 101.77 68.7078C101.903 68.1128 102.204 67.5804 102.594 67.1199C102.985 66.6594 103.389 66.2799 103.884 65.9723C104.392 65.7458 104.991 65.5911 105.554 65.6888C105.645 65.7606 105.735 65.8325 105.595 65.9319C105.672 65.9227 105.672 65.9227 105.595 65.9319Z" fill="#989FB0"/>
<path d="M132.414 62.0011C133.541 62.1964 134.514 62.4102 135.389 62.9665C136.265 63.5229 137.042 64.4218 137.526 65.4386C137.54 65.5197 137.617 65.5105 137.693 65.5013C137.77 65.4921 137.756 65.411 137.756 65.411C137.66 64.8437 137.321 64.2229 137.009 63.7642C136.683 63.2245 136.218 62.7843 135.69 62.4342C135.162 62.0842 134.648 61.8153 134.071 61.6365C133.508 61.5389 132.881 61.5314 132.373 61.758C132.31 61.8482 132.324 61.9293 132.414 62.0011C132.414 62.0011 132.338 62.0103 132.414 62.0011Z" fill="#989FB0"/>
<path d="M136.793 55.1171C134.472 53.1903 132.3 54.4339 133.95 56.9324C136.623 60.9425 139.93 62.3413 145.093 78.3956C146.031 81.2255 153.307 72.906 150.6 62.7683C150.126 60.8635 147.8 60.7358 147.8 60.7358C146.405 60.6592 140.459 58.1894 136.793 55.1171Z" fill="#BFC8D6"/>
<path fill-rule="evenodd" clip-rule="evenodd" d="M117.849 95.6024C118.033 93.2155 120 91.3579 122.306 91.3579H124.373C126.862 91.3579 128.906 93.3765 128.906 95.8112V106.626C128.906 107.505 129.618 108.217 130.496 108.217C131.375 108.217 132.087 107.505 132.087 106.626V95.8112C132.087 91.5659 128.564 88.177 124.373 88.177H122.306C118.252 88.177 114.974 91.4039 114.676 95.3741L114.674 95.3947C114.561 97.2221 114.457 99.5198 114.336 102.18C113.854 112.748 113.113 129.035 110.539 144.274C108.928 153.81 106.618 162.805 103.27 169.653C99.9041 176.537 95.6678 180.904 90.3675 181.881L90.3642 181.881C63.7888 186.835 41.6176 182.4 27.5425 173.893C26.5865 173.312 26.0993 172.875 25.8825 172.597C25.9743 172.522 26.1251 172.417 26.366 172.287C26.8926 172.005 27.6523 171.715 28.6487 171.422C30.6372 170.839 33.2872 170.323 36.2718 169.785C36.954 169.663 37.6527 169.539 38.3619 169.413C40.7145 168.997 43.1835 168.56 45.553 168.068C46.288 167.931 46.9022 167.529 47.2948 166.94C47.6746 166.371 47.79 165.714 47.7233 165.125C47.5901 163.949 46.6413 162.69 45.0097 162.69H1.59045C0.712069 162.69 0 163.402 0 164.28C0 165.158 0.712069 165.87 1.59045 165.87H40.1134C39.3521 166.008 38.5922 166.142 37.8386 166.276C37.1214 166.403 36.41 166.529 35.7085 166.655C32.7413 167.189 29.9291 167.731 27.7527 168.37C26.6665 168.689 25.6681 169.052 24.8617 169.484C24.1023 169.892 23.2575 170.495 22.848 171.422C22.3638 172.518 22.6702 173.594 23.2865 174.437C23.8571 175.218 24.7684 175.93 25.8938 176.613L25.8969 176.615C40.7677 185.603 63.7645 190.075 90.9454 185.009C97.7317 183.758 102.6 178.265 106.128 171.05C109.673 163.797 112.045 154.452 113.675 144.803C116.286 129.344 117.04 112.77 117.519 102.221C117.638 99.6093 117.739 97.367 117.849 95.6024Z" fill="#B9C2D2"/>
<path d="M130.85 91.3363C131.763 95.2062 128.613 97.0931 124.356 98.0972C120.099 99.1014 116.438 98.8211 115.525 94.9512C114.612 91.0813 117.287 87.182 121.544 86.1779C125.801 85.1738 129.937 87.4664 130.85 91.3363Z" fill="#989FB0"/>
<path d="M126.759 126.825C125.964 126.825 125.328 126.189 125.328 125.394V119.827C125.328 119.032 125.964 118.396 126.759 118.396C127.554 118.396 128.19 119.032 128.19 119.827V125.394C128.19 126.268 127.554 126.825 126.759 126.825Z" fill="#DDE4F1"/>
<path d="M134.155 126.825C133.359 126.825 132.723 126.188 132.723 125.393V119.827C132.723 119.031 133.359 118.395 134.155 118.395C134.95 118.395 135.586 119.031 135.586 119.827V125.393C135.586 126.268 134.95 126.825 134.155 126.825Z" fill="#DDE4F1"/>
<path d="M137.892 119.906H123.26V118.236C123.26 114.181 126.52 107.183 130.576 107.183C134.631 107.183 137.892 114.181 137.892 118.236V119.906V119.906Z" fill="#DDE4F1"/>
<path d="M199.681 122.689H169.542C168.27 122.689 167.315 121.656 167.315 120.463V88.3358C167.315 87.0634 168.349 86.1091 169.542 86.1091H199.681C200.953 86.1091 201.908 87.1429 201.908 88.3358V120.463C201.987 121.656 200.953 122.689 199.681 122.689Z" fill="#2A2E37"/>
<path d="M195.944 103.763C195.944 107.501 194.115 110.92 191.331 112.988H177.733C174.95 110.92 173.121 107.58 173.121 103.763C173.121 100.026 174.95 96.6062 177.733 94.5386H191.331C194.115 96.6857 195.944 100.026 195.944 103.763Z" fill="#5C6479"/>
<path d="M180.277 104.399C179.721 104.399 179.244 103.922 179.244 103.366V99.9461C179.244 99.3895 179.721 98.9124 180.277 98.9124C180.834 98.9124 181.311 99.3895 181.311 99.9461V103.366C181.311 103.922 180.834 104.399 180.277 104.399Z" fill="#2A2E37"/>
<path d="M188.628 104.399C188.071 104.399 187.594 103.922 187.594 103.366V99.9461C187.594 99.3895 188.071 98.9124 188.628 98.9124C189.184 98.9124 189.661 99.3895 189.661 99.9461V103.366C189.661 103.922 189.184 104.399 188.628 104.399Z" fill="#2A2E37"/>
<path d="M185.447 109.33H183.379C182.902 109.33 182.425 108.932 182.425 108.375V107.342C182.425 106.228 183.3 105.354 184.413 105.354C185.526 105.354 186.401 106.228 186.401 107.342V108.375C186.401 108.853 186.003 109.33 185.447 109.33Z" fill="#2A2E37"/>
<path d="M170.973 90.9601C171.72 90.9601 172.325 90.3549 172.325 89.6082C172.325 88.8616 171.72 88.2563 170.973 88.2563C170.227 88.2563 169.622 88.8616 169.622 89.6082C169.622 90.3549 170.227 90.9601 170.973 90.9601Z" fill="#5C6479"/>
<path d="M198.409 90.9601C199.155 90.9601 199.76 90.3549 199.76 89.6082C199.76 88.8616 199.155 88.2563 198.409 88.2563C197.662 88.2563 197.057 88.8616 197.057 89.6082C197.057 90.3549 197.662 90.9601 198.409 90.9601Z" fill="#5C6479"/>
<path d="M170.973 120.622C171.72 120.622 172.325 120.017 172.325 119.27C172.325 118.523 171.72 117.918 170.973 117.918C170.227 117.918 169.622 118.523 169.622 119.27C169.622 120.017 170.227 120.622 170.973 120.622Z" fill="#5C6479"/>
<path d="M198.409 120.622C199.155 120.622 199.76 120.017 199.76 119.27C199.76 118.523 199.155 117.918 198.409 117.918C197.662 117.918 197.057 118.523 197.057 119.27C197.057 120.017 197.662 120.622 198.409 120.622Z" fill="#5C6479"/>
<path d="M107.841 0.710449L112.717 2.49175L113.981 34.371L111.332 33.2653L107.841 0.710449Z" fill="#B8BFCD"/>
<path d="M111.573 36.8894L113.981 38.0565V41.1891L111.573 40.2063V36.8894Z" fill="#B8BFCD"/>
<path d="M118.074 16.7424L122.95 18.3395V38.8552L120.241 37.7495L118.074 16.7424Z" fill="#B8BFCD"/>
<path d="M120.482 41.189L122.95 42.2946V45.243L120.482 44.3216V41.189Z" fill="#B8BFCD"/>
</svg>
