<svg width="128" height="136" viewBox="0 0 128 136" fill="none" xmlns="http://www.w3.org/2000/svg">
<path d="M70.3001 110.058C98.3001 110.058 121 87.3581 121 59.2581C121 31.1581 98.2001 8.45813 70.3001 8.45813C42.3001 8.45813 19.6001 31.1581 19.6001 59.2581C19.6001 87.3581 42.3001 110.058 70.3001 110.058Z" fill="#2A2E37"/>
<path d="M117.7 25.9582C119.964 25.9582 121.8 24.1225 121.8 21.8582C121.8 19.5938 119.964 17.7582 117.7 17.7582C115.436 17.7582 113.6 19.5938 113.6 21.8582C113.6 24.1225 115.436 25.9582 117.7 25.9582Z" fill="#2A2E37"/>
<path d="M123.7 9.95815C125.246 9.95815 126.5 8.70455 126.5 7.15815C126.5 5.61176 125.246 4.35815 123.7 4.35815C122.154 4.35815 120.9 5.61176 120.9 7.15815C120.9 8.70455 122.154 9.95815 123.7 9.95815Z" fill="#2A2E37"/>
<path d="M22.3 25.8582C23.8464 25.8582 25.1 24.6046 25.1 23.0582C25.1 21.5118 23.8464 20.2582 22.3 20.2582C20.7536 20.2582 19.5 21.5118 19.5 23.0582C19.5 24.6046 20.7536 25.8582 22.3 25.8582Z" fill="#2A2E37"/>
<path d="M5.2 79.8581C8.07188 79.8581 10.4 77.53 10.4 74.6581C10.4 71.7863 8.07188 69.4581 5.2 69.4581C2.32812 69.4581 0 71.7863 0 74.6581C0 77.53 2.32812 79.8581 5.2 79.8581Z" fill="#2A2E37"/>
<g filter="url(#filter0_d)">
<path d="M104.8 33.8581L105.6 98.2581C105.6 100.458 103.8 102.158 101.6 102.158H38.7998C36.5998 102.158 34.7998 100.358 34.7998 98.2581V15.4581C34.7998 13.2581 36.5998 11.5581 38.7998 11.5581H84.2998L104.8 33.8581Z" fill="url(#paint0_linear)"/>
</g>
<path d="M84.2998 11.5581V29.3581C84.2998 31.8581 86.4998 33.8581 88.9998 33.8581H104.8" fill="#3A4050"/>
<g clip-path="url(#clip0)">
<path d="M69.892 11.8721H66.0498V14.5131H69.892V11.8721Z" fill="#A9AFC3"/>
<path d="M73.7714 14.5132H69.9292V17.1542H73.7714V14.5132Z" fill="#A9AFC3"/>
<path d="M69.892 17.1171H66.0498V19.7581H69.892V17.1171Z" fill="#A9AFC3"/>
<path d="M73.7714 19.7581H69.9292V22.3991H73.7714V19.7581Z" fill="#A9AFC3"/>
<path d="M69.892 22.399H66.0498V25.0401H69.892V22.399Z" fill="#A9AFC3"/>
<path d="M73.7714 25.0402H69.9292V27.6812H73.7714V25.0402Z" fill="#A9AFC3"/>
<path d="M69.892 27.644H66.0498V30.2851H69.892V27.644Z" fill="#A9AFC3"/>
<path d="M73.7714 30.2852H69.9292V32.9262H73.7714V30.2852Z" fill="#A9AFC3"/>
<path d="M69.892 32.9261H66.0498V35.5672H69.892V32.9261Z" fill="#A9AFC3"/>
<path d="M73.7714 35.5673H69.9292V38.2083H73.7714V35.5673Z" fill="#A9AFC3"/>
<path d="M69.892 38.1711H66.0498V40.8122H69.892V38.1711Z" fill="#A9AFC3"/>
<path d="M73.7714 40.8121H69.9292V43.4532H73.7714V40.8121Z" fill="#A9AFC3"/>
<path d="M69.892 43.4532H66.0498V46.0943H69.892V43.4532Z" fill="#A9AFC3"/>
<path d="M73.7714 46.0571H69.9292V48.6982H73.7714V46.0571Z" fill="#A9AFC3"/>
<path d="M69.892 48.6981H66.0498V51.3392H69.892V48.6981Z" fill="#A9AFC3"/>
<path d="M73.7714 51.3392H69.9292V53.9803H73.7714V51.3392Z" fill="#A9AFC3"/>
<path d="M66.0498 53.9803V66.3301H73.7715V53.9803H66.0498ZM72.6151 65.177H67.2062V61.6059H72.6151V65.177Z" fill="#A9AFC3"/>
<path d="M56.9854 85.2924L60.0069 81.4982C60.5664 80.8658 60.9767 80.3822 61.5363 79.787V79.7499H57.3211V77.4064H65.192V79.1919L62.3196 82.8001C61.7974 83.4325 61.3125 84.0276 60.7529 84.5484V84.5856H65.3785V86.9663H56.9854V85.2924Z" fill="#A9AFC3"/>
<path d="M70.7875 74.7281C70.7875 75.5465 70.1534 76.216 69.1835 76.216C68.2509 76.216 67.6168 75.5465 67.6168 74.7281C67.5795 73.8726 68.2136 73.203 69.1835 73.203C70.1534 73.2402 70.7875 73.8726 70.7875 74.7281ZM67.7287 86.9663V77.4064H70.7129V86.9663H67.7287Z" fill="#A9AFC3"/>
<path d="M73.1 80.6054C73.1 79.3407 73.0627 78.262 73.0254 77.4064H75.5993L75.7485 78.7455H75.7858C76.4945 77.7412 77.5763 77.1832 78.9938 77.1832C81.0828 77.1832 82.9852 79.0059 82.9852 82.0562C82.9852 85.5528 80.7844 87.1895 78.6208 87.1895C77.4644 87.1895 76.5691 86.7059 76.1215 86.1108H76.0842V90.8721H73.1V80.6054V80.6054ZM76.0842 82.8745C76.0842 83.0977 76.1215 83.3209 76.1588 83.5069C76.3453 84.3253 77.0541 84.9204 77.912 84.9204C79.2176 84.9204 79.9637 83.8417 79.9637 82.205C79.9637 80.6798 79.2922 79.5267 77.9494 79.5267C77.0914 79.5267 76.3453 80.1591 76.1588 81.0518C76.1215 81.2006 76.0842 81.3866 76.0842 81.5726V82.8745V82.8745Z" fill="#A9AFC3"/>
</g>
<defs>
<filter id="filter0_d" x="12.7998" y="0.558105" width="114.8" height="134.6" filterUnits="userSpaceOnUse" color-interpolation-filters="sRGB">
<feFlood flood-opacity="0" result="BackgroundImageFix"/>
<feColorMatrix in="SourceAlpha" type="matrix" values="0 0 0 0 0 0 0 0 0 0 0 0 0 0 0 0 0 0 127 0" result="hardAlpha"/>
<feOffset dy="11"/>
<feGaussianBlur stdDeviation="11"/>
<feColorMatrix type="matrix" values="0 0 0 0 0 0 0 0 0 0 0 0 0 0 0 0 0 0 0.27 0"/>
<feBlend mode="normal" in2="BackgroundImageFix" result="effect1_dropShadow"/>
<feBlend mode="normal" in="SourceGraphic" in2="effect1_dropShadow" result="shape"/>
</filter>
<linearGradient id="paint0_linear" x1="70.1767" y1="9.46244" x2="70.1767" y2="103.135" gradientUnits="userSpaceOnUse">
<stop stop-color="#5C6479"/>
<stop offset="0.9964" stop-color="#5C6479"/>
</linearGradient>
<clipPath id="clip0">
<rect width="26" height="77" fill="white" transform="translate(56.9854 11.8721)"/>
</clipPath>
</defs>
</svg>
