<svg width="397" height="218" viewBox="0 0 397 218" fill="none" xmlns="http://www.w3.org/2000/svg">
<path d="M101.527 165.037C144.053 165.037 178.527 130.563 178.527 88.0366C178.527 45.5107 144.053 11.0366 101.527 11.0366C59.0014 11.0366 24.5273 45.5107 24.5273 88.0366C24.5273 130.563 59.0014 165.037 101.527 165.037Z" fill="#2A2E37"/>
<path d="M382.927 172.537H17.4272L74.3272 96.1366L98.7272 63.7366L120.027 86.8366L124.127 91.2366L169.927 27.8366L189.527 0.736572L204.827 23.0366L256.927 98.9366L277.927 74.9366L288.627 62.6366L297.727 73.5366L382.927 172.537Z" fill="#5C6479"/>
<path d="M98.7272 63.7366L97.7272 172.537H17.4272L74.3272 96.1366L98.7272 63.7366Z" fill="#474E61"/>
<path d="M189.527 0.736572L186.227 161.137L124.127 91.2366L189.527 0.736572Z" fill="#474E61"/>
<path d="M290.527 156.837L256.927 98.9366L288.627 62.6366L290.527 156.837Z" fill="#474E61"/>
<path d="M2.02734 172.537H97.7273H382.927H394.627" stroke="#3D4550" stroke-width="3" stroke-miterlimit="10" stroke-linecap="round" stroke-linejoin="round"/>
<path d="M208.427 188.737H233.827" stroke="#3D4550" stroke-width="3" stroke-miterlimit="10" stroke-linecap="round" stroke-linejoin="round"/>
<path d="M278.427 188.737H303.827" stroke="#3D4550" stroke-width="3" stroke-miterlimit="10" stroke-linecap="round" stroke-linejoin="round"/>
<path d="M262.927 188.737H268.327" stroke="#3D4550" stroke-width="3" stroke-miterlimit="10" stroke-linecap="round" stroke-linejoin="round"/>
<path d="M94.2275 188.737H185.228" stroke="#3D4550" stroke-width="3" stroke-miterlimit="10" stroke-linecap="round" stroke-linejoin="round"/>
<path d="M55.8271 188.737H67.3272" stroke="#3D4550" stroke-width="3" stroke-miterlimit="10" stroke-linecap="round" stroke-linejoin="round"/>
<path d="M348.127 188.737H380.127" stroke="#3D4550" stroke-width="3" stroke-miterlimit="10" stroke-linecap="round" stroke-linejoin="round"/>
<path d="M7.32715 188.737H38.4272" stroke="#3D4550" stroke-width="3" stroke-miterlimit="10" stroke-linecap="round" stroke-linejoin="round"/>
<path d="M32.1274 202.237H132.627" stroke="#3D4550" stroke-width="3" stroke-miterlimit="10" stroke-linecap="round" stroke-linejoin="round"/>
<path d="M192.027 202.237H262.927" stroke="#3D4550" stroke-width="3" stroke-miterlimit="10" stroke-linecap="round" stroke-linejoin="round"/>
<path d="M299.427 202.237H370.327" stroke="#3D4550" stroke-width="3" stroke-miterlimit="10" stroke-linecap="round" stroke-linejoin="round"/>
<path d="M162.427 202.237H177.927" stroke="#3D4550" stroke-width="3" stroke-miterlimit="10" stroke-linecap="round" stroke-linejoin="round"/>
<path d="M241.027 215.637H326.827" stroke="#3D4550" stroke-width="3" stroke-miterlimit="10" stroke-linecap="round" stroke-linejoin="round"/>
<path d="M151.827 215.637H208.427" stroke="#3D4550" stroke-width="3" stroke-miterlimit="10" stroke-linecap="round" stroke-linejoin="round"/>
<path d="M115.827 215.637H132.627" stroke="#3D4550" stroke-width="3" stroke-miterlimit="10" stroke-linecap="round" stroke-linejoin="round"/>
<path d="M53.1274 215.637H90.2274" stroke="#3D4550" stroke-width="3" stroke-miterlimit="10" stroke-linecap="round" stroke-linejoin="round"/>
<path d="M135.527 146.637C135.527 152.937 130.427 155.737 124.227 155.737C118.027 155.737 112.927 152.937 112.927 146.637C112.927 140.337 124.227 101.437 124.227 101.437C124.227 101.437 135.527 140.437 135.527 146.637Z" fill="#B5BECF"/>
<path d="M124.127 135.636V171.336" stroke="#7D87A0" stroke-width="2" stroke-miterlimit="10" stroke-linecap="round" stroke-linejoin="round"/>
<path d="M124.127 141.836L128.227 138.136" stroke="#7D87A0" stroke-width="2" stroke-miterlimit="10" stroke-linecap="round" stroke-linejoin="round"/>
<path d="M124.127 150.337L118.227 143.337" stroke="#7D87A0" stroke-width="2" stroke-miterlimit="10" stroke-linecap="round" stroke-linejoin="round"/>
<path d="M237.127 143.837C237.127 150.837 231.427 153.937 224.527 153.937C217.527 153.937 211.927 150.837 211.927 143.837C211.927 136.837 224.527 93.5366 224.527 93.5366C224.527 93.5366 237.127 136.937 237.127 143.837Z" fill="#B5BECF"/>
<path d="M224.527 131.537V171.337" stroke="#7D87A0" stroke-width="2" stroke-miterlimit="10" stroke-linecap="round" stroke-linejoin="round"/>
<path d="M224.527 138.537L229.027 134.337" stroke="#7D87A0" stroke-width="2" stroke-miterlimit="10" stroke-linecap="round" stroke-linejoin="round"/>
<path d="M224.527 148.037L217.927 140.137" stroke="#7D87A0" stroke-width="2" stroke-miterlimit="10" stroke-linecap="round" stroke-linejoin="round"/>
<path d="M278.128 154.537C278.128 158.837 274.628 160.737 270.428 160.737C266.128 160.737 262.728 158.837 262.728 154.537C262.728 150.237 270.428 123.737 270.428 123.737C270.428 123.737 278.128 150.237 278.128 154.537Z" fill="#B5BECF"/>
<path d="M270.328 147.037V171.337" stroke="#7D87A0" stroke-width="2" stroke-miterlimit="10" stroke-linecap="round" stroke-linejoin="round"/>
<path d="M270.328 151.237L273.128 148.737" stroke="#7D87A0" stroke-width="2" stroke-miterlimit="10" stroke-linecap="round" stroke-linejoin="round"/>
<path d="M270.328 157.037L266.328 152.237" stroke="#7D87A0" stroke-width="2" stroke-miterlimit="10" stroke-linecap="round" stroke-linejoin="round"/>
<path d="M319.427 149.737C319.427 155.237 315.027 157.637 309.527 157.637C304.027 157.637 299.627 155.237 299.627 149.737C299.627 144.237 309.527 110.137 309.527 110.137C309.527 110.137 319.427 144.237 319.427 149.737Z" fill="#B5BECF"/>
<path d="M309.527 140.037V171.337" stroke="#7D87A0" stroke-width="2" stroke-miterlimit="10" stroke-linecap="round" stroke-linejoin="round"/>
<path d="M309.527 145.437L313.027 142.237" stroke="#7D87A0" stroke-width="2" stroke-miterlimit="10" stroke-linecap="round" stroke-linejoin="round"/>
<path d="M309.527 152.937L304.327 146.737" stroke="#7D87A0" stroke-width="2" stroke-miterlimit="10" stroke-linecap="round" stroke-linejoin="round"/>
<path opacity="0.8" d="M125.027 91.8366L107.827 93.3366L99.8271 101.537L90.2271 99.8366L74.3271 109.737L69.3271 103.237L99.0271 63.7366L125.027 91.8366Z" fill="#A9AFC3"/>
<path opacity="0.6" d="M212.627 34.3366L204.527 32.5366L196.227 36.4366L189.527 34.7366L183.127 46.1366L173.127 41.4366L161.927 46.1366L160.027 41.7366L189.527 0.736572L212.627 34.3366Z" fill="#A9AFC3"/>
<path opacity="0.6" d="M303.028 79.3366L294.628 85.9366L286.828 81.6366L275.828 88.0366L272.728 81.3366L289.028 62.6366L303.028 79.3366Z" fill="#A9AFC3"/>
<path d="M91.1275 34.1367C92.7275 33.7367 94.2275 33.6367 95.8275 33.6367C97.3275 33.6367 98.9275 33.7367 100.428 33.9367C101.928 34.1367 103.528 34.5367 105.028 35.2367C106.528 35.9367 108.028 36.9367 108.928 38.6367L107.228 38.2367L109.028 36.8367C109.728 36.4367 110.328 35.9367 110.928 35.5367C112.228 34.7367 113.628 34.0367 115.128 33.5367C116.628 33.0367 118.128 32.6367 119.628 32.4367C121.228 32.3367 122.728 32.3367 124.328 32.7367C124.628 32.8367 124.728 33.1367 124.628 33.3367C124.528 33.6367 124.328 33.7367 124.028 33.6367H123.928C122.628 33.3367 121.128 33.4367 119.728 33.6367C118.328 33.8367 116.928 34.3367 115.628 34.9367C114.328 35.5367 113.128 36.2367 111.928 37.0367C111.328 37.4367 110.728 37.9367 110.228 38.3367L108.628 39.7367C108.128 40.1367 107.528 40.0367 107.128 39.6367L107.028 39.7367L106.928 39.5367C106.528 38.4367 105.428 37.5367 104.228 36.9367C103.028 36.3367 101.628 35.8367 100.128 35.5367C98.7275 35.2367 97.2275 35.0367 95.7275 34.9367C94.2275 34.8367 92.7275 34.8367 91.4275 35.1367H91.3275C91.0275 35.2367 90.8275 35.0367 90.7275 34.7367C90.7275 34.4367 90.8275 34.1367 91.1275 34.1367Z" fill="#5C6479"/>
<path d="M46.7271 61.5366C48.3271 61.1366 49.8272 61.0366 51.4272 61.0366C52.9272 61.0366 54.5271 61.1366 56.0271 61.3366C57.5271 61.5366 59.1271 61.9366 60.6271 62.6366C62.1271 63.3366 63.6271 64.3366 64.5271 66.0366L62.8271 65.6366L64.6271 64.2366C65.3271 63.8366 65.9271 63.3366 66.5271 62.9366C67.8271 62.1366 69.2271 61.4366 70.7271 60.9366C72.2271 60.4366 73.7271 60.0366 75.2271 59.8366C76.8271 59.7366 78.3272 59.7366 79.9272 60.1366C80.2272 60.2366 80.3271 60.5366 80.2271 60.7366C80.1271 61.0366 79.9271 61.1366 79.6271 61.0366H79.5271C78.2271 60.7366 76.7272 60.8366 75.3272 61.0366C73.9272 61.2366 72.5271 61.7366 71.2271 62.3366C69.9271 62.9366 68.7271 63.6366 67.5271 64.4366C66.9271 64.8366 66.3272 65.3366 65.8272 65.7366L64.2271 67.1366C63.7271 67.5366 63.1271 67.4366 62.7271 67.0366L62.6271 66.9366L62.5271 66.7366C62.1271 65.6366 61.0271 64.7366 59.8271 64.1366C58.6271 63.5366 57.2271 63.0366 55.7271 62.7366C54.3271 62.4366 52.8271 62.2366 51.3271 62.1366C49.8271 62.0366 48.3271 62.0366 47.0271 62.3366H46.9272C46.6272 62.4366 46.4271 62.2366 46.3271 61.9366C46.3271 61.8366 46.5271 61.5366 46.7271 61.5366Z" fill="#5C6479"/>
<path d="M101.927 57.6367C103.527 57.2367 105.027 57.1367 106.627 57.1367C108.127 57.1367 109.727 57.2367 111.227 57.4367C112.727 57.6367 114.327 58.0367 115.827 58.7367C117.327 59.4367 118.827 60.4367 119.727 62.1367L118.027 61.7367L119.827 60.3367C120.527 59.9367 121.127 59.4367 121.727 59.0367C123.027 58.2367 124.427 57.5367 125.927 57.0367C127.427 56.5367 128.927 56.1367 130.427 55.9367C132.027 55.8367 133.527 55.8367 135.127 56.2367C135.427 56.3367 135.527 56.6367 135.427 56.8367C135.327 57.1367 135.127 57.2367 134.827 57.1367H134.727C133.427 56.8367 131.927 56.9367 130.527 57.1367C129.127 57.3367 127.727 57.8367 126.427 58.4367C125.127 59.0367 123.927 59.7367 122.727 60.5367C122.127 60.9367 121.527 61.4367 121.027 61.8367L119.427 63.2367C118.927 63.6367 118.327 63.5367 117.927 63.1367L117.827 63.0367L117.727 62.8367C117.327 61.7367 116.227 60.8367 115.027 60.2367C113.827 59.6367 112.427 59.1367 110.927 58.8367C109.527 58.5367 108.027 58.3367 106.527 58.2367C105.027 58.1367 103.527 58.1367 102.227 58.4367H102.127C101.827 58.5367 101.627 58.3367 101.527 58.0367C101.527 57.9367 101.627 57.6367 101.927 57.6367Z" fill="#5C6479"/>
<g filter="url(#filter0_d)">
<path d="M262.727 59.0041C262.727 64.7591 258.073 69.4131 252.268 69.4131C252.168 69.4131 251.317 69.4131 245.062 69.4131C240.708 69.4131 233.752 69.4131 222.642 69.4131H217.338C210.382 69.5632 204.827 64.0084 204.827 57.3026C204.827 50.5468 210.432 44.942 217.488 45.2923C223.543 26.376 251.267 29.0283 253.619 48.5951C258.824 49.2457 262.727 53.6495 262.727 59.0041Z" fill="#5C6479"/>
</g>
<path d="M235.203 69.5132C245.462 69.5132 253.819 61.206 253.819 50.9472C253.819 40.6883 245.462 32.3812 235.203 32.3812C224.945 32.3812 216.587 40.6883 216.587 50.9472C216.587 61.206 224.895 69.5132 235.203 69.5132Z" fill="url(#paint0_linear)"/>
<path d="M252.268 69.4131C258.023 69.4131 262.727 64.7591 262.727 59.0041C262.727 53.2492 258.023 48.5952 252.268 48.5952C246.513 48.5952 241.809 53.2492 241.809 59.0041C241.809 64.7591 246.513 69.4131 252.268 69.4131Z" fill="url(#paint1_linear)" fill-opacity="0.37"/>
<g filter="url(#filter1_d)">
<path d="M171.871 77.3152C171.871 81.6532 168.363 85.1612 163.987 85.1612C163.912 85.1612 163.27 85.1612 158.555 85.1612C155.274 85.1612 150.03 85.1612 141.656 85.1612H137.658C132.415 85.2744 128.228 81.0873 128.228 76.0327C128.228 70.9404 132.452 66.7156 137.771 66.9796C142.335 52.721 163.233 54.7203 165.006 69.4692C168.929 69.9596 171.871 73.2791 171.871 77.3152Z" fill="#5C6479"/>
</g>
<path d="M151.124 85.2366C158.857 85.2366 165.156 78.9749 165.156 71.2421C165.156 63.5093 158.857 57.2476 151.124 57.2476C143.391 57.2476 137.092 63.5093 137.092 71.2421C137.092 78.9749 143.354 85.2366 151.124 85.2366Z" fill="url(#paint2_linear)"/>
<path d="M163.987 85.1612C168.325 85.1612 171.871 81.6531 171.871 77.3152C171.871 72.9772 168.325 69.4692 163.987 69.4692C159.649 69.4692 156.104 72.9772 156.104 77.3152C156.104 81.6531 159.649 85.1612 163.987 85.1612Z" fill="url(#paint3_linear)" fill-opacity="0.37"/>
<defs>
<filter id="filter0_d" x="191.827" y="30.4264" width="83.8999" height="62.9896" filterUnits="userSpaceOnUse" color-interpolation-filters="sRGB">
<feFlood flood-opacity="0" result="BackgroundImageFix"/>
<feColorMatrix in="SourceAlpha" type="matrix" values="0 0 0 0 0 0 0 0 0 0 0 0 0 0 0 0 0 0 127 0" result="hardAlpha"/>
<feOffset dy="11"/>
<feGaussianBlur stdDeviation="6.5"/>
<feColorMatrix type="matrix" values="0 0 0 0 0 0 0 0 0 0 0 0 0 0 0 0 0 0 0.22 0"/>
<feBlend mode="normal" in2="BackgroundImageFix" result="effect1_dropShadow"/>
<feBlend mode="normal" in="SourceGraphic" in2="effect1_dropShadow" result="shape"/>
</filter>
<filter id="filter1_d" x="115.228" y="55.2817" width="69.6436" height="53.8818" filterUnits="userSpaceOnUse" color-interpolation-filters="sRGB">
<feFlood flood-opacity="0" result="BackgroundImageFix"/>
<feColorMatrix in="SourceAlpha" type="matrix" values="0 0 0 0 0 0 0 0 0 0 0 0 0 0 0 0 0 0 127 0" result="hardAlpha"/>
<feOffset dy="11"/>
<feGaussianBlur stdDeviation="6.5"/>
<feColorMatrix type="matrix" values="0 0 0 0 0 0 0 0 0 0 0 0 0 0 0 0 0 0 0.22 0"/>
<feBlend mode="normal" in2="BackgroundImageFix" result="effect1_dropShadow"/>
<feBlend mode="normal" in="SourceGraphic" in2="effect1_dropShadow" result="shape"/>
</filter>
<linearGradient id="paint0_linear" x1="221.124" y1="40.0937" x2="227.358" y2="44.912" gradientUnits="userSpaceOnUse">
<stop stop-color="#80889D"/>
<stop offset="0.9942" stop-color="#5C6479"/>
</linearGradient>
<linearGradient id="paint1_linear" x1="240.673" y1="46.3868" x2="249.929" y2="56.5331" gradientUnits="userSpaceOnUse">
<stop stop-color="white"/>
<stop offset="0.9942" stop-color="white" stop-opacity="0"/>
</linearGradient>
<linearGradient id="paint2_linear" x1="140.512" y1="63.061" x2="145.211" y2="66.6929" gradientUnits="userSpaceOnUse">
<stop stop-color="#80889D"/>
<stop offset="0.9942" stop-color="#5C6479"/>
</linearGradient>
<linearGradient id="paint3_linear" x1="155.247" y1="67.8046" x2="162.224" y2="75.4526" gradientUnits="userSpaceOnUse">
<stop stop-color="white"/>
<stop offset="0.9942" stop-color="white" stop-opacity="0"/>
</linearGradient>
</defs>
</svg>
